<svg xmlns="http://www.w3.org/2000/svg" xml:space="preserve" viewBox="0 0 512 480">
  <style>
    .st0{fill:#cad0d7}.st1{fill:#e1e6e9}.st2{fill:#99a5ad}.st3{fill:#5a5b67}
  </style>
  <path id="XMLID_9_" d="M496 0H16C7.2 0 0 7.2 0 16v448c0 8.8 7.2 16 16 16h480c8.8 0 16-7.2 16-16V16c0-8.8-7.2-16-16-16zm0 456c0 4.4-3.6 8-8 8H24c-4.4 0-8-3.6-8-8V72c0-4.4 3.6-8 8-8h464c4.4 0 8 3.6 8 8v384z" class="st0"/>
  <path id="XMLID_4_" d="M490 40H118c-3.3 0-6-2.7-6-6v-4c0-3.3 2.7-6 6-6h372c3.3 0 6 2.7 6 6v4c0 3.3-2.7 6-6 6z" class="st1"/>
  <g id="XMLID_11_">
    <path id="XMLID_5_" d="M24 40c-4.4 0-8-3.6-8-8s3.6-8 8-8 8 3.6 8 8-3.6 8-8 8z" class="st2"/>
    <path id="XMLID_6_" d="M56 40c-4.4 0-8-3.6-8-8s3.6-8 8-8 8 3.6 8 8-3.6 8-8 8z" class="st2"/>
    <path id="XMLID_10_" d="M88 40c-4.4 0-8-3.6-8-8s3.6-8 8-8 8 3.6 8 8-3.6 8-8 8z" class="st2"/>
  </g>
  <g id="XMLID_600_">
    <path id="XMLID_605_" d="M344 128H136c-4.4 0-8-3.6-8-8s3.6-8 8-8h208c4.4 0 8 3.6 8 8s-3.6 8-8 8z" class="st0"/>
    <path id="XMLID_606_" d="M256 152c0-4.4-3.6-8-8-8H136c-4.4 0-8 3.6-8 8s3.6 8 8 8h112c4.4 0 8-3.6 8-8z" class="st0"/>
    <path id="XMLID_607_" d="M352 192c0-4.4-3.6-8-8-8H136c-4.4 0-8 3.6-8 8s3.6 8 8 8h208c4.4 0 8-3.6 8-8z" class="st0"/>
    <path id="XMLID_608_" d="M256 224c0-4.4-3.6-8-8-8H136c-4.4 0-8 3.6-8 8s3.6 8 8 8h112c4.4 0 8-3.6 8-8z" class="st0"/>
    <path id="XMLID_609_" d="M256 296c0-4.4-3.6-8-8-8H136c-4.4 0-8 3.6-8 8s3.6 8 8 8h112c4.4 0 8-3.6 8-8z" class="st0"/>
    <path id="XMLID_611_" d="M352 264c0-4.4-3.6-8-8-8H136c-4.4 0-8 3.6-8 8s3.6 8 8 8h208c4.4 0 8-3.6 8-8z" class="st0"/>
  </g>
  <g id="XMLID_601_">
    <path id="XMLID_615_" d="M91.2 112H52.8c-2.7 0-4.8 2.1-4.8 4.8v38.4c0 2.7 2.1 4.8 4.8 4.8h38.4c2.7 0 4.8-2.1 4.8-4.8v-38.4c0-2.7-2.1-4.8-4.8-4.8zm-9.6 24c0 5.3-4.3 9.6-9.6 9.6s-9.6-4.3-9.6-9.6 4.3-9.6 9.6-9.6 9.6 4.3 9.6 9.6z" class="st3"/>
    <path id="XMLID_618_" d="M91.2 184H52.8c-2.7 0-4.8 2.1-4.8 4.8v38.4c0 2.7 2.1 4.8 4.8 4.8h38.4c2.7 0 4.8-2.1 4.8-4.8v-38.4c0-2.7-2.1-4.8-4.8-4.8zm-9.6 24c0 5.3-4.3 9.6-9.6 9.6s-9.6-4.3-9.6-9.6 4.3-9.6 9.6-9.6 9.6 4.3 9.6 9.6z" class="st3"/>
    <path id="XMLID_621_" d="M91.2 256H52.8c-2.7 0-4.8 2.1-4.8 4.8v38.4c0 2.7 2.1 4.8 4.8 4.8h38.4c2.7 0 4.8-2.1 4.8-4.8v-38.4c0-2.7-2.1-4.8-4.8-4.8zm-9.6 24c0 5.3-4.3 9.6-9.6 9.6s-9.6-4.3-9.6-9.6 4.3-9.6 9.6-9.6 9.6 4.3 9.6 9.6z" class="st3"/>
  </g>
  <g id="XMLID_624_">
    <path id="XMLID_629_" d="M432 408H320c-13.3 0-24-10.7-24-24s10.7-24 24-24h112c13.3 0 24 10.7 24 24s-10.7 24-24 24z" class="st2"/>
    <g id="XMLID_625_">
      <path id="XMLID_628_" d="M344 392c-4.4 0-8-3.6-8-8s3.6-8 8-8 8 3.6 8 8-3.6 8-8 8z" class="st1"/>
      <path id="XMLID_627_" d="M376 392c-4.4 0-8-3.6-8-8s3.6-8 8-8 8 3.6 8 8-3.6 8-8 8z" class="st1"/>
      <path id="XMLID_626_" d="M408 392c-4.4 0-8-3.6-8-8s3.6-8 8-8 8 3.6 8 8-3.6 8-8 8z" class="st1"/>
    </g>
  </g>
  <g id="XMLID_630_">
    <path id="XMLID_632_" d="M224 408H56c-4.4 0-8-3.6-8-8v-32c0-4.4 3.6-8 8-8h168c4.4 0 8 3.6 8 8v32c0 4.4-3.6 8-8 8z" class="st0"/>
    <path id="XMLID_631_" d="M55 368h170v32H55z" class="st1"/>
  </g>
</svg>