<svg xmlns="http://www.w3.org/2000/svg" xml:space="preserve" id="Layer_1" x="0" y="0" version="1.1" viewBox="0 0 512 480">
  <style>
    .st0{fill:#cad0d7}.st1{fill:#e1e6e9}.st2{fill:#99a5ad}.st3{fill:#5a5b67}.st4{fill:#36373f}
  </style>
  <path d="M496 0H16C7.2 0 0 7.2 0 16v448c0 8.8 7.2 16 16 16h480c8.8 0 16-7.2 16-16V16c0-8.8-7.2-16-16-16zm0 456c0 4.4-3.6 8-8 8H24c-4.4 0-8-3.6-8-8V72c0-4.4 3.6-8 8-8h464c4.4 0 8 3.6 8 8v384z" class="st0"/>
  <path d="M490 40H118c-3.3 0-6-2.7-6-6v-4c0-3.3 2.7-6 6-6h372c3.3 0 6 2.7 6 6v4c0 3.3-2.7 6-6 6z" class="st1"/>
  <path d="M24 40c-4.4 0-8-3.6-8-8s3.6-8 8-8 8 3.6 8 8-3.6 8-8 8zm40-8c0-4.4-3.6-8-8-8s-8 3.6-8 8 3.6 8 8 8 8-3.6 8-8zm32 0c0-4.4-3.6-8-8-8s-8 3.6-8 8 3.6 8 8 8 8-3.6 8-8z" class="st2"/>
  <path d="M98.5 175.3 56 216.7V128c0-4.4 3.6-8 8-8h112c4.4 0 8 3.6 8 8v48.4l-18.4-18c-3.1-3.1-8.2-3.1-11.3 0l-31.7 31-12.7-14c-3.2-3.2-8.3-3.2-11.4-.1z" class="st0"/>
  <path d="M184 176.4V224c0 4.1-3.1 7.5-7.1 7.9L64 232c-4.4 0-8-3.6-8-8v-7.3l42.5-41.4c3.1-3.1 8.2-3.1 11.3 0l12.4 13.7h.7l31.3-30.7c3.1-3.1 8.2-3.1 11.3 0l18.5 18.1z" class="st3"/>
  <path d="M103.1 180.9c1.6 1.6 1.6 4.1 0 5.7l-11.3 11.3c-1.6 1.6-4.1 1.6-5.7 0s-1.6-4.1 0-5.7l11.3-11.3c1.6-1.6 4.2-1.6 5.7 0zm44.4-11-11.3 11.3c-1.6 1.6-1.6 4.1 0 5.7 1.6 1.6 4.1 1.6 5.7 0l11.3-11.3c1.6-1.6 1.6-4.1 0-5.7-1.6-1.6-4.2-1.6-5.7 0z" class="st1"/>
  <path d="M176.9 231.9c-.3 0-.6.1-.9.1h-16l-36.5-41.6-.5-.5.1-.1c4.5-.9 11.1-1.5 15 1.2 4.5 2.9 37.7 39.7 38.8 40.9z" class="st4"/>
  <path d="M96 152c-4.4 0-8-3.6-8-8s3.6-8 8-8 8 3.6 8 8-3.6 8-8 8z" class="st2"/>
  <path d="M370.5 343.3 328 384.7V296c0-4.4 3.6-8 8-8h112c4.4 0 8 3.6 8 8v48.4l-18.4-18c-3.1-3.1-8.2-3.1-11.3 0l-31.7 31-12.7-14c-3.2-3.2-8.3-3.2-11.4-.1z" class="st0"/>
  <path d="M456 344.4V392c0 4.1-3.1 7.4-7 7.9v.1H336c-4.4 0-8-3.6-8-8v-7.3l42.5-41.4c3.1-3.1 8.2-3.1 11.3 0l12.4 13.7h.7l31.3-30.7c3.1-3.1 8.2-3.1 11.3 0l18.5 18.1z" class="st3"/>
  <path d="M375.1 348.9c1.6 1.6 1.6 4.1 0 5.7l-11.3 11.3c-1.6 1.6-4.1 1.6-5.7 0s-1.6-4.1 0-5.7l11.3-11.3c1.6-1.6 4.2-1.6 5.7 0zm44.4-11-11.3 11.3c-1.6 1.6-1.6 4.1 0 5.7s4.1 1.6 5.7 0l11.3-11.3c1.6-1.6 1.6-4.1 0-5.7s-4.2-1.6-5.7 0z" class="st1"/>
  <path d="M448.9 399.9c-.3 0-.6.1-.9.1h-16l-36.5-41.6-.5-.5.1-.1c4.5-.9 11.1-1.5 15 1.2 4.5 2.9 37.7 39.7 38.8 40.9z" class="st4"/>
  <path d="M368 320c-4.4 0-8-3.6-8-8s3.6-8 8-8 8 3.6 8 8-3.6 8-8 8z" class="st2"/>
  <path d="M264 136h-40c-4.4 0-8-3.6-8-8s3.6-8 8-8h40c4.4 0 8 3.6 8 8s-3.6 8-8 8z" class="st3"/>
  <path d="M448 168H224c-4.4 0-8-3.6-8-8s3.6-8 8-8h224c4.4 0 8 3.6 8 8s-3.6 8-8 8zm-224 32h136c4.4 0 8-3.6 8-8s-3.6-8-8-8H224c-4.4 0-8 3.6-8 8s3.6 8 8 8zm184 24c0-4.4-3.6-8-8-8H224c-4.4 0-8 3.6-8 8s3.6 8 8 8h176c4.4 0 8-3.6 8-8z" class="st0"/>
  <path d="M104 304H64c-4.4 0-8-3.6-8-8s3.6-8 8-8h40c4.4 0 8 3.6 8 8s-3.6 8-8 8z" class="st3"/>
  <path d="M288 336H64c-4.4 0-8-3.6-8-8s3.6-8 8-8h224c4.4 0 8 3.6 8 8s-3.6 8-8 8zM64 368h136c4.4 0 8-3.6 8-8s-3.6-8-8-8H64c-4.4 0-8 3.6-8 8s3.6 8 8 8zm184 24c0-4.4-3.6-8-8-8H64c-4.4 0-8 3.6-8 8s3.6 8 8 8h176c4.4 0 8-3.6 8-8z" class="st0"/>
</svg>