<svg xmlns="http://www.w3.org/2000/svg" xml:space="preserve" id="Layer_1" x="0" y="0" version="1.1" viewBox="0 0 512 480">
  <style>
    .st0{fill:#cad0d7}.st1{fill:#e1e6e9}.st2{fill:#99a5ad}.st3{fill:#5a5b67}.st4{fill:#fff}
  </style>
  <path d="M496 0H16C7.2 0 0 7.2 0 16v448c0 8.8 7.2 16 16 16h480c8.8 0 16-7.2 16-16V16c0-8.8-7.2-16-16-16zm0 456c0 4.4-3.6 8-8 8H24c-4.4 0-8-3.6-8-8V72c0-4.4 3.6-8 8-8h464c4.4 0 8 3.6 8 8v384z" class="st0"/>
  <path d="M490 40H118c-3.3 0-6-2.7-6-6v-4c0-3.3 2.7-6 6-6h372c3.3 0 6 2.7 6 6v4c0 3.3-2.7 6-6 6z" class="st1"/>
  <path d="M24 40c-4.4 0-8-3.6-8-8s3.6-8 8-8 8 3.6 8 8-3.6 8-8 8zm40-8c0-4.4-3.6-8-8-8s-8 3.6-8 8 3.6 8 8 8 8-3.6 8-8zm32 0c0-4.4-3.6-8-8-8s-8 3.6-8 8 3.6 8 8 8 8-3.6 8-8z" class="st2"/>
  <path d="M384 392H128c-4.4 0-8-3.6-8-8v-24h272v24c0 4.4-3.6 8-8 8z" class="st1"/>
  <path d="M256 384c-4.4 0-8-3.6-8-8s3.6-8 8-8 8 3.6 8 8-3.6 8-8 8z" class="st2"/>
  <path d="M302.6 417.8 288 405v-13h-64v13l-14.6 12.8c-.9.8-1.4 1.9-1.4 3v5.2c0 3.3 2.7 6 6 6h84c3.3 0 6-2.7 6-6v-5.2c0-1.1-.5-2.2-1.4-3z" class="st0"/>
  <path d="M392 360H120V200c0-8.8 7.2-16 16-16h240c8.8 0 16 7.2 16 16v160z" class="st3"/>
  <path d="M376 352H136c-4.4 0-8-3.6-8-8V200c0-4.4 3.6-8 8-8h240c4.4 0 8 3.6 8 8v144c0 4.4-3.6 8-8 8z" class="st0"/>
  <path d="M180 248c-11 0-20-9-20-20s9-20 20-20 20 9 20 20-9 20-20 20z" class="st3"/>
  <path d="M339 305c7.3 10.3 17.3 14.5 21 31 1.3 5.6 2.6 11 3.3 16H376c4.4 0 8-3.6 8-8v-13.8l-33.6-33.3c-4.5-.9-11.5-1-11.4 8.1z" class="st2"/>
  <path d="M339 305c-.1-9.1 6.9-9 11.4-8.1l-44.7-44.2c-1.7-1.7-4.1-2.7-6.5-2.7h-.4c-2.4 0-4.8 1-6.5 2.7l-60.2 59.6.6.7c4.1-1.8 10.9-3.2 20.2 0 9.7 9.6 27.9 30.3 35.5 39h74.8c-.7-5-2-10.4-3.3-16-3.6-16.5-13.6-20.7-20.9-31z" class="st4"/>
  <path d="M253 313c-9.3-3.2-16.1-1.8-20.2 0l34.7 39h21c-7.6-8.7-25.8-29.4-35.5-39z" class="st2"/>
  <path d="m232.8 313-.6-.7-33.5-37.6c-1.7-1.7-4.1-2.7-6.5-2.7h-.4c-2.4 0-4.8 1-6.5 2.7L128 331.4V344c0 4.4 3.6 8 8 8h131.5l-34.7-39z" class="st4"/>
  <path d="M360 120H152c-4.4 0-8-3.6-8-8s3.6-8 8-8h208c4.4 0 8 3.6 8 8s-3.6 8-8 8zM320 152H192c-4.4 0-8-3.6-8-8s3.6-8 8-8h128c4.4 0 8 3.6 8 8s-3.6 8-8 8z" class="st0"/>
  <path d="M294 425h-76c-1.1 0-2-.9-2-2s.9-2 2-2h76c1.1 0 2 .9 2 2s-.9 2-2 2z" class="st1"/>
</svg>