<svg xmlns="http://www.w3.org/2000/svg" xml:space="preserve" id="Layer_1" x="0" y="0" version="1.1" viewBox="0 0 512 480">
  <style>
    .st1{fill:#e1e6e9}
  </style>
  <path fill="#cad0d7" d="M496 0H16C7.2 0 0 7.2 0 16v448c0 8.8 7.2 16 16 16h480c8.8 0 16-7.2 16-16V16c0-8.8-7.2-16-16-16zm0 456c0 4.4-3.6 8-8 8H24c-4.4 0-8-3.6-8-8V72c0-4.4 3.6-8 8-8h464c4.4 0 8 3.6 8 8v384z"/>
  <path d="M490 40H118c-3.3 0-6-2.7-6-6v-4c0-3.3 2.7-6 6-6h372c3.3 0 6 2.7 6 6v4c0 3.3-2.7 6-6 6z" class="st1"/>
  <path fill="#99a5ad" d="M24 40c-4.4 0-8-3.6-8-8s3.6-8 8-8 8 3.6 8 8-3.6 8-8 8zm40-8c0-4.4-3.6-8-8-8s-8 3.6-8 8 3.6 8 8 8 8-3.6 8-8zm32 0c0-4.4-3.6-8-8-8s-8 3.6-8 8 3.6 8 8 8 8-3.6 8-8z"/>
  <path d="M261 142.8v83.3c0 11.5-9.3 20.8-20.8 20.8H160v13.5c0 3-3.2 4.9-5.8 3.6L121 247h-4.2c-11.5 0-20.8-9.3-20.8-20.8v-83.3c0-11.5 9.3-20.8 20.8-20.8h123.3c11.6-.1 20.9 9.2 20.9 20.7z" class="st1"/>
  <path fill="#5a5b67" d="M416 186v158c0 8.8-6.8 16-15.6 16h-112l-42 27.9c-2.7 1.8-6.4-.1-6.4-3.3V360h-39.6c-8.8 0-16.4-7.2-16.4-16V186c0-8.8 7.5-16 16.4-16h200c8.8 0 15.6 7.2 15.6 16z"/>
  <path fill="#fff" d="M358.3 237.5v3.7c0 39.4-30.1 84.8-84.8 84.8-16.7 0-32.6-4.8-45.7-13.3 2.3.3 4.8.3 7.1.3 13.9 0 26.9-4.5 36.9-12.8-12.8 0-23.8-8.8-27.8-20.4 2 .3 3.7.3 5.7.3 2.8 0 5.4-.3 7.9-.9-13.6-2.8-23.8-14.8-23.8-29.2v-.6c4 2.3 8.5 3.7 13.3 3.7-7.9-5.1-13.3-14.2-13.3-24.7 0-5.4 1.7-10.5 4.3-15 14.5 18.2 36.6 30.1 61.3 31.2-.6-2.3-.9-4.5-.9-6.8 0-16.5 13.3-29.8 29.8-29.8 8.8 0 16.5 3.7 21.8 9.4 6.8-1.4 13.3-3.7 19-7.1-2.3 6.8-7.1 12.8-13 16.5 6-.9 11.6-2.3 17-4.8-4.1 5.9-9.2 11.2-14.8 15.5z"/>
</svg>