<svg xmlns="http://www.w3.org/2000/svg" xml:space="preserve" id="Layer_1" x="0" y="0" version="1.1" viewBox="0 0 512 480">
  <style>
    .st0{fill:#cad0d7}.st1{fill:#e1e6e9}.st2{fill:#99a5ad}.st4{fill:#36373f}
  </style>
  <path d="M496 0H16C7.2 0 0 7.2 0 16v448c0 8.8 7.2 16 16 16h480c8.8 0 16-7.2 16-16V16c0-8.8-7.2-16-16-16zm0 456c0 4.4-3.6 8-8 8H24c-4.4 0-8-3.6-8-8V72c0-4.4 3.6-8 8-8h464c4.4 0 8 3.6 8 8v384z" class="st0"/>
  <path d="M490 40H118c-3.3 0-6-2.7-6-6v-4c0-3.3 2.7-6 6-6h372c3.3 0 6 2.7 6 6v4c0 3.3-2.7 6-6 6z" class="st1"/>
  <path d="M24 40c-4.4 0-8-3.6-8-8s3.6-8 8-8 8 3.6 8 8-3.6 8-8 8zm40-8c0-4.4-3.6-8-8-8s-8 3.6-8 8 3.6 8 8 8 8-3.6 8-8zm32 0c0-4.4-3.6-8-8-8s-8 3.6-8 8 3.6 8 8 8 8-3.6 8-8z" class="st2"/>
  <path d="M121 400c0 13.3-10.7 24-24 24s-24-10.7-24-24 10.7-24 24-24 24 10.7 24 24zM377 392H153c-4.4 0-8-3.6-8-8s3.6-8 8-8h224c4.4 0 8 3.6 8 8s-3.6 8-8 8zm-80 24c0-4.4-3.6-8-8-8H153c-4.4 0-8 3.6-8 8s3.6 8 8 8h136c4.4 0 8-3.6 8-8z" class="st0"/>
  <path fill="#5a5b67" d="M440 265v68.3c0 10-7.8 18.1-17.7 18.6H88c-8.8 0-16-7.2-16-16v-23.1l76.3-74.2c6.4-6.4 16.8-6.4 23.2 0l49.5 54.6v-.4l90.9-89.1c6.4-6.4 16.8-6.4 23.2 0l62.5 61.2H440v.1z"/>
  <path d="m125.9 287.8-6-6c-1.6-1.6-1.6-4.1 0-5.7l29.2-29.2c1.6-1.6 4.1-1.6 5.7 0l6 6c1.6 1.6 1.6 4.1 0 5.7l-29.2 29.2c-1.6 1.6-4.1 1.6-5.7 0zm157.5-22.6 29.2-29.2c1.6-1.6 1.6-4.1 0-5.7l-6-6c-1.6-1.6-4.1-1.6-5.7 0l-29.2 29.2c-1.6 1.6-1.6 4.1 0 5.7l6 6c1.6 1.6 4.1 1.6 5.7 0z" class="st1"/>
  <path d="m274.2 352-53.4-58.9.2-.2c9.3-1.8 22.9-3.1 30.9 2.6 7.9 5.3 44.5 45.3 54.8 56.6h-32.5v-.1zM399.8 267.1l40.2 39.3V336c0 8.8-7.2 16-16 16h-1.7c-.3-9.6-2.7-27.2-14.5-42.2-10.5-12.8-18.5-20.5-18.5-20.5s-12.9-16.8 10.5-22.2z" class="st4"/>
  <path d="m221 292.9-.2.2-49.3-54.4c-6.4-6.4-16.8-6.4-23.2 0L72 312.9V112c0-8.8 7.2-16 16-16h336c8.8 0 16 7.2 16 16v194.5l-40.2-39.3-64.7-63.3c-6.4-6.4-16.8-6.4-23.2 0l-90.9 89z" class="st1"/>
  <path d="M176 160c0 17.7-14.3 32-32 32s-32-14.3-32-32 14.3-32 32-32 32 14.3 32 32zM62.1 254.2c-2.8 2.4-7.1 2.4-9.9 0L34 228.6c-1.1-1.2-1.9-2.8-1.9-4.6s.9-3.4 1.9-4.6l18.2-25.6c2.8-2.4 7.1-2.4 9.9 0 2.6 2.6 2.6 6.6 0 9.2l-13.5 21 13.5 21c2.5 2.6 2.5 6.6 0 9.2zm387.8 0c2.8 2.4 7.1 2.4 9.9 0l18.2-25.6c1.1-1.2 1.9-2.8 1.9-4.6s-.9-3.4-1.9-4.6l-18.2-25.6c-2.8-2.4-7.1-2.4-9.9 0-2.6 2.6-2.6 6.6 0 9.2l13.5 21-13.5 21c-2.5 2.6-2.5 6.6 0 9.2z" class="st2"/>
</svg>