<svg xmlns="http://www.w3.org/2000/svg" xml:space="preserve" id="Layer_1" x="0" y="0" version="1.1" viewBox="0 0 512 480">
  <style>
    .st0{fill:#cad0d7}.st1{fill:#e1e6e9}.st2{fill:#99a5ad}
  </style>
  <path d="M496 0H16C7.2 0 0 7.2 0 16v448c0 8.8 7.2 16 16 16h480c8.8 0 16-7.2 16-16V16c0-8.8-7.2-16-16-16zm0 456c0 4.4-3.6 8-8 8H24c-4.4 0-8-3.6-8-8V72c0-4.4 3.6-8 8-8h464c4.4 0 8 3.6 8 8v384z" class="st0"/>
  <path d="M490 40H118c-3.3 0-6-2.7-6-6v-4c0-3.3 2.7-6 6-6h372c3.3 0 6 2.7 6 6v4c0 3.3-2.7 6-6 6z" class="st1"/>
  <path d="M24 40c-4.4 0-8-3.6-8-8s3.6-8 8-8 8 3.6 8 8-3.6 8-8 8zm40-8c0-4.4-3.6-8-8-8s-8 3.6-8 8 3.6 8 8 8 8-3.6 8-8zm32 0c0-4.4-3.6-8-8-8s-8 3.6-8 8 3.6 8 8 8 8-3.6 8-8z" class="st2"/>
  <path d="M416 264c0 22.1-17.9 40-40 40-17.4 0-32.2-11.1-37.7-26.6-3-3.1-7.7-5.4-11.3-5.4h-22c-3.6 0-8.4 2.3-11.3 5.4-5.5 15.5-20.3 26.6-37.7 26.6-17.4 0-32.2-11.1-37.7-26.6-3-3.1-7.7-5.4-11.3-5.4h-22c-3.6 0-8.4 2.3-11.3 5.4-5.5 15.5-20.3 26.6-37.7 26.6-22.1 0-40-17.9-40-40s17.9-40 40-40c17.4 0 32.2 11.1 37.7 26.6 3 3.1 7.7 5.4 11.3 5.4h22c3.6 0 8.4-2.3 11.3-5.4 5.5-15.5 20.3-26.6 37.7-26.6 17.4 0 32.2 11.1 37.7 26.6 3 3.1 7.7 5.4 11.3 5.4h22c3.6 0 8.4-2.3 11.3-5.4 5.5-15.5 20.3-26.6 37.7-26.6 22.1 0 40 17.9 40 40z" class="st0"/>
  <path fill="#5a5b67" d="m136 250-8.9 4.1-1.8-8.3 12.4-5.8h9.3v48h-11v-38zm103 38v-7.1l6.2-5.5c10.2-9.1 15.3-14.4 15.4-19.9 0-3.8-2.3-6.8-7.7-6.8-4 0-7.5 2-10 3.9l-3.1-7.8c3.5-2.7 9-4.8 15.3-4.8 10.6 0 16.4 6.2 16.4 14.7 0 7.8-5.7 14.1-12.4 20.2l-4.3 3.6v.6h18v9H239v-.1zm124.2-11.6c1.9 1 6.4 2.9 10.9 2.9 5.7 0 8.6-2.9 8.6-6.4 0-4.6-4.6-6.9-9.4-6.9H369v-8h4c3.7 0 8.4-1.2 8.4-5.1 0-2.8-2.3-4.8-6.9-4.8-3.8 0-7.8 1.7-9.8 2.9l-2.2-7.9c2.8-1.8 8.4-3.5 14.5-3.5 10 0 15.6 5.3 15.6 11.7 0 5-2.5 8.9-8.5 10.9v.1c6 1 10.1 5.3 10.1 11.4 0 8.3-7.3 14.3-19.2 14.3-6 0-11.2-1.6-13.9-3.3l2.1-8.3z"/>
  <path d="M320 176H192c-4.4 0-8-3.6-8-8s3.6-8 8-8h128c4.4 0 8 3.6 8 8s-3.6 8-8 8zm48-40c0-4.4-3.6-8-8-8H152c-4.4 0-8 3.6-8 8s3.6 8 8 8h208c4.4 0 8-3.6 8-8z" class="st0"/>
  <path d="M312 400H200c-13.3 0-24-10.7-24-24s10.7-24 24-24h112c13.3 0 24 10.7 24 24s-10.7 24-24 24z" class="st2"/>
  <path d="M224 384c-4.4 0-8-3.6-8-8s3.6-8 8-8 8 3.6 8 8-3.6 8-8 8zm40-8c0-4.4-3.6-8-8-8s-8 3.6-8 8 3.6 8 8 8 8-3.6 8-8zm32 0c0-4.4-3.6-8-8-8s-8 3.6-8 8 3.6 8 8 8 8-3.6 8-8z" class="st1"/>
</svg>