<svg width="307" height="305" viewBox="0 0 307 305" fill="none" xmlns="http://www.w3.org/2000/svg">
<g filter="url(#filter0_i_72_325)">
<path d="M305.729 132.963C306.343 133.562 306.671 134.394 306.631 135.25L304.891 172.506C304.856 173.258 304.539 173.971 304.003 174.5L173.401 303.484C172.84 304.039 172.082 304.35 171.293 304.35H136.586C135.796 304.35 135.039 304.039 134.477 303.483L101.244 270.627C100.056 269.452 100.056 267.535 101.243 266.36L116.825 250.947C118.002 249.783 119.899 249.792 121.065 250.967L152.619 282.785C153.787 283.962 155.687 283.969 156.864 282.801L208.5 231.517C209.674 230.351 209.682 228.454 208.518 227.278L80.1919 97.6469C79.0214 96.4646 77.1124 96.4605 75.9369 97.6378L25.2078 148.443C24.0442 149.608 24.0375 151.493 25.1928 152.667L99.858 228.511C100.985 229.655 101.01 231.484 99.9164 232.659L85.2632 248.407C84.1086 249.648 82.156 249.687 80.9532 248.492L1.67606 169.779C1.06807 169.176 0.747189 168.341 0.794337 167.485L2.73389 132.293C2.77484 131.55 3.09046 130.849 3.61946 130.325L134.477 0.867307C135.039 0.31166 135.797 0 136.587 0H172.669C173.468 0 174.235 0.319079 174.798 0.886423L251.716 78.3666C252.875 79.5342 252.877 81.4176 251.721 82.5882L236.081 98.4249C234.904 99.6169 232.979 99.6138 231.805 98.4179L157.303 22.4849C156.141 21.3005 154.238 21.2844 153.056 22.4491L101.221 73.5254C100.042 74.6874 100.026 76.5849 101.187 77.7655L229.051 207.834C230.222 209.025 232.14 209.03 233.318 207.846L283.796 157.066C284.959 155.896 284.96 154.008 283.799 152.838L251.829 120.605C250.638 119.404 250.675 117.456 251.91 116.301L268.578 100.715C269.749 99.6198 271.575 99.6391 272.722 100.759L305.729 132.963Z" fill="#3B5D3E"/>
<path d="M175.117 81.1558L159.345 96.9511C158.174 98.1235 158.174 100.024 159.345 101.197L175.117 116.992C176.288 118.165 178.186 118.165 179.356 116.992L195.128 101.197C196.299 100.024 196.299 98.1235 195.128 96.9511L179.356 81.1558C178.186 79.9834 176.288 79.9834 175.117 81.1558Z" fill="#3B5D3E"/>
<path d="M100.293 156.065L84.5209 171.861C83.3502 173.033 83.3502 174.934 84.5209 176.107L100.293 191.902C101.463 193.074 103.361 193.074 104.532 191.902L120.304 176.107C121.474 174.934 121.474 173.033 120.304 171.861L104.532 156.065C103.361 154.893 101.463 154.893 100.293 156.065Z" fill="#3B5D3E"/>
</g>
<defs>
<filter id="filter0_i_72_325" x="0.789795" y="0" width="305.844" height="312.35" filterUnits="userSpaceOnUse" color-interpolation-filters="sRGB">
<feFlood flood-opacity="0" result="BackgroundImageFix"/>
<feBlend mode="normal" in="SourceGraphic" in2="BackgroundImageFix" result="shape"/>
<feColorMatrix in="SourceAlpha" type="matrix" values="0 0 0 0 0 0 0 0 0 0 0 0 0 0 0 0 0 0 127 0" result="hardAlpha"/>
<feOffset dy="8"/>
<feGaussianBlur stdDeviation="10"/>
<feComposite in2="hardAlpha" operator="arithmetic" k2="-1" k3="1"/>
<feColorMatrix type="matrix" values="0 0 0 0 0 0 0 0 0 0 0 0 0 0 0 0 0 0 0.4 0"/>
<feBlend mode="normal" in2="shape" result="effect1_innerShadow_72_325"/>
</filter>
</defs>
</svg>
