<svg width="100" height="101" viewBox="0 0 100 101" fill="none" xmlns="http://www.w3.org/2000/svg">
<path d="M49.4652 84.0291V81.5391C50.3752 81.5391 51.2352 81.4791 52.0852 81.5391C54.8852 81.7691 56.1852 80.4791 56.0052 77.5891C55.8952 75.7391 56.0052 73.8691 56.0052 72.0091C56.042 71.6059 55.9898 71.1995 55.8521 70.8188C55.7143 70.4381 55.4945 70.0923 55.2082 69.806C54.922 69.5197 54.5762 69.2999 54.1955 69.1622C53.8147 69.0245 53.4083 68.9722 53.0052 69.0091C51.5352 69.0091 50.0652 69.0091 48.5952 69.0091C48.147 68.9689 47.7316 68.7576 47.4352 68.4191C45.6752 66.1891 43.9652 63.9091 42.2452 61.6391C39.9952 58.6391 40.0152 56.6391 42.3052 53.6391C43.2361 52.4692 43.8999 51.1099 44.25 49.6564C44.6001 48.2028 44.6279 46.6903 44.3316 45.2249C44.0353 43.7595 43.4219 42.3766 42.5346 41.1733C41.6473 39.97 40.5075 38.9753 39.1952 38.2591C38.2615 37.7861 37.2744 37.4269 36.2552 37.1891C35.7052 37.0391 35.4552 36.8891 35.4552 36.2691C35.4552 30.8091 35.4552 25.3491 35.4552 19.8891C35.4299 19.514 35.4854 19.1379 35.6178 18.7861C35.7502 18.4342 35.9566 18.1149 36.2228 17.8495C36.4891 17.5842 36.8092 17.379 37.1615 17.2478C37.5138 17.1166 37.8902 17.0625 38.2652 17.0891H66.2652C66.4452 17.0891 66.6252 17.0891 66.8952 17.1391C66.8952 17.4691 66.8952 17.7791 66.8952 18.1391V30.7891C66.8504 31.3981 66.9374 32.0096 67.1503 32.5819C67.3631 33.1542 67.6968 33.674 68.1285 34.1057C68.5603 34.5375 69.08 34.8712 69.6524 35.084C70.2247 35.2968 70.8362 35.3838 71.4452 35.3391C75.6452 35.3391 79.8452 35.3391 84.0452 35.3391C84.8452 35.3391 85.0452 35.5791 85.0452 36.3391C85.0452 51.1924 85.0452 66.0391 85.0452 80.8791C85.0452 83.0291 84.0452 84.0291 81.9052 84.0291H49.4652ZM65.6452 72.2791C65.6571 73.6529 66.0766 74.9922 66.8504 76.1274C67.6242 77.2626 68.7176 78.1426 69.9919 78.6559C71.2662 79.1692 72.6643 79.2928 74.0089 79.0109C75.3535 78.729 76.5842 78.0543 77.5451 77.0724C78.5059 76.0905 79.1538 74.8455 79.4065 73.4951C79.6592 72.1447 79.5054 70.7496 78.9646 69.4867C78.4238 68.2238 77.5204 67.1498 76.3687 66.4007C75.217 65.6517 73.8689 65.2613 72.4952 65.2791C71.5848 65.2856 70.6847 65.4722 69.8467 65.8281C69.0088 66.1841 68.2496 66.7023 67.6128 67.353C66.9761 68.0037 66.4744 68.774 66.1367 69.6194C65.799 70.4649 65.6319 71.3688 65.6452 72.2791ZM62.1652 42.6291C58.7252 42.6291 55.2752 42.6291 51.8252 42.6291C51.5572 42.6405 51.2943 42.7057 51.0521 42.8208C50.8099 42.9359 50.5933 43.0986 50.4152 43.2991C49.8152 44.1391 50.5752 45.0991 51.8152 45.0991C58.7452 45.0991 65.6652 45.0991 72.5952 45.0991C73.6652 45.0991 74.2052 44.6491 74.2152 43.8291C74.2252 43.0091 73.6752 42.5891 72.6052 42.5891L62.1652 42.6291ZM51.8152 55.5691C50.8152 55.5691 50.2452 56.0291 50.2252 56.7691C50.2052 57.5091 50.8052 58.0891 51.8352 58.0891H72.6052C73.6652 58.0891 74.2152 57.6191 74.2152 56.8091C74.2152 55.9991 73.6752 55.5791 72.5852 55.5791L51.8152 55.5691ZM55.0152 29.6691C53.9052 29.6691 52.7952 29.6691 51.6952 29.6691C51.5164 29.6465 51.3348 29.6623 51.1626 29.7153C50.9903 29.7683 50.8314 29.8573 50.6962 29.9765C50.561 30.0957 50.4528 30.2423 50.3786 30.4065C50.3044 30.5707 50.2661 30.7489 50.2661 30.9291C50.2661 31.1093 50.3044 31.2875 50.3786 31.4517C50.4528 31.6159 50.561 31.7625 50.6962 31.8817C50.8314 32.0009 50.9903 32.0899 51.1626 32.1429C51.3348 32.1959 51.5164 32.2117 51.6952 32.1891C53.9152 32.1891 56.1252 32.1891 58.3452 32.1891C58.5251 32.2028 58.7058 32.1794 58.8764 32.1205C59.0469 32.0616 59.2035 31.9683 59.3366 31.8465C59.4697 31.7247 59.5763 31.5769 59.6501 31.4122C59.7238 31.2475 59.7629 31.0695 59.7652 30.8891C59.7503 30.7101 59.6995 30.5358 59.616 30.3768C59.5324 30.2178 59.4177 30.0772 59.2787 29.9634C59.1397 29.8495 58.9792 29.7648 58.8068 29.7143C58.6344 29.6637 58.4536 29.6484 58.2752 29.6691C57.1652 29.6591 56.0952 29.6691 55.0152 29.6691Z" fill="#A29632"/>
<path d="M44.625 68.9691H23.835L27.285 64.4091C27.705 63.8591 28.125 63.3191 28.535 62.7591C31.065 59.3491 31.045 55.8691 28.425 52.5291C27.1028 50.9855 26.3914 49.0113 26.425 46.9791C26.4819 45.7413 26.8333 44.5349 27.45 43.4602C28.0667 42.3854 28.9308 41.4733 29.9707 40.7995C31.0106 40.1257 32.1963 39.7097 33.4292 39.586C34.6621 39.4623 35.9067 39.6346 37.0597 40.0884C38.2128 40.5422 39.2409 41.2645 40.0587 42.1953C40.8766 43.1262 41.4606 44.2387 41.7623 45.4405C42.064 46.6423 42.0746 47.8988 41.7934 49.1055C41.5121 50.3123 40.947 51.4345 40.145 52.3791C38.8136 53.9096 38.0817 55.8706 38.085 57.8991C38.1486 59.6174 38.7581 61.2706 39.825 62.6191C41.225 64.4491 42.615 66.2491 43.955 68.0891C44.185 68.3191 44.355 68.5791 44.625 68.9691Z" fill="#A29632"/>
<path d="M34.1751 79.089C28.1751 79.089 22.1151 79.089 16.0851 79.089C15.2451 79.089 14.9551 78.859 14.9551 77.969C15.0251 76.089 14.9551 74.249 14.9551 72.389C14.9551 71.719 15.1851 71.499 15.8451 71.499C28.1184 71.499 40.3884 71.499 52.6551 71.499C53.2651 71.499 53.4951 71.699 53.4851 72.329C53.4851 74.249 53.4851 76.169 53.4851 78.089C53.4851 78.829 53.2851 79.089 52.4851 79.089C46.4151 79.029 40.2951 79.089 34.1751 79.089Z" fill="#A29632"/>
<path d="M82.7551 32.8391H71.8151C70.0251 32.8391 69.4551 32.2591 69.4551 30.4591V19.5591L82.7551 32.8391Z" fill="#A29632"/>
<path d="M21.6551 81.539H45.9551C46.3751 81.539 46.9551 81.309 46.9551 82.139C46.9551 83.369 46.7751 83.889 46.0451 83.999C45.7755 84.019 45.5048 84.019 45.2351 83.999C38.0451 83.999 30.8551 83.999 23.6551 83.999C21.7151 84.089 21.3751 83.909 21.6551 81.539Z" fill="#A29632"/>
<path d="M72.555 76.6592C71.9575 76.6877 71.3605 76.5945 70.8001 76.3855C70.2397 76.1765 69.7275 75.8558 69.2946 75.4431C68.8617 75.0303 68.5171 74.534 68.2817 73.9841C68.0462 73.4343 67.9248 72.8424 67.9248 72.2442C67.9248 71.6461 68.0462 71.0542 68.2817 70.5043C68.5171 69.9545 68.8617 69.4581 69.2946 69.0454C69.7275 68.6326 70.2397 68.312 70.8001 68.1029C71.3605 67.8939 71.9575 67.8008 72.555 67.8292C73.1524 67.8008 73.7495 67.8939 74.3099 68.1029C74.8703 68.312 75.3825 68.6326 75.8154 69.0454C76.2482 69.4581 76.5928 69.9545 76.8283 70.5043C77.0638 71.0542 77.1852 71.6461 77.1852 72.2442C77.1852 72.8424 77.0638 73.4343 76.8283 73.9841C76.5928 74.534 76.2482 75.0303 75.8154 75.4431C75.3825 75.8558 74.8703 76.1765 74.3099 76.3855C73.7495 76.5945 73.1524 76.6877 72.555 76.6592Z" fill="#A29632"/>
</svg>
