<svg width="494" height="404" viewBox="0 0 494 404" fill="none" xmlns="http://www.w3.org/2000/svg">
<path d="M492.303 152.149C492.917 152.748 493.245 153.58 493.205 154.436L488.841 247.884C488.806 248.637 488.489 249.349 487.952 249.879L170.415 563.484C169.853 564.039 169.096 564.35 168.307 564.35H81.0823C80.2926 564.35 79.5347 564.039 78.9731 563.483L-5.50023 479.967C-6.68774 478.793 -6.688 476.875 -5.50078 475.701L38.1526 432.52C39.3295 431.356 41.2269 431.365 42.3925 432.54L124.497 515.329C125.664 516.506 127.564 516.513 128.741 515.345L259.343 385.634C260.517 384.468 260.525 382.571 259.361 381.395L-56.2463 62.5774C-57.4168 61.3951 -59.3258 61.3909 -60.5013 62.5682L-188.885 191.143C-190.048 192.308 -190.055 194.194 -188.899 195.367L-2.94963 384.253C-1.82314 385.397 -1.79738 387.225 -2.89122 388.401L-43.9931 432.573C-45.1477 433.814 -47.1003 433.853 -48.3031 432.659L-244.044 238.311C-244.652 237.707 -244.973 236.873 -244.926 236.017L-240.051 147.572C-240.01 146.829 -239.695 146.127 -239.166 145.604L78.973 -169.133C79.5346 -169.688 80.2928 -170 81.0829 -170H171.651C172.45 -170 173.216 -169.681 173.78 -169.114L363.57 22.0651C364.729 23.2327 364.732 25.116 363.576 26.2867L319.864 70.5479C318.687 71.74 316.762 71.7368 315.588 70.541L129.836 -118.779C128.674 -119.964 126.771 -119.98 125.589 -118.815L-5.5231 10.3771C-6.7023 11.539 -6.71741 13.4365 -5.55685 14.6171L308.932 334.529C310.103 335.72 312.021 335.725 313.199 334.54L440.987 205.99C442.149 204.821 442.15 202.933 440.989 201.763L357.814 117.902C356.623 116.701 356.66 114.754 357.895 113.598L404.257 70.2445C405.428 69.1493 407.254 69.1687 408.401 70.2884L492.303 152.149Z" fill="#415E43"/>
</svg>
