<svg xmlns="http://www.w3.org/2000/svg" xml:space="preserve" id="Layer_1" x="0" y="0" version="1.1" viewBox="0 0 512 480">
  <style>
    .st10{fill:#99a5ad}
  </style>
  <path fill="#5a5b67" d="M0 40h512v40H0z"/>
  <path fill="#cad0d7" d="M496 0H16C7.2 0 0 7.2 0 16v448c0 8.8 7.2 16 16 16h480c8.8 0 16-7.2 16-16V16c0-8.8-7.2-16-16-16zm0 456c0 4.4-3.6 8-8 8H24c-4.4 0-8-3.6-8-8V72c0-4.4 3.6-8 8-8h464c4.4 0 8 3.6 8 8v384z"/>
  <path fill="#e1e6e9" d="M490 40H118c-3.3 0-6-2.7-6-6v-4c0-3.3 2.7-6 6-6h372c3.3 0 6 2.7 6 6v4c0 3.3-2.7 6-6 6z"/>
  <path d="M24 40c-4.4 0-8-3.6-8-8s3.6-8 8-8 8 3.6 8 8-3.6 8-8 8zm40-8c0-4.4-3.6-8-8-8s-8 3.6-8 8 3.6 8 8 8 8-3.6 8-8zm32 0c0-4.4-3.6-8-8-8s-8 3.6-8 8 3.6 8 8 8 8-3.6 8-8zM360 232H152c-4.4 0-8-3.6-8-8s3.6-8 8-8h208c4.4 0 8 3.6 8 8s-3.6 8-8 8zm-32 24c0-4.4-3.6-8-8-8H192c-4.4 0-8 3.6-8 8s3.6 8 8 8h128c4.4 0 8-3.6 8-8z" class="st10"/>
</svg>