<svg xmlns="http://www.w3.org/2000/svg" xmlns:xlink="http://www.w3.org/1999/xlink" xml:space="preserve" viewBox="0 0 500 500">
  <g opacity=".63">
    <circle cx="251.7" cy="243.8" r="202" fill="#b3d6e2" transform="rotate(-45.001 251.724 243.818)"/>
    <defs>
      <circle id="a" cx="251.7" cy="243.8" r="202" transform="rotate(-45.001 251.724 243.818)"/>
    </defs>
    <clipPath id="b">
      <use xlink:href="#a" overflow="visible"/>
    </clipPath>
    <g fill="#19657c" clip-path="url(#b)">
      <path d="M250.9 186.2c.1.3-.3 1 .3 1.5 0-.7-.1-1.2.3-1.7-.2-.1-.6-.1-.8-.1-.1.2.1.1.2.3zM72.1 131c-.2.2-.6.3-.9.5-.8-1.7-1.2-1.4-2.9-1.4l2.7-1.8c-.3-.1-.6-.5-.9-.6.4-.3.9-.5 1.3-.8-1-.5-1.4-1-2.5-.6-1.2.4-1.5.7-2.6.1-1-.5-1.6-.1-2.7-.1-.5 0-1.1 1.1-1.5 1.5.5.2 2.5.7 2.5 1.2 0 1 0 2.4-1.4 2.1-.7-.1-1.5-1.7-2.1-1.5-.7.2-1.8.9-.9 1.6 1.7 1.3 3.6 1.8 5 3.5.6.8 1.1 1.8 2.1 2.1.8.2 2.1-.5 1.7-1.5 1.3.6 4.9-1.9 2.6-2.7.3-.1.7-.3 1.1-.4-.2-.3-.4-.7-.6-1.2zM251.5 185.1c.1.1.1.3.2.4.5-.5.7-.7 1.3-.9-.1-.1-.2-.3-.3-.4.8-.1.7-1.3.4-1.1-.6.3-2.4.8-1.2 1.8-.2.1-.3.2-.4.2zM55.9 114.1c.3.7.5.6.6 1.2.9.1 2.1.3 2.8-.4-.4-.3-.9-.6-1.3-.8-.7-.3-1.4-.2-2.1 0z"/>
      <path d="M60 115.5c-.9-.2-3-.1-3.6.6.7.9 3.9 1.1 3.6-.6zM116.1 150c-.8.9 2.3.8 2.6.9-.3-1.5-1.8-1.8-2.6-.9zM66.2 146.1c.2.2.6.6.8.7.2-.4.3-.3.5-.5.1.5.4.7.9.8.1-.2.1-.3.2-.5.4 1.2 2.3 1.3 3.3 1.5 1.1.2 2.1-.9 3-1.5-1.2-1.1-2.4-2.1-3.8-3-.8-.5-1.4-1.4-2.1-.7-.5.5-1.4 1.2-.5 1.9-.2 0-.3.1-.5.1-.5 1.1-1.3.2-1.8 1.2zM59.9 144.1c.3-1.7 1.2-1.2 2-.5.1-.2.3-.4.4-.7 1.2 1.9 1.1-.6 1-1.5-1.4.3-3-.7-4.4-1.6-.5-.3-2.5-1.1-2.8-1.7-.2-.6.5-1.5.1-2.4-.8-2-1.3-4.9-3.1-5.9-.8-.4-1.4-1.5-2-.7-.3.4-1.7-.6-2.1-.8.5.8-.4 1-.2 1.5s.4 1.1.6 1.6c.4 1.2.8 2.4 1.3 3.6-.8.3-1.3.9-1.6-.1-.4-1.1-.8-2.2-1.1-3.3-.5-1.5-3.1-1.6-4.2-1.4.6.7 1.3 1.3 1.9 2-.4-.1-1.8-.7-2.1-.3-.6 1-.7.9-1.7.9.3-.4.6-.8.9-1.1-.7-.4-2.8-1.9-3.6-1.7-.5.1-.7 1.4-1.2 1.4-.6.1-1.2.1-1.8.1 1-.8 2-1.9.6-2.7-1-.6-1.5-.2-2.6.3-2.4.9-4 1.6-6 3.3.3.1.6.4.9.4-.8.7-2.1 1.4-1.9 2.8h2c-.1.2-.2.6-.3.8 1.4-.1 2.9-.1 4.3-.1-1.5.7-3 1.3-4.4 2 .9.9 1.1 1.4 2.3 1.4 1.5 0 3 0 4.5-.1 2.2 0 4 .5 6.2 1 1.5.4-.9.8-1.5.8-1.2 0-2.4-.3-3.5-.5-1.8-.2-4.2.8-5.9 1.2 1.1 3.6 4.5 3 7.4 3.2-.2 1.8.2 2.8 1.9 2.6 2-.2 4.1-.3 6.1-.5 1.4-.1 1.9-1.1 3.3-1.3.9-.1 1.2-.2 1.9-.8.6-.5.6-1.2 1.4-1-.1.2-.1.6-.2.8 1 .2 2 .4 2.9.6-.2.1-.3.3-.5.4 1.6 0 3.2.9 4.8.7.4-.1 2.1-.6 2.1-1 0-.7-1-.6-.4-1.5-1.1-.3-1.8.3-2.6 1.1 0-.8.2-1.4-.4-2 .3 0 .6 0 .8.1 0 .3.3.4.5.6zM246.2 203.7c-.2.1-.4.4-.6.6 1.8 1.6 4.3-1.3 6.1-1.8.6-.2 1 .4 1.3-.4.2-.7.4-1.3.6-2 .3-.9-.2-2-.8-2.6 1.2-.9 1.6-.9 1.8-2.5-.6.2-.8-1-1.3-1.5-.3-.4-1.4.2-1.9.3.1-.2.2-.3.3-.5-1.4-.8-2.8.7-3.5 1.9.5.2.9.3 1.4.5-.6.4-.9.9-1.6.7-.5-.1-1.1-.5-1.5-.2-.8.4-.5.5-.3 1.4.1.4-.6.9-.9 1.2.8.4 1.5.7 2.3.7-.6.5-1.2 1.1-1.9 2 .8-.2 1.6-.5 2.4-.3-.5.1-1.7.1-2 .6-.4.5-.7.7-1.3.9.3.1.6.3 1 .3-.3.2-.7.4-1 .5.5 0 1 .1 1.4.2z"/>
      <path d="M123.1 137.2c-.6-1.8-2.9-1.6-4.2-1.1-.8.3-2.6-2.7-3.4-3.4-.9-.9-3-1.8-4.2-1.6-.6.1-2 0-2.4.4-.3.3-1.4 1.6-1.7 1.4-1.3-.8-1.2-.8-2.3.3-.6.6-1.5.6-.9-.4.7-1.2.8-1.3.2-2.5-.4-.9-.8-.8-1.3-1.5-.5-.6-.3-1.8-1.1-1.8-.6 0-1.7-.3-2.2-.1-1.5.6-3 1.3-4.6 1.6.2-.6.3-1.2.4-1.7-2.4-.3-3.4-.3-5.7.7-1.7.7-2.7 1.8-3.4 3.7-.3.7-1.2 2.3-1.1 3 .1.4.3 2.7.5 2.7 2.2.2 3.6 0 5.2 1.7-1.6-.1-3.1-.3-4.7-.4.6 1.3 1.9 2.1 3 2.8.9.5 1.3-.2 2-.2 1.7-.2.5.3 1.3 1.1.4.3 1.7.6 2.2.6 1.5.1 3.5-.3 5 .3l1.5.6c.3.1.5-.7.8-.6.7.1.9 1.1 1.8.8-.6-.6-1.2-1.1-1.8-1.7 2.4.7 3.9 1.3 6.4.7-.5-1-.6-1.5-1.6-1.8 1.3-1.2 1.2.7 2.1 1.1.3.2 1.2-.4 1.2.1l.3 1.5c1.1-1.2 3.1 1.4 4 2.2-1.7.5-2 .2-2 2.2.8-.3 1.5-.6 2.3-.9 1-.4.9-.5 1.5.5.8 1.3 2.4.9 3.2 2.4.5 1 1 1.9 1.6 2.9.3.5-.3.7-.6 1-1.3 1.3-2.5 2.5-3.7 3.8.4.3 2 1.1 1.7 1.9-.1.3-2.4.7-2.8.8-1.5.4-3.2-.2-4.7-.3.2 1-1.2 1.3-1.6 2.1-.3.6.7 1.9 1.4 1.9 1-.1 2.2.2 3-.5.8-.7 1.7-.1 2.7.1 0-.3.2-.7.1-1 .6-.1 1 .3 1 1 1.6-1.1 1.6-.1 2.6 1.5.6.9 1.6.8 2.6 1.3-.5.3-1.1.5-1.6.8.9.5 1.5 1 2.6 1-.1.2-.2.4-.3.5 1 .3 2.1.5 3.1.8.4.1.4 1 1.1 1.2 2 .5 4 1 6.1 1.6.1-1 .4-1.3-.3-1.9-.7-.5-1.5-1.1-2.2-1.6-.5-.3-1.6-.2-1.9-.7l-1.2-2.1c.7.3 1.4.6 2.2 1-.2-.3-.2-.7-.3-1 1.2.8 2.5 1.5 3.7 2.3.7.4 1.8 1.9 2.2 1.8-.2-.4-.3-.8-.5-1.3.2.1.5.1.7.2.5-1.1-1.1-1.4-.5-2.5.3.4.7.9 1 1.3-.1-.7 0-2.1-.3-2.7-.4-.7-1.3-.4-1.5-1.3-.2-1.1-.1-1.4-1.1-1.8-.8-.3-1.4-.9-1.7.4-.3-.8-.5-1.6-.8-2.4-.3-1-.5-.6-1.4-.2-.2-.6-.4-1.1-.5-1.7.6.1 1.1.1 1.7.2-.1-1.1-1.2-1-.6-2 .5-.7 1-.6 1.7-.2.6.4 1.3 1.6 2 1.8.5.1 1.6-.6 2.1-.7.4 1.2-.8 1.3-1.6 1.7 1.3 1.6 2.1 2.3 3.9 3.1.4-1.1 0-2.4-.1-3.5 1.5 1 2.1.2 3.6-.6-.5-.2-1-.5-1.6-.7.5-.6 1.5-.1 2.2 0 .2-1.4.7-2.3-.7-2.9-.8-.4-2.4.1-3.3.1.3-.4.6-.9.9-1.3-1.3-.2-1.9-.1-2.9-1.2-.8-.9-1.1-1.2-2.2-1.6-2.2-.8-4.4-1.7-6.5-2.6.6-.1 1.2-.2 1.8-.2-.1-.6-.2-1.1-.3-1.7.9.2 1.7.3 2.6.5-.5-1.4-.4-1.3-1.7-1.1-.7.1-1.4-.3-2.1-.5 1.2-.8 1.6-.9 3-.8 0-1.1-1.1-1.6-1.9-2.1-.2 1.1-1.3 1.3-2.1 1.7.3-1.1-.6-.9-1.3-1.1 1-.3 2.6-.3 2.9-1.5-.8-.4-5.1-3.2-5.6-2-.4 1-1.9 1.9-2.3.7-.3-1.3 1.7-2.1 2.2-2.4z"/>
      <path d="M114.6 152.5c.8-1.3.2-1.8.6-3.1-1.6-2.2-5.8 1-4 2.6.7.6 2.7 1.7 3.4.5zM104.9 165.4c-1.3-1-1.6-1.1-3.2-.8 1.4-1.4-2.3-3.3-3-3.7-.5-.4-1.4-.2-1.9-.7-.7-.8-.9-1.1-1.7 0-.2-.2-.4-.6-.4-.8 1.5-.3 1-2.3-.2-1.7-1.3.6-1.2 1.7-1.6 3.1-.2.6-.2 1.2-.4 1.8-.1.4.4 1.1.2 1.5-.2.4-1.7 1.5-2 2.1.4 0 2.8-.7 3-.5.3.2.5 2.6 1 2.3.8-.6 1.4-1.7 2.1-2 1.2-.4 1-1.4 2.2-1.8-.3 1.9 2.9 2.3 4.1 2.6.7-.7 1.3-1 1.8-1.4zM58.1 120.7c-.5-1.4-1.2-1.2-2.3-.8-1.3 1.8 1.6 1.1 2.3.8zM106.3 170.1c-.7-.2-1.4.6-1.5 1.3-.1.9.3 1 .9 1.7.6-.6 2.4-2.4.6-3zM81.2 122.2c.5 1 1.8.1 2.4-.3.5 1 .4 1.2 1.5 1.3.9.1 1.6.4 1.8-.8.1.3.5.5.6.7 0-.4.2-.9.2-1.3 1.1.5-.1 1.8 1.2 1.9 1.2.1 2.5.1 3.7.2-.1-.3 0-.6 0-.9.7.9 2.3 1.2 2.7-.1.3 1.4 2.2.5 3.2.3l-.3-1.5c1.3 0 .6 1.4 1.5 1.7.8.3 1.4.6 2.2.4.5-.1 2.8-.1 2.9-.7.3-1.2.7-1.1 1.8-1.4-.5-.5-1.1-.5-1.8-.7.5-.4 1-.7 1.5-1.1-1.9-1.6-4.3-2.9-6.8-2.1-1 .3-1.9-.2-3.1.2-1.1.4-2.1.7-3.3.9.2.2.4.4.7.5-1.1-.3-2.7-1-3.9-.8-.3 0-1 .7-1.3.5-.5-.3-1.1-.7-1.6-1-.3-.2-2.6-1.5-2.6-1.5-.2-.7 2.1.2 2.3-.9-.6-.2-1.3-.4-1.9-.6-.9-.2-.5-.7-1.1-1.1-1.2-.7-2.4.3-3.6 0-1.2-.2-1.8-1.3-2.9-1.5-1.2-.2-2.7-.8-4-.4-2 .6-1.4 1.4-.1 2.7 1.3 1.3 2 1 3.6.8 1.3-.2 2-.7 2.9.5.6.7 2.2 2 1.2 3-.6 1.4-.2 1.6.4 3.1zM97.4 170.1c.1.2.2 1 .5 1 1.7-.1 3.6-.9 3.8-3h-1.3c-1 .2-1.7.2-2.5.9-.5.5-.7.4-.5 1.1z"/>
      <path d="M87.7 89.6c-1 .8-1.9 1.6-2.9 2.5 1.6 1.2 3.4.2 5.3.2 1.8-.1 3.6-.8 5.3-1.2-1.6.8-2.8 1.4-4.5 1.6-1.7.2-2.7.1-4.3.8 1.7.5 3.4 1.5 4.9.5 1.9-1.3 2.8-1.5 5-1.6-2 .6-2.9 1-4.5 2.5 1.4.2 2.8.4 4.2.4 1.2 0 1.3.3 1.4-1 .1-.4 1.3-.6 1.7-.7-.2.2-.4.5-.6.7.9-.3 1.8-.6 2.7-.8-.7.6-1.4 1.1-2 1.7 1.1-.2 2.2-.4 3.4-.6.7-.1 2.4-.1 2.9-.6 1.7-1.6 3.2-2.3 5.3-3.3-.9.8-1.8 1.6-2.7 2.5.6.2 1.1.5 1.7.7-3.6.9-7.2 1.7-10.8 2.4l3.6 3.3c-1.5-.9-3.4-2.7-5.1-3.1-.3-.1-5.2-.1-5.1-.2-1.5 2.9 1.4 2.7 3 3.8 1.4 1 2.7 2.7 3.6 4.3-2.3-1.2-6-1.6-8.1.5-1.9 1.9-.2 2 1.6 2.4 1.2.3 2.2-1.3 3.1-2.2-.7 2-2.5 3.2-.3 4.7 1.7 1.2 3.7-1.3 4.7-2.4-1.6 2.3-2.7 3.9-5.6 3.2-1.2-.3-1.3-1.9-2.3-2.1-1.4-.2-2.1-.3-3.5.2.9 1.6.9 1.7 2.5 1.9-1.1 1.2-1.8.8-3.2 1.4-.5.2-1.6.4-1.9.9-.3.4.6.8-.1 1.2.9 1.2 1.2.3 2-.6 0 1.4 1.9 2.3 2.4.8.2 1.3 1.1.6 2 .7.9.1 1.8.2 2.7.2 1 0 1.3-1 2.1-.7.6.2 1.8.7 1.5-.6.4 1 2.3 1.9 2.4.2.8.9 1.3-.2 1.9.2.8.7.5 1 .2 2.1 1.2-.4 2.4-.7 3.6-1.1.4-.1.5-.8.9-.9.1-.1.5.5.9.4.3-.1 1.3-.2 1.2-.6-.1-.5 0-1.4-.4-1.6-.7-.4-.8-.7-1.4-.3-.8.5-.8.7-1.3-.1-.4-.7 1.7-2.2 2.1-2.6 1.2-1-.7-1.6-.1-2.1.4-.4 2.1.7 2.8.4 1.4-.5 1.8-.7 2.7-2-.7-.4-1.4-.7-2-1.1 1.2-.2 2.4-.3 3.6-.5.1-1.5-3-1.6-4-1.8h4.1c.3-1.7-3.6-1.2-4.7-1.3 2.5-.3 5-.5 7.5-1-.1-.4-.3-.9-.4-1.3.9.2 2.1.9 2.9.4 1.2-.7 1.8-1.1 2.8-2.2-.9 0-1.8-.1-2.7-.1 1.4-.3 2.9-.6 4.3-.9 1.2-.3 2.8-1.7 3.9-2.4 1.5-.9 6.4-2.2 6.5-4-3.7.7-7.4 1.5-11.1 2.2 2.2-.7 4.5-1.3 6.7-2-1.3-.2-2.6-.4-3.9-.7l8.7-.6c2.1-.1 4.7-2.3 6.5-3.3-2.5-.9-4.9-1.5-7.5-2-2.3-.4-4.4.3-6.6.8 1.2-.7 2.5-1.4 3.7-2.1-2.3-.3-4.7-1-7-1-2.2 0-4.6.7-6.7 1l.9 1.8c-1-.7-2.4-2.2-3.7-2.2-1.8 0-3.6-.1-5.4-.1 1.1.9 2.2 1.8 3.2 2.7-1.3-.5-2.5-1-3.8-1.6-.7-.3-2.8-.9-3.5-.6-.5.2-.6.9-1.2.9-.8 0-1.7.1-2.5.2-.9.1-1.9 1.4-2.7 2 2.1 1.2 4.3 2.3 6.4 3.5-2.4-.6-4.7-1.2-7.1-1.8-1-.3-2.2-1.4-3.1-2-.7-.5-1.9-.2-2.7-.3.2.5.4.9.6 1.4-.9 0-1.8.1-2.7.1.6.3 1.3.6 1.9.9-2.4.1-5.6-1.2-6.8 1.6-1.6-1.4-3.7-.3-5.4.7 1.1.5 2.2 1 3.3 1.6 1-.3 2-.8 3.1-1.2zM55.6 111.7c.5.6 1.1-.3.6-.9l-1.1-1.1c-.6-.5-1.1-1.1-1.9-.8.1.6.3 1.1.4 1.7.5.5 1.7.7 2 1.1zM67.7 97.7c-.5-1.2-3.4-.9-2.5.8 1.3.5 3.5 1.8 2.5-.8zM252.9 185.8v.6c-.2-.1-.3-.3-.5-.4-.1.2-.2.3-.2.4.5.6 1.7 2 2.2.8-.7.1-1.1-.2-1-.9-.1-.4-.2-.5-.5-.5zM55.2 103.7c1 .1 1.4-1.4 2.3-.5-.2.1-.3.4-.5.5.5.1 1.1.2 1.6.3.2 1.8-2.3.4-3.3 1.1.3 3 3.8.1 4.4.8.7.8 1.9.6 2.9.8 1 .1 1 .7 1.5 1.6.4.8 4.6.7 2.6-1.7-.3-.3-1-.8-.9-1.3.2-.7.3-.6-.2-1-.9-.7-1.2-.6-2.3-.4.4-2.2-2.4-1.1-3.2-.7-.6-1.3-1.3-2.4-2.8-2.1-1.7.2-2.6-.1-3.3 1.7.6 0 1.2 0 1.8-.1-.3.2-.5.6-.6 1z"/>
      <path d="M63.4 108.8c-.7-.9-1.6-.8-2.5-.6-1.1.2-.4 1 .4 1 .7-.1 1.3-.6 2.1-.4zM44.5 115.4c.7.4 1.5.9 2.2 1.3l-1.5.6c.5.2 2.4.7 2.3 1.2-.2 1.2-1.3.6-2.3.6-.5 0-2.5.2-2.7-.4-.3-1.3-.5-1.2-1.7-1.1l.6-.3c-.8-.6-1.8-1.9-2.8-1.8-1.8.3-1.2-.4-2.7-1-.3-.1-2.6.1-2.6.6s1.9.8 2.3.9c-1.5-.1-2.6-.3-4 .3v.7c1 .6 2.6.1 3.7.1-.5.3-4.8.1-4.7 1.2.1 1 3.8-.1 4.2-.2-1.4 1.2-4.3.3-5.2 2 1.2.4 1.7.5 2.9.2 0 .2-.1.4-.1.6.5.2 1 .3 1.5.4-.4-1 .8-.9 1 .1 1.3-.8 1.5-.9 1.9-2.4.9.3.6 1 .4 1.8.7-.1 2.4.3 2.5-.8.4 1.1 2.2.5 3 0-1.5 1.6-4.5 1.8-6.6 2.5 2.5 1.6 3.5 1.1 6.2.1 1.5-.5 3-1.1 4.5-1.6.9-.3 1.3.5 2.2.5.4 0 .5-.8 1.2-.8h2.1c.9 0 1.3-1.1 1.6-2.1.3-1.2.2-2.4-1.5-2.2-2 .3-.3.9-1.1 1.9-.3-1-.6-1.2-1.5-1.5-.6-.2-.7-1.2-1.2-1.6-1-.8-.2-3.1-2.2-2.3-.4 1.2-1 1.8-1.9 2.5zM41.1 107.7c-1.8.3-2.7-.1-2.3 2.2.8 0 1.5 1.2 2.2 1 1.1-.3 2.2-.6 3.4-.9.8-.2.4-.5.6-1.1.2-.5-1.3-.1-1.5-.6.9-.2 1.9-.2 2.5-1.1-1.4-.6-3.5.3-4.9.5zM64 114.2c-1.7.6 1.1.8 1.3 1.5-.3-.1-.6.1-.9 0 .4.6.8 1.2 1.3 1.7-.6-.3-4.8-4.4-4.6-1.6h1.2c-.9.4-.7 1.3.3 1-.3.9-1.9.1-2.7.2-.5 0-1 .2-1.3.6h1.7c-1.8 1.3.7 1.3 1.6 1.2 1.3-.3 2.7-.4 4.1-.6-.2.5-.6.7-1.1.7l.3.3c-.5-.1-1.1.1-1.4.6.5 0 1.1.1 1.6.4-.3 0-.7.1-1 .1.1.9.8.8 1.5 1.1.4.1.6-.5 1-.5 1.1.1 2.5.6 3.4-.3-.3-.2-.6-.5-1-.7.4-.3.6-.7.5-1.1.2.2.5.3.7.5.2-.8-.3-1-.4-1.7 0-.6.3-1.2.2-1.7 0-.3-.6-1.4-.9-1.5-.4-.2-1.3-.7-1.7-.5-1.2.8-2.1-.3-3.7.3zM26.5 118.7c.3.7 1.8.4 2.1-.1.4-.6 1.5-1.5 1.3-2.3-.5.2-3.7 1.5-3.4 2.4zM71.8 97.4c.3 2.3 2.8 2.3 4.4 1.7-.5.8-1.3.7-2.1.9-.7.1-.4.9.2.9.6-.1.5 1.1 1.3.5.5-.4.8-.8 1.5-.5 0 .2-.1.3-.1.5.7.4 1-.2 1.6-.5.2-.1.9.8.7-.4 1.1.5 3.1-.1 3.9.6-.9.1-1.9.2-2.8.4 1.4.6 2.8.3 4.3.2-2.7.5-5.1.3-7.7 1.3.7.5 1.6.7 2.4.9-.5 0-.9.1-1.4.1.7 1.1 2.8.7 4.1 1-.9.1-1.7.2-2.6.3 1.1 1.8 3.7 1.5 5.4 1.6-.1-.5-.4-.8-.9-.9 1.1 0 1.6.4 2.5 1.2-.4-.8-.8-1.7-1.2-2.5.8.8 1.7 1.6 2.5 2.5.4-1 .7-1.5 0-2.4 3.5 1.9-.3-1.5 2.1-2.2-.2.8.1 1.4.4 2.1.6-.6 1.6-.9 1.2-1.9.6.5 3.1-.8 4.2-1.1-.4-.8-1.1-1.3-1.7-1.8-.1.3-.4.6-.5.9-.1-1.8-2-.7-2.9-.4.9-1.8 1.4-2.6-.8-2.8 1.4-1.2-.6-2.7-1.8-1.6.3.5.5.9.8 1.4-.7 0-1.4-.2-1.8-.9-.2-.4.4-1.6-.6-1.3-1.1.3-2.1-.2-2.9-1.1-1.2-1.4-1.9-2.5-3.6-2.9-1-.3-2.7-.8-3.4.3.9.3 2 0 2.8.5-.9 1.5-3.9-.7-4.9 1.7.8.3 1.9.1 2.5.6-.7.2-4.2.3-3.1 1.4-.5.2-1.1.4-1.6.6.9.4 1.5.2 2.4.5-.1.1-.3.2-.4.3.9.4 1.8-.6 2.6 0-.3.1-.6.4-.8.4l.6.6c-.3-.1-.7-.1-1-.3-1.5-.3-2.6-.3-3.8-.4zM71.6 107c-.6.3-1.2.2-1.8.4.5.2 1.4 1.2 1.6 1.2.6 0 1.2-.2 1.8-.4.6-.2 1.8-.2 2.2-.8.3-.6-.5-.9.3-1.7-.7-.3-1.7-.3-2.3-.5-.5-.2-1.1-.9-1.8-1.1-.9-.4-4.3-1-2.4.9-.2 0-.4.1-.6.1.4 1.9 2 1 3 1.9zM78.3 120.9c-.2-1.1-1.5-2.8-2.7-2.4-.7.2-4.2.8-3.6 2.6.2.7 3 1.7 3.6 2 1.6-.2 3.1 0 2.7-2.2zM84.4 113.2c-.7.6 1 1.7 1.6 1.4-.2-.2-.2-.6-.3-.7.8-.6-.8-1.1-1.3-.7zM78 110.3c.3-.4.6-.9.9-1.3-2.1-.6-4.4-.8-6.3.3.6 1.5 4.2.9 5.4 1zM51.2 128c1 .3 1.1.5 1.9 1.2.7.6 1 1.3 1.9 1 .6-.3 1.2-1.3 1.1-2 0-1-.6-1-1.4-1.5-1.2.2-2.9-.3-3.5 1.3zM105 130.3c.3.4 1 .6 1.4.8.7.4 2.9-.5 3.6-.7 1-.2 2.2.1 3.2.1-1.3-1.7-2.3-2.3-4.1-3.3-.6-.3-1.5.2-2.1-.1-.8-.3-1.5-.6-2.3-.8-1.3.2-1.5 2-.3 2.5.8.5.1.7.6 1.5zM83 109.7c-.7.7.8 1.3 1.1 1.5.7.4 1.3-.1 2-.3 0-1.5-2.2-2-3.1-1.2zM295.9 146c-.4.5-.9 1-1.3 1.4.4.1.9.2 1.3.3.8-.5.7-1.1 0-1.7zM383 95.3c-.5 0-5.7.2-5.2 1.7s4 .3 5.3.1c-.2-.2-.3-.5-.5-.7.6-.1 1.3-.2 1.9-.3-.5-.3-1-.6-1.5-.8zM374.6 96.1c-2.2-.8-2.3-.7-4.2.8l2.7.3c.5-.3 1-.7 1.5-1.1zM382 93.3c-1.4-.4-2.6-1-4-.9-2 .1-2.7-.2-4 1.4 1.3.3 2.6.7 3.9 1 1.6-.3 2.7-.4 4.1-1.5zM385.8 97.7c-.4-.9-1.4-.3-2.1-.2.3.2.6.6.9.7.5-.1.9-.3 1.2-.5zM383 90.8c-.5-.5-1.1-.9-1.6-1.4 1.1-.3 2.1-.5 3.2-.8-1.8-.3-2.5-.7-4 .4-1.2.8-2.4 1.7-3.6 2.4 1.1.1 2.2.3 3.3.5 1-.4 1.9-.7 2.7-1.1zM370.3 137c1.3 1.3 2.8 2.2 4.5 2.4 1.5.1 4.8 1.1 6.1 0-2.1-1.5-3.9-2.8-4-5.8-.1-2.4 2.2-4.4 3.5-6 .8-1 1.5-2 2.3-3 .7-.9 2.3-1.5 3.2-2 1.8-1.1 2.9-2.5 4.9-3.1 2.4-.7 4.8-1.4 7.1-2.2 1.2-.4 5.9-1.2 6.1-3.4.2-2.6-4.6-1.5-5.5-.7-1.9 1.6-4.1 1.9-6.5 2.6-2.2 0-3.6.2-5.6 1-1.6.6-4.1 1.1-5.4 2.2-1.5 1.3-2.9 2.5-4.2 4-.9 1-1.8 2.1-2.8 3.1-.7.8-.3 1.3-.1 2.4.1.4-1.9 1.6-2.3 1.8-1.3.9-.1 1-.7 2.2-.4.9-1.8.5-1.9 1.7.1 1.6.3 1.6 1.3 2.8zM363.3 146.9c.6.6 2.6-1.1 3.1-1.5-.9-.8-1.4-1-2.5-1.3-1.5.7-1.9 1.5-.6 2.8zM311.7 140.2c.5-.4.9-.7 1-1.3-.7.4-.5.8-1.3.5-.6-.2-1.1-.2-1.7-.1.3 1.3 1.1 1 2 .9zM362.3 94.5c-1 .6-1.9 1.3-2.9 1.9 1.7.6 2.9.7 4.7.7-.1-.5-.3-1.1-.5-1.6 1.9-.5 3.8-.9 5.7-1.3-1-.7-1.7-1.3-3-1-1.2.3-2.3.8-3.5.5-2.5-.6-4.2.1-6.8.9.9.2 1.7.5 2.6.7 1.3-.2 2.5-.5 3.7-.8zM383 141.1c.3.8 2.8 2.9 3.7 2.1.9-.8-2.2-2.5-2.6-2.8-.4.3-.7.5-1.1.7z"/>
      <path d="M309 141.7c2-.3 3.2-.8 4.5-2.4-.9 0-.9.8-1.6 1.2-.6.3-1.7.2-2.3.2.3.5 0 .8-.6 1zM543.9 122.9c1.4-.1 1.3-.2 1.9-1.6 1.1 1.7 2.6.3 4.2-.3.4-.2 1 1.3 1.4 1.2.8-.2 1.5-.3 2.3-.5-.3-.5-.5-.9-.8-1.3 1 .4 1.3.8 2.2.2.7-.4 1.3-.8 1.8-1.5-2-.8-4.1-1.6-6.1-2.3-.5-.2-1.5-.8-2-.6-1 .5-.5 1.2-.3 2.3-1.4-.6-4.4-3.4-5.8-2.2-1.3 1.1-2 1.4-2.5 3.1-.2.9.9 1.7 1.5 2.4.7.5 1.4 1.2 2.2 1.1zM561.7 122.8c2.4.1 3.9 0 6.2-.7.1 0 .3-1.3.2-1.5-.1-.2-1.4-.4-1.6-.5-1.2-.4-1.7-.2-2.9.2.1-.3 0-.6 0-.8-1.1 0-2.1-.3-3 .4-.1-2.1-2.5-.8-2.2.5.1.7 2.7 2 3.3 2.4zM626.4 138.8c.5-.2 1 .2 1.5.1 1.7-.3 3.1-.3 4.3-1.7-.7-.6-1.3-1.4-2.2-1.5-1.2-.1-2.4-.1-3.7-.2-.8 0-2.1.9-2.9 1.2-.2.1.4 2.3.5 2.7.8-.1 1.7-.4 2.5-.6zM385.2 95.4c.7 0 1.1-.2 1.6.4.8 1 2.8-.5 3.6-1.3.9-.9-1-2.3-2-2.1-1.5.4-2.8.8-4.2 1.5.3.8.3 1.5 1 1.5zM549.6 128.3c1.3 1.1 2.2.8 3.9.8-.4-1.5-.5-1.6-1.7-2.3-.3-.2-2.5-1.1-2.5-1.2-.1-1.1-1-2.1-2.2-1.3-1.4.9.3 1.9.9 2.4-.8.6-1.6 1.1-2.4 1.7 1.1-.1 3.1-.8 4-.1zM406.9 127.9c-1.3.1-1 .7-1.1 2 1.1-.2 2.2-.4 3.4-.6-.4-1.2-1.2-1.5-2.3-1.4zM253.1 187.7c-.1.1-.2.1-.3.2l.2.3c0-.2.2-.3.1-.5zM392.1 94.4c1.3-.3 2.6-.6 4-.9 1.2-.3.8-.8.8-2.1-.5 0-1.5-.1-1.9.1-.4.3-.4 1.2-.8 1.4-1 .6-2.1-.9-2.9.6.2.3.5.7.8.9zM449.7 99.6c1.2-.1 3.4-.8 4.2.2 1 1.3 1.6 3 3.2 2.9 1.9-.2 2.9-.3 4.7.4 1.7.6 2.4.3 4.1-.2-.2-.5-.8-1.7-.6-2.2.3-.7 1-1.6.3-2.1-1.5-.9-2.4-.1-4 .5.5-.6 1.1-1.2 1.6-1.7-.8-.2-2.6-.1-2.8-1-.4-2-.4-1.7 1.4-2.2-1.1-.8-3.2-3-4.5-3.1-1.5-.1-.5.8-1.4 1.1l-3 .9c-1.2.4-1 .7-1.4 2-.1.5-1.9.6-2.3.8-.4.1-.9 1.9-1.1 2.3-.2.2 1.3 1.2 1.6 1.4zM464.8 107.2c1.1 1.5 3.9-.4 5.2-.9.4-.1 1.1.7 1.7.6 1.2-.2 2.3-.4 3.5-.6.9-.1 1.2-.4 2-1 .4-.4-.5-1.7-1-1.8-1.1-.1-1.3-.6-2.1-1.5-.3-.4-1.9 0-2.3 0 .3-.3.7-.6 1-.9-1.6-.6-2.7-.5-3.9.7-1.2 1.3-2 2.7-2.9 4.2l-1.2 1.2zM294.1 148.9c-.3-.4-.7-.3-1.1.1 0 .2 0 .4-.1.5.6.2 1-.1 1.2-.6zM259.3 181.9c.5.1.6.1 1-.2-.3 0-.5-.2-.9-.1.1-.1.2-.1.3-.2-.7-.5-.8.2-.8.5.1.1.2.3.3.4 0-.2.1-.3.1-.4zM254.5 186.7c-.1 0-.2.1-.3.2.2.1.3.1.5.2-.4.4-.6.8-.7 1.4-.1.3-.7.5-1 .8.9.2.9.5 0 .7.5.5 1.9 0 .7-.7.7.4 1.1-.2 1.6-.7.1.1.1.2.2.3-.8.4-1 1.4-1.2 2.2-.1.6.2.6-.1 1.4-.2.4-.5.6-.1.9.7.6.5-.8.6-1.2.1-.7.1-1.5.9-1.8-1 .8-.2 1.6.5.2.1.2.2.5.2.7-.6 0-.5.2-.3.8.2.8.3.5 0 1.4-.3.9-1.2 1-.1 1.8v-.7c.5.2 1.3.8 1-.1.8.5 1.7-.5 2.8-.3-1.9.4-.9 3.3.3 2.5-.5.7-.5 2.2.2 2.6l-.2.1c-.3-.4-.2-.2-.6-.4 0 .2.1.3.1.5-.7-.1-1.3-.4-1.9.1-.2-.5-.6-.7-1.1-.5.8.6.4 1.2-.3 1.7.5-.1.9-.2 1.4-.3-.1.9.4 1.1-.2 2-.3.5-1.7.7-2.2.9.1.2.1.6.1.5.6 1 1.4-.3 2.3.2l-.3.3c.4 0 1.3.6 1.4.5.7-.2 1.3-.5 2-.7-.4.5-.8.8-.9 1.5-1.2-.2-2.6-.7-3 .9-.2.9-1.6 1.6-2.2 2.3 1.1.8 2.3-1.5 3.9-.4.9-2.2 1.2-.4 2.8-1.2.5-.2 1.4-1 2-1 .7 0 .8.8 1.6.6 1.3-.3 2.2-.3 3.6-.9 1.8-.7-.9-1.3-1.5-1.3 1.3-1 2.2-1.5 2.4-3.3.2-1.9-2.9-.6-3.2-.9 1.2-.9-.6-2.4-1.5-2.4.6-.2 1.1-.1 1.4.4-.4-2.4-2.4-2.6-3-4.5-.8-2.5-1.8-2.7-4-3 .4-.5.9-.8 1.5-.6-.7-1.4 2.5-3.1 1.7-4.4-.5-.8-4.2-.4-4.6.4l-.2-.2c.3-.2.4-.7.7-.9-.3-.1-.6-.3-1-.3h.7c.2-.9 1.8-1.1 2.1-2.4-.8-.2-2.1.1-2.9.5-.4-.2 0-.3-.6 0-.2-.9-.9-.2-.6.6-.2 0-.4.1-.6.1-.1.2-.1.4-.2.5.3.2.5.6.7.8-.4-.3-.9-.3-1.4-.1.2.3.2.8.4 1.1-.2 0-.4-.1-.6-.1-.3.6 0 .6.3.7zM294.5 149.2c.5-.3 1.1-.7 1.7-1.1-1 0-1.8-.2-1.7 1.1z"/>
      <path d="M257 195.9c-.5.2-.7.6-.8 1.1h.4c.4-.3.6-.6.4-1.1zM253.1 192.4c.5-.2.6-.6.3-1.1-.2.1-.5.3-.7.5.6 0 .2.3.4.6zM255 191.9c0 .3.1.6.4.9.2-.4.1-.8-.4-.9zM253.7 191.7c.2-.3.4-.6.5-.9-.4-.2-.8.2-.5.9zM307.5 141.4c-.2-.1-.7 0-.9 0 .1.2.1.4.2.6.5.4.8.1.7-.6zM41.3 106c1 .5.8-.2 1.6-.3.6-.1 4.2 1.3 3.7-.6-.3-1.1-3.1-1.1-3.8-.8-1.2.4-3.4.5-4.2 1.7.2.1.3.2.5.3.6-.1 1.6-.7 2.2-.3zM303.3 142.6c-.4.5-.8.7-1.3 1.2.5 0 .9 0 1.4.1.3-.6.9-.9-.1-1.3zM302.1 144.4c-.4-.8-.8-.6-1.5-.3-.9.3-.9.2-1 1.3-.1 1.5 2-.7 2.5-1zM305.2 142.2c-.6-.4-1.4-.5-1.7.4.2.1.4.2.7.3.5 0 .8-.3 1-.7zM298 145.6c.1-.2.1-.3.2-.5-.7.3-1.6.4-1.4 1.4l1.2-.9z"/>
      <path d="M303.7 143.7c.4-.1.8-.3 1.2-.4.6-.3 1.2-.6 1.7-.8-.8-.6-2.3.4-2.9 1.2zM297.4 149.1c-.2-.1-.5-.1-.7-.1 0 .3 0 .8.1 1 .6-.6 1.3-1.3 1.9-2-.6 0-1 .4-1.3 1.1zM301.6 145c-.5.4-1.1.9-1.6 1.3-.7 0-.9.4-.7 1.1.8-.8 1.5-1.6 2.3-2.4zM296.5 149.4c0 1-.5 1.2-1.3 1.3.3.2.2.3.6.5-.1.2-.2.5-.4.7.8-.9 1.3-1.2 1.1-2.5z"/>
      <path d="m297.5 147.8.3-1.5c-.7 0-1 .6-.7 1.2h-.5c-.1.7 0 .4-.5 1 .8.1 1.1.4 1.6-.3.4-.5.7-.7 1.4-.5.2-.5 0-1.6-.6-1.2-.6.3-.3.9-1 1.3zM282.9 230.5c-.7.6.6 1.9 1.2 1.9.5-1.6.6-2.3.5-4-.6.1-.1.6-.4 1-.4.5-.9.8-1.3 1.1zM518.2 336.9c-.6 1.8 2.3 1 2.7.9 0-1.2-2.3-2.1-2.7-.9zM523.4 323.8c-.6.5-1.5 1.2-1.9 1.9-.6 1.1-.2 1.3 0 2.2.1.7.2 1.6.1 2.4-.1.5 1.1 1.2 1.5 1.5-.1-1-.5-3.2 1.1-2.5-.3-.2-1.9-1.3-1.1-1.6 1-.2 1.1-1.4 0-1.7.2-.3.3-.7.6-.9-.1-.4-.2-.9-.3-1.3zM525.4 253.4c.1.5.1 1 .2 1.6 1.3.1.3-1.3 1.2-1.2 1.1.1.5 1.6.2 2-.6.9-.7 3.9.9 2.8 1.3-.9 1.7-2.7 2.4-4.1.2-.4-.5-1.3-.7-1.6-.4-.8-.9.1-1.5-.8 1-.9 2.1.5 2.7-1.3.5.9.9.5 1.6.1.3-.2 1.5-.4 1.6-.6.7-.8 2.2-.3 3.1-.2-1.5 1.3-.6 2.2.5 3.1.6-.8 1.1-2.4 2.3-2.1-.7-.6-.9-1.3-.1-1.8.9 1.5 2.9.8 3.8-.5.2.4.4.8.6 1.3.5-.8 1-1.5 1.7-2.1-.1.5-.2.9-.3 1.4 1-.3 1.2-1.2 2-1.6.1-.1-.2-2.1-.1-2.6.2-1.1.7-1.1.6-2.5 0-.8-.2-2.3 1-1.6 0-.9-.2-1.5.4-1.9.8-.5.5-1.4.5-2.3 0-.7-.7-1.6-1-2.1-.3-.6 0-1.2.1-1.8-1-.6-1.7.3-1.4 1.4-.6-2.4-2.1.7-2.3 1.7-.2.7.7 1.1.6 1.4-.3 1-.6 2-.9 2.9-.4 1.3-1.3 2.6-2.5 3.2-.7.4-1.4.8-2.2.8-.7 0 .1-1.3.4-1.5-1.1.4-1.4.3-1.5 1.5 0 .6-1 1.5-1.4 2-.5.6.2 1.1-.6 1.5-1.2.5-.7-.5-1.4-.4-1.3.1-3.8-.2-4.6 1-.9 1.4-2.2 2.3-3.7 2.2 1.1 1.4-1.2 2-2.2 2.7zM562.1 424.9c-.6.2-2.5 1.4-3 1.1-1.1-.5-2.2-1-3.2-1.5-.2 1.7 0 3.7.6 5.3.8 2 1.8 2.4 3.6 2.7 2 .5 4.2-6.9 2-7.6zM557.9 341.7c-.7-.7-.2-1.8-1.1-2.4-.9-.6-1.8-1.1-2.7-1.7-1.3-.8-3.1-1.2-4.5-1.7-2.3-.9-4.6-1.8-6.9-2.6-1.1-.4-2.9.4-3.7 1.4-.3.4-1.5 2.4-1.8 2.2-1-.5-1.5-.5-1.9-1.6-.4-1.2-.7-2-.9-3.3-.2-1.3-.5-1.1-1.7-1.4-1.8-.4-3.7 0-4.7 1.9.6.1 1.3.2 1.9.3.3.1 0 1.1.4 1.3 1.1.6 2.5.2 3.7.2 0 .2 0 .7-.1.9-1.5-.5-2.3-.2-3.8.1.6 1.1 1.3 2.1 1.9 3.2.5-.7 1.1-1.4 1.7-2 .3 1.6.3 1.6 1.6 2.1 1.6.7 3.2 1.4 4.7 2 .7.3 2.3.6 2.6 1.3.5 1.3 1.1 2.5 1.6 3.8-1.9.5-2 .3-2.3 2.4 1.4-.1 2.8-.3 4.3-.4.7-.1 1.3 2.1 2.2 2.2 1.5.1 2.9.5 4.2-.4.7-.5 1.1-2.7 1.7-2.6.8.1 3.2 0 3.8.6 1.1 1.2 2.3 2.4 3.4 3.6.9.9 2.1.8 3.3 1.1.8.1 2.2 1.2 2.8.9-.5-.6-2.1-1.7-1.4-2.3-.8-.2-1.9-.1-1.3-1.2-1.9-.1-1.8-.5-2.6-2.3-.2-.4-1-.8-1.4-1-.4-.3-.5-1.2-.7-1.7.6-.1 1.2-.1 1.8-.2.2-2.4-3.1-1.6-4.1-2.7zM565.3 341.9c-.8 0-1.6-.2-2.4.1.5 1.3 3 1.9 4.2 1.6.9-.2 2-.6 2.4-1.5.1-.3 1.9-.2.8-1.3 1.5-.3.8-1.5 0-2.1-1.1-.7-.8 1.3-.8 1.8-.1 0-3.7 2.6-2.8.4-.2-.2-.7 1-1.4 1zM495.7 347.7c0 1.1.8 2.1 1.6 1s-.9-1.3-1.6-1zM547.2 227.2c-.1.4-.1 1.4-.4 1.6-.7.4-.8.4-1 1.2-.1.2.7 2.6.9 2.6.3.1.7-.9 1.1-.8.3.1 1 .1.7-.4-.4-.7-1.7-.2-1.5-1.5.6-.2 1.3.5 1.7.3.4-.2 1.2-.7 1.6-.4.5.5 2.1 1.9 2.8 1.5 0 0 .4-1.6.5-1.7.3-.3 1.1-.9 1.5-.8 1.2 0 2.1-.2 2.9-1.1-2.2.1-.5-1.8-.9-2.7-1.5 1.6-1.6 1.2-3.5.2-1.4-.7-2-1.9-3-3.2-1.2-1.6-.7 2-.5 2.5.2.6-.8 1.2-.8 1.8 0 .6.1 1-.2 1.6-.7-.4-1.3-.5-1.9-.7zM550.6 206.4c0 1.4.2 2.7-.5 4-.8 1.6-.2 1.6.2 3.3.2 1 .2 1.1-.4 2-.3.4.1 1.2.1 1.7 0 1.6-.3 1.9.4 3.5.2-.9.2-2.2 1.2-2.4 1.1-.2 1.5 1.1 1.5 2 1-1-.2-2.6-.8-3.6-.7-1.2-1.2-1.5-.7-2.8.6-1.9.4-2.4 2.2-2.8 1.2-.2 1.1 1.8 2.2 1.8-.9-1.7-1.3-3.1-1.8-5.1-.2-.9-.5-1.8-.7-2.7-.2-.6-.9-1.1-1-1.7-.3-1.9 1.2-2.9.2-4.8-.5-1 .1-3.9-1.7-2.4.7.7 1.1 1.8.4 2.5-.3.3-.4-.3-1 .1-.6.5-.4.6-.2 1.4.2.9-.3 2.5-.5 3.5-.1.8 1.9 1.4.9 2.5zM506.9 299.8c.6 1 1.2 2 1.7 3 1.2-1.4 1-2.1-.3-3h-1.4zM516.2 304.4c-.5.3-1 .1-1.4-.3.1.6 0 1.1.3 1.5.8-.7.2 1.4 1.1 1.9 0-.3 0-.7-.1-1 .1.3.3.6.4.9.6-.8-.4-1.9-.3-3zM514.3 308.5c.9.2 1.5-1.2.3-1.4-.3.4-1.4 1.2-.3 1.4zM513.2 302.6c.2.5.6.9 1.1 1.2.1-.3.1-.9.1-1.2-.8.1-.6-.9-1.7-.8.3.6.2 1.2-.3 1.6.2-.4.6-.6.8-.8zM512.9 308.9c.2-1 .6-1.6 1.3-2.2.4-.4.2-1.5.3-2.1-.1.1-.2.1-.3.2-.4 1.2-1.5 2.7-1.3 4.1zM514.8 301.9c0 .8.6 1 1.2 1.5s-.1.6.3 1.1c1.4 1.8 1.2-.6 1-1.7-.4-1.4-1.6-1-2.5-.9zM571.7 339.5c.1.3.3.7.5 1 .5-1.1.6-1.1 0-2.1-.1-.1-.5.1-.6-.1-.1-.2-.3-.6-.5-.8-1-.8-2.2-1.4-3.2-2.1-.3 1.2 4.3 1.8 3.8 4.1z"/>
      <path d="M509.9 303.6c.2 2.3-.1 3.9 2.2 2.7-.6.8-2 2.1-.7 2.7.5.2.3.9.9.8.6-.1.3-1 .3-1.5 0-.8 1-2.4.7-2.9-.7-1.3-1.1-1.4-2.4-1.9-.2-.1-.6 0-1 .1zM504.8 332.5c-.3.8-.1 1.4-.5 2.3-.6 1.3-.9 1.4-.2 2.5.4.6 1.5-.2 1.3 1.3-.1.6-.8 3-.5 3.4.3.4 1.9.7 2.2.1.1-.2-.3-1-.3-1.3 0-.4.4-.7.4-1.1.1-.7-.1-1.7 0-2.6.1-.9-1-1.4.6-1.6.9-.1.2 1.6.3 2 .3 1 1.4.8 1.2 1.8-.3 1 .4 1.2 1.2 1-.4.1 1.6-1.6 1.4-1 .6-1.3-.8-.7-1.2-1.7-.1-.3.6-.8.4-1.1-.2-.5-.5-.9-.7-1.4-.4-.8-.8-.7-1.3-1.3 1.8.7 2.5-3 4.1-1.9.4-1.6-1-.6-1.5-.6-.8 0-.8.3-1.4.5-.7.2-.3-.7-1 .1-1.7 1.9-3.6-1.4-2.2-3.1.6-.8 1.5.1 2.4 0 1-.1 2.3-.5 3.2 0 2.2 1.3 3.5-1.2 4.2-3.1-.9 0-1.7 1.5-2.5 2-.5.3-1.2-.2-1.7-.3-.6 0-.5.4-1.2.2-.9-.3-2.6-1.3-3.5-.7-1.2.8-1.5 1.4-2.1 2.8.5 1.2-.8 1.8-1.1 2.8zM568.2 383c-1.2-1.1.4-2.5-1.4-3.1-.2-.1-1.2 1.2-1.4.5-.3-.9-.5-1.8-.8-2.6-.5-1.6-.5-2.5-1.8-3.2-.5-.3-4.2-1.9-4.2-2.5 0-1.5.4-3.2-.6-4.3-1.4-1.6-1.3-2.2-1.4-4.4-.1-1.4-1.8-2.1-2.7-1.4-.5-3.2-1.4-5.6-2.6-8.5-1.5.4-1.6 3.1-2 4.4-.4 1.5-.1 3.2 0 4.7.1 1.8-1 7.6-3.5 6.7-.9-.3-1.7-1.9-2.6-2.4-1.7-1-3.3-2-5-3-1.5-.9-.9-1.5-.4-3.3.3-1.5 1.2-2.3 2.2-3.4-1.6-1.5-2-1.6-4-1.8-1.6-.2-3.2-.4-4.9-.4.1.8.1 1.5.2 2.3-1.8-.3-3.4-1.2-4.6.4-1.1 1.7-1.4 3.2-1.9 5.2-1.6-.8-3.1-1.7-4.7-2.5-.6-.3-2.5 1.9-2.9 2.3-2.5 2.2-5.9 4-7.2 7.3-.6 1.7-.6 3.1-2.3 3.5-2.1.5-4.3 1-6.5 1.5-1.5.3-2.3 1-3.6 1.9-1.6 1.2-1.9 1.6-2.7 3.6-.3-.7-.5-1.3-.8-2-1.1 2.6-1.8 4.9-.7 7.6.6 1.6.5 1.8-.1 3.5-.4 1.2.4 2 .9 3.1 1.2 2.6 2.1 5.2 2.5 8.2.2 1.1 1.1 4 .7 5-.1.4-2.5 1.7-1.4 2.6 1 .8 2.1 2.1 3.3 2.1 1.2 0 2.7.4 3.6-.5 1.4-1.4 1.7-1.8 3.5-2 1.3-.1 2.5-.3 3.8-.4 1 0 1.9-.1 2.9-.1.3 0 .7-1.4.9-1.7.5-1.1 2.4-1.5 3.4-2 1.1-.5 2.6.3 3.5-.3.8-.5 2.2-1.8 3.1-1.7 3 .4 5.7.7 8.5 1.8 1.8.7 1.9 1 2.9 2.9.7 1.2 1.3 2.3 2.1 3.4 1.6-1.8 3-3.4 4.1-5.6.7 2.3-.7 4.1-1.9 6 1.9.4 1.8-.7 2.7-2.5.1 1.1-.2 4 1 4 1 0 1.8 2.2 2 3.1.7 3.2 3 4.1 5.7 4.5 1.8.3 2 .5 3.4-.7 1.6-1.4 1.5-.7 2.8.9.6.8 2.3.2 2.9-.5 1.4-1.4 1.6-1.6 3.5-1.6 3.2-.1 2.9-4.4 3.4-7.2.4-2.4 3-4.1 3.6-6.4.7-2.8 2.1-6.1 2.2-9 .1-2.7-.9-5.8-1.3-8.5-.8-1.2-2.1-2.3-3.4-3.5zM335.1 247.4c-.6.3-1.6 1-2.3.9-.4 0-2-.4-2.3.2-1 2 3.2.9 3.6.7-.6-.9.4-1.3 1-1.8zM285.4 192.6c.1.5.9 1.7 1.4 1.5.8-.2.6-1.2 0-1.3-.2-.7-.8-.5-1.4-.2zM526.3 355.8c.8 0 1.7.4 2.4 0s.9-1.4-.1-1.2c-1 .7-2.2-.7-2.3 1.2zM288.5 191.2c.1.5-.1.8-.5 1-.2.6 0 1.6.7 1.5.8-.1.7.7.8 1.5.2-1 0-2 1.2-2.1-.2-.2-.4-.5-.6-.6 2.8-.6-1.7-3.1-.4-.4-.6 0-.8-.3-.5-.9-.2-.1-.5-.1-.7 0zM645.3 165.6c-.4 0-2.2-.4-2.5-.1-.4.4 0 1.3.3 1.6 1.1.9 2.6-.4 3.3.5.8 1.1 2.1 1.5 2.7-.3-1.1-.6-2.6-1.7-3.8-1.7zM302 188.1c.5-.6 1-1.1 1.7-1.3-.7-.7-.1-1.2.4-1.8-2-.5-2.2 1.5-2.1 3.1zM312.6 183.1c-1.4-.4-1.9-.3-3.3.1.5.5.8 1 .5 1.8.6-1 1.9-1.3 2.8-1.9zM283 235.5c.1.3-.5.9-.5 1.2 0 .2.5.4.5.6-.1.9-.9 1-.2 1.7.6.6 1.2.6 1.3-.3 0-.6.9 0 1-1 .1-1 .3-2 .4-3.1.3-2.1-2.1-.8-2.7-.5-.2-.1-.4-.1-.6-.2-.5 1.1.6.8.8 1.6zM306.1 178.2c0-.2-.1-.5-.1-.7h.3c-.1-1.3-1.8-.3-.2.7zM318.4 249c0-.8-1.5-1-2.1-.9-1.4.2-1.7-.1-2.9-.8-.2.2-.4.8-.5 1 2 .7 3.5.8 5.5.7zM576.9 342.8c-.6-.3-.5-1.1-1.3-1.4 0 .7 0 1.1.4 1.6.3.4.2 1 .4 1.2.5.5 2.3 1.1 1.7-.3-.3-.4-.7-.9-1.2-1.1zM522 336.7c-.9 1.2.9 1.2 1.4 1.2.4 0 .2-.9.6-.7.4.1.9.5 1.4.4 1.2-.3 1.6.2 2.6.9.5-2.1-1.9-2.3-3.1-2.7-1.1.1-2.2 0-2.9.9zM602.2 440.9c-.6.2-.2 1-.7 1.7.7-.6 2.5-.3.7-1.7zM533.8 252.9c.3-.1.7.8 1 .5.2-.3 1-1 1-1.3.1-2.4-3.1-.3-3.6-.7-.7 1.6-1.3 1.2-.7 3.2 1.2.7 1.4-1.3 2.3-1.7z"/>
      <path d="M644.6 159.3c.8-.2 1.9-1.5 2.6-2.1-1.2-.9-2.5-2.5-3.8-3-1.9-.7-3.2-.8-5.2-.8.3.9.5 1.7.7 2.6-2.1 0-1.9-.7-2.7-2.8-.7-1.9-1-2-2.6-3-2.7-1.6-5.4-3-8.2-4.4-2.4-1.2-5-3-7.7-3.2-3.4-.3-6.8-.5-10.2-.8.2 1.6.5 3.2.7 4.8-.7.1-2.2.6-2.8.3-.9-.4-2-2-2.7-2.7-1-1-.9-1-2.1-.1-.8.6-1.9 0-2.8-.1-2.4-.4-3.9-.3-6.3.1-2.1.4-3.6-.4-5.6-1.1.4-1.3.5-1.6.1-2.9-.4-1.2-.9-1.1-2.1-1.4-1.9-.6-3.8-1.5-5.7-1.1-2.4.4-4.8.8-7.1 1.2-1.1.2-3.4-3.7-4.5-4.3-1.7-1-4.3-1.1-6.2-1.6-1.8-.5-3.6-1.1-5.4-1.4l-7.2-.9c-.5-.1-1.7 2-2 2.5-.5.6.7 2 1.1 2.6-1.3.5-2.5 1-3.7 1.5-.8.3-2.4-1-3.1-1.3-1-.5-2.2.3-3.2.6-1.6.5-1.8.1-3.3-.9-1.4-.9-1.2-.8-2.3.6-.4.5-2 3.2-2.5 2.9l-3.6-2.1c-.4-.2-.5-3.2-.5-3.7 0-.7.9-3.1.5-3.6-.6-.7-1.8-2.8-2.7-3.1-.9-.3-2.8.5-3.7.7-1.2.2-2.5.1-3.8.1-1.8 0-1.6 0-1.9 2-.1 1-2.3.6-3.1.6-1.3.1-2.6.1-4 .2-.9.1-2.3-1.1-3.1-1.5.6-.4 1.3-.7 1.9-1.1-3.3-.4-6.7-1.1-10-.7-2.5.2-3 .3-5.1-1.2-1.4-1-3.2-.1-4.4.9 1 .1 2 .3 3 .5-3.9 1.1-7.7 2.2-11.5 3.3 5.6-3.4 11.1-6.8 16.7-10.2.4-.2.7-1.6.9-2 .2-.3-1-1.5-1.2-1.8-.9-1.2-2.8-2-4-2.8-1.2-.8-2.7-.5-4-.5-.9 0-1.8-.1-2.7-.1-.4 0-.2 1.7-.2 2.2-1.2-.1-2.3-.1-3.4-.2.8-.7 1.7-1.5 2.6-2.2-2.1-.3-4.1-.6-6.2-.9l3.9-1.2c-1.2-1.8-4.2-1.8-5.9-.9-1.4.7-2.8 1.4-4.1 2.1-.9.5-.4 2.2-1.5 2.7-4.7 1.8-9.4 2.4-14.3 3.3-2.6.5-5.6.6-8.1 1.5-1.2.4-2.3 1.4-3.4 2-1.5.9-1.4.9-1.4 2.9 0 1 .4 2.1-.6 2.2-1.5.1-3 .3-4.5.5-2.7.3-5.4.5-8 .8.2.9.3 4.5 1.1 4.6.6.1 2.3 0 2.8.5.5.4.7 2 1 2.6-.7.1-1.6.5-2.3.1-.7-.4-1.3-1-2.1-1.3-2.4-.9-3.4-1.5-5.8-.7-.8.3-4.2 1.7-2.2 2.7 1.7.8 3.4 1.5 5.2 2.2-1.3-.1-6.2-.1-6.8-1.3-1-1.8-1.1-1.7-.2-3.5.4-.8-.9-2.6-1.6-2.4.2.6 1 2.7.1 3.1-1.2.5-2.4.7-3.1 1.9-.6.9 1.1 2.5 1.6 3.3.7 1-.5 2.4-1 3.4-.4.8.4 2.4.6 3.2.1.3 3.2-.4 3.6-.5 1.5-.2 1.7-.2 3 .7 1 .7.8 1.9 1 3.1-.8-.9-1.6-1.9-2.4-2.8-.5-.6-2.2.4-2.8.6-3.2 1 .7 3.3-.8 4.8-1.4 1.4-3.4 3.9-5.2 4.5-2.3.8-4.2-.5-5.9-1.9.7.1 2.5.7 3.1.3 1.3-.8 2.7-1.6 4-2.5.8-.5 1.2-2.5 1.6-3.3.6-1.6-.7-1.7-2-2.5-1-.7 1-6.4.4-7.7-.3-.7-1.6-2.5-1.3-3.2.5-1.4 1.1-2.9 1.6-4.4-1.4-.1-7.3-1.5-7.7-.2-.4 1.1-.7 3.5-1.6 4.2-1.2 1-2.5 2-3.7 3 .6.4 2.5 1.1 2.2 1.8-.4.9-1.7 2.6-.9 3.2 1.3.9 2.5 1.9 3.8 2.8.5.4-.1 2.5-.2 3.2-1.1-.8-2.3-2.2-3.6-2.7-1.7-.7-3.4-1.4-5.1-2-2.5-1-6.1-1.4-8.6-.3 1.1 1.4 1.8 1.5.7 3-1.2 1.6-1.1 1.5-2.9.9.2-.4.5-.8.7-1.3-1.6-.4-2-.4-3.5.3-1.3.6-2.1.4-3.6.2-.9-.1-1.5 1.9-2.6 1.7-1.7-.4-1.7-.4-2.2-2.2-1.9.9-3.8 1.7-5.7 2.6-1.3.6-2.5 1.1-3.8 1.7-.5.2-1.7.5-2 .9-.7.9.2 1.9-1.1 2.1-1.1.2-2.1.7-2.9-.2-.7-.9-1.8-1.6-1.2-2.6.4-.6 2.4-.4 3.1-.5-.6-.9-1.3-2.4-2.4-2.6-1.4-.2-2.8-.4-4.2-.5.3.3 1.5 1.4 1.4 1.8-.2 1.1-.5 2.1-.8 3.2.1-.2 1.2 1.6 1.3 1.8.2.6-.3 1.8-.5 2.5-1.1-.3-2.3-.7-3.4-1-.7-.2-1.7.9-2.3 1.3-1.1.7-2.2 1.4-3.3 2.2-.2.1 1 2.9 1.1 3.3-1.4-.5-2.9-1-4.3-1.5-1.8-.6-1.9-.9-3.3.4.6.8 1 1.6 1.9 1.6.9 0 1.4 1.5.5 1.8-1.6.7-3.6-1.2-5.2-1.9-1.4-.6-1.1-3.7-1.1-5.3 0-1.5-2.9-3.5-3.9-4.5 3.5 1.8 6.5 2.6 10.3 3.5 2 .5 2.7.4 4.7-.3.9-.3 1.1-.8 1.6-1.7.9-1.4 1-1.3.4-2.9-.5-1.6-2.4-2.5-3.8-3-1.9-.6-3.4-1.4-5.1-2.4-1.9-1.1-2.8-1.6-4.9-1.7-1 0-4.6.8-4.3-1.3.7.2 1.7.8 2-.2-.5-.2-1.8-1.3-2.2-.8-.7 1-1.8.5-2.9.4-.5 0-1.8.4-1.9.1-.4-1-1.4-.7-1.9-1.6.9.1 2.2.5 3.1.3.4-.1 2.4-1.1 1.3-1.5-1.3-.5-2.6-1-3.8-1.5-1.2-.5-.4 2.3-1.8 1.2.3-.6.7-1.2 1-1.7-.4 0-1.8-.4-2.1 0-.6.7-1.1 1.5-1.7 2.3-.1-.6-.2-1.3-.4-1.9-.8 1-1.9 3.1-3.1 3.3.5-2 1.1-2.7 2.5-4.2-1.1-.1-2.5 0-3.5.6s-1.6 2.4-2.7 2.7c-2.9.9-5.6 1.8-8.4 3.1-2.5 1.1-4.2 3.4-6 5.5-1.9 2.1-3.9 4-5.4 6.4-1.6 2.5-2.5 5.1-4.7 7.1l-2.9 2.9c-1 1.1-2.2 1.6-3.5 2.2-1.1.6-2.1 1-3.1 1.8-1.7 1.4-1.9 1.5-2 3.8-.1 2.8.9 5.4 1 8.2.1 2.3 3.8 2.7 5.2 1.8.9-.6 1.7-1.6 2.6-2.2 1.3-.9 1.6-1.1 2-2.8.2.6.3 1.6.9 1.8.7.1.1 1.2.3 1.9.1.6.6 1.3.9 1.9.2.5 0 1.2.3 1.6.7.9 2.5 2.4 2 3.6-.2.6.1 1.5.2 2.2.2 1.2.3.9 1.3.8.7 0 1.1.2 1.3-.6.2-.6.1-1.3.7-1.4 1.5-.3 2.8-.3 3.5-2.1.5-1.3.5-3.3.7-4.7.2-1.7 1.2-2.1 2.5-3.2.7-.6 2.4-1.5 2-2.5-.6-1.4-2.6-1.4-3.3-2.6-1.6-2.8.9-5.9 2.4-7.8.5-.7 6.5-3.8 5.8-5.1-.8-1.4-.3-2.3.7-3.4 1.6-1.7 1.7-1.7 4-1.6 1.6.1 2.8.8 3.3 2.4.4 1.3-.6.7-1.3 1-.7.3-1.5 1.8-2 2.5-1 1.3-2.4 2-3.4 3.2-.4.5-1.7 1.5-1.9 2.1-.1.7.6 2.3.7 2.9.3 1 .2 1.4 0 2.5-.2 1.5-.3 1.4.9 1.9 1.1.4 1.2.6 1.9 1.6.2.3 1.6-.1 1.9-.2 3.3-.6 6.6-1.4 9.8-2-.2.2-.2.6-.3.9.9.4 3 .8 3.4 1.8-.6-.1-1.7-.5-2.2-.2-.7.4-1.6.2-2.2.6-.9.6.4 1.2-1.2 1-1.1-.1-2.3-.3-3.4-.4-1.5-.2-3.3.7-4.7 1.3-.2.1.2 1.8.4 2 .3.3.6.7.9 1 .2.1.6-.4.8-.2.1.1-.3 2-.2 2.4.1.7-.5 1.9-1.3 1.8-1.5-.1-2-3.4-4-1.9-.8.6-.4 1.5-.9 2.1-.5.6-.7 1.3-.7 2.1.1 1 1.4 5.2-.8 4.1.3-.4.7-.7.9-1.3-.3.5-.9.7-1.4 1.2-.2.2-.5 0-.7.2-.2.2-.3.9-.5 1.3-.7.8-2.5.6-2.5-.7.2.1.7.3.9.4-1.3-1.1-4.2-.3-5.1 1-.6.8-3.7.9-4.5 1.4.4 0 .8.1 1.2.1 0 .2 0 .6-.1.8-.7-.4-1.4-.6-1.7-1.4-.2-.5-1.3-1.2-1.8-1.2-1.2.1-2.4 2.2-3.9 1.3.2-.4.4-.8.6-1.3-1.4.7-2.9-.6-3.2-2.2-.3-2.1 1.5-2.7 2.5-4.3-1.7-.4-1.3-2.9-.5-4-1.1.6-2.1 1.8-3.3 1.9-1.5.1-1.8 1.7-1.8 3.2 0 .9-.1 1.2.5 1.8.8.7.2 1.2.5 2.1.3.9 1.1.8.2 1.5-.5.4.5 1.3.9 1.5-.7.1-1.6-.2-1.4.8-.5-.1-1.1-.3-1.7-.2-.4.1-.7.1-1.1.2-.3.1-.1.7-.3.7-1.3.4-2.4-.3-3.4 1-.3.4-1.2.3-1.3.8-.2 1.1-.4 1.6-1 2.4-.2.2 0 .7-.2.9-.1.1-1 .2-1 .3 0 .4 1 .5 1.4.7-1-.1-1.6-.1-2.6.3-.5.3-2.4.7-2.7 1.1-.6 1 .7 1.8-.5 2.3-.8.4-1.9.7-2.5 1.5.3 0 .5.2.8.2-1.1.5-1.6.5-2.8.4-.6-.1-.5-.1-.7-.8-.2-.5-.9-.3-1.3-.4.4.8.7 1.5.8 2.4.1.5-1.9.9-2.2.9-1 .3-.1-1.7-1.7-.6-.8.5-1.7.4-2.6.5 0 .6.3 1 .9 1.2-.2 0-.4.2-.7.2.4.6.7.7 1.3.6.8 0 1 .3 1.6.8.1.1 1 .1 1.4.3.3.1 0 .6.8.4-.2.5-.1 2 .8 2.3 1.5.5 1.2 1 1.2 2.5 0 1.6.3 5.7-1.8 6.1-.8.2-2.2 0-2.9-.3-1.1-.4-2 .2-3.2-.2-1.5-.5-2.1-.4-3.6 0-1.1.3-1.7-1.2-2.9-.1.1.1.2.3.2.4-.5.1-1.8.1-2.1.7-.3.7.2 1.8.9 1.2-.2 1.2-.5 2.5 0 3.7.5 1.2-.4 3.3-.7 4.6-.3 1.3-.9 1.6-.1 2.8.2.3.6-.3.6.2 0 .4.1.9.1 1.3.1.8-.2 1.5-.3 2.3.9-.7 1.7.2 2.7-.4 1.3-.7 1.8 1 2.8.5-1 .7.5 2.6 1.3 2.3.9-.3 1.6-1.7 2.8-1.7 1.3.1 2.6.1 4 0 .4 0 .9-1.2 1.1-1.6.3-.4 1.3-.5 1.8-.6-.4-.8.9-1.8 1.3-2.5.8-1-.8-1.6-.5-2.2 1.2-2.1 1.9-3.8 3.9-4.9.7-.4 2.4-.8 2.9-1.5s-.3-2.6 0-2.9c.5-.5 1.5-1.8 2.2-1.6 1.3.4 2.5.8 3.8 1.3.5.2 4.3-2.7 4.7-3.1.5-.7 1.4-.4 2.2 0 1.4.7 1.4.8 1.8 2.5.4 1.8 2.2 2.5 3.6 3.8.7.7 1.3 1.8 2.4 1.6.6-.1 2 1 1.9 1.7.6-.3 1.3 0 1.2.8-.1.6.9.7 1.3.7.3 0 1.5 3.1 1 3.3-.7.4-.1.8-.8 1.2-.6.4-1.8.4-2.5.6-.6.1-3.2-.1-3.5-.4-1.9 2.1 3 1.9 3.4 3.4.2.8 2.3.5 1.8-.5-.5-1-.3-2.2.7-2.8 0 1.6 2-.1 1.8-1.1-.1-.7 2.4-1 .9-2.2-.5-.4-1-.4-.8-1.1.2-.9.3-1 .9-1.6.6-.6 2.1 1.5 2.6 1.7 1.3-1.7-3.8-3.9-4.8-4.7 1.1-.9-.1-.9-.8-.9-1.1-.1-1.5-.7-2.4-1.4-.7-.6-.6-1.8-1.2-2.6-.5-.7-1.7-1.3-2.4-1.8-.9-.7.1-1.8-.2-2.3-.8-1.4-.1-1.5 1.2-1.9 1.2-.3 1-.6 1.2.5.2 1.2.9 2 1.4.3 1.2.9 1.3 1.3 1.8 2.9.2.5 1.3 2 1.8 2.1 1.9.3 3.7 2 5.3 3.2 1.2.9 1.7.9 1.6 2.5-.2 1.7-.6 2.5.6 3.5.7.6 1.1 1.9 1.6 2.8 1 1.4 1 1.6 2.5 1.6-1.7 1.4-1.3 1.6-.6 3.8.6-.5 1-.7 1.3 0 .4.9 1 .7 1.8.9-.3-.9-.7-1.2.1-1.8.7-.6.6-1.2-.4-1.3.8-1 1.3-.3 2.1.3.3-1.8-1.1-2.1-2.4-3 1-1 .9-.8.2-2.1-.4-.8-1.3-1.6-.5-2.4.7.5 1.3 1.1 2.1.4.2-.2-.3-.9.1-1.1.4-.2 1-.6 1.5-.4.9.3 1.5 0 2.6.4.7.3 1.3.3 1.9.5-.7.5-1.4.7-1.2 1.7 1-.9 2-1.9 3-2.8.7-.6 2.5.7 2.9-.4.1-.4-1.9-1.3-2.3-2-.6-1.2-.9-2.6.4-3.5 1.3-.8 1.2-2 1.5-3.6.1-.5 1.2-.5 1.5-.9.3-.4.2-1.6.3-2.1.1-.9 1.8-2.2 2.4-2.8.5-.6 2.7.4 3.6 0-.4.9-1.4.5-2.2.4.4.3 1 1 1.5 1 .6 0 1.4-.2 2 0 2 .7-.9 1.7-1.7 2.1 1.5.7 2.4.5 1.7 2.3 1.1.9 3-.9 4-1.4 1-.5 2 .7 2.8-.9-1.2 0-2.4.5-3.2-.4-.6-.7-1.3-2.6.2-2.4l-.3.6c1.1-1.1 1.7-1.3 3.1-1.7v.4c.9-1.2 2.3-1.2 3.6-1.5.4-.1 1.6-.4 1.4.4-.2.7-1.8-.1-1.4 1.1h-1.6c.3.7 1.1 1.1 1.7 1.6-1.2 0-2.3.5-1.8 2.2-.5-.1-1-.2-1.6-.3 0 0-.4.5-.5.6.5.4 1.1.9 1.6 1.2.2.1 1.3.8 1.4.9 1.4.2 2.3 1.4 3.3 2.4 1 .9 2.1 1.1 3 2.2.6.7 1.2 2.5.2 3.2-1.2.8-2.2 1.3-3.7 1.2-1.3-.2-2.1.6-3.3.1-.8-.3-3.1-.7-3.4-1.1-.9-1.2-.5-.1-1.4-.5-.5-.3-1-.7-.8-1.2-1.2.4-2.3.2-3.6.1-1-.1-2.1.8-2.9 1.3-1.2.8-1.3 1.3-2.9 1-.8-.1-2.7-.5-3 .4.5.3 1 .5 1.5.8-1.6.9-2.6.9-4.4 1-1 0-3.3.5-3 2.3.5-.1 1.1-.1 1.6-.2-1.6 1.8 1 6.1 2.4 6.9.8.5 2.4 1.8 3.4 1.7 1-.2 1-.1 1.4-1.2.3-.9 1-.4 1.8-.3 1.2.2 1.7 1.6 3 1.6.6 0 1.6.1 2.1-.1.5-.3 1-1.5 1.6-1.6.4-.1 1 .8 1.4.4.3-.3.9-1 1.3-.5.4.4-1.2 2.6-.5 3.7 1.1 1.6-1.7 6.6-2.3 8.2-.9 2.6-4.1 2.9-6.1 1.9-1.7-.8-1.9-.6-3.6.3-1.6.8-1.8.8-3.4.3-1.5-.4-3-.9-4.5-1.3-.3-.1-1.1.8-1.3.4-.4-.8-.4-1.1-1.2-1.3-.9-.2-1.9-.4-2.8-.6-.6-.1-.2-1-.6-1.2-2-.5-3-.2-5 .3-.4.1-.9 1.4-1.1 1.8-.3.5.6 1.3.3 1.9-1.2 2.3-2.1 2-3.9.7-1.3-.9-2.6-.7-4-1.3-1.6-.7-1.1-2.5-2.7-2.9-2.1-.5-4.1-1.1-6.2-1.6-1.2-.3-2.4-1.9-3.4-2.8.6-.7 2.4-1.9 1.9-2.8-1-1.9-.8-1.9.1-3.9-1.2-.5-2.3-1.4-3.4-.7-1.4.9-2.6.6-4.2.5-.5 0-1.2-.2-1.7-.1-.6.1-1.2.8-1.8.9-.5 0-1.3-.4-1.8-.6-.6-.2-1.7.2-2.3.2-2.4.3-5.2 1.3-7.5 2.3-1.2.6-2.4 1.4-3.6 2.1-.3.2-1.4-.7-1.7-.8-.5-.3-1.8.3-2.3.4-1.2.3-2.3-1.8-2.7-1.7-1.5.4-1.8 2.5-2.4 4-.9 2.1-5.2 2.5-5.6 4.7-.3 1.9-.6 3.7-.8 5.6-.2 1.5-.8 1.5-2 2.3-2.3 1.5-4 2.2-5.4 4.7-2 3.5-3.9 7.1-5.8 10.6-.3.6-1.2 1.6-1.3 2.3-.1 1.2.7 3.2 1 4.3.4 1.7.8 3.4 1.1 5 .2 1-.8 2.7-1.2 3.7-.2.5-1.3 2.5-1 3 .7 1.1 1.3 2.3 1.9 3.4 2 3.5 4 7 6.1 10.6 1.2 2.2 2.2 2.8 4.2 4.3 1.6 1.1 3.2 2.3 4.8 3.4.6.5 1.5 1.5 2.3 1.3 1.7-.6 3.3-1.2 5-1.8 1.3-.5 2.2 0 3.5.3 1.3.3 1.8.7 3 0 1.5-.8 3-1.5 4.5-2.3.8-.4 7.2-1.4 7.6-.9 1 1.3 2.1 2.6 3.1 3.9.7.9 2.8.2 3.8.2 1.8-.1 1.7 0 2.9 1.6 1 1.4.9 1.5.7 3.2-.2 2-.5 4-.7 6-.1 1-.5 2 0 2.8 1.1 1.5 2.2 2.9 3.3 4.4.6.8 1.9 1.9 2.1 2.9.7 3.2 1.5 6.4 2.2 9.6.7 3 1.7 5.3.1 8.1-1.7 3-1.7 6.2-2.3 9.7-.1.7-.6 2-.2 2.7.8 1.6 1.5 3.1 2.3 4.7 1.2 2.4 2.5 4.5 3 7.2l.9 6c.1.7.1 3.2.6 3.7.8.8 2.1 1.6 2.5 2.6.7 1.8 1.4 3.5 2.1 5.3.3.8 1.3 2.4 1.2 3.3-.2 2.4-.3 2.3 1.3 3.8.5.5 1.8 2.2 2.5 2.1l4.2-.9c3-.6 6.1-1.3 9.1-1.9.8-.2 2.1-1.8 2.7-2.3 1.1-1 2.4-1.9 3.5-3 2-2.1 3.5-5 5.2-7.4.5-.8.4-3.3.4-4.3.2-1.8-.1-2.4 1.3-3.1.9-.4 3.4-1 4-1.9.6-.9.4-3.6.5-4.8.1-1-1.3-3.1-1.7-4-.6-1.4.5-1.9 1.4-2.9 1-1.2 2-2.4 3.1-3.6.8-.9 2.9-1.4 3.9-1.9 1.9-.9 3.7-3.6 3.6-5.9-.1-3.1.5-7-1.4-9.5-1.2-1.6-1.3-1.8-1.2-3.8.1-2.3.1-2.6-1.1-4.5-.7-1.1 3.7-7 4.4-8.2 3.1-5.3 7.9-9.2 11.9-13.6 1.6-1.6 2.5-3.8 3.6-5.9 1.3-2.4 3.2-4.9 3.9-7.6.2-.7 1.3-3.9 1-4.5-.5-.9-2.3-.1-3 0l-10.2 2.7c-1 .3-2.3-2.3-3.6-2.7 1.8-1.8-.5-3.3-1.7-4.6-.7-.8-1.4-1.7-2.1-2.5-.5-.5-2.3-.4-2.5-1.1-.7-1.9-1.2-4.4-2.2-6.1-.5-.8-1.6-1.6-2.3-2.2-.6-.6-.5-2-.6-2.8l-.6-3.9c-.1-.8-1.3-1.6-1.8-2.1-1.1-1.2-.9-2.9-1.6-4.5-1.3-2.6-2.5-5.2-3.8-7.8-.6-1.3-2.6-3.6-1.5-5 1 2.1 1.8 3.5 3.4 5.1.5-1.4.9-2.7 1.3-4.1-.2 1.1-.3 2.3-.5 3.4 1.2-.3 1.6 1.3 2.1 2.2 1 1.9 2.1 3.7 3.1 5.6.5.9 1.4 1.3 1.8 2 .6 1.3 1.6 2.7 1.9 4.1.2 1 .2 3.8 1.1 4.1 1.6.6 1.7.9 2.7 2.4 1.6 2.6 3 4.6 3.6 7.7.4 1.9.7 3.9 1.1 5.9.4 1.9.5 1.5 2.4 1.5 1.2 0 1.4-1.3 2.5-1.5 1.5-.4 3-.9 4.5-1.2.7-.1 1.2 0 1.7-.7.3-.5.4-.8.9-1 1.7-.6 3.5-1.2 5.2-1.9 1-.3.8-1.8 1.9-2.2.8-.3 1.5-.7 2.3-1 .5-.2 1.3.4 1.8.2.6-.3.6-2 1.2-2.3 1-.5 2.1-1 3.1-1.5s1.5-.4 1.5-1.6c0-1.4.3-2 .9-3.3 0 .3.3.6.3 1 .7-.8 2.8-2.5 2.8-3.6.1-1 .5-1.7-.5-1.9-.6-.1-1-1.5-1.3-2-.4-.7-1.2-.5-1.8-.8-.7-.3-1.5-1-2.1-1.5-1.2-.8-.8-3.1-.9-4.5-1.2 1.4-2.6 3.7-4 4.6-1.5.9-4.2.6-5.9.7-.1-1.9.1-3.6-.8-5.3-.2 1.1-.4 2.2-.5 3.3-1.3-2.5-2.5-5-3.9-7.4-.4-.7-2.3-3-1.8-3.6 1.6-1.9 1.6-1.9 3.9-1.6 1.3.2 1.6 1.8 2.1 3.1.9 1.9 1.1 2.1 2.8 2.9 1 .5 1.7 1.8 2.8 2 1.8.3 2.8.5 4.4-.1 2-.7 1.7-.2 2.7 1.8.6 1.1 1.8 1 2.9 1.2 2.5.6 5.1 1.6 7.6 1.3 1.1-.1 8-1.7 8.4-.7.4.9 1 3 1.8 3.5 1.2.7 2.7 2 4 2.3.5.1 1.1-.1 1.6-.1-.2 1.3-2.1 1.1-3 1.3.9 1 2.4 3.4 3.6 3.4 1.1 0 1.2.2 1.9-.8.7-.9 1.4-1.9 2-2.8.1 3.2.2 6.5.3 9.7 0 1-.1 2.4.1 3.4.3 1.4 1.3 2.9 1.9 4.3 2.2 5.1 4.4 10.1 7 14.9.9-.6 1.9-1.2 2.8-1.8.9-.6.7-1.7.8-2.7 1 1.1 1.6 1.3 1.5 2.8-.1 1.6 0 3 .1 4.5.3 3.5 4.7 1.2 3.6-1.4-.6-1.5-1.1-2.7-2.1-3.9-1.1-1.3-1.4-2.1-1.8-3.9-.3-1.1.6-2.9.9-4 .3-1.2 0-3-.1-4.2 0-1.4-.5-2.3.7-2.9.9-.5 2.5-.8 3.3-1.6 2.3-2.3 4.6-4.7 6.8-7 .8-.8 1.6-1.7 2.4-2.5.3-.3-.2-1.4.1-1.7.2-.2 1.2-.2 1.4-.2 1.6-.2 3.3-.5 4.9-.7.9-.1 2-1.3 2.8-1.9.8 1.9 1.3 4 2.9 5.3 1.8 1.4 2.3 3.3 3.2 5.5.3.6-.3 2.3-.4 3-.2 1.5-.3 1.4 1.1 1.7 1.3.3 1.3.3 2.2-.8.7-.9 1.4-1.7 2.1-2.6 1.1 3.4 2.2 6.3 2.4 9.9.1 1.8.5 3.8.4 5.6-.1 1-.9 4.4-.3 5.1l3.9 4.2c.9.9 1.3 3.8 1.7 5.1.6 1.8.7 2.5 2.1 3.6 1.5 1.2 2.6 2.4 4.5 2.7-.5-1.2-1.2-2.5-1.5-3.7-.3-1.3.2-3.1-.3-4.3-.3-.9-1.7-2.1-2.4-2.7-.8-.6-2.9-1.6-3.2-2.6-.2-.6-.9-4.1-1.4-4.1-1.1.1-1.1.2-1.2-.9 0-.6-.2-1.2 0-1.8.5-1.3 1.2-2.6 1.3-4.1.2-2.4-.2-2.7 2-2.8-.1.5-.1 1.1-.2 1.6 2.2.1 3.5 1.1 5.2 2.9.9 1 1.8 2 2.8 3 .7.7-.6 2.2.3 3.2 2.9-2.1 5.5-4.5 8.2-6.9.9-.9.2-3.9.2-5.1-.1-2.1-.8-2.6-2.1-4.2-1-1.3-2.1-2.5-3-3.9-.6-1-1.2-2-1.8-2.9-.2-.4.6-2.1.7-2.5.4-1.3 2.9-2.6 3.9-3.4 1.2-1 3.1-.3 4.2.5-.4.1-.7.4-1 .4.1.4.5 1.8.7 1.9 1.1.6 1.1-.7.9-1.3-.2-.9-.4-.9.4-1.2 1-.3 1.9-.7 2.9-1 3.1-1.1 6.2-2.4 9.3-3.7 2.9-1.2 4.4-4 6.4-6.5 1.9-2.4 3.1-5.8 4.6-8.4-1.2-.3-2.3-.7-3.5-1 1-.7 1.9-1.3 2.8-2-1.3-.9-2.6-1.9-3.8-2.8 1.2.2 2.4.4 3.6.7-.7-1.6-1.5-3.2-2.2-4.9-.6-1.3-1.8-2-2.8-2.9 2.3-2 4.7-4 7-6-2.1-.6-3.7-1.4-5.7-.4-1.4.7-1.3.9-2.2-.5-.6-1-1.4-1.8-2.2-2.6-.6-.7 1.5-1.4 1.7-1.5 1.2-.4 1.8-.9 2.8-1.7.8-.6 1.4-1.3 2.3-1.7 1.3-.6 1.4-.4 2.6.6-1.1 1.2-2.9 2.6-2.2 4.5 1-.6 1.9-1.2 2.9-1.7.7-.4 2.1-1.7 2.9-1.8.3 0 2.4 1.4 2.4 1.5-.2.8-1.2 2.6-1.1 3.4.3 1.5 1.8.8 2.8.7 1-.1 1.4 1.1.7 1.9-1.1 1.3.2 1.2 0 2.7-.2 1.3-.3 2.6-.5 3.8 1.7.1 2.6.1 4.1-.7 1.9-1 1.6-1.5 1.9-3.8.5-3.4-1.6-5.5-3.8-7.5 2.1-2 4.3-3.5 5.3-6.4.6-1.8.6-2.3 2.2-3.2.3-.2 1.4-1.1 1.8-1.1.5.1.9 1.5 1.4 1.4 1-.2 2.5-.2 3.3-1 1.4-1.3 2.7-2.7 4.1-4 2-2 3.3-4.3 4.8-6.8 1.7-2.6 2.7-4.3 3.4-7.3.7-3.2 1.5-6.4 2-9.7.2-1.4-4.7-5.4-5.6-3.7-1 2-1.2 1.7-3.3 1.5-.3 0-.7-1.5-.8-1.9-.4-1-.5-.9-1.5-1-.8-.1-1.4 0-1.8-.9 2.8-2 5.4-3.8 7.8-6.2 2.6-2.7 5.2-5.2 7.9-7.7.8-.7 3.7-.3 4.7-.3 1.6-.1 3 0 4.6.2.6.1 1.3.4 1.8.1.4-.3 1.6-1.3 2.1-1.2 1.7.3 3.5.7 5.2 1-.6.5-1.3.9-1.9 1.4 1.8-.2 3.6-.4 5.5-.7.4 0 2.1-.2 2.3-.5.4-.7-.9-1.3-1.4-1.8 1.7-2 3.3-3.8 5.3-5.4 1.2-1 1.6-.9 3.2-.9 1.5 0 2.1-.3 3.5-1.1-.4 2-.6 2.7.1 4.6 1.5-1.2 3.6-2.4 4.7-4.1.5-.8 1-2.3 1.9-2.4 1.2-.1 2 0 3.2.3-.3.1-2 .2-2.1.5-.3 1.2-.6 2.5-.9 3.8-.4 1.7-2.1 2.2-3.4 3.1-1.8 1.4-3.2 2.2-4.4 4.3-1.2 2.1-2.5 2.5-4.7 3.5-7.5 3.7-3 15.6-1.6 21.9 1.1-1.3 3.3-3.2 3.6-4.9.3-1.8.4-1.6 2-2.1 1.3-.3.9-1.5 1-2.9.1-1.2 1-1.1 2-1.4.4-.2 2.2-.8 2-1.3-1.1-2.7.7-3.6 2.8-4.5-1.2-1.6-1.1-1.7-.6-3.8.2-.9-2.2-1.2-2.9-1.4l3.9-6.3c.6-.9 1.5-.4 2.4-.3.8.1 2.1-.9 2.8-1.3 0 .7 0 1.4.1 2.2 1.4-2 1.5-2.2 3.8-2.5 2.4-.3 2.5-.1 4.3 1.7 1-2.4 3.2-3 5.2-4.3l7.8-4.8c.6-.4 2.2.3 2.9.4.4.1 1.4.5 1.8.4.2-.1 1-1.1.9-1.3-1-1.4-1.7-2.1-1.8-3.9-.1-1.5-1.4-1.9-2.5-2.6 1.3-.3 6-.8 6.1-2.3 0-1-.3-3.4.6-3.5 1.9-.3.4 2.2 1.3 2.3 1.4.1 2.8.2 4.3.3 1.3.1 1.1 1.3 1.5 2.7.2.9 1.9-.1 2.6.5 1.2.9 1.7 1.1 3.2 1.3-.2-.8-.9-2.1-.1-2.4 1.1-.5.9-.9.9-2.2 1.6 1.2 2.9 1.7 3.6 1.5zm-273 74.7c-.3.7-.7 1.4-.1 2.1.2.3 1 0 1.2.2.2.2.3 1 .4 1.3-.3 0-.6 0-.8-.1.8 1.5 1.8.5 1.4 2.7-.3 1.4 0 2.7.2 4.2-1.2.1-3.1.9-4.2.5-.9-.3-1.7-.5-2.6-.8-.7-.2-.8-.9-1.6-1.1-1-.2-1.3 0-1.4-1.2-.1-1-.2-1.6.2-2.6.3-.8.6-1.5.8-2.4.3-1.3.6-1.2 1.7-1.5-1.4-.7-1.7-1.2-2.6-2.7-.5-.9-1.6-1.2-2.1-2.2-.7-1.6-.9-2.3-.9-4 0-1.2-1.1-2-2.1-2 .4-.4 1.3-1.1 1.5-1.7.3-1.3.2-1.4 1.3-1.8.5-.2 2.3-.6 2.4-1.2.5-2 .4-1.2 2-1.5.6-.1 1.7-1.1 2.3-.9.8.3 1.8 1.1 2.4.3.6-.7 1.3 1 1.5 1.4.4.8-.1 1.8-.4 2.6 1.6.5 2.1-.8 2.7 1.2-1.2.2-1.5.8-2.3 1.8-.1-.9.6-1.8 1.4-2.1-1-.5-2.8-.4-4-.6-.5-.1-1.3.2-1.6.7-.6.8.1 1 .8 1.6-1 .7-1.3-.4-2.3-.2-1 .2 1.3 1.1 1.3 1.2.1.6.1 2.4.5 2.9.5.6 2 .9 2.7 1.2-.8 1.7-.6 2.4.4 4 0-.9.3-3.5 1.9-2.5.4.2.4 1.2.7 1.6.6.5 1.4.9 1.2 1.8-.7.3-4 0-3.9-.2z"/>
      <path d="M270.6 237.3c.4.3.8.7 1.2 1 .4-.3.7-.6 1.1-.9-.7-1.5-1.2-.8-2.3-.1zM622.7 416.8c-1.6 1-1.9.9-3.7.4-1.1-.3-.4-2.4-1.5-2.9.1 1.2-.6 2.1-1.4.7-.2-.4.2-1.1-.1-1.5-.2-.3-.7-.7-.8-1.1-.5-1.5.4-1.3-1.3-2-.8-.3-1.3-1.2-2.1-1.4.4.9.9 1.8 1.3 2.7.2-.1.3-.3.5-.4.5 1 1.4 4.4 2.5 4.1-.4 1.1.4 2.2 0 3.2-.5 1.5-.8 1.8-2 2.8.5.4.9 1 1.4 1.3.3.2 1.4.2 1.5.6.6 1.1-.8 2.5-1.3 3.2 1 .7 2.2 1.2 3-.4.6-1.3 1.9-2.9 1.8-4.4 0-.9 1.1-1 1.6-.7.6.3.1-.5.3-.8.7-.8 1.9-3.2.3-3.4zM612.8 426.6c0-.9-.3-1.5-.6-2.3-.9.5-1.3.5-1.5 1.6-.3 1.2-.6.7-1.2 1.5-.4.6-.4 1.6-.8 2.3-.4.6-1.3 1.1-1.8 1.6-.6.5-1.1 1.1-1.8 1.4-.5.2-1.7.5-2 1-1.1 1.5-2.3 3-3.4 4.5-1.2 1.6 2.2 1.1 2.7 1.7.7.8 3.1 1.6 3.8.5.8-1.3 2.2-2.8 2.6-4.3.5-2 1.3-2.3 2.9-3.5.1.5.4.8.9.8-.6-1.3-.7-1.4.1-2.5.8-1.1 1.7-2.2 2.5-3.2-.2-.8-.5-1.6-.7-2.4-.7.5-1.2.9-1.7 1.3zM-41.3 184.5c.6.5 1.5-.2 1.8-.7l.3.3c.1-.2.2-.3.3-.4-.4-.2-.9-.4-1.3-.5-.5.2-1 .7-1.1 1.3zM97.8 219.7c-.4-.3-.5-.1-.6 0l.4.4c0-.2.1-.3.2-.4z"/>
      <path d="M194.4 341.1c-.1-.3-2.6-.3-3-.4-2-1.4-4.4-3.9-6.6-4.8-2.7-1-5.5-2-8.2-3-2.7-1-5.5-2-8.2-3-.5-.2-1.2-1.5-1.5-1.9-1.3-1.7-2.6-3.3-3.8-5-1.3-1.7-2.8-5-4.8-5.5-2.1-.5-5.8-.6-7.5-2.2l-8-7.7c-1.4-1.4-3.3-1.4-5.1-1.8l-10.2-2.4c-1.3-.3-3.7-1.5-5-1-1.4.5-2.9 1-4.3 1.6-.5.2-2.5.5-2.8 1-1 1.7-3.7 4.6-3.6 6.8-1.3-1.4-1.9-2.3-3.7-2.9-1.8-.5-2.6.2-4.3.8-2.7 1.1-6.4-3.8-6-6.8.1-.6.6-1.2.7-1.8.2-1.1.3-2.2.5-3.3.3-1.7-.7-2.8-2.2-3.4-.7-.3-1.7-.3-2.5-.4-.7-.1-1.2.5-1.9.4-1.8-.3-3.3.2-4.9-.4.5-.5 1.7-1.8 1.4-2.5-.4-.8.9-3-.2-3 .2-.3.4-.7.6-1-.1.6.1 1.1.4 1.5.2-.9.3-1.8.7-2.6-.1.1-.2.1-.3.2l-.1-.2.6-.6c-.6 0-.5-.2-.7-.4.5 0 1.5-2.2 1.8-2.9.8-1.8-1.7-1.3-2.5-1.4-.6-.1-2.7.4-3.3.7-1.5.6-1.4 2.2-1.8 3.7-.2.8-.6 1-1.2 1.6-.3.2.2.7 0 .8-.2.2-.7.3-.9.4-.3.1-.7-.6-1.2-.5-.7.1-1.3.2-2 .5s-1.5.5-2.2.8c-.3.1-.9-.8-1.3-.9-1.8-.5-2.2-1.7-3.3-3.3-1.8-2.8-2.3-5.2-2.3-8.5 0-1.3.5-2.6.9-3.9.1-.5.5-1.2.5-1.7 0-.7-1-1.4-1-2.1 0-2.3 3.9-5.2 5.5-5.8 1-.4 2.6-1.6 3.6-1.2.5.2 1.3.7 1.9.5 1-.4 1.4.3 2.2.9.7.5 1.1-.6 1.6.5 0-.4.2-.6.1-1.1.5.3 1.7.6 1.4 1.4.4.1.9-.2.8-.7 0-.2-1.2-.6-1.4-.7 2.1-1-.7-1.3-1.4-1.4 1.1-.8 4.7.3 4.9-1.3.3 1.9 2.2.4 3.3.7.6.2 1.4.9 1.9 1.3.6.4 1.3-.1 2-.3 1.3-.4 1.8 1 2.9 1.8 1.2.8.1 2.6.5 3.8.1-.1.3-.2.4-.4-.2.9.2 1.4.5 2.2.3.7.7 1.3.9 2.2 0 .1 1.2 1.2 1.4 1.5.7.9 1.1.2 1.7-.4.7-.7.5-3.4.2-4.4-.6-2-1.2-3.6-2-5.5-.5-1.1-.8-2.9-.3-4 1.1-2.2 1.5-2.8 3.5-4 .6-.3 1-1 1.4-1.6.5-.6 1.4-.4 1.7-.8.4-.5.9-1.7 1.4-2 .3-.1.7.4 1.1.2.4-.2.8-.5 1.3-.7-.6-.4-1.2.5-1.5-.4.4 0 .6-.2.9-.3-.2-.1-.4-.4-.6-.5.4-.1 2-.1 2-.6.2-1.1-1.1-.9-1.9-.9.9-.3 1.5-.2 1.7-1.2.3-1.2-.8-.8-1-1.6-.1-.4.4-1.6.2-2.1-.3-.5-1.2-.7-1.6-1.3.5.1 1 .4 1.5.8-.4-1.9-.9-2.6.6-3.7.6-.5 0 .9 0 1-.3.7-.3 1.3-.5 2.1.9-.3.7.7 1.2 1-.3.7-.6 1.2-.6 2l.2.1c.3-1 1.1-2.1 1.6-3.1.5-.9-.8-2.4-.9-3.4.3.9 1.6 1.3 1.1 2.1.7-.6 3.2-3.9 1.4-4.1.4-.8 1.7-.5 2.4-.6.9-.1 1.4-.4 2.2-.9-.3 0-.6-.1-1 0 .1-.1.2-.2.4-.3-1.1.2-2.1.7-3.3.9 1.6-1.1 2.5-1.2 4.4-1.3.6 0 .5-1.2.9-1.1.8.2 1.7.7 2.5.1-.2-.2-.3-.5-.5-.6.1.2.1.3.2.5-2.6.3-.7-3.2-.3-4.2.3-.7.3-1.2 1-1.5 1-.4 1.5-.5 2-1.5l.4.4c.4-.9 3.8-.2 3.2-2.1.4 0 1.1.2 1.4-.1.6-.7.6.1 1.1-.3.8-.5 2-1.7 2.9-1.5-.3.4-.7.9-.7 1.3.7-.5 1.7-.2 2.5-.2-.6.6-1 1.4-1.7.8-.3-.3 0-.9-.7-.4-1 .7-4.1 2.3-2.8 4.1.4.1 1 .9 1.5.4.9-.8 1.6-2.1 2.4-2.8.4-.4.6.7 1.1.2.4-.3.9-.5 1.3-.7l3.6-1.5c-.2-.2-.3-.6-.6-.7 1.1.2 2-.4 2.9-.8.7-.3-.5-1.6-1.3-1 .3-.9.9-1.9-.2-2.4-.6.9-2.4 2.6-1.5 3.7-.2.1-.6.3-.9.3 0-.2-.1-.5-.1-.7-1.3.9-2.7.3-4.2-.4l.3-.3c-1-.2-2.4-1.3-2-2.7-.3.1-.7-.1-1 0 .6-.4 1-1.1 1.2-1.8-.6-.2-1.1-.1-1.8.1 0 0-1-1-1.4-1.1 1-.7 1.6.6 2.5-.1.6-.6 2.4-1.2 1.1-2.1.2.1.4.1.7.3-1.2-3.1-6-.5-7.8.4-2.6 1.2-3.9 3.9-6.5 5.2 1.5-1.1 2.2-2.7 3.5-4.1.7-.8 1.4-1.8 2.2-2.4.5-.4 2.3-.6 2.5-1.2.5-2.5 2.5-1.9 4.4-2 2.2-.1 4.1-.1 6.3.1 2.1.2 3.3 0 4.8-1.6.7-.8 1.1-1.4 2-1.7 1-.3 1.8-.1 2.6-.3.5-.1 2.1-1 2.4-1.5.7-1.1-.4-1.4 0-2.4.2-.5.8-2.2 0-2.4-1.1-.4-1.9-1-2.6.3-.6-.7.5-.7.1-1.6-.3-.7-1.5-.8-2.1-.8.3.3.4.4.9.5-.8.1-1.7.3-2.5.7-.3.2-.1.5-.6.6-.6.2-.9.3-1.2.8-.4.6-.7-1.1.1-1.3.9-.3 2.4-.3 2.8-1.2-.7.2-1.5.7-2.2.4 1-.3 2.1-.8 3.2-.9 1.9-.3.2-1.1-.7-1.7-1.3-.9-1.9-.9-3.5-1-.8 0-.2-.7-.6-1.3-.3-.5-1.2-1-1.6-1.3-.2-.2-1.2-.7-1.2-1-.1-.6.9-1.4.9-1.9-.1-1.1-1.7-2.9-2.2-3.8-1-1.7-2.3-5.8-4.3-5.9.1-.5.2-.9.3-1.4-.9-.2-2.1 1.5-2 2.4.2 1.2-.6 2.3-1.1 3.4-.2-.2-.6-.3-.8-.5-1 5.2-5.6-3.2-6.9.6-.8-.7.6-1.7 1.1-2.3-.3.1-.5-.1-.8 0 .4-.9.1-1.8-.1-2.8-.2-1 .1-1.3.7-2.2-.9-.4-1.6-.9-2.6-.8-1.2.2-1.9-.7-2.1-1.8-.2-.7-1.8-1.4-2.3-1.8-1.2-.8-1.5-1.5-2.7-.9-2 .9-3.8-.8-5.9-.6-1.1.1-1.8.5-1.5 1.6.5 1.7.5 2-.1 3.8-.3 1 .3 2.1.5 3 .5 1.7.4 1.6-.9 2.7-1.2 1.1-.9 1 .1 2.3.7.9 1.5 1.7 2.3 2.4 1.2 1.2 1 4.8 0 6.1-1 1.5-3.9 2.6-5.4 3.5.4.7 1.5 1.8 1.6 2.6.2 1.5.5 3 .7 4.5.2 1.4-2.6 4.5-4 2.9-1.4-1.7-3.7-3.5-3.6-5.9.1-1.7.1-3.4.2-5.1 0-.5-2.3-.5-2.8-.5-1.2-.1-2.4-.3-3.7-.4-.8-.1-2.2-1.5-2.8-2-2.2-1.6-3.9-2.4-6.4-3.3-.8-.3-1.8-.9-2.6-.7-1.6.4-2 1-2.6-.7-.3-.9-.8-3.4-1.5-4-.6-.6-2.5-.6-3.3-.8.5-2.1.9-4.2 1.3-6.3.4-1.9 1.9-3.5 2.9-5 .2-.3.8-1.7 1.2-1.7 1.2.1 1.7.1 2.8-.5 1-.5.1-1.4-.5-1.7-1.2-.6-1.4-.7-2.7-.4.2-.1.3-.4.5-.5-.8-.4-1.6-.7-2.4-1.1 1.2.3 2.5.6 3.7 1 1.9.6 2.1.5 3.8-.7.6-.4 1.2-.2 1.8-.1.5 0 1.2-.5 1.6-.7.8-.4 1.6-2.7 2.1-3.5-1.2-.2-3.1 0-4.2-.5-1.5-.8-3.1-1.6-4.6-2.3 2.2.1 4 0 6 1 1.3.7 1.7 1.3 3 .6.9-.5 1.3-1.5 1.9-2.4-.5-.3-1-.6-1.6-.9.4-1 1.6-.6 2.5-.7.4 0 .1 1 .5 1 .6.1 1.1.3 1.7.4-.1-.2-.1-.4-.2-.7.5.3 1.1.6 1.6.9-.4-.8-.7-1.6-1.1-2.4.7.7 1.3 1.8 2.2 1.3.9-.5 2.5-1.1 3.2-1.9 1-1.3.6-2-.3-2.8-.9-.8-1.2-1.8-1.7-2.9.6-.1 1.9.1 2.3-.3.6-.8-.3-1.4.3-2.5-1.4-.3-1.7-.5-2.7-1.6-.5-.6-2.6-.5-3.3-.7-1.1-.2-1.9-.5-2.1.8-.3 1.3.4 1.8 1.1 2.9-1.7.8-1.8.7-1.8 2.7 0 .4-.9.9-1.1 1.2-.6.5-.5 1-.5 1.7-.3 2.8-5.9-2.3-3.4-3.8 0 .2.1.5.1.7 1.2-.4.6-1.6.4-2.6-.1-.6-1.8-1.2-2.3-1.5-.8-.5-1.1 1.3-1.2 1.7-.1 1.1-.5 1.6-1.1 2.5-1-.7-.9-.9-.6-2.1.3-1.2-.2-1.2-1-2 .4-.3.9-.6 1.3-.9-.9-.4-1.6-1.2-2.5-.6-.8.6-1.6 0-2.5-.4l2.7-1.8c-.7-.9-2.6-2.3-2.8-3.4-.3-1.8-1.4-3.4-3.3-3.1-.2-1.2 4-3.6.3-4.1 1.2 0 3.8.6 4.9-.1 1.2-.7 2.4-3.4 3.2-4.7-2-.6-3.5-.8-5.6-.8-1.5 0-5.4-.7-3.2 1.8-.6 0-1.9-.4-2 .4-.1 1-.4 2.3.1 3.2.6 1.2.6 1.7.7 3.1 0 1.5-.1 1.4-1.4 2.2.7-.1 1.2.2 1 1-1.3-.5-2-.3-2 1.4s-.1 2.7.6 4.3c.3.7 2.7 1.2 3.4 1.5.9.3 2.2-.7 2.3.7-1.3.1-2.6.4-2.4 2.2.6-.3 1.2-.6 1.8-.8.1.7.5 1.3 0 1.8-.7.7-1.2 1.5-2.2 1.7-2.3.4-1.6 2-1 3.8-.4-.3-2-1-2.2-1.5-.2-.5.5-2.1.7-2.7-1.1-.3-2.4-.9-3.5-.9-1.8 0-1.9.8-2.4 2.4-.2.8-5.9.1-7-.2-1.2-.5-2.4-.9-3.7-1.2-.6-.1-1.1-.1-1.4-.7-.2-.5-.5-1.5-1-1.7-1.6-.9-1.8-.7-3.5-.2-1.6.6-2.4.4-2.8 2.2 2.1.1 3.6-.6 5.5-1.4.9 1.4-3.2 1.5-3.7 2.5-.8 1.4-.2 1 .1 2.4 0 .3-.3.7-.2 1 .1.6.3 1.2.4 1.8-.9-1.4-1.8-2.7-2.7-4.1-.6-1-2.3-.7-3.2-.6-2 .2-4 .3-6 .5-1.2.1-2.4-.5-3.6-.9.3-.1 3.7-1.3 2.6-2.1-1.5-1-2.4-1.9-4.2-1.9.1.2.1.4.2.6-2.8-.7-5.8-1.1-8.4-2.3-1.3-.6-3.1-1.9-4.5-1.7-.4.1-.8.1-1.2.2-.4 0 .1.9-.1 1.1-.6.4-1.8.5-2.5.6.2-.4.8-1.2.4-1.5-1.1-.6.3-1-.5-1.8-1.3 1.2-1.5 1.8-2.1 3.5-1.7-1.7-3.3-3.4-4.9-5.2-.9.7.3.9-.2 1.5-.6.7-1.2 1.4-1.9 2.2-.5-2-5.7 2.7-7.3 1.5 2.1-1.1 4.1-2.2 6.2-3.3-.8-1.4-6.5 2.1-7.8 2.7-.8.3-2.1-1.7-2.7-1-.4.4-2.9 3.4-3.3 3.3-2.2-1-4.4-2.3-6.8-2.8-3.6-.6-7.1-1.3-10.7-1.9-2.4-.4-4.8-.7-7.3-1-1.6-.2-6.5-.1-7-1.6-.7-2-5.4-.8-7-1.7-1.9-1-1.8-1-3.4.4-1.2 1-2.4 1-3.9 1.2-2.3.4-4.7 1.4-6.5 3-1 1-1.8 2.2-2.6 3.4-.7 1-2.4.7-3.6.8-.2 0-.9-.1-1 .2-.1.4-.8 1.8-.6 2.1.3.7 3.3 1.5 4 1.9 1 .5 1 2.2 2.1 2.5 1.3.5 2.4.6 3.8.8-.6.4-.4 1 .1 1.4-.2.1-.4.2-.6.2.5.2 1 .4 1.5.7-1.1.8-1.5 1.3-2.8 1-1.5-.4-2.9-.1-2.8-2-1.6.1-2.5.3-3.9 1.1.1.2.3.4.4.5-1.9 0-3.1.8-4.8 1.7.8 1.1 2.3 1.3 3.5 1.7-.3.1-.6.4-.9.5 1.3 2.6 4 2.1 6.3 1.8 1.2-.1 1.4.7 2.6 0 .9-.5 2.2-2 2.8-.4-.4.2-.8.4-1.2.7.9.9 1.6 1.2 1.1 2.4-.6 1.6-1.6.6-2.9 1.1-1.3.5-1.5 1.7-2.9 1.5-1.7-.2-1.6.3-2.6 1.9-.5.8-1.3 1.6-1.1 2.6.3 1.2.3 3.2.9 4.2.5.9 2.1 1.7 2.9 2.4.3.2 2.5-1.4 2.9-1.6l.9 5.1c.8-.4 1.7-.7 2.5-1.1.7-.3 1.8.9 2.3 1.4 1.6 1.2 3.4-.2 5-1.1.5.7 0 1-.5 1.5-.7.7-.8 1-1 2.2-.2 1.4-2.5 2.1-2 3.4-1.3-.9-3.7 1.7-4.3 2.9-.9-1.6-3.9 1.3-4.9 1.9-1.3.8-2.6 1.1-3.7 2.3 1.3.3 2.1.1 3.3-.7.5-.4.2-.8.9-.8.6-.1 1.2-.1 1.8-.3 1.4-.4 6.3-1.3 6.5-2.9.1-1.8 3.9-2.7 5.1-3.6 2.4-1.8 4.2-3.2 6.1-5.6-.6-.2-1.2-.3-1.8-.5 1.2-2.2 2-3.8 3.9-5.3 2.2-1.7 3.3-2.3 6-2.8-.4.3-.9.7-1.3 1 .4.3.8.7 1.2 1-1.7 0-2.4 0-3.9.8-.6.4-1.4 3.3-.4 3.6-.7.2-1 .7-.7 1.3 1.3-.4 7.3-2.1 6.8-3.6-.6-1.8.2-2.2 1.6-2.4 1.6-.2 2 .2 3.5 1.1 1.1.6 2.5 2 3.7 2.2 1.1.3 2.5-.7 3.6-.3 2.9 1 5.1 2 7.7 3.7 1 .7 2.4 1.4 3.3 2.3 1.1 1.1 1.9 2.9 2.8 4.3.9 1.4 1.2 1.7 2.6 2.4 1 .5 2 3 2.7 4 .9 1.3 2.1-1.4 2.4-1.2 2 1.3 2.2 1.1 2 3.6-.2 2.8 3.5 4.1 4.5 6.6.9 2.2 1.2 2.2 3.3 3.1 1.2.5 2.5.5 3.6 1.4 1.3.9 2.3 1.7 3.5 2.9 1.5 1.6 1.4 1.9 1.3 4.2-1.5-.6-3-1-4.6-1.4.9 2.6 1.5 4.3 1.4 7-.1 2.8-.3 5.6-.4 8.4-.2 3.4-.2 5.4.7 8.6.7 2.5 2.8 3.8 3.8 6.1.7 1.5 1.4 3 2.1 4.6.6 1.4 1.1 1.3 2.6 1.7 1.7.5 4.1 2.1 4.8 3.9.6 1.7 1.3 3.4 2 5 .4 1 .6 2.5 1.5 3 1.4.7 1.8 1.4 2.8 2.8 1.1 1.6-.8 1.7-1.7 1.8.7.6 1.4 1.2 2 1.8.6.5 1.1.3 1.7.8.6.5 1.7 1 1.8 1.8 0 .5-.1 2.4.3 2.7 1.4 1 3 2 3.9 3.6.4.8 1.3.5 1.5-.5.1-.8-.9-1.7-1.4-2.1-.5-.3-1.1.7-1.2-.8 0-1-.4-1.8-.8-2.7-.3-.9-.5-1.8-1.2-2.4-.9-.8-1.2-1.1-1.6-2.2-.8-2-1.9-3.2-3.3-4.8-.9-1.1-1.2-3.8-1.6-5.2 1.2.6 2.5 1.1 3.7 1.7.6.3 1.2 3.7 1.4 4.5.4 1.3 1.4 1.8 2.4 2.5 1.2.9 2 2 2.9 3.2.2.3 1 .9.9 1.3-.1.4-.4 1.2-.1 1.5 1.3 1.2 2.7 2.5 4 3.7.8.8 1.3 1.4 2 2.4.5.8 2.5 2.9 2.2 3.9-.5 1.6-1.2 2.3 0 3.5 1.2 1.3 2.5 2.5 3.7 3.8.5.5 1.6.7 2.2.9 1.9.8 3.8 1.5 5.7 2.3 2.3.9 4.9 2.7 7.3 2 1.1-.3 2.4-1.3 3.3-.4 1.4 1.4 2.8 2.7 4.2 4.1 1.6 1.5 4.9 1.7 6.9 2.2 2.6.7 3.7 2.6 5.5 4.7.7.8.4 2.2 1 3.1.7 1.1 2.6 2 3.6 2.7.5.4 1 .7 1.4 1.1.3.2.6-.3 1-.2.9.2 2.4 1.7 2.7.8.7 1.7.6 1.5 2.2.8-.2-.3-1-1.2-.7-1.5.5-.5 1-1 1.6-1.3.8-.4.8-.5 1.6 0 1.1.6 1.2.5.8 1.8-.3 1.1 2.2 2.1 1.9 3.2-.1.4.2 1.6.1 1.7-.6.6-.1 1.1 0 1.9.5 3.6-1.2 5.1-3.2 7.7-.9 1.2-1.8 2.3-2.7 3.5-.6.7-.7 2.8-.9 3.8-.5 1.9-2.1 5.3-1.1 7.1 1.6 3 3.2 5.9 4.7 8.9 1.9 3.6 3.9 7.2 5.8 10.8 1 1.8 1.4 2.9 3 4s3.1 2.2 4.7 3.3c.8.6 2.6 1.3 3.1 2.2.5.8.4 3.2.5 4.1.2 1.5.6 3.2.6 4.7-.1 1.8-.7 3.7-1 5.4-.8 4-1.5 8.1-2.3 12.1-1.3 6.7-2.5 13.3-3.8 20-1 5.3-1.2 10.9-1.8 16.2-.6 5.6-1.3 11.1-1.9 16.7-.4 3.7 1.9 7 3.3 10.4.6 1.4.8 2.9 2.1 3.5 2.5 1.2 5.1 2.4 7.6 3.7 1.8.9 2.1 1.3 3.8.5 2.1-1 4.3-2 6.4-2.9-2.4-.1-3.6.2-5.5-1.3-1-.9-2.1-1.8-3.2-2.7-.5-.4-.4-1.7-.5-2.3-.3-1.6-1.8-5.9-.4-6.7 1.4-.8 1.8-.9 2.3-2.5.3-1.1 1.4-1.9 2.1-2.8.8-1 1-1.4 1.4-2.7.4-1.3-1.4-.6-2-1.4-.4-.6-1.9-2-1.5-2.7.6-1.1.8-2.2 2-2.5 1.4-.3 1.6-.2 2.2-1.5.6-1.4 1.2-2.7 1.9-4.1.3-.7-.9-1.9-1.1-2.7-.2-1 0-2.4.1-3.4 2.1 1 3.2 1.6 5.2.2.4-.3.1-1.5.4-2.3.5-1.2.2-1.7-.2-3 2 .4 2.9.4 4.9-.1 2-.5 3.7-.5 5-2.3.4-.6 1.6-1.8 1.7-2.5.2-.9-.5-2.5-.7-3.4-.4-1.8-3.8-2-3.2-4 .9.3 6.9 2.9 7.3 2.3 1.9-2.4 3.8-4.9 5.7-7.3 2.1-2.7 4.1-5.3 6.2-8 .5-.6.4-2 .5-2.8.1-.7.1-4.4.6-4.8 2.5-1.7 5-3.4 7.5-5.2.8-.6 3.1-.2 4.1-.3 1-.1 1.5-1.5 2.1-2.4 1.3-2 3.9-4.6 4.1-7.1.3-3.8.5-7.6.8-11.4.1-1.5 1.1-2.5 1.9-3.7 1.8-2.6 3.6-5.1 5.3-7.7 1.5-2.1 1.4-2.1.8-4.7-.4-1.3-.7-2.5-.9-3.7zM107.6 229c-1.4 1-2.4 1.7-4 2.3-1.6.6-2.3 1.5-4.2 1.3.1-.1.2-.3.3-.4-.4-.1-.9-.3-1.3-.4.5-1 1-1.7 1.7-2.6.2.6.2.3.5.7-.5.2-1.1.5-1.2 1.1.9.4 1.3-.2 1.9-.7 1-.9 1.1-.9 2.3-.9.8 0 3.6-.6 3.6-1.5.5.4.4.7.4 1.1zm-.8-2.6c1.1-.2 2.6-.9 3.7-.4.6.3 2.5-1.1 3.3-1.5-.4.4-.9.7-1.3 1.1 1.5.6-1.5 3.2-2.9 1.9-.9-1-5.2 2-2.8-1.1zm-23.1-10.7 2.7-1.2c.7-.3.3-1.3 1.4-1.5-.1.2-.2.5-.3.7.6-.3.5-1 1.1-1.4 0 .4-.2.7-.4 1 .6-.4 1.3-.8.6-1.5.7-.1 1.4.4 2.1.7.5.2 1.2-.7 1.7.1 1 1.6 1 2.4 3 2.1-.5 1.4.3.9.6 1.8.1.3-.4.6-.2.9.2.3.5.6.3.9-.2.4 2.5 1.2 3 1.3 1.3.3 3 .3 4.2.6 1.6.3 1.5 2.4 2.5 3.3-.9-.5-.6.4-.7.4-.5.1-1.4-.5-1.9 0-.1-.2-.1-.2-.3-.4.2-.2.2-.3.3-.6-.9.1-.4-1.2-1.5-.7 1.5.7.4 1.8.1 2.8-.2.5.1 1.4-.2 1.7-.5.5-.9 1-1.4 1.6-.1-.7-.2-2.8-1-2.8-.4 0-1.9 1.4-2.1.8-.1-.3.8-1.2.9-1.3.7-.4.5-1.5.1-2.2h.3c-.2-1.1-1.2-.8-1.8-1.5-.5-.6-2.4-.8-1.5.4-1.1.1-.9 1.1-1.4 1.7.1-.3 0-.8 0-1.1-.6 1.2-2 1.6-1.7 3.6.3 1.8.6 3-.2 4.8-1.7 3.4-2.5-1-2.6-2.6-.1-1.1.5-2.2.7-3.3.2-.8 1-1.9.8-2.7-.7.4-1 2-1.9 1.8.2-1 1.4-2.8 2.1-3.5 0 .2 0 .4.1.6.3-.3.5-.3.8-.4-.1.2-.2.3-.3.5l.2.2c.7-1.2 2.7-1.8 3.7-.7.3-.8 1-.4 1.7-.3-.4-.4-.6-1.1-1-1.3-.6-.3-1.4 0-1.1-.9-.5.1-3.4 1.1-3.6.9-.7-.4-1.1-.1-1.6-.7-.5-.7-1.1-.6-1.8-.2.2-.8.9-1.4 1.5-1.7-1.5-1.2-4.4 2.9-6.3 1.8.1-.2.2-.4.2-.5-.8.3-1.7.8-2.5.4 1-.8 1.8-1.6 2.6-2.4zM29.5 158c-.6 1.5-3.1-.5-4.4.8.5.1.9.5 1.1 1-1.6-.5-2.8 2.7-4.1 1.6.2-.2.8-.2 1-.4.2-.2.3-.7.8-1 1.3-.8-.3-1.3-1.2-.7-.5.4-1.4 1.9-2 1.6-.9-.4-1.8.1-2.6-.6.6-.1 1.9-.2 1.2-1.2.3-.3.8-.6 1.3-.7-.2-.4-.6-.7-1-1 .9-.3 2.5.6 3.1-.4-1.1-.7-2.3-.9-3.6-.7l.2.4c-.8-.2-2.7-.2-3.4.1.1.1.1.2.2.4-.1 0-.4.3-.5.4-1.8-1.2.7-1.3 1.3-1.5 1.1-.4 2.3-.5 3.4-.9 1-.4 2.1-.7 3.1-1.1 1.7-.7 2.1-.5 3.8.1-.8.4-2.3.7-2.6 1.7 1.2.5 1.7.4 2.9.3.9-.1 1.6-1.3 2.5-1.2-.3.2-.4.5-.6.6.3 0 .5.2.8.3-.2.4-.3.8-.5 1.3s-.8 0-.9.9c.2 0 .5 0 .7-.1zm17.2 11.5c-.2-1.8-4.3-.8-4.8.7 1.2-.8 2.4-1.7 3.7-1.2-.4-.1-.7 0-1.1 0 .4.3.8.3 1.3.3-.5.1-1 .2-1.5.4.5.1.6.2 1.1 0-.6.7-1.1.4-1.8.5-.8.2-1.2.6-1.9 1.2h.5c-.5.5-1.2 1.4-1.8 1.6-1.1.5-1.7.2-2.7 1.1.5 1.1-2.7 1.5-3.5 1.4-1.3-.2-3.5-.5-4.3-1.6.6-.1 1.2.3 1.8.3 0-.1 0-.2-.1-.3.6 0 1.3.4 1.8 0l-.3-.3c.7-.1.5-.4.8-.9.4-.5.8-.1 1.3-.3 1.6-.4-1-1.3-.5-2.4-.3 0-2-.7-1.7-1 .2-.2 1.6.4 1.7.6.4.8 1.9.4 2 .7.4 1.1 1.8 1.2 2.7 1.1.9-.1 1.2-.3 1.9-1 .4-.4.7-1.1 1.2-1.5 1.3-1 3.4-.6 4.8 0-.1.1-.4.5-.6.6zm22.5 33.7c-.4-.8-2.4-2.7-.8-3.1-1.4-.4-1.7 0-1.2-1.9.3-1.1 1.6-.5 2.4-.1-.9-.7-.9-1-.3-2.2.1 0 .4.3.5.4-.4.2-.7.5-.8.9.4-.1.5 0 .8-.4l.2.1c-.9.5 1.1 4.9 1.5 5.9.2.6.6 1.8 1.1 2.3.5.5-.1 1.3.2 2.1-.2-.1-.3-.1-.5-.2 0 .5-.5 1.5-.7.6-.3-.9-.1-1.9.6-2.4-.2.1-.4.1-.7.4.1-.3.7-1.2.3-1.3-.4-.2-.8.2-1 .6.1-.6.3-1.5-.4-1.7l-.2.4c0-.2.1-.4.1-.6-.5.3-.4-.1-.5.7-.3-.3-.5-.4-.6-.5z"/>
      <path d="M98.7 220.6v-.3l-.6-.3c-.1.1-.3.2-.4.4.3.2.7.2 1 .2zM101.8 221.2l-.3.3.2.1c.3-.4.5-.6.3-1.1-.1.1-.2.2-.2.3-.2-.6-.8-.7-1.3-.5-.7.3-.9-.4-1.6.1.2 0 .4.1.6.1.6.5 1.6 1.2 2.3.7zM153.9 206.1c.3-.6.5-1.2.8-1.7-1.7-.7-3.5 1.6-4.1 3.1-1 2.5-1.9 3.6-3.7 5.5-.3.3-.5 2.2-.2 2.6.4.7 1.9.5 2.4.4 1.9-.2 3.9-.2 5.6.8-.6.2-1.1.6-1 1.4 1.7-.3 2-1.5 3.8-1.6-.2 1.3-.4 1.3.7 1.7.9.4 1.1.4 1.7-.5.6-.9-.1-3.1-.3-4.2-.2-.7-1.3-1-1.3-1.3.2-1.1 0-1.2-.7-2-.6-.6-2.9.2-3.6.4 0-.4.1-1.4-.3-1.5-.3-.1-1-.3-1-.7-.1-1.4.3-1.5 1.2-2.4zM114.6 285.2c.8-.2 1.6-.5 2.5-.7-.7-.5-1.1-1-1.9-1.2-.6-.1-.9-1-1.2-1-1.1.1-2.5-.6-3.3-1.6-.1.1-.1.2-.1.3-2.4-1.6-5-3-7.7-3.3-1.6-.2-2.9.2-4.5.6-1.3.3-1.6 1.6-2.7 2.2 2.1 1.1 4.4-3.6 6.5-1.5-.3.2-.6.3-1.1.2.4.4 1 .7 1.5.5.6-.2.7.3 1.4.3 1.1 0 2.2.8 3.4 1 1.1.2 1.2 1.5 2.4 2.1.3.1 1.5-.2 1.5.7 0 .3-1 1.1-1.2 1.3 1.4.4 2.9 0 4.5.1zM131.2 289.3c.5 1.2 2.5.2 3-.5l-.3-.3c-1-.1-3.4-.8-2.7.8zM515.5 351.9c.5-.6.7-1 1.3-1.4 1-.5 3.5-1.1 3.9-2.4-1 .1-1.9.1-2.8.3-.4.1-.9.1-1.3.3-.2.1-.2.6-.5.7-.8.4-1.7.7-2.4 1.3-.7.7.4 1.1-.5 1.9.8-.1 1.8 0 2.3-.7zM136.5 209.4c1.2 1 4.1 3.4 5.7 2.1-1.5-1.6-3.7-2.1-5.7-2.1zM17.8 136.3c1.5 1.7 1.3 1.7 3.2.6.3-.2.6-.3.9-.5.3-.2.2.4.4.4.6-.2 1.3-.6 1.9-.8l.6-2.7c.9.6 1.8-.2 2.1-1.1.2-.8.6-.8 1.4-1.1 1.6-.7 4.1-1.2 5.5-2.4.9-.8.8-1.2-.2-1.9-.7-.5-1.4-1.1-2.1-1.4-1.6-.6-3.2-1.3-4.6.2.1-.2.1-.5.2-.8-1.8.5-3.4-1.6-5.1-1.4l-6 .9c.3.6 1.8 2.6 1.5 2.9-.7.6-2.3 2.2-1.3 3.1-1.8.2-.5.8-1.1 1.7-.6.7-1.5 1.4-1.2 2.5.3-.1.7-.1 1-.2 1 .5 2 .9 2.9 2zM-66.4 177.3c-1.3-.6-2 .4-3.4.3.6.9 1.5 1.1 2.4 1.4.2-.5.7-.4 1.2-.4v-.3c-.1-.5-.5-.5-.2-1zM22.4 117.5c1 .1.5-.7.8-1 .6-.5 1.4.2 1.2 1.3.5-.2 1.3-.3 1.7-.7.4-.5-.7-1.4 0-1.7.4-.2.8 1.4 1.5.5.5-.5.1-1-.4-1.2.7-.4 1.3.2 1.3-1 0-.6.9-.5 1.2-.2-1.5 1 0 2.5 1.3 2.1.9-.2 3.2-2 1.6-2.8.2-.2.7-.2 1.1-.2-2.1-.4-.2-1.4.7-1.7-1.4-.8-1.9-1.3-3.3-.7.2.1.3.3.6.4-.6.6-1.2.2-1.9-.1-.5-.2-1.3.1-1.8.2-1.4.2-1.9.8-3 1.7-.8.6-2.2 2.5-3.2 2.6-1.6.2-2.7.6-1.5 2.2l2.1.3zM108.8 288.9c.8.6 1.4.9 2.3 1.2.5.1 1-.6 1.9-.4-.2-.2-.3-.5-.5-.7-1.1-.3-2.9-1.3-3.7-.1zM17.6 211.6c-.2-.4-1-.6-1.5-.7-.6-.2-.7-.6-1.1-1.3-1-1.9-1.4-1.5-3.2-2.1-1.5-.5-2-1.2-3.5-.7 2.5 3 5.1 4.8 8.4 6.5 2.1.8 1.9.1.9-1.7zM38 108.5c-1.3-1.2-1.4-1.3-3-.7l1.8 1.2c.4-.2.8-.4 1.2-.5zM1.7 197.4c.1-1.2-2.7-.7-2.7-.5-.1 1.5 3 6.9 4.1 5.6l-.9-.9c-.4-1.5-.7-2.6-.5-4.2zM-42.8 186c-1.8-1.1-2.1 2.7-.2 2.6.5 0 1-.9 1.6-1 .6-.1 1.1-.4 1.1-1.2.5.2.8.1 1-.4-.2 0-.4-.1-.5-.1.4-1.3-3.2-1.5-3 .1zM35.5 113.3c.9.2 1.9.7 2.7.1l-.6-.6c-.7 0-1.5-.1-2.1.5zM137.3 217.4c-1 1.8.7 2.1 1.9 2.7 1.2.6 1.5-.1 2.4-1.1-1.3-.1-2.5-.2-3.8-.3-.2-.4-.3-.9-.5-1.3zM518.3 309.2c-.2-.6-.6-1.1-1.2-1.2.1.6.2 1.2.3 1.7-.7-.1-.5-.2-.9.2-.7-.4-.9.1-.8.9-.9-.7-1.3.8-2.1 1.2.5-.6.4-1.6-.5-1.6-1-.1-.6 1.3-1.1 1.4-.9.3-2.6 1.4-1.7 2.8.4-.4 1.3-3.3 1.7-1.2.2-.5.3-.4.6-.7.1.6.1.4.5.8-.1-.3 0-.6-.1-.9 2.2-.3.7 1.8 1.2 2.9.3.7 2 2 2.3.9h.2c-.5 1.5 1.1.9.8-.4-.2-1-.8-1.6.3-2.5.6.8.2 1.6.7 2.4 0-.5.1-.9.1-1.4.1.1.2.1.3.2.1-.6.9-3 0-3 .1-.2.1-.5 0-.7-.3 0-.4-.2-.5-.2.1-.2.3-.3.4-.5.2-.6 0-1.3-.5-1.1zM506 293.2c-.5.9.1 2.2.2 3.1.1.8 1.1.8 1.7 1.1-1.3.7-.4 1.9.6 2 .9.1.6-.6 1.7 0 .4.2.7.7.9 1.1.1-.5.2-1.1.3-1.6 1.1.4 1.3.3 1.3 1.6 0 .5 1.2 1 1.6 1.3.6-1.4-.8-1-.7-2.3 1 .5 1.6 0 .8-.9-.4-.4-.4.5-.8.4-.4-.1-.9-.5-1.2-.7-.4-.2-.7-.3-1.2-.4-.5-.1-.6.7-1 .7-1 0-.6-1.1-1-1.8-.7-1.5.2-1 .2-2.3 0-.5.7 0 .9-.3.2-.3.3-.9.4-1.3.5-1.6-.1-.9-.4-2.3-.2-.7.7-1.1.2-2.1-1.5.7-.8 0-2.2-.3-.4-.1-1.3.2-1.4.7-.2 1.2-.4 2.5-.6 3.7-.1.7.6.9.4 1.6 0-.4-.3-.7-.7-1zM509.6 276.1c.2-1.1 1.3-4-.7-3-1.2.6-2.2 2.1-2.4 3.5-.3 1.6.7 2.6 1.5 3.8.7-1.5 1.2-2.6 1.6-4.3zM504.9 304.2c-.4 1.7-.5 2.5-1.7 3.7-1.2 1.1-1.8 2-2.7 3.4 1.6-1 3.1-1.3 3.4-3.3.1-.5 1.3-1.1 1.7-1.5.1-.1-.3-1.4-.1-1.8-.1-.2-.4-.4-.6-.5zM510.8 341.5c.4.4.8.7 1.2 1.1.5-.7.9-.9.4-1.6-.4-.5 0-.9.5-.8-.3-1.1-1.1-.7-1 .3-.5-1.4-1 .5-1.1 1zM484.1 328.3c-.1.5.5.9.6 1.3.1.3-.4.4-.3.7.1.4.2.7.3 1.1.2.5.4.1.3.9.6-.3.5 0 .7-.6 1 .9.9 2.9 1 4.2.1 1.2 2.4.2 3 0 .1.5.2 1.1.3 1.6 1.8-1 2-1.4 3.7-.3.3.2.9-.1 1.3 0 .4.2.5 1.2.6 1.6.9-.5 1.9-.9 2.8-1.4-.2.6-.2 1.2.5 1.1 0-1.3.1-2.6.1-4 0-1.2.3-1.3 1.3-2.1 1.2-1.1 1.2-1.1 1.1-2.8 0-.8.5-2.2 1.2-2.1 1.5.3 2.1.1.8-1.1-.3-.3-1.1-.7-1.3-1.2-.1-.3.3-.8.2-1.1-.6-1.6-1.1-1.5-1.1-3.3 0-.9 1.8-.9 2.4-1l-.9-1.2 2.1-.6c-.2-.6-.6-.6-1.2-.7-.5-.1-.8-.9-1.1-1.3-.4-.5-1.9-2-2.5-1.9-.6.1-2 2.3-2.5 2.8-.8.9-.1 1.6-1.3 1.9-1.5.4-1.7.4-2.5 1.7-.6.9-1 1.9-2 2.2-1.1.4-2.1.4-2.7 1.4-.8 1.4-1.1 1.3 0 2.4-1-.3-3.1-.2-3.3-1.6-.4.3-.9.5-1.3.8-.1 1-.2 1.8-.3 2.6zM509.5 349.6c.4 0 .5-.5.9-.4.9.2 1.3-.7 1.9-.7 1.2 0 3.4.6 4.4-.4-1.5-.6-2.3-.1-3.8-.2-.9-.1-1 0-1.7.6-.4.3-.9-.4-1.3-.1-.9.5-2.9-1.1-3.8-.1-1 1.2 1.7.8 2.1 1.3.7-.6.8 0 1.3 0zM501 348.7c-.3-.4-1.4-.8-1.9-.8-1 0-.9.4-1.3 1.3 2 .6 3.3.5 5.3.2 2.9-.5-.2-2.1-1.4-1.6.4.6 0 .9-.7.9zM507.5 351.5c-.4-.9-3.4-2-3.3-.4 1 .4 4.2 2.4 3.3.4zM119.9 289.2c.5.1 1.2-.2 1.6 0 .3.2.2 1.6 1 1.3.4-.1.4-1.4.7-1.7.6-.4.8.2 1 .2 1.1 0 1.8-.4 3-.4.9 0 .7.8 1.3-.3.2-.4-.7-1-1.1-1.1-1-.2-1.1-.2-1.6-1.2-.4-.7-.4-.2-1.1-.5-.5-.2-1.3-.7-1.8-.4-.2.1-1.1.4-1.3.4-1.5 0-1.9-.5-3.3.2 1.5.7 1.3 1.2 2.2 2.5-.9.7-4.6-.9-4.2.5 1.5.9 2 .2 3.6.5zM477.6 342.7c.3-1.7 0-3.8.5-5.3.6-1.8-1.5-3.1-2.7-1.7.9-.9 0-.9-.1-1.7-.1-.4-.1-1.8-.5-2-.4-.2-1.5-.3-1.6-.9-.1-.8.6-1.1.5-1.7-.2-.9-1.4-.8-1.4-1.4 0-1-.4-.6-1.1-1.1-.7-.5.1-.7-1-.9-.7-.1-1.2-.1-1.7-.7-.8-1.1-2.1-1.5-3.1-2.5-.8-.8-2.2-1.7-2.9-2.6-.9-1.3-.7-2-2.4-2.2-.5-.1-3.2-1.1-3.4-.7-.4.6 1.7 3.2 2 3.6.8.7 2.6 1.1 2.6 2.6.1 1.7 2 1.3 2.4 2.9.2.9.5 1.8.7 2.7.2.6.8.4 1.2.8.9 1 1.5 3.3 2.1 4.6.5 1.2 1.4 2 2.3 2.9 1.7 1.9 3.4 3.7 5.3 5.5 0-.4.1-.8.1-1.1 1 1.1 1.5-.5 2.2.9zM365.8 358.7c-.5-.7-2.2-3.3-2.3-.8-.1 2-.6 2-1.9 3.4-1 1.1-1.4 2.2-2.7 2.9-1.4.7-2.5 1.2-4 1.5-.6.1-1.2 2.7-1.1 3.4.3 1.2 1.1 3.2 1 4.5-.1 1.4-1.7 2.7-2.1 4-.5 1.6-.2 2.7.3 4.2.4 1.4.6 2.9.8 4.3.1.5 2.5 1.5 3 1.2.3-.2 2.9-.9 3-1.1.3-1.1.7-2.2 1-3.3l3.6-12c.8-2.7 1-4 .8-6.8l1 1c.9-2.2.2-4-.3-6.3l-.1-.1zM235 163.6c1.1.3 1.8-.6 1.7-1.8.9.5 1.4-.4 2-1-.7-.5-.2-1.5-.6-1.8-.7-.4-1.3-1-2.2-.7 1.1-1.8-4.2-4-3.3-1.6-1.6-.2-2 .6-3.5-.1.1.6.2 1.1.3 1.7-.6-.9-.8-1.6-1.8-1.6-.8 0-1.1.9-.9 1.6-.6-.6-1.1-1.6-1.9-1.4.7 1.6-.2.8-.6 1.5-.3.6-.5 1.2-.8 1.8-.4-.6-.8-1.2-1.2-1.9.4.1.9-.2.9-.7 0-.4-.9-.6-1.1-.8-1.2-1-1.1-1.2-2.6-1.2.2.8.7.6 1.4.7.2 2-1.8-.2-2.4.5-.8.9.6.9.4 1.3-.2.4-.9.1-1.3-.1v.6c-.6-.1-.5.1-.9.3 1.3.6 1.7.3 3-.2.6-.2 1.9.4 2.6.5-.5.3-1.1.5-1.6.8.5.3 1 .4 1.5.1v.4c-1.6 0-3.1.6-4.6.6.2 1.2 2.8.6 3.7.6-.5.5-.2.9.5.8 0 .2-.1.3-.1.5.2 0 .3 0 .5.1-.4 1.1-2.3.8-1.8 2.1 1.3-.2 2.5-.3 3.7-.5.3 0 .6.9.9 1 .4.3 1.2.3 1.7.4 1 .2 1.9.3 2.9-.2.5-.2.4-.7 1-.7.6-.1 1.2-.2 1.7-.2.6-.2 2.1-1.6 2.8-1.4zM221.9 138.7c-.2-.9-1.2-3.1-.9-4.1.8-2.4 1.3-5.4 3-7.2 1.1-1.2 2.2-2.4 3.3-3.7.3-.3-.5-3.1-.5-3.6-.2-1.1-.1-2.8-1-3.4-1.1-.8-2.2-1.5-3.3-2.3 1.6-1.6 3.2-3.2 4.9-4.8-1.7-1.2-2.8-1.6-3.6-3.6-.6-1.5 1.3-3.5 2.1-4.8.9-1.4 2.5-2 3.8-2.9 1.5-1 2.6-2 3.8-3.4-.4-.4-.8-.7-1.3-1.1 1.5-.3 3.2-.4 4.6-1.1 1.7-1 3.4-2 5.1-2.9-1.9-.7-3.9-1.9-5.9-2.3-1.4-.3-4.3-.6-5.3.6-.6.8-1 1.9-2 1.7-1.2-.2-2.3-.4-3.5-.6-1.3-.2-4 1.6-5.3 2.2.2-.4 2.7-4.3.9-4.4-1.6-.1-3 .3-4.3-.8 2.1-.8 4.2-1.5 6.3-2.3-4.1-1.8-7.7-3.7-12.1-4.3-4.9-.7-9.5-1.6-14.4-1.2-1.7.2-3.5.3-5.2.5-.6 0-1.8-.1-2.3.2-.8.5-1 2.4-2 2.2-1.4-.2-2.8-.5-4.2-.7-1.7-.3-3.7-1.2-5.3-.4-2.4 1.1-4.7 2.2-7.1 3.2 2.2 1.4 4.7 2.5 6.1 4.9-4-1.5-7.7-2.6-11.8-3.5-1.3-.3-3.1.4-4.4.6-2.9.4-5.7.8-8.6 1.1-1.2.2-3.2 0-4.4.6-1.6.8-3.2 1.7-4.9 2.5-4 2.1-8 4.1-12 6.2 1.5 1.6 3.3 1.4 5.3 1.6-.4 1.1-.9 2.2-1.3 3.4-.5 1.3-.7 1-1.9 1.1-1.9.1-3.3.5-5.2 1-2.3.7-4.7 1.3-7 2-.6.2-.5 1.6-.7 2.1-.1.4 1 1.5 1.2 1.8.7 1 1.6 2.8 2.6 3.4 1.4.8 2.7 1.6 4.1 2.4.7.4 2.6 2.1 3.4 2 1.5-.2 3.1-.4 4.6-.6 2.8-.4 5.2.2 8 .7 1.4.2 2.8.5 4.2.7.7.1 2.1 2.7 2.6 3.3 1.9 2.4 2.9 5.4 4.2 8.3.7 1.6.9 1.7.4 3.3-.5 1.5-1.4 2.4-.3 3.6 1.1 1.2 2.5 1.9 2.1 3.6-.4 1.7-1.1 2.6 0 3.9 1.4 1.6 1.3 1.6 3.3 1l4.2-1.2c-.1 1.1-.3 2.1-.4 3.2 0 .4-1.4.7-1.6.8-1 .4-1.9.8-2.9 1.2-.2.1-.2 1.5-.3 1.7-.2 1.4-1 3.8-.5 5.2l2.1 6c1.1 3.2 3.2 5.9 5 8.7 1.1 1.7 2.1 3.4 3.2 5 .5.8 2 1 2.9 1.3 1.7.6 3.4 1.3 5.1 1.9.4.2 2.8.2 2.9-.1 1.1-3.3 2.1-6.6 3.2-10 .8-2.7 1.8-5.3 2.7-7.9.5-1.4.5-1.4 1.8-1.9 1.7-.6 3.4-1.1 5.2-1.7 1.1-.4 2.7-.5 3.6-1.2 1.1-.7 2-2.6 2.9-3.6.8-.9 1-1.5 2.1-1.8 1.6-.4 3.2-.9 4.8-1.3 2.3-.6 5.2-.9 7.3-2.2 2.6-1.6 5.2-3.2 7.9-4.8 1.3-1.1 1.4-1 .9-3zM482 335.2c-1.1-.8-.7 1.4-.6 1.7 1.5.5 1.5-.9.6-1.7zM487.2 287.6c.1-.7.3-1.7 1-1.6.1-.7-.1-1.2-.7-1.3 0 .2-.1.3-.1.5-1.8-1-2.7.7-4 1.5 0 1.3-.2 1.6.8 2.1.4.3.6.3 1.1.3.6 0 0-.4.4-.5.5-.3 1.4-.3 1.5-1z"/>
      <path d="M476.4 334.2c.3.3.6.3 1 .2.2 0 .4.5.6.8.3.3.1.6.5.9.4.3.7.5 1.2.5-.3-.4-.3-.8.2-1.1-1.7.1-.8-2.5-2.2-2.4 0 .2.1.4.1.6-.7-1-.9-.1-1.4.5zM493.5 346.7c-1 .2-2.4-.5-2.1-1.9-.7.3-2.5.2-3-.4-.6-.7-.9-.3-1.1.4-.1.5-.7.2-1.1.1-1.5-.2-2.6.2-3.4-1.3-.1-.2-2.2-.7-2.6-1-.2.7-.8.3-1.4.1-.6-.1-.6.1-1 .6-1.3 1.5.4 1.6 1.5 1.8 0 .2-.1.4-.1.6 1.3.2 2.4 1 3.6 1.2.6.1 1.3-.3 1.9-.3.6.1 1.3.5 1.9.7.5.2 1.1.5 1.6.5.4 0 .9.1 1.3.2.3 0 .4-.3.6-.3 1.3.1 1.8.5 3.1.3.8.3 1.6.7 2.3 1-1.1-1 .1-2.8-2-2.3z"/>
    </g>
    <path fill="#5f110c" d="M112.5 322.9c78.9 78.9 206.8 78.9 285.6 0 28.4-28.4 46.6-63.2 54.5-99.7 6 58.3-13.4 118.8-58.1 163.4-78.9 78.9-206.8 78.9-285.6 0-50.5-50.5-68.6-121-54.5-185.9 4.5 44.6 23.9 88 58.1 122.2z" opacity=".17"/>
    <path fill="#fefefe" d="M351.1 68.5c26.7 15.1 48.6 35.3 65.2 58.8-1.6 3.3-3.3 6.5-5.2 9.7-54.9 97.1-178.2 131.3-275.2 76.3-26.7-15.1-48.6-35.3-65.2-58.8 1.6-3.3 3.3-6.5 5.2-9.7 54.9-97 178.1-131.2 275.2-76.3z" opacity=".41"/>
  </g>
  <defs>
    <path id="c" d="M106.7 297.6h292.2V500H106.7z"/>
  </defs>
  <clipPath id="d">
    <use xlink:href="#c" overflow="visible"/>
  </clipPath>
  <g clip-path="url(#d)">
    <path fill="#477256" d="M219.8 485.4s-72.2-74.3-97-36.2c-8.4 14.7 95.5 43 95.5 43l1.5-6.8z"/>
    <path fill="none" stroke="#fff" stroke-miterlimit="10" stroke-width=".835" d="M137 448s57.1 19.3 75 31.9"/>
    <path fill="none" stroke="#fff" stroke-miterlimit="10" stroke-width=".835" d="M178.3 463.4s-5.1-4.1-8.9-14.6"/>
    <path fill="#1c2c48" d="M204.4 488.3 149.6 439c30.6 5.7 70.2 46.4 70.2 46.4l-1.4 6.1-4.1-.3c-2.4-.7-5.8-1.7-9.9-2.9z" opacity=".65"/>
    <path fill="#59916f" d="M230.1 487.8s-57.2-141.5-111-105.9c-19.1 14.3 105.2 114 105.2 114l5.8-8.1z"/>
    <path fill="none" stroke="#fff" stroke-miterlimit="10" stroke-width=".835" d="M135.7 385.8s63.6 57.2 87 99"/>
    <path fill="none" stroke="#fff" stroke-miterlimit="10" stroke-width=".835" d="M130.3 402.3s17.1-.3 24.8 1.9M174.2 401.4s.6 15.8 3.9 26.4M178.1 447.5s10.3-1.9 18.2.6M160.4 456.4s-10.9.4-21.3 5.6"/>
    <path fill="#1c2c48" d="M200.3 487.1c-5.8-1.7-12.5-3.8-19.5-6.2 1.1-30.7-12.2-74.7-19.4-96.1 5.9 4.1 11.6 9.4 17 15.4l17.5 22.8c4.9 7.3 9.4 14.8 13.4 22.1l-9 42z" opacity=".65"/>
    <path fill="none" stroke="#59916f" stroke-miterlimit="10" stroke-width="1.123" d="M259.8 450.5s42.3-35.7 55.1-96.7"/>
    <path fill="#87ab9b" d="M311.7 368.2c2.2-2.9 7.9-8.8 16.6-4.3.7.3.8 1.2.4 1.8-4.7 5.9-12.8 5-16.3 4.3-.8-.1-1.2-1.1-.7-1.8z"/>
    <path fill="#59916f" d="M311.7 368.2c2.2-2.9 7.9-8.8 16.6-4.3.7.3.8 1.2.4 1.8-4.7 5.9-12.8 5-16.3 4.3-.8-.1-1.2-1.1-.7-1.8z"/>
    <path fill="#33513c" d="M312.9 368.5s5.7-3.5 8.4-3.4c2.7.1-8.4 3.4-8.4 3.4z"/>
    <path fill="#87ab9b" d="M311.7 368.2c-.4-3.6-2.5-11.6-12.3-12-.7 0-1.3.6-1.2 1.4 1.2 7.4 8.6 10.7 11.9 11.9.9.2 1.7-.5 1.6-1.3z"/>
    <path fill="#59916f" d="M311.7 368.2c-.4-3.6-2.5-11.6-12.3-12-.7 0-1.3.6-1.2 1.4 1.2 7.4 8.6 10.7 11.9 11.9.9.2 1.7-.5 1.6-1.3z"/>
    <path fill="#33513c" d="M310.6 367.8s-3.2-5.9-5.6-7.1c-2.4-1.2 5.6 7.1 5.6 7.1z"/>
    <path fill="#87ab9b" d="M303.1 388.9c2.5-2.6 9.1-7.6 17.1-1.9.6.4.6 1.3.1 1.8-5.5 5.1-13.4 3.2-16.7 2-.9-.3-1.1-1.3-.5-1.9z"/>
    <path fill="#59916f" d="M303.1 388.9c2.5-2.6 9.1-7.6 17.1-1.9.6.4.6 1.3.1 1.8-5.5 5.1-13.4 3.2-16.7 2-.9-.3-1.1-1.3-.5-1.9z"/>
    <path fill="#33513c" d="M304.2 389.3s6.1-2.6 8.8-2.2c2.7.5-8.8 2.2-8.8 2.2z"/>
    <path fill="#87ab9b" d="M303.1 388.9c.1-3.6-.8-11.8-10.5-13.6-.7-.1-1.4.5-1.4 1.2.1 7.5 7 11.8 10.2 13.4.8.4 1.7-.2 1.7-1z"/>
    <path fill="#59916f" d="M303.1 388.9c.1-3.6-.8-11.8-10.5-13.6-.7-.1-1.4.5-1.4 1.2.1 7.5 7 11.8 10.2 13.4.8.4 1.7-.2 1.7-1z"/>
    <path fill="#33513c" d="M302 388.4s-2.4-6.2-4.5-7.8c-2.2-1.6 4.5 7.8 4.5 7.8z"/>
    <path fill="#87ab9b" d="M292 410.6c2.8-2.3 9.7-6.8 17.2-.4.6.5.5 1.4-.1 1.8-5.9 4.6-13.6 2-16.8.5-.8-.3-1-1.4-.3-1.9z"/>
    <path fill="#59916f" d="M292 410.6c2.8-2.3 9.7-6.8 17.2-.4.6.5.5 1.4-.1 1.8-5.9 4.6-13.6 2-16.8.5-.8-.3-1-1.4-.3-1.9z"/>
    <path fill="#33513c" d="M293.1 411.1s6.3-2.1 8.9-1.4c2.6.7-8.9 1.4-8.9 1.4z"/>
    <path fill="#87ab9b" d="M292 410.6c.4-3.6.2-11.8-9.3-14.4-.7-.2-1.4.3-1.5 1.1-.5 7.5 5.9 12.4 9 14.2.7.4 1.7-.1 1.8-.9z"/>
    <path fill="#59916f" d="M292 410.6c.4-3.6.2-11.8-9.3-14.4-.7-.2-1.4.3-1.5 1.1-.5 7.5 5.9 12.4 9 14.2.7.4 1.7-.1 1.8-.9z"/>
    <path fill="#33513c" d="M290.9 410s-1.8-6.4-3.8-8.2c-2-1.8 3.8 8.2 3.8 8.2z"/>
    <path fill="#87ab9b" d="M277.6 431.1c3-2 10.5-5.5 17.1 1.8.5.6.3 1.4-.3 1.8-6.4 3.9-13.7.3-16.8-1.6-.7-.5-.7-1.5 0-2z"/>
    <path fill="#59916f" d="M277.6 431.1c3-2 10.5-5.5 17.1 1.8.5.6.3 1.4-.3 1.8-6.4 3.9-13.7.3-16.8-1.6-.7-.5-.7-1.5 0-2z"/>
    <path fill="#33513c" d="M278.6 431.8s6.6-1.3 9-.3c2.6 1-9 .3-9 .3z"/>
    <path fill="#87ab9b" d="M277.6 431.1c.9-3.5 1.7-11.7-7.4-15.5-.7-.3-1.5.2-1.6.9-1.5 7.4 4.3 13 7.1 15.3.7.5 1.7.1 1.9-.7z"/>
    <path fill="#59916f" d="M277.6 431.1c.9-3.5 1.7-11.7-7.4-15.5-.7-.3-1.5.2-1.6.9-1.5 7.4 4.3 13 7.1 15.3.7.5 1.7.1 1.9-.7z"/>
    <path fill="#33513c" d="M276.7 430.4s-1-6.6-2.8-8.6c-1.8-2 2.8 8.6 2.8 8.6z"/>
    <path fill="#87ab9b" d="M315.7 354.6c2.5-2.6 7.5-9.2 1.6-17.1-.4-.6-1.3-.6-1.8-.1-5 5.6-3 13.4-1.7 16.7.2.9 1.2 1.1 1.9.5z"/>
    <path fill="#59916f" d="M315.7 354.6c2.5-2.6 7.5-9.2 1.6-17.1-.4-.6-1.3-.6-1.8-.1-5 5.6-3 13.4-1.7 16.7.2.9 1.2 1.1 1.9.5z"/>
    <path fill="#33513c" d="M315.2 353.5s2.5-6.2 2-8.8c-.5-2.6-2 8.8-2 8.8z"/>
    <path fill="none" stroke="#59916f" stroke-miterlimit="10" stroke-width="1.117" d="M214.6 423.4s-37.4-40.5-42.5-102.3"/>
    <path fill="#87ab9b" d="M173.5 335.7c-1.8-3.1-6.7-9.7-15.9-6.3-.7.3-1 1.1-.6 1.7 3.9 6.4 12 6.5 15.5 6.3.9 0 1.5-1 1-1.7z"/>
    <path fill="#59916f" d="M173.5 335.7c-1.8-3.1-6.7-9.7-15.9-6.3-.7.3-1 1.1-.6 1.7 3.9 6.4 12 6.5 15.5 6.3.9 0 1.5-1 1-1.7z"/>
    <path fill="#33513c" d="M172.3 335.8s-5.2-4.1-7.9-4.4c-2.6-.2 7.9 4.4 7.9 4.4z"/>
    <path fill="#87ab9b" d="M173.5 335.7c.9-3.5 3.9-11.1 13.6-10.3.7.1 1.2.8 1 1.5-2.1 7.2-9.8 9.5-13.3 10.2-.7.2-1.5-.6-1.3-1.4z"/>
    <path fill="#59916f" d="M173.5 335.7c.9-3.5 3.9-11.1 13.6-10.3.7.1 1.2.8 1 1.5-2.1 7.2-9.8 9.5-13.3 10.2-.7.2-1.5-.6-1.3-1.4z"/>
    <path fill="#33513c" d="M174.7 335.5s3.9-5.4 6.4-6.3c2.5-1-6.4 6.3-6.4 6.3z"/>
    <path fill="#87ab9b" d="M179.4 357.2c-2.2-2.9-8-8.6-16.6-4-.7.4-.8 1.2-.3 1.8 4.8 5.7 12.8 4.8 16.3 4 .8-.1 1.2-1.1.6-1.8z"/>
    <path fill="#59916f" d="M179.4 357.2c-2.2-2.9-8-8.6-16.6-4-.7.4-.8 1.2-.3 1.8 4.8 5.7 12.8 4.8 16.3 4 .8-.1 1.2-1.1.6-1.8z"/>
    <path fill="#33513c" d="M178.3 357.5s-5.7-3.4-8.4-3.2c-2.7.1 8.4 3.2 8.4 3.2z"/>
    <path fill="#87ab9b" d="M179.4 357.2c.4-3.6 2.3-11.5 12-12.1.7 0 1.3.6 1.2 1.4-1 7.4-8.4 10.8-11.7 12-.7.2-1.5-.5-1.5-1.3z"/>
    <path fill="#59916f" d="M179.4 357.2c.4-3.6 2.3-11.5 12-12.1.7 0 1.3.6 1.2 1.4-1 7.4-8.4 10.8-11.7 12-.7.2-1.5-.5-1.5-1.3z"/>
    <path fill="#33513c" d="M180.6 356.8s3.1-5.9 5.4-7.2c2.4-1.2-5.4 7.2-5.4 7.2z"/>
    <path fill="#87ab9b" d="M187.8 380c-2.4-2.7-8.7-7.9-16.9-2.5-.6.4-.7 1.3-.2 1.8 5.3 5.3 13.2 3.7 16.5 2.6.9-.2 1.1-1.3.6-1.9z"/>
    <path fill="#59916f" d="M187.8 380c-2.4-2.7-8.7-7.9-16.9-2.5-.6.4-.7 1.3-.2 1.8 5.3 5.3 13.2 3.7 16.5 2.6.9-.2 1.1-1.3.6-1.9z"/>
    <path fill="#33513c" d="M186.6 380.4s-6-2.9-8.6-2.5c-2.7.4 8.6 2.5 8.6 2.5z"/>
    <path fill="#87ab9b" d="M187.8 380c0-3.6 1.3-11.7 10.9-13.1.7-.1 1.4.5 1.3 1.3-.4 7.5-7.4 11.5-10.6 13-.8.2-1.7-.3-1.6-1.2z"/>
    <path fill="#59916f" d="M187.8 380c0-3.6 1.3-11.7 10.9-13.1.7-.1 1.4.5 1.3 1.3-.4 7.5-7.4 11.5-10.6 13-.8.2-1.7-.3-1.6-1.2z"/>
    <path fill="#33513c" d="M188.9 379.5s2.6-6.1 4.8-7.6c2.2-1.5-4.8 7.6-4.8 7.6z"/>
    <path fill="#87ab9b" d="M199.4 402.1c-2.7-2.3-9.6-6.7-17.1-.4-.6.5-.5 1.4.1 1.8 5.9 4.6 13.5 2 16.7.5.8-.3.9-1.4.3-1.9z"/>
    <path fill="#59916f" d="M199.4 402.1c-2.7-2.3-9.6-6.7-17.1-.4-.6.5-.5 1.4.1 1.8 5.9 4.6 13.5 2 16.7.5.8-.3.9-1.4.3-1.9z"/>
    <path fill="#33513c" d="M198.3 402.6s-6.3-2.1-8.9-1.4c-2.6.7 8.9 1.4 8.9 1.4z"/>
    <path fill="#87ab9b" d="M199.4 402.1c-.4-3.6-.2-11.8 9.2-14.4.7-.2 1.4.3 1.5 1.1.6 7.4-5.9 12.3-8.9 14.2-.8.4-1.7-.1-1.8-.9z"/>
    <path fill="#59916f" d="M199.4 402.1c-.4-3.6-.2-11.8 9.2-14.4.7-.2 1.4.3 1.5 1.1.6 7.4-5.9 12.3-8.9 14.2-.8.4-1.7-.1-1.8-.9z"/>
    <path fill="#33513c" d="M200.4 401.5s1.8-6.4 3.8-8.2c2-1.8-3.8 8.2-3.8 8.2z"/>
    <path fill="#87ab9b" d="M171.3 321.8c-2.2-2.9-6.2-10 .5-17.1.5-.5 1.4-.4 1.8.2 4.3 6.1 1.3 13.6-.4 16.7-.3.8-1.4.9-1.9.2z"/>
    <path fill="#59916f" d="M171.3 321.8c-2.2-2.9-6.2-10 .5-17.1.5-.5 1.4-.4 1.8.2 4.3 6.1 1.3 13.6-.4 16.7-.3.8-1.4.9-1.9.2z"/>
    <path fill="#33513c" d="M171.9 320.8s-1.7-6.4-.9-9c.8-2.5.9 9 .9 9z"/>
    <path fill="#477256" d="M277.2 489.6s79.4-66.5 100.2-26c6.9 15.5-99.4 33-99.4 33l-.8-7z"/>
    <path fill="none" stroke="#fff" stroke-miterlimit="10" stroke-width=".835" d="M363.4 460.9s-58.8 13.3-77.9 24"/>
    <path fill="none" stroke="#fff" stroke-miterlimit="10" stroke-width=".835" d="M320.8 472s5.5-3.6 10.4-13.6"/>
    <path fill="#1c2c48" d="m292.2 494 59.6-43.4c-31 2.5-74.6 38.9-74.6 38.9l.7 6.2 4.1.1c2.6-.3 6-1 10.2-1.8z" opacity=".65"/>
    <path fill="#59916f" d="M266.7 490.9s71.4-134.9 121.2-94c17.6 16.3-116.3 102.7-116.3 102.7l-4.9-8.7z"/>
    <path fill="none" stroke="#fff" stroke-miterlimit="10" stroke-width=".835" d="M371.1 399.1s-69.1 50.4-96.7 89.6"/>
    <path fill="none" stroke="#fff" stroke-miterlimit="10" stroke-width=".835" d="M374.8 416.1s-17-2-24.9-.7M331.2 410.7s-2.3 15.7-6.6 25.8M322.6 456.2s-10.1-2.9-18.1-1.2M339.3 466.8s10.8 1.5 20.6 7.8"/>
  </g>
  <path fill="#19657c" d="M198.4 436.7h106.2V500H198.4z"/>
  <path fill="#13505e" d="M242.5 457.7c31.1-.7 62.2-21 62.2-21H198.4V500h19.8s-6.8-41.6 24.3-42.3z"/>
  <path fill="#e28b7d" d="m392.4 284.6 3.6-18.8c.4-2.1 2.2-3.5 4.3-3.5h.1c2.4 0 4.4 2 4.4 4.4v13.6l-12.4 4.3zM358.5 288.2s9.8-8.3 15.8-10.6c2.7-3.8 4.5-6.4 5.7-8.3 1.4-2.2 4.3-2.9 6.6-1.6h.1c1.7 1 2.7 2.8 2.6 4.8l-1.2 13.7-30.1 2.5M110.7 284.6l-3.6-18.8c-.4-2.1-2.2-3.5-4.3-3.5h-.1c-2.4 0-4.4 2-4.4 4.4v13.6l12.4 4.3zM144.5 288.2s-9.8-8.3-15.8-10.6c-2.7-3.8-4.5-6.4-5.7-8.3-1.4-2.2-4.3-2.9-6.6-1.6h-.1c-1.7 1-2.7 2.8-2.6 4.8l1.2 13.7 30.1 2.5"/>
  <path fill="#ffa08c" d="M198.4 241s-26.9 13.1-28.2 30.2c-1.3 17.1-3.3 47.3-3.3 47.3l-19.8-27.2c-3.7-5.1-9.3-8.6-15.6-9.4-5.6-.8-12.1-.3-16.5 4.5l-16.4-6.6-3.9-10.4c-1.1-2.9-4.4-4.3-7.3-3.1h-.1c-2.6 1.1-3.9 3.9-3.1 6.6l6.5 22s7.2 12.7 35.5 13.9c16.6 29.1 29 50.2 38.1 65.4 9.3 15.4 32.4 12.8 38-4.3l2.6-8-6.5-120.9z"/>
  <path fill="none" stroke="#c43627" stroke-miterlimit="10" stroke-width=".985" d="m166.9 318.5 21.7 29.6"/>
  <path fill="#c43627" d="M167.9 303.1c.7-10 1.6-22.8 2.3-31.9 1.3-17.1 28.2-30.2 28.2-30.2l3.7 68.9c-7.7-3.1-21.6-7.8-34.2-6.8z"/>
  <path fill="#ef8270" d="M174.7 366.6c9.3 0 17.7 4.2 23.2 10.9-8.9 9.8-25.9 9.4-33.6-3.3l-2.7-4.5c4-2 8.4-3.1 13.1-3.1z"/>
  <path fill="#ffa08c" d="M304.6 241s26.9 13.1 28.2 30.2c1.3 17.1 3.3 47.3 3.3 47.3l19.8-27.2c3.7-5.1 9.3-8.6 15.6-9.4 5.6-.8 12.1-.3 16.5 4.5l16.4-6.6 3.9-10.4c1.1-2.9 4.4-4.3 7.3-3.1h.1c2.6 1.1 3.9 3.9 3.1 6.6l-6.5 22s-7.2 12.7-35.5 13.9c-16.6 29.1-29 50.2-38.1 65.4-9.3 15.4-32.4 12.8-38-4.3l-2.6-8 6.5-120.9z"/>
  <path fill="none" stroke="#c43627" stroke-miterlimit="10" stroke-width=".985" d="m336.1 318.5-21.6 29.6"/>
  <path fill="#c43627" d="M335.1 303.1c-.7-10-1.6-22.8-2.3-31.9-1.3-17.1-28.2-30.2-28.2-30.2l-3.7 68.9c7.7-3.1 21.6-7.8 34.2-6.8z"/>
  <path fill="#ef8270" d="M328.3 366.6c-9.3 0-17.7 4.2-23.2 10.9 8.9 9.8 25.9 9.4 33.6-3.3l2.7-4.5c-3.9-2-8.4-3.1-13.1-3.1z"/>
  <path fill="#ed4e38" d="m264.4 219.4-12.8 13.8-12.8-13.8-40.4 21.6v195.7s19.6 9.2 53.1 9.2c33.6 0 53.1-9.2 53.1-9.2V241l-40.2-21.6z"/>
  <path fill="#a02920" d="m264.4 219.4-12.8 13.8-12.8-13.8-28.2 15.2c4.2 8.3 16 25.7 41 25.7 23.1 0 34.6-16.6 39.4-26.6l-26.6-14.3z"/>
  <path fill="#ffa08c" d="m284.3 230.1-20-10.7-12.8 13.8-12.8-13.8-20.4 11c8.8 12.3 20.3 19.8 32.9 19.8 12.7-.1 24.3-7.6 33.1-20.1z"/>
  <path fill="#7a150a" d="m230.8 177.1-2.4-23.3h12.4l-2.8 25.1zM272.2 177.1l1.7-15c1.3-11.3-7.6-21.2-19-21.2h-.2l5.6 26.4 7.9 12.9 4-3.1z"/>
  <path fill="#5d1408" d="M233.2 166.3s-14.1-11.4-13.5-28.9c.6-17.5 8.9-14.4 17.6-4.7 4 2.8 8.7 2.8 3.5-1.9-5.2-4.7 8-4 13.3 2.3 7.7 9 20.2 7.6 13.1 27.4-7.1 19.8-34 5.8-34 5.8z"/>
  <path fill="#ffa08c" d="M266.5 228.5v-28.9l-15 3.5-15-3.5v28.9s-.2 2.6 0 7c.5 19.4 29.5 19.4 30 0 .1-4.4 0-7 0-7z"/>
  <path fill="#6d3e3b" d="M236.6 199.6v26.7c12.6-2.9 25.9-14 29.9-17.5v-9.2l-15 3.5-14.9-3.5z"/>
  <path fill="#ffa08c" d="M228.6 184.6c.7 4 3.3 6.9 5.8 6.5 2.6-.4 4.1-4 3.5-8-.7-4-3.3-6.9-5.8-6.5-2.6.5-4.2 4-3.5 8z"/>
  <path fill="#ffa08c" d="M236.8 186.7c-.7-4-3.3-6.9-5.8-6.5-1 .2-1.9.8-2.5 1.8.2-2.8 1.6-5.1 3.6-5.4 2.6-.4 5.2 2.5 5.8 6.5.4 2.4 0 4.7-1 6.2 0-.8 0-1.7-.1-2.6z"/>
  <path fill="#af7579" d="M230.8 177.1c.4-.2.8-.4 1.2-.5 2.6-.4 5.2 2.5 5.8 6.5.7 4-.9 7.6-3.5 8-.8.1-1.6-.1-2.4-.5-.3-4-.7-8.4-1.1-13.5z"/>
  <path fill="#ffa08c" d="M274.5 184.6c-.7 4-3.3 6.9-5.8 6.5-2.6-.4-4.1-4-3.5-8 .7-4 3.3-6.9 5.8-6.5 2.6.5 4.1 4 3.5 8z"/>
  <path fill="#ffa08c" d="M266.3 186.7c.7-4 3.3-6.9 5.8-6.5 1 .2 1.9.8 2.5 1.8-.2-2.8-1.6-5.1-3.6-5.4-2.6-.4-5.2 2.5-5.8 6.5-.4 2.4 0 4.7 1 6.2-.1-.8-.1-1.7.1-2.6z"/>
  <path fill="#af7579" d="M272.2 177.1c-.4-.2-.8-.4-1.2-.5-2.6-.4-5.2 2.5-5.8 6.5-.7 4 .9 7.6 3.5 8 .8.1 1.6-.1 2.4-.5.3-4 .7-8.4 1.1-13.5z"/>
  <path fill="#ffa08c" d="M264.2 151.9c-6.9-1.3-12.7-.8-12.7-.8s-5.8-.4-12.7.8c-4.1.8-6.9 4.5-6.7 8.6.9 15.1 2 26.9 2.9 35.2.9 8.6 7.6 15.5 16.2 16.6h.6c8.6-1.2 15.3-8 16.2-16.6.9-8.3 2-20.1 2.9-35.2.3-4.1-2.6-7.8-6.7-8.6z"/>
  <g fill="#fff" opacity=".49">
    <path d="M247.8 151.1s.7-.1 1.8-.1H247c.5 0 .8.1.8.1zM264.2 151.9c-5.4-1-10.1-1-11.9-.9 2.2.1 5.1.3 8.2.9 4.1.8 6.9 4.5 6.7 8.6-.9 15.1-2 26.9-2.9 35.2-.9 8.1-6.8 14.6-14.7 16.4.5.1 1 .2 1.6.3h.6c8.6-1.2 15.3-8 16.2-16.6.9-8.3 2-20.1 2.9-35.2.3-4.2-2.6-7.9-6.7-8.7z"/>
  </g>
  <path fill="#af7579" d="M255.2 151.1s-.7-.1-1.8-.1h2.6c-.5 0-.8.1-.8.1z"/>
  <path fill="#f8faec" d="M256.1 176.7s1.1-4.9 6.2-4.9c5 0 5.4 3.1 5.4 3.1s-4.6 4.4-11.6 1.8z"/>
  <path fill="#862837" d="M258.9 166.3c1.7-.4 4.1-.7 7.2-.4 1.1.1 2.1-.8 2.1-1.9 0-1-.7-1.8-1.7-1.9-2-.3-5.5-.6-8.5-.2-1.1.2-1.9 1.1-1.9 2.2v.1c0 1.4 1.4 2.4 2.8 2.1z"/>
  <path fill="#f8faec" d="M246.9 176.7s-1.1-4.9-6.2-4.9-5.4 3.1-5.4 3.1 4.6 4.4 11.6 1.8z"/>
  <path fill="#862837" d="M244.2 166.3c-1.7-.4-4.1-.7-7.2-.4-1.1.1-2.1-.8-2.1-1.9 0-1 .7-1.8 1.7-1.9 2-.3 5.5-.6 8.5-.2 1.1.2 1.9 1.1 1.9 2.2v.1c-.1 1.4-1.4 2.4-2.8 2.1z"/>
  <path fill="none" stroke="#5d1408" stroke-linecap="round" stroke-miterlimit="10" stroke-width="1.204" d="M256.1 176.7s1.9-4.9 6.2-4.9c4.2 0 5.4 3.1 5.4 3.1M247.3 176.7s-1.9-4.9-6.2-4.9c-4.2 0-5.4 3.1-5.4 3.1M249.7 180.2l-.7 8.5 4.4-1.8M247 193.9s4.7 0 10-.8"/>
  <path fill="#5d1408" d="M257.6 173.9c.3 1.9 1.9 3.4 3.8 3.6.9-.1 1.8-.2 2.5-.5 1.4-.7 2.3-2.2 2.3-3.8v-.4c-.8-.6-2-1-3.9-1-2.3 0-3.8 1-4.7 2.1zM245.4 173.9c-.3 1.9-1.9 3.4-3.8 3.6-.9-.1-1.8-.2-2.5-.5-1.4-.7-2.3-2.2-2.3-3.8v-.4c.8-.6 2-1 3.9-1 2.3 0 3.7 1 4.7 2.1z"/>
  <path fill="#fff" d="M264.2 151.9c-6.9-1.3-12.7-.8-12.7-.8s-5.8-.4-12.7.8c-.4.1-.9.2-1.3.3-1.3 13.2-3.5 53 15.8 59.8 7.9-1.7 13.8-8.3 14.7-16.4.9-8.3 2-20.1 2.9-35.2.3-4-2.6-7.7-6.7-8.5z" opacity=".22"/>
  <g fill="#af7579" opacity=".41">
    <path d="M160.7 310zM236.6 226.3v-5.8L198.4 241s-26.9 13.1-28.2 30.2c-1.3 16.7-3.2 46.1-3.3 47.2l10.8 14.8s-2.4-55.5 2-66.1c4.6-10.5 56.9-40.8 56.9-40.8z"/>
  </g>
  <path fill="#fff" d="M336.1 318.5s-2-30.2-3.3-47.3c-1.3-17.1-28.2-30.2-28.2-30.2l-38.4-20.7s48.9 34.6 51.8 41.9c2.9 7.3 5.3 73.8 5.3 73.8l12.8-17.5z" opacity=".6"/>
  <path fill="#c43627" d="M198.4 268.7v14.4c43 2.7 87.1.9 106.2-.1v-14.1c-43.4 2.8-88.8.8-106.2-.2zM198.4 305v14.4c43 2.7 87.1.9 106.2-.1v-14.1c-43.4 2.9-88.8.8-106.2-.2zM198.4 341.3v14.4c43 2.7 87.1.9 106.2-.1v-14.1c-43.4 2.9-88.8.8-106.2-.2zM198.4 377.7v14.4c43 2.7 87.1.9 106.2-.1v-14.1c-43.4 2.8-88.8.8-106.2-.2zM198.4 414v14.4c43 2.7 87.1.9 106.2-.1v-14.1c-43.4 2.9-88.8.8-106.2-.2z"/>
  <path fill="#5d1408" d="m311.4 382.2-6.8-86V377c1.9 2.2 4.3 4 6.8 5.2zM191.6 382.2l6.8-86V377c-1.9 2.2-4.2 4-6.8 5.2z" opacity=".79"/>
  <path fill="#af7579" d="M182.6 384.3c-1-28.6-47.3-85.5-47.3-85.5s-31.5-4-36.9-6.4c-4-1.8-9.7-17-12.6-25.1-1.5 1.4-2.1 3.5-1.5 5.5l6.5 22s7.2 12.7 35.5 13.9c16.6 29.1 29 50.2 38.1 65.4 4.1 7 11.2 10.3 18.2 10.2z" opacity=".41"/>
  <path fill="#fff" d="M320.5 384.3c1-28.6 47.3-85.5 47.3-85.5s31.5-4 36.9-6.4c4-1.8 9.7-17 12.6-25.1 1.5 1.4 2.1 3.5 1.5 5.5l-6.5 22s-7.2 12.7-35.5 13.9c-16.6 29.1-29 50.2-38.1 65.4-4.2 7-11.3 10.3-18.2 10.2z" opacity=".33"/>
  <path fill="none" stroke="#0b333a" stroke-miterlimit="10" stroke-width=".985" d="M260.3 445.9v40.7M260.3 486.6h-14.9M245.4 445.8V500M282.6 443.1s4.5 18.2 22 19.8M220.4 443.1s-4.5 18.2-22 19.8"/>
  <path fill="#fff" d="M254.7 349.3c4.6-21.5-42.6 47.5 11.5 96 24.5-2 38.4-8.6 38.4-8.6V268.9s-10.9 80.1-33.7 106.5c-22.7 26.5-20.9-4.6-16.2-26.1z" opacity=".6"/>
  <g fill="#ed4e38">
    <ellipse cx="366.9" cy="230.2" rx="32.2" ry="20"/>
    <path d="m353.4 242.3-12 17.6 27.4-13.6z"/>
  </g>
  <g fill="#124d5b">
    <ellipse cx="444" cy="229.9" rx="32.2" ry="20"/>
    <path d="m430.4 242-11.9 17.6 27.4-13.7z"/>
  </g>
  <g fill="#e29837">
    <ellipse cx="84" cy="107.6" rx="40.2" ry="25"/>
    <path d="m101 122.6 14.9 22-34.2-17z"/>
  </g>
  <g fill="#e29837">
    <ellipse cx="260.3" cy="57.1" rx="52.3" ry="32.5"/>
    <path d="m282.4 76.7-24.8 36.9-.3-30.5z"/>
  </g>
  <g fill="#19657c">
    <ellipse cx="161.6" cy="64.4" rx="35.6" ry="22.1"/>
    <path d="m176.6 77.7 13.2 19.5-30.2-15.1z"/>
  </g>
  <g fill="#19657c">
    <ellipse cx="85.6" cy="206.6" rx="43" ry="26.7"/>
    <path d="m103.8 222.7 15.9 23.5L83.2 228z"/>
  </g>
  <g fill="#fff6e7">
    <path d="M62.8 194h3.8v9.9h4.1V194h3.8v24.4h-3.8v-11h-4.1v11h-3.8V194zM78.6 217.1c-1-1.1-1.5-2.6-1.5-4.5v-12.8c0-2 .5-3.5 1.5-4.5 1-1.1 2.4-1.6 4.3-1.6s3.3.5 4.3 1.6 1.5 2.6 1.5 4.5v12.8c0 2-.5 3.5-1.5 4.5-1 1.1-2.4 1.6-4.3 1.6s-3.3-.5-4.3-1.6zm6.4-4.2v-13.3c0-1.6-.7-2.4-2-2.4s-2 .8-2 2.4v13.3c0 1.6.7 2.4 2 2.4s2-.8 2-2.4zM91.4 194h3.8v20.9h6.3v3.5H91.4V194zM106.5 194h5.2l4 24.4h-3.8l-.7-4.9v.1h-4.4l-.7 4.8h-3.6l4-24.4zm4.2 16.3-1.7-12.1h-.1l-1.7 12.1h3.5z"/>
  </g>
  <g fill="#ed4e38">
    <ellipse cx="355.5" cy="83.7" rx="35.6" ry="22.1"/>
    <path d="m340.4 97.1-29.7 42.1 46.8-37.7z"/>
  </g>
  <g fill="#fff6e7">
    <path d="M337.7 91.6c-.8-.9-1.2-2.1-1.2-3.7V77.1c0-1.6.4-2.8 1.2-3.7.8-.9 2-1.3 3.5-1.3s2.7.4 3.5 1.3c.8.9 1.2 2.1 1.2 3.7v2.1h-3v-2.3c0-1.3-.5-1.9-1.6-1.9s-1.6.6-1.6 1.9v11.3c0 1.2.5 1.9 1.6 1.9s1.6-.6 1.6-1.9v-3.1h3V88c0 1.6-.4 2.8-1.2 3.7-.8.9-2 1.3-3.5 1.3s-2.7-.5-3.5-1.4zM347.8 72.4h3.2v20.2h-3.2V72.4zM355.8 72.4h4.3l3.3 20.2h-3.2l-.6-4v.1H356l-.6 4h-3l3.4-20.3zm3.5 13.5-1.4-10h-.1l-1.4 10h2.9zM365.9 91.6c-.8-.9-1.2-2.1-1.2-3.8V77.2c0-1.6.4-2.9 1.2-3.8.8-.9 2-1.3 3.6-1.3s2.8.4 3.6 1.3c.8.9 1.2 2.1 1.2 3.8v10.6c0 1.6-.4 2.9-1.2 3.8-.8.9-2 1.3-3.6 1.3s-2.8-.4-3.6-1.3zm5.2-3.6V77c0-1.3-.5-2-1.6-2s-1.6.7-1.6 2v11c0 1.3.5 2 1.6 2s1.6-.7 1.6-2zM376.7 80.8v-8.4h3.2v8.4l-.4 6.4h-2.4l-.4-6.4zm.1 8.7h3.1v3.1h-3.1v-3.1z"/>
  </g>
  <g fill="#fff6e7">
    <path d="M431.9 238.7c-.8-.9-1.2-2.1-1.2-3.8v-10.6c0-1.6.4-2.9 1.2-3.8.8-.9 2-1.3 3.6-1.3s2.8.4 3.6 1.3c.8.9 1.2 2.1 1.2 3.8V235c0 1.6-.4 2.9-1.2 3.8-.8.9-2 1.3-3.6 1.3s-2.8-.5-3.6-1.4zm5.2-3.5v-11c0-1.3-.5-2-1.6-2s-1.6.7-1.6 2v11c0 1.3.5 2 1.6 2s1.6-.7 1.6-2zM442.4 219.5h3.2v17.4h5.2v2.9h-8.4v-20.3zM454.9 219.5h4.3l3.3 20.2h-3.2l-.6-4v.1h-3.6l-.6 4h-3l3.4-20.3zm2.5-4.7h3.5l-3.1 3.3h-2.4l2-3.3zm1 18.3-1.4-10h-.1l-1.4 10h2.9z"/>
  </g>
  <g fill="#fff6e7">
    <path d="M146.8 65.3c-1.6 3.4-3.6 6.8-6 10l-2-1.4c2.3-2.8 4.3-5.9 6-9.3l2 .7zm15.9-3.3h-10.6v15.9h-2.3V62h-10.5v-2.2h10.5v-6.7h2.3v6.7h10.6V62zm.4 11.3-1.8 1.5c-2-3.1-4.1-6-6.3-8.9l1.7-1.3c2.7 3.5 4.9 6.4 6.4 8.7zM190.1 61.1c-.8 4.7-2.2 8.3-4.3 10.9-2.1 2.6-5.4 4.6-9.7 6.1l-1.3-2c3.4-1.1 6.1-2.6 8.2-4.5 2.1-1.9 3.6-4.7 4.3-8.2h-17.7v-2.2h20.5zm-2.2-4.7h-16v-2.2h16v2.2z"/>
  </g>
  <g fill="#fff6e7">
    <path d="M228.2 65.7h-5.7l4-20.2h5.7l-4 20.2zm9.8-7.9h-8.6l1-4.7h8.6l-1 4.7zm2.1-12.4h5.7l-4 20.2H236l4.1-20.2zM254.4 65.9c-1.7 0-3.1-.3-4.4-.9-1.2-.6-2.2-1.4-2.9-2.5-.7-1.1-1-2.3-1-3.8 0-1.7.4-3.3 1.2-4.6s1.9-2.4 3.3-3.2c1.4-.8 3.1-1.2 5-1.2 1.6 0 3 .3 4.1.9 1.1.6 2 1.4 2.7 2.4.6 1 .9 2.2.9 3.6 0 .5 0 .9-.1 1.3s-.1.8-.2 1.2h-12.6l.5-2.9h9.5l-2.3.8c.2-.8.1-1.4-.1-1.9s-.5-.9-1-1.2c-.5-.3-1.1-.4-1.7-.4-.9 0-1.6.2-2.2.7s-1 1-1.3 1.8c-.3.8-.4 1.6-.4 2.5 0 1.1.3 1.9.9 2.4s1.5.8 2.7.8c.7 0 1.4-.1 2-.3.7-.2 1.2-.5 1.7-.9l2.3 3.4c-1 .7-2 1.3-3.2 1.6-1.1.3-2.2.4-3.4.4zM264 65.7l4.3-21.5h5.5l-4.3 21.5H264zM273.1 65.7l4.3-21.5h5.5l-4.3 21.5h-5.5zM290.8 65.9c-1.7 0-3.1-.3-4.3-.9-1.2-.6-2.2-1.4-2.9-2.5-.7-1.1-1-2.3-1-3.7 0-1.7.4-3.3 1.2-4.6s2-2.4 3.4-3.2c1.4-.8 3.1-1.2 5-1.2 1.7 0 3.1.3 4.4.9 1.2.6 2.2 1.4 2.8 2.5.7 1.1 1 2.3 1 3.8 0 1.7-.4 3.3-1.2 4.7-.8 1.4-2 2.4-3.4 3.2-1.5.6-3.1 1-5 1zm.3-4.4c.7 0 1.4-.2 1.9-.6.6-.4 1-.9 1.3-1.5.3-.7.5-1.4.5-2.3 0-.9-.3-1.6-.8-2.2-.5-.6-1.2-.9-2.2-.9-.7 0-1.4.2-1.9.5-.6.4-1 .9-1.3 1.5s-.5 1.4-.5 2.3c0 .9.3 1.7.8 2.2.6.8 1.3 1 2.2 1z"/>
  </g>
  <g fill="#fdb03e">
    <ellipse cx="395.6" cy="148.2" rx="52.3" ry="32.5"/>
    <path d="m373.6 167.8-19.4 28.6 44.4-22.1z"/>
  </g>
  <g fill="#fff6e7">
    <path d="M365.4 147.4c1 .2 1.8.5 2.4 1.1s.8 1.3.8 2.1c0 1.3-.6 2.4-1.7 3.3s-2.6 1.3-4.4 1.3c-1.1 0-2-.2-2.8-.7s-1.2-1-1.2-1.6c0-.5.3-.7.8-.7.1 0 .2.1.4.2.9.7 1.9 1.1 3.1 1.1 1 0 1.9-.3 2.7-.8s1.1-1.3 1.1-2.1c0-.6-.2-1.1-.6-1.4s-.9-.6-1.5-.6c-.4 0-1.2.2-2.3.5-.2.1-.4.1-.7.1-.5 0-.7-.3-.7-.9 0-.2.1-.4.3-.5s.7-.3 1.4-.5c2.2-.5 3.3-1.4 3.3-2.7 0-.4-.1-.7-.4-1s-.6-.4-1.1-.4c-.8 0-1.7.4-2.6 1.1-.5.4-.9.6-1.2.6-.5 0-.7-.2-.7-.7 0-.6.6-1.2 1.7-1.8s2.2-.9 3.2-.9 1.8.3 2.4.8.9 1.1.9 1.7c0 1.5-.9 2.6-2.6 3.4zM380.1 141c-.3-1.2-.6-2.1-1-2.6s-1-.9-1.6-1.1-1.3-.4-1.8-.4c-.2 0-.5.1-.9.2s-.7.3-.9.4c-.3.2-.6.3-.8.3-.3 0-.4-.2-.4-.5s.3-.8.8-1.4 1.4-.9 2.7-.9h.5c1.3 0 2.4.3 3.4 1s1.7 1.6 2.1 2.9.6 2.9.6 5c0 1.4-.4 3.1-1.3 5.2s-2 3.6-3.4 4.6-2.9 1.6-4.4 1.6c-.6 0-1.1-.3-1.6-1s-.7-1.5-.7-2.4c0-1.8.4-3.3 1.2-4.7s1.6-2.5 2.6-3.3 2.3-1.5 4-2c.6-.2.9-.3 1.1-.4s-.1-.3-.2-.5zm.4 2.4c-1.8.4-3.2.9-4.1 1.7-2.2 2-3.3 4.3-3.3 6.8 0 .3.1.7.2.9s.2.4.4.4c.6 0 1.1-.1 1.6-.3s1.1-.6 1.7-1.3 1.3-1.4 1.9-2.4 1-1.9 1.2-2.8.4-1.6.4-2v-1zM386.1 153.3c-.4 1.4-.7 3.4-1.1 5.9l-.3 2.2c-.1.3-.2.6-.4.9s-.4.5-.6.5c-.2 0-.5-.1-.8-.4s-.5-.4-.5-.6c0-.4.1-1 .3-1.8 1.4-5.8 2.1-10.8 2.1-15.2v-1c0-.8.1-1.5.4-1.8s.7-.6 1.1-.6c.2 0 .4.1.5.4s.3.7.3 1.2c0 .8-.1 1.7-.2 2.8-.2 1.4-.3 2.1-.3 2.3 1.2-2 2.4-3.6 3.7-4.8s2.5-1.7 3.6-1.7c.8 0 1.5.3 2 .9s.8 1.3.8 2.2c0 2.5-1 4.9-2.9 6.9s-3.9 3.1-5.7 3.1c-.5 0-.8-.1-1.1-.4s-.6-.4-.9-1zm7.3-9.5c-1.1 0-2.5 1-4.1 3.1s-2.4 3.7-2.4 4.8c0 .3.2.6.5.8s.7.4 1.2.4c1.1 0 2.4-.8 3.9-2.5s2.2-3.3 2.2-4.9c0-.6-.1-1-.3-1.3s-.6-.4-1-.4zM407.3 150.4c-1.1 1.5-2.2 2.6-3.2 3.3s-2.1 1.1-2.9 1.1c-.6 0-1.1-.3-1.6-.8s-.7-1.2-.7-2c0-2.1.9-4.3 2.8-6.6s3.7-3.6 5.5-3.6c.7 0 1.1.4 1.5 1.1.1.2.3.4.5.4.6 0 .9.2.9.7 0 .2 0 .6-.1 1-.4 2.3-.6 3.9-.6 4.9 0 1.9.4 3 1.1 3.4.3.2.5.4.5.7 0 .2-.2.5-.5.7s-.7.4-1 .4c-.6 0-1.1-.4-1.5-1.2s-.7-2-.7-3.5zm-.7-6.6c-1 0-2.2 1-3.6 2.9s-2.1 3.5-2.1 4.8c0 .9.3 1.3.9 1.3.9 0 2.1-.9 3.6-2.6s2.3-3.3 2.3-4.8c0-1.1-.4-1.6-1.1-1.6zM420.7 142.7c1.8.7 2.7 2.4 2.7 5.1 0 2-.6 3.8-1.9 5.3s-2.6 2.3-4.1 2.3c-1.3 0-2.3-.5-3.1-1.6s-1.1-2.6-1.1-4.6c0-2.4.4-4.9 1.3-7.4s1.9-4.4 3.2-5.6 2.6-1.9 3.9-1.9c.8 0 1.4.3 1.9.8s.7 1.2.7 2.2c0 .7-.3 1.6-1 2.6s-1.4 1.9-2.5 2.8zm.5 5.4c0-1.2-.2-2.1-.6-2.8s-.9-1.1-1.4-1.1c-.2 0-1 .6-2.6 1.8l-1.2.9c-.1.7-.2 1.4-.2 2.2 0 1.4.2 2.5.6 3.2s1 1.1 1.8 1.1c1 0 1.9-.5 2.6-1.6s1-2.3 1-3.7zm-5.6-3.3c3-2.3 4.9-4 5.6-5s1.1-1.8 1.1-2.3c0-.9-.4-1.4-1.1-1.4-1 0-2.1.8-3.1 2.3s-1.9 3.7-2.5 6.4zM429.2 155.2c-1.1 0-2-.4-2.6-1.2s-1-1.8-1-3c0-2 .7-4 2-6s3-2.9 4.9-2.9c1.2 0 2.3.5 3 1.4s1.2 2.1 1.2 3.4c0 2-.8 3.9-2.4 5.6s-3.4 2.7-5.1 2.7zm-1.6-4.5c0 .8.2 1.4.5 1.9s.8.8 1.3.8c1.2 0 2.3-.6 3.5-1.9s1.8-2.7 1.8-4.3c0-1-.2-1.7-.7-2.3s-1.1-.9-1.8-.9c-1.3 0-2.3.8-3.2 2.3s-1.4 3-1.4 4.4z"/>
  </g>
  <g fill="#fff6e7">
    <path d="M60.4 107.6h-1.1v4.5c0 .7-.1 1.3-.4 1.8s-.6 1-1 1.3c-.4.3-.9.6-1.5.8s-1.2.3-1.9.3c-.3 0-.5 0-.8-.1-.2 0-.5-.1-.6-.2-.2-.1-.3-.2-.4-.3-.1-.1-.2-.2-.2-.4v-.3c0-.1.1-.2.1-.3l.2-.2c.1-.1.2-.1.2-.1.1 0 .1 0 .2.1 0 .1.1.1.1.2s.1.2.2.3c.1.1.1.2.2.3s.2.2.3.2c.1.1.3.1.5.1.4 0 .7-.1 1-.2.3-.1.6-.3.8-.6.2-.3.4-.6.5-.9.1-.4.2-.8.2-1.2v-.5c-.2 0-.4.1-.7.1h-.7c-.7 0-1.4-.1-2-.3s-1.1-.5-1.6-1-.8-1-1.1-1.7c-.3-.7-.4-1.5-.4-2.5 0-.7.1-1.3.2-1.8.1-.6.3-1.1.6-1.5.3-.5.6-.9.9-1.2.4-.3.7-.6 1.1-.9.4-.2.8-.4 1.3-.5.5-.1.9-.2 1.4-.2.4 0 .9 0 1.2.1s.7.2 1 .4.5.4.7.6c.2.2.2.5.2.8 0 .1 0 .3-.1.4s-.1.3-.2.4-.2.2-.4.3-.3.1-.5.1-.4-.1-.5-.2c-.1-.1-.2-.3-.2-.5-.1-.2-.1-.4-.1-.6 0-.2-.1-.4-.1-.6-.1-.2-.2-.3-.3-.5-.1-.1-.3-.2-.5-.2s-.4 0-.6.1c-.2.1-.5.2-.7.4-.2.2-.5.4-.7.7-.2.3-.4.6-.6 1-.2.4-.3.9-.4 1.4-.1.5-.2 1.1-.2 1.8s0 1.4.1 1.9.2.9.4 1.3c.2.3.3.6.5.8s.4.4.6.5c.2.1.4.2.6.2h1.1c.1 0 .3-.1.4-.1v-3.9h-1.4v-.7H60v1zM68.2 111v.4c0 .1.1.1.1.1h.2c.1 0 .2 0 .3-.1l.2-.2.2.2c-.1.1-.2.2-.3.4l-.4.4-.6.3c-.2.1-.4.1-.7.1-.2 0-.4 0-.6-.1-.2-.1-.3-.1-.4-.2-.1-.1-.2-.2-.3-.4-.1-.1-.1-.3-.1-.4v-.5c-.3.3-.5.5-.8.7-.1.1-.3.2-.4.3-.1.1-.3.2-.4.2-.1.1-.3.1-.5.2s-.3.1-.5.1c-.3 0-.6-.1-.8-.2-.2-.1-.4-.3-.5-.4l-.3-.6c-.1-.2-.1-.5-.1-.7v-5.1l-.1-.1h-.2c-.1 0-.2 0-.3.1l-.2.2-.2-.2c.1-.1.2-.2.3-.4l.4-.4c.1-.1.4-.2.6-.3s.5-.1.7-.1c.2 0 .4 0 .6.1.2.1.3.1.4.2.1.1.2.2.3.4.1.1.1.3.1.4v5.3c0 .1.1.1.1.2s.1.1.2.2c.1 0 .1.1.2.1s.3 0 .4-.1c.1-.1.3-.2.4-.3l.3-.3.2-.2v-4.8l-.1-.1h-.2c-.1 0-.2 0-.3.1l-.2.2-.2-.2c.1-.1.2-.2.3-.4l.4-.4.6-.3c.2-.1.4-.1.7-.1.2 0 .4 0 .6.1.2.1.3.1.4.2.1.1.2.2.3.4.1.1.1.3.1.4v5.6zM72.7 105v5.7c0 .3.1.5.2.6s.2.2.4.2c.1 0 .3 0 .4-.1l.3-.3c.1-.1.2-.2.2-.4l.2.1c-.1.2-.2.3-.3.5-.1.2-.2.4-.4.5-.2.2-.4.3-.7.4s-.6.2-1 .2c-.2 0-.4 0-.6-.1l-.6-.3c-.2-.1-.3-.3-.4-.5-.1-.2-.1-.5-.1-.8V105h-.9v-.6c.1 0 .3 0 .6-.1s.5-.2.8-.4c.3-.2.5-.4.8-.7s.4-.7.5-1.1h.6v2.3H74c.4 0 .6-.1.6-.2s0-.1-.1-.1-.1 0-.2-.1c-.1 0-.1-.1-.2-.1s-.1-.1-.1-.3c0-.1 0-.3.1-.3.1-.1.2-.1.4-.1.1 0 .2 0 .2.1s.1.1.2.2c0 .1.1.1.1.2v.2c0 .3-.1.6-.3.8-.2.2-.5.3-.9.3h-1.1zM77.4 108.8c0 .2 0 .3.1.5 0 .2.1.4.2.6l.3.6c.1.2.3.3.5.5l.6.3c.2.1.5.1.7.1.2 0 .3 0 .5-.1.2 0 .3-.1.4-.2s.3-.2.4-.2c.1-.1.2-.2.4-.3l.2.2c-.1.2-.3.3-.5.5s-.4.4-.7.5-.6.3-.9.4c-.3.1-.7.2-1.2.2s-.9-.1-1.3-.2c-.4-.2-.8-.4-1.1-.7s-.6-.7-.8-1.2c-.2-.5-.3-1-.3-1.7 0-.5.1-.9.2-1.3s.3-.7.5-1.1c.2-.3.4-.6.7-.8l.9-.6c.3-.2.6-.3.9-.4.3-.1.6-.1.9-.1.4 0 .7 0 1 .1s.5.2.7.3c.2.1.3.3.4.5.1.2.1.4.1.6 0 .2-.1.5-.2.7-.1.2-.3.4-.6.5l-3 1.8zm1.5-1.5c.1 0 .1-.1.2-.1l.1-.1c0-.1 0-.1.1-.2s0-.2 0-.3v-.4c0-.2-.1-.3-.1-.4-.1-.1-.2-.3-.3-.3s-.2-.1-.4-.1-.3.1-.5.2-.2.3-.3.4-.2.4-.2.6-.1.4-.1.7v1.2l1.5-1.2zM87.2 108.5c0-.6 0-1.2-.1-1.6-.1-.4-.1-.7-.2-.9s-.2-.3-.3-.4c-.1-.1-.2-.1-.4-.1-.1 0-.3 0-.4.1l-.3.3c-.1.1-.2.2-.2.3-.1.1-.1.2-.1.2v5.3c0 .1-.1.2-.1.3-.1.1-.2.2-.4.2s-.4.1-.6.1-.5 0-.6-.1c-.2-.1-.3-.1-.4-.2-.1-.1-.1-.2-.2-.3s0-.2 0-.2v-5.9c0-.1 0-.3-.1-.4-.1-.1-.2-.2-.4-.2h-.2s-.1.1-.2.1l-.2-.2c.1-.1.2-.2.4-.3.1-.1.3-.2.5-.2s.4-.1.5-.2c.2 0 .4-.1.6-.1.3 0 .6.1.8.2s.3.2.4.4.1.3.2.5v.4c.2-.3.4-.5.6-.7l.3-.3c.1-.1.2-.2.4-.2.1-.1.3-.1.4-.2s.3-.1.5-.1c.3 0 .7.1.9.2.3.1.5.4.7.7.2.3.3.7.4 1.2.1.5.1 1.2.1 1.9s-.1 1.4-.2 1.9-.3 1-.5 1.4c-.2.4-.5.7-.7.9-.3.2-.5.4-.8.6-.3.1-.5.2-.8.3-.3.1-.5.1-.7.1l-.1-.3c.2 0 .3-.1.4-.2s.2-.2.4-.3c.1-.1.2-.3.3-.6.1-.2.2-.5.2-.9.1-.3.1-.8.1-1.2s.1-.6.1-1.3zM99.5 112.5c-.4 0-.7-.1-1-.3-.2-.2-.3-.5-.3-.9v-9.8c-.2 0-.4 0-.6.1-.2 0-.5.1-.8.2-.3.1-.5.2-.8.3s-.5.2-.7.4c-.2.2-.4.3-.5.5-.1.2-.2.4-.2.6 0 .2 0 .3.1.4 0 .1.1.2.1.2.1 0 .1.1.2.1h.1c.1 0 .2 0 .3-.1.1 0 .2-.1.2-.1.1 0 .1-.1.2-.1s.1-.1.2-.1h.2c.1 0 .1.1.2.1s.1.1.1.2.1.2.1.4 0 .4-.1.5-.2.3-.3.4c-.1.1-.3.2-.4.2-.2 0-.3.1-.5.1s-.5 0-.7-.1c-.2-.1-.4-.2-.5-.4-.1-.1-.2-.3-.3-.5-.1-.2-.1-.4-.1-.6 0-.6.2-1.1.5-1.6.3-.4.8-.8 1.4-1.1.6-.3 1.2-.5 2-.6.8-.1 1.6-.2 2.5-.2h2.3c.3 0 .6 0 .8.1.2 0 .4 0 .5.1.1 0 .2.1.2.1s.1.1.1.2.1.1.1.2v.4c0 .1 0 .1-.1.2 0 .1-.1.1-.1.2 0 0-.1.1-.2.1 0 0-.1 0-.1-.1 0 0-.1-.1-.2-.1-.1-.1-.2-.1-.3-.2-.1-.1-.3-.1-.5-.2s-.5-.1-.8-.2c-.3 0-.7-.1-1.1-.1v9.8c0 .4-.1.7-.3.9-.1.3-.5.4-.9.4zM105.7 105c-.2 0-.3 0-.5.1-.1 0-.3.1-.4.2-.1.1-.2.1-.3.2-.1.1-.1.1-.1.2s0 .1.1.2c.1 0 .2.1.3.1.1 0 .2.1.3.2.1.1.1.2.1.4 0 .1 0 .2-.1.3s-.1.2-.2.2c-.1.1-.2.1-.3.2s-.2.1-.3.1c-.3 0-.5-.1-.7-.3-.2-.2-.3-.5-.3-.8 0-.3.1-.6.2-.8s.4-.4.6-.5.6-.3.9-.3c.3-.1.7-.1 1-.1.4 0 .8 0 1.1.1s.7.2 1 .4c.3.2.5.4.7.7.2.3.2.6.2 1.1v4.7l.1.1h.2c.1 0 .2 0 .3-.1l.2-.2.2.2c-.1.1-.2.2-.3.4l-.4.4c-.2.2-.3.2-.5.3-.2.1-.4.1-.7.1-.3 0-.6-.1-.9-.3s-.4-.5-.5-.9c-.2.2-.3.4-.5.6-.2.1-.4.3-.5.4s-.4.2-.6.2c-.2 0-.4.1-.6.1-.2 0-.5 0-.7-.1-.2-.1-.4-.2-.6-.4-.2-.2-.3-.4-.4-.6s-.2-.6-.2-1c0-.5.1-.8.3-1.1s.4-.5.7-.8c.3-.2.6-.4 1-.5.4-.1.8-.3 1.2-.5.3-.1.5-.3.6-.5s.2-.5.2-.7c0-.4-.1-.7-.3-.9.1-.7-.2-.8-.6-.8zm1.2 3.4c0-.1 0-.2-.1-.3-.1-.1-.2-.1-.3-.1-.2 0-.4 0-.5.1-.2.1-.3.2-.4.4l-.3.6c-.1.2-.1.5-.1.8 0 .3 0 .5.1.7 0 .2.1.4.2.5.1.1.2.2.3.2.1 0 .2.1.3.1.1 0 .3 0 .4-.1l.3-.3c.1-.1.2-.2.2-.4s.1-.3.1-.4v-1.8zM110.9 107.5c0-.5.1-1 .3-1.4s.4-.7.7-1c.3-.3.7-.5 1.1-.6.4-.1.8-.2 1.3-.2s.9.1 1.3.2.8.3 1.1.5c.1-.1.2-.3.2-.5s.1-.3.1-.5-.1-.4-.2-.5c-.1-.1-.3-.2-.4-.2v-.2c.1 0 .2-.1.3-.1s.2-.1.2-.1h.4c.2 0 .4.1.6.2.1.1.2.4.2.6 0 .2 0 .3-.1.5s-.2.3-.3.4c-.1.1-.2.3-.4.4-.1.1-.3.2-.4.3.2.2.4.5.5.9s.2.7.2 1.1c0 .5-.1 1-.3 1.4-.2.4-.4.7-.7 1-.3.3-.7.5-1.1.6-.4.1-.8.2-1.3.2-.3 0-.5 0-.8-.1-.3 0-.5-.1-.7-.2-.1.1-.2.1-.2.2-.1.1-.1.2-.1.3 0 .2.1.3.2.4.2.1.4.2.7.2s.6.1.9.1c.3 0 .7 0 1.1.1.4 0 .7.1 1.1.1.3.1.7.2.9.3.3.1.5.3.7.6.2.3.2.6.2 1 0 .3-.1.6-.2.8s-.3.4-.5.6c-.2.2-.4.3-.7.5s-.6.2-.9.3-.6.1-.9.2c-.3 0-.6.1-.9.1-.5 0-1 0-1.4-.1-.4-.1-.8-.1-1.1-.2-.3-.1-.5-.3-.7-.4-.2-.2-.2-.4-.2-.6 0-.2 0-.3.1-.5s.2-.3.3-.4c.1-.1.3-.2.5-.3.2-.1.3-.2.5-.3-.3-.1-.5-.3-.6-.5-.2-.2-.3-.5-.3-.9 0-.2 0-.4.1-.5.1-.2.2-.3.3-.4.1-.1.2-.3.3-.4.1-.1.2-.2.4-.3-.2-.1-.4-.3-.6-.5-.2-.2-.3-.4-.5-.6-.1-.2-.2-.5-.3-.7s0-.6 0-.9zm5.6 6.8c0-.2-.1-.3-.2-.4-.1-.1-.3-.2-.5-.3-.2-.1-.4-.1-.7-.1-.3 0-.5-.1-.8-.1h-.8c-.3 0-.5 0-.7-.1-.1.1-.2.2-.3.2l-.3.3c-.1.1-.1.2-.2.3 0 .1-.1.2-.1.3 0 .2.1.4.2.5s.3.2.5.3.4.1.7.2.5 0 .8 0c.4 0 .7 0 1-.1.3-.1.5-.2.8-.3.2-.1.4-.2.5-.4.1.1.1-.1.1-.3zm-1.2-6.8v-.9c0-.3-.1-.5-.2-.8s-.2-.4-.3-.5c-.1-.1-.3-.2-.5-.2s-.4.1-.5.2c-.1.1-.2.3-.3.6-.1.2-.1.5-.2.8v1.8c0 .3.1.6.2.8l.3.6c.1.1.3.2.5.2s.4-.1.5-.2c.1-.1.2-.3.3-.6.1-.2.1-.5.2-.8v-1z"/>
  </g>
  <g fill="#ed4e38">
    <ellipse cx="159.6" cy="152.7" rx="52.3" ry="32.5"/>
    <path d="m181.6 172.3 19.4 28.6-44.4-22.2z"/>
  </g>
  <g fill="#fff6e7">
    <path d="M127 161.7c-1.6 0-3.2-.2-4.7-.7-1.5-.4-2.7-1-3.6-1.7l1.6-3.5c.9.6 1.9 1.1 3.1 1.5 1.2.4 2.4.6 3.6.6.9 0 1.7-.1 2.2-.3s1-.4 1.3-.8c.3-.3.4-.7.4-1.1 0-.5-.2-1-.6-1.3-.4-.3-1-.6-1.7-.8-.7-.2-1.5-.4-2.3-.6-.8-.2-1.7-.4-2.5-.7-.8-.3-1.6-.6-2.3-1-.7-.4-1.3-1-1.7-1.7-.4-.7-.7-1.6-.7-2.7 0-1.2.3-2.2.9-3.2.6-1 1.6-1.7 2.8-2.3 1.3-.6 2.8-.9 4.8-.9 1.3 0 2.5.1 3.8.4 1.2.3 2.3.7 3.3 1.3l-1.4 3.6c-.9-.5-1.9-.9-2.8-1.2-.9-.3-1.9-.4-2.8-.4s-1.6.1-2.2.3c-.6.2-1 .5-1.2.8-.3.3-.4.7-.4 1.2s.2.9.6 1.3c.4.3 1 .6 1.7.8.7.2 1.5.4 2.3.6.8.2 1.7.4 2.5.7.8.3 1.6.6 2.3 1 .7.4 1.3 1 1.7 1.7.4.7.7 1.6.7 2.6 0 1.1-.3 2.2-1 3.1-.6.9-1.6 1.7-2.8 2.3-1.4.8-3 1.1-4.9 1.1zM143.2 161.6c-1.2 0-2.3-.2-3.1-.6-.9-.4-1.5-1-2-1.7s-.7-1.5-.7-2.4c0-.9.2-1.7.7-2.4.5-.7 1.2-1.2 2.2-1.6 1-.4 2.3-.6 3.8-.6h4.1v2.6h-3.6c-1.1 0-1.8.2-2.2.5-.4.3-.6.8-.6 1.3 0 .6.2 1 .7 1.4.5.3 1.1.5 1.9.5.8 0 1.4-.2 2-.5.6-.4 1-.9 1.3-1.6l.7 2.1c-.3 1-.9 1.8-1.8 2.3-.9.4-2 .7-3.4.7zm4.8-.2v-3l-.3-.7v-5.4c0-1-.3-1.7-.9-2.3-.6-.5-1.5-.8-2.7-.8-.8 0-1.6.1-2.4.4-.8.3-1.5.6-2 1.1l-1.6-3.2c.8-.6 1.9-1.1 3.1-1.4 1.2-.3 2.4-.5 3.6-.5 2.4 0 4.2.6 5.5 1.7 1.3 1.1 2 2.9 2 5.2v8.9H148zM156.3 161.4v-21.5h4.5v21.5h-4.5zM171.6 161.6c-1.3 0-2.4-.3-3.5-.8-1-.5-1.8-1.3-2.4-2.3-.6-1-.8-2.3-.8-3.9v-8.8h4.5v8.1c0 1.3.3 2.2.8 2.8.5.6 1.3.9 2.3.9.7 0 1.3-.1 1.9-.4.5-.3 1-.8 1.3-1.4.3-.6.5-1.4.5-2.4v-7.7h4.5v15.6h-4.3V157l.8 1.2c-.5 1.1-1.3 1.9-2.3 2.4-1 .7-2.1 1-3.3 1zM183 149.6v-3.5h10.8v3.5H183zm8.2 12c-1.8 0-3.3-.5-4.3-1.4-1-.9-1.5-2.3-1.5-4.2v-13.6h4.5V156c0 .7.2 1.2.5 1.5.3.4.8.5 1.4.5.7 0 1.3-.2 1.8-.6l1.2 3.2c-.5.3-1 .6-1.7.7-.5.2-1.2.3-1.9.3z"/>
  </g>
  <g fill="#fff6e7">
    <path d="M341.9 237.2h-1.5l2.9-14.5h1.5l-2.9 14.5zm10.5-6.7h-9.3l.2-1.3h9.4l-.3 1.3zm1.4-7.8h1.5l-2.9 14.5h-1.5l2.9-14.5zM361.5 237.3c-.9 0-1.7-.2-2.5-.6-.7-.4-1.3-.9-1.7-1.6-.4-.7-.6-1.5-.6-2.5 0-.9.2-1.8.5-2.6s.7-1.5 1.3-2.1c.6-.6 1.2-1 2-1.4.8-.3 1.6-.5 2.5-.5 1 0 1.8.2 2.4.5.7.3 1.2.8 1.5 1.5.4.6.5 1.4.5 2.3 0 1.3-.2 2.5-.7 3.5-.5 1-1.2 1.8-2 2.4-1 .8-2 1.1-3.2 1.1zm.3-1.3c.9 0 1.7-.2 2.4-.7.7-.4 1.3-1 1.7-1.8.4-.8.6-1.6.6-2.6 0-1.1-.3-1.9-.9-2.5-.6-.6-1.5-.9-2.6-.9-.9 0-1.7.2-2.4.7-.7.4-1.3 1-1.7 1.8-.4.8-.6 1.6-.6 2.6 0 1.1.3 1.9.9 2.5.6.6 1.5.9 2.6.9zm3.6 1.2.6-3.1.6-2.2.2-2.3.7-3.3h1.5l-2.2 10.9h-1.4zM370.9 237.2l3.1-15.3h1.5l-3.1 15.3h-1.5zM376.4 237.2l3.1-15.3h1.5l-3.1 15.3h-1.5zM386.6 237.3c-.9 0-1.7-.2-2.5-.6-.7-.4-1.3-.9-1.7-1.6-.4-.7-.6-1.5-.6-2.5 0-.9.2-1.8.5-2.6s.7-1.5 1.3-2.1c.6-.6 1.2-1 2-1.4.8-.3 1.6-.5 2.5-.5 1 0 1.8.2 2.4.5.7.3 1.2.8 1.5 1.5.4.6.5 1.4.5 2.3 0 1.3-.2 2.5-.7 3.5-.5 1-1.2 1.8-2 2.4-.9.8-2 1.1-3.2 1.1zm.3-1.3c.9 0 1.7-.2 2.4-.7.7-.4 1.3-1 1.7-1.8.4-.8.6-1.6.6-2.6 0-1.1-.3-1.9-.9-2.5-.6-.6-1.5-.9-2.6-.9-.9 0-1.7.2-2.4.7-.7.4-1.3 1-1.7 1.8-.4.8-.6 1.6-.6 2.6 0 1.1.3 1.9.9 2.5.6.6 1.5.9 2.6.9zm3.6 1.2.6-3.1.6-2.2.2-2.3.7-3.3h1.5l-2.2 10.9h-1.4z"/>
  </g>
</svg>