<svg xmlns="http://www.w3.org/2000/svg" xml:space="preserve" version="1.1" viewBox="0 0 512 480">
  <style>
    .st0{fill:#cad0d7}.st1{fill:#e1e6e9}.st2{fill:#99a5ad}
  </style>
  <path d="M496 0H16C7.2 0 0 7.2 0 16v448c0 8.8 7.2 16 16 16h480c8.8 0 16-7.2 16-16V16c0-8.8-7.2-16-16-16zm0 456c0 4.4-3.6 8-8 8H24c-4.4 0-8-3.6-8-8V72c0-4.4 3.6-8 8-8h464c4.4 0 8 3.6 8 8v384z" class="st0"/>
  <path d="M490 40H118c-3.3 0-6-2.7-6-6v-4c0-3.3 2.7-6 6-6h372c3.3 0 6 2.7 6 6v4c0 3.3-2.7 6-6 6z" class="st1"/>
  <path d="M24 40c-4.4 0-8-3.6-8-8s3.6-8 8-8 8 3.6 8 8-3.6 8-8 8zm40-8c0-4.4-3.6-8-8-8s-8 3.6-8 8 3.6 8 8 8 8-3.6 8-8zm32 0c0-4.4-3.6-8-8-8s-8 3.6-8 8 3.6 8 8 8 8-3.6 8-8z" class="st2"/>
  <path fill="#5a5b67" d="M360 144H152c-4.4 0-8-3.6-8-8s3.6-8 8-8h208c4.4 0 8 3.6 8 8s-3.6 8-8 8zm-32 24c0-4.4-3.6-8-8-8H192c-4.4 0-8 3.6-8 8s3.6 8 8 8h128c4.4 0 8-3.6 8-8z"/>
  <path d="m117.3 226.7 4 8c.7 1.4 2.1 2.4 3.6 2.6l8.9 1.3c4 .6 5.6 5.5 2.7 8.3l-6.4 6.3c-1.1 1.1-1.7 2.7-1.4 4.3l1.5 8.8c.7 4-3.5 7-7 5.1l-7.9-4.2c-1.4-.7-3.1-.7-4.5 0l-7.9 4.2c-3.6 1.9-7.7-1.1-7-5.1l1.5-8.8c.3-1.6-.3-3.2-1.4-4.3l-6.4-6.3c-2.9-2.8-1.3-7.7 2.7-8.3l8.9-1.3c1.6-.2 2.9-1.2 3.6-2.6l4-8c1.6-3.6 6.8-3.6 8.5 0zm62.4 0-4 8c-.7 1.4-2.1 2.4-3.6 2.6l-8.9 1.3c-4 .6-5.6 5.5-2.7 8.3l6.4 6.3c1.1 1.1 1.7 2.7 1.4 4.3l-1.5 8.8c-.7 4 3.5 7 7 5.1l7.9-4.2c1.4-.7 3.1-.7 4.5 0l7.9 4.2c3.6 1.9 7.7-1.1 7-5.1l-1.5-8.8c-.3-1.6.3-3.2 1.4-4.3l6.4-6.3c2.9-2.8 1.3-7.7-2.7-8.3l-8.9-1.3c-1.6-.2-2.9-1.2-3.6-2.6l-4-8c-1.6-3.6-6.8-3.6-8.5 0zm72 0-4 8c-.7 1.4-2.1 2.4-3.6 2.6l-8.9 1.3c-4 .6-5.6 5.5-2.7 8.3l6.4 6.3c1.1 1.1 1.7 2.7 1.4 4.3l-1.5 8.8c-.7 4 3.5 7 7 5.1l7.9-4.2c1.4-.7 3.1-.7 4.5 0l7.9 4.2c3.6 1.9 7.7-1.1 7-5.1l-1.5-8.8c-.3-1.6.3-3.2 1.4-4.3l6.4-6.3c2.9-2.8 1.3-7.7-2.7-8.3l-8.9-1.3c-1.6-.2-2.9-1.2-3.6-2.6l-4-8c-1.6-3.6-6.8-3.6-8.5 0z" class="st2"/>
  <path d="m405.4 226.7 4 8c.7 1.4 2.1 2.4 3.6 2.6l8.9 1.3c4 .6 5.6 5.5 2.7 8.3l-6.4 6.3c-1.1 1.1-1.7 2.7-1.4 4.3l1.5 8.8c.7 4-3.5 7-7 5.1l-7.9-4.2c-1.4-.7-3.1-.7-4.5 0l-7.9 4.2c-3.6 1.9-7.7-1.1-7-5.1l1.5-8.8c.3-1.6-.3-3.2-1.4-4.3l-6.4-6.3c-2.9-2.8-1.3-7.7 2.7-8.3l8.9-1.3c1.6-.2 2.9-1.2 3.6-2.6l4-8c1.5-3.6 6.7-3.6 8.5 0z" class="st0"/>
  <path d="M329 224v42.7c-.8 0-1.6.2-2.3.6l-7.9 4.2c-3.6 1.9-7.7-1.1-7-5.1l1.5-8.8c.3-1.6-.3-3.2-1.4-4.3l-6.4-6.3c-2.9-2.8-1.3-7.7 2.7-8.3l8.9-1.3c1.6-.2 2.9-1.2 3.6-2.6l4-8c.8-1.9 2.6-2.8 4.3-2.8z" class="st2"/>
  <path d="M331.2 267.3c-.7-.4-1.5-.6-2.2-.6V224c1.7 0 3.4.9 4.3 2.7l4 8c.7 1.4 2.1 2.4 3.6 2.6l8.9 1.3c4 .6 5.6 5.5 2.7 8.3l-6.4 6.3c-1.1 1.1-1.7 2.7-1.4 4.3l1.5 8.8c.7 4-3.5 7-7 5.1l-8-4.1z" class="st0"/>
  <path d="M312 392H200c-13.3 0-24-10.7-24-24s10.7-24 24-24h112c13.3 0 24 10.7 24 24s-10.7 24-24 24z" class="st2"/>
  <path d="M224 376c-4.4 0-8-3.6-8-8s3.6-8 8-8 8 3.6 8 8-3.6 8-8 8zm40-8c0-4.4-3.6-8-8-8s-8 3.6-8 8 3.6 8 8 8 8-3.6 8-8zm32 0c0-4.4-3.6-8-8-8s-8 3.6-8 8 3.6 8 8 8 8-3.6 8-8z" class="st1"/>
</svg>