<svg xmlns="http://www.w3.org/2000/svg" xml:space="preserve" id="Layer_1" x="0" y="0" version="1.1" viewBox="0 0 512 480">
  <style>
    .st0{fill:#cad0d7}.st1{fill:#e1e6e9}.st2{fill:#99a5ad}.st3{fill:#5a5b67}
  </style>
  <path d="M496 0H16C7.2 0 0 7.2 0 16v448c0 8.8 7.2 16 16 16h480c8.8 0 16-7.2 16-16V16c0-8.8-7.2-16-16-16zm0 456c0 4.4-3.6 8-8 8H24c-4.4 0-8-3.6-8-8V72c0-4.4 3.6-8 8-8h464c4.4 0 8 3.6 8 8v384z" class="st0"/>
  <path d="M490 40H118c-3.3 0-6-2.7-6-6v-4c0-3.3 2.7-6 6-6h372c3.3 0 6 2.7 6 6v4c0 3.3-2.7 6-6 6z" class="st1"/>
  <path d="M24 40c-4.4 0-8-3.6-8-8s3.6-8 8-8 8 3.6 8 8-3.6 8-8 8zm40-8c0-4.4-3.6-8-8-8s-8 3.6-8 8 3.6 8 8 8 8-3.6 8-8zm32 0c0-4.4-3.6-8-8-8s-8 3.6-8 8 3.6 8 8 8 8-3.6 8-8z" class="st2"/>
  <path d="M448 136v32c0 8.8-7.2 16-16 16H184c-8.8 0-16-7.2-16-16v-4c0-7.2-5.8-13-13-13 7.2 0 13-5.8 13-13v-2c0-8.8 7.2-16 16-16h248c8.8 0 16 7.2 16 16z" class="st1"/>
  <path d="M272 160c-4.4 0-8-3.6-8-8s3.6-8 8-8 8 3.6 8 8-3.6 8-8 8zm48-8c0-4.4-3.6-8-8-8s-8 3.6-8 8 3.6 8 8 8 8-3.6 8-8zm40 0c0-4.4-3.6-8-8-8s-8 3.6-8 8 3.6 8 8 8 8-3.6 8-8z" class="st2"/>
  <path d="M96 184c-17.7 0-32-14.3-32-32s14.3-32 32-32 32 14.3 32 32-14.3 32-32 32z" class="st0"/>
  <path d="M104 160v-3.1c2.4-2.2 4-5.4 4-8.9 0-6.6-5.4-12-12-12s-12 5.4-12 12c0 3.5 1.6 6.7 4 8.9v3.1l-14 9s-1.7 2-2.2 3.9C77.7 179.7 86.3 184 96 184c9.6 0 18.2-4.2 24-10.9-.4-2-2.2-4.1-2.2-4.1l-13.8-9z" class="st3"/>
  <path d="M80 234h248c8.8 0 16 7.2 16 16v2c0 7.2 5.8 13 13 13-7.2 0-13 5.8-13 13v4c0 8.8-7.2 16-16 16H80c-8.8 0-16-7.2-16-16v-32c0-8.8 7.2-16 16-16z" class="st1"/>
  <path d="M232 266c0-4.4 3.6-8 8-8s8 3.6 8 8-3.6 8-8 8-8-3.6-8-8zm-32 8c4.4 0 8-3.6 8-8s-3.6-8-8-8-8 3.6-8 8 3.6 8 8 8zm-40 0c4.4 0 8-3.6 8-8s-3.6-8-8-8-8 3.6-8 8 3.6 8 8 8z" class="st2"/>
  <path d="M416 298c17.7 0 32-14.3 32-32s-14.3-32-32-32-32 14.3-32 32 14.3 32 32 32z" class="st0"/>
  <path d="M408 274v-3.1c-2.4-2.2-4-5.4-4-8.9 0-6.6 5.4-12 12-12s12 5.4 12 12c0 3.5-1.6 6.7-4 8.9v3.1l14 9s1.7 2 2.2 3.9c-5.9 6.8-14.5 11.1-24.2 11.1-9.6 0-18.2-4.2-24-10.9.4-2 2.2-4.1 2.2-4.1l13.8-9z" class="st3"/>
  <path d="M352 424H72c-4.4 0-8-3.6-8-8v-32c0-4.4 3.6-8 8-8h280c4.4 0 8 3.6 8 8v32c0 4.4-3.6 8-8 8z" class="st2"/>
  <path d="M352 416H72v-32h280v32z" class="st1"/>
  <path d="M448 416h-48c-8.8 0-16-7.2-16-16s7.2-16 16-16h48c8.8 0 16 7.2 16 16s-7.2 16-16 16z" class="st3"/>
  <path d="M424 408c-4.4 0-8-3.6-8-8s3.6-8 8-8 8 3.6 8 8-3.6 8-8 8z" class="st1"/>
</svg>