<svg xmlns="http://www.w3.org/2000/svg" xml:space="preserve" id="Layer_1" x="0" y="0" version="1.1" viewBox="0 0 512 480">
  <style>
    .st0{fill:#cad0d7}.st1{fill:#e1e6e9}.st2{fill:#99a5ad}.st3{fill:#5a5b67}.st4{fill:#36373f}.st5{fill:#fff}
  </style>
  <path d="M496 0H16C7.2 0 0 7.2 0 16v448c0 8.8 7.2 16 16 16h480c8.8 0 16-7.2 16-16V16c0-8.8-7.2-16-16-16zm0 456c0 4.4-3.6 8-8 8H24c-4.4 0-8-3.6-8-8V72c0-4.4 3.6-8 8-8h464c4.4 0 8 3.6 8 8v384z" class="st0"/>
  <path d="M490 40H118c-3.3 0-6-2.7-6-6v-4c0-3.3 2.7-6 6-6h372c3.3 0 6 2.7 6 6v4c0 3.3-2.7 6-6 6z" class="st1"/>
  <path d="M24 40c-4.4 0-8-3.6-8-8s3.6-8 8-8 8 3.6 8 8-3.6 8-8 8zm40-8c0-4.4-3.6-8-8-8s-8 3.6-8 8 3.6 8 8 8 8-3.6 8-8zm32 0c0-4.4-3.6-8-8-8s-8 3.6-8 8 3.6 8 8 8 8-3.6 8-8z" class="st2"/>
  <path d="m389.8 183.3 12.7 14 31.7-31c3.1-3.1 8.2-3.1 11.3 0l18.4 18V104c0-4.4-3.6-8-8-8H344c-4.4 0-8 3.6-8 8v120.7l42.5-41.4c3.1-3.1 8.2-3.1 11.3 0z" class="st0"/>
  <path d="M445.6 166.3c-3.1-3.1-8.2-3.1-11.3 0L403 197h-.7l-12.4-13.7c-3.1-3.1-8.2-3.1-11.3 0L336 224.7v7.3c0 4.4 3.6 8 8 8h113v-.1c3.9-.5 7-3.9 7-7.9v-47.6l-18.4-18.1z" class="st3"/>
  <path d="m377.5 188.9-11.3 11.3c-1.6 1.6-1.6 4.1 0 5.7 1.6 1.6 4.1 1.6 5.7 0l11.3-11.3c1.6-1.6 1.6-4.1 0-5.7s-4.2-1.6-5.7 0zM427.5 177.9l-11.3 11.3c-1.6 1.6-1.6 4.1 0 5.7 1.6 1.6 4.1 1.6 5.7 0l11.3-11.3c1.6-1.6 1.6-4.1 0-5.7s-4.2-1.6-5.7 0z" class="st1"/>
  <path d="M418.1 199c-3.9-2.7-10.5-2.1-15-1.2l-.1.1.5.5L440 240h16c.3 0 .6 0 .9-.1-1.1-1.2-34.3-38-38.8-40.9z" class="st4"/>
  <path d="M376 144c-8.8 0-16-7.2-16-16s7.2-16 16-16 16 7.2 16 16-7.2 16-16 16z" class="st2"/>
  <path d="M448 140c0-6.6-5.4-12-12-12-5.3 0-9.8 3.4-11.4 8.2-1.7-2-4.3-3.2-7.1-3.2-5.2 0-9.5 4.3-9.5 9.5 0 5.1 4 9.2 9 9.5h20v-.1c6.2-.5 11-5.6 11-11.9z" class="st5"/>
  <path d="m101.8 375.3 12.7 14 31.7-31c3.1-3.1 8.2-3.1 11.3 0l18.4 18V296c0-4.4-3.6-8-8-8H56c-4.4 0-8 3.6-8 8v120.7l42.5-41.4c3.1-3.1 8.2-3.1 11.3 0z" class="st0"/>
  <path d="M157.6 358.3c-3.1-3.1-8.2-3.1-11.3 0L115 389h-.7l-12.4-13.7c-3.1-3.1-8.2-3.1-11.3 0L48 416.7v7.3c0 4.4 3.6 8 8 8h113v-.1c3.9-.5 7-3.9 7-7.9v-47.6l-18.4-18.1z" class="st3"/>
  <path d="m89.5 380.9-11.3 11.3c-1.6 1.6-1.6 4.1 0 5.7s4.1 1.6 5.7 0l11.3-11.3c1.6-1.6 1.6-4.1 0-5.7s-4.2-1.6-5.7 0zM139.5 369.9l-11.3 11.3c-1.6 1.6-1.6 4.1 0 5.7 1.6 1.6 4.1 1.6 5.7 0l11.3-11.3c1.6-1.6 1.6-4.1 0-5.7-1.6-1.6-4.2-1.6-5.7 0z" class="st1"/>
  <path d="M130.1 391c-3.9-2.7-10.5-2.1-15-1.2l-.1.1.5.5L152 432h16c.3 0 .6 0 .9-.1-1.1-1.2-34.3-38-38.8-40.9z" class="st4"/>
  <path d="M88 336c-8.8 0-16-7.2-16-16s7.2-16 16-16 16 7.2 16 16-7.2 16-16 16z" class="st2"/>
  <path d="M160 332c0-6.6-5.4-12-12-12-5.3 0-9.8 3.4-11.4 8.2-1.7-2-4.3-3.2-7.1-3.2-5.2 0-9.5 4.3-9.5 9.5 0 5.1 4 9.2 9 9.5h20v-.1c6.2-.5 11-5.6 11-11.9z" class="st5"/>
  <path d="m245.8 375.3 12.7 14 31.7-31c3.1-3.1 8.2-3.1 11.3 0l18.4 18V312c0-4.4-3.6-8-8-8H200c-4.4 0-8 3.6-8 8v104.7l42.5-41.4c3.1-3.1 8.2-3.1 11.3 0z" class="st0"/>
  <path d="M225 352c-8.8 0-16-7.2-16-16s7.2-16 16-16 16 7.2 16 16-7.2 16-16 16z" class="st2"/>
  <path d="M304 332c0-6.6-5.4-12-12-12-5.3 0-9.8 3.4-11.4 8.2-1.7-2-4.3-3.2-7.1-3.2-5.2 0-9.5 4.3-9.5 9.5 0 5.1 4 9.2 9 9.5h20v-.1c6.2-.5 11-5.6 11-11.9z" class="st5"/>
  <path d="M301.6 358.3c-3.1-3.1-8.2-3.1-11.3 0L259 389h-.7l-12.4-13.7c-3.1-3.1-8.2-3.1-11.3 0L192 416.7v7.3c0 4.4 3.6 8 8 8h113v-.1c3.9-.5 7-3.9 7-7.9v-47.6l-18.4-18.1z" class="st3"/>
  <path d="m233.5 380.9-11.3 11.3c-1.6 1.6-1.6 4.1 0 5.7s4.1 1.6 5.7 0l11.3-11.3c1.6-1.6 1.6-4.1 0-5.7-1.6-1.6-4.2-1.6-5.7 0zM283.5 369.9l-11.3 11.3c-1.6 1.6-1.6 4.1 0 5.7s4.1 1.6 5.7 0l11.3-11.3c1.6-1.6 1.6-4.1 0-5.7s-4.2-1.6-5.7 0z" class="st1"/>
  <path d="M274.1 391c-3.9-2.7-10.5-2.1-15-1.2l-.1.1.5.5L296 432h16c.3 0 .6 0 .9-.1-1.1-1.2-34.3-38-38.8-40.9z" class="st4"/>
  <path d="m389.8 375.3 12.7 14 31.7-31c3.1-3.1 8.2-3.1 11.3 0l18.4 18V264c0-4.4-3.6-8-8-8H344c-4.4 0-8 3.6-8 8v152.7l42.5-41.4c3.1-3.1 8.2-3.1 11.3 0z" class="st0"/>
  <path d="M376 304c-8.8 0-16-7.2-16-16s7.2-16 16-16 16 7.2 16 16-7.2 16-16 16z" class="st2"/>
  <path d="M448 308c0-6.6-5.4-12-12-12-5.3 0-9.8 3.4-11.4 8.2-1.7-2-4.3-3.2-7.1-3.2-5.2 0-9.5 4.3-9.5 9.5 0 5.1 4 9.2 9 9.5h20v-.1c6.2-.5 11-5.6 11-11.9z" class="st5"/>
  <path d="M445.6 358.3c-3.1-3.1-8.2-3.1-11.3 0L403 389h-.7l-12.4-13.7c-3.1-3.1-8.2-3.1-11.3 0L336 416.7v7.3c0 4.4 3.6 8 8 8h113v-.1c3.9-.5 7-3.9 7-7.9v-47.6l-18.4-18.1z" class="st3"/>
  <path d="m377.5 380.9-11.3 11.3c-1.6 1.6-1.6 4.1 0 5.7s4.1 1.6 5.7 0l11.3-11.3c1.6-1.6 1.6-4.1 0-5.7s-4.2-1.6-5.7 0zM427.5 369.9l-11.3 11.3c-1.6 1.6-1.6 4.1 0 5.7s4.1 1.6 5.7 0l11.3-11.3c1.6-1.6 1.6-4.1 0-5.7s-4.2-1.6-5.7 0z" class="st1"/>
  <path d="M418.1 391c-3.9-2.7-10.5-2.1-15-1.2l-.1.1.5.5L440 432h16c.3 0 .6 0 .9-.1-1.1-1.2-34.3-38-38.8-40.9z" class="st4"/>
  <path d="m245.8 231.3 12.7 14 31.7-31c3.1-3.1 8.2-3.1 11.3 0l18.4 18V104c0-4.4-3.6-8-8-8H200c-4.4 0-8 3.6-8 8v168.7l42.5-41.4c3.1-3.1 8.2-3.1 11.3 0z" class="st0"/>
  <path d="M232 160c-8.8 0-16-7.2-16-16s7.2-16 16-16 16 7.2 16 16-7.2 16-16 16z" class="st2"/>
  <path d="M304 172c0-6.6-5.4-12-12-12-5.3 0-9.8 3.4-11.4 8.2-1.7-2-4.3-3.2-7.1-3.2-5.2 0-9.5 4.3-9.5 9.5 0 5.1 4 9.2 9 9.5h20v-.1c6.2-.5 11-5.6 11-11.9z" class="st5"/>
  <path d="M301.6 213.3c-3.1-3.1-8.2-3.1-11.3 0L259 244h-.7l-12.4-13.7c-3.1-3.1-8.2-3.1-11.3 0L192 271.7v7.3c0 4.4 3.6 8 8 8h113v-.1c3.9-.5 7-3.9 7-7.9v-47.6l-18.4-18.1z" class="st3"/>
  <path d="m233.5 235.9-11.3 11.3c-1.6 1.6-1.6 4.1 0 5.7 1.6 1.6 4.1 1.6 5.7 0l11.3-11.3c1.6-1.6 1.6-4.1 0-5.7-1.6-1.6-4.2-1.6-5.7 0zM283.5 224.9l-11.3 11.3c-1.6 1.6-1.6 4.1 0 5.7 1.6 1.6 4.1 1.6 5.7 0l11.3-11.3c1.6-1.6 1.6-4.1 0-5.7s-4.2-1.6-5.7 0z" class="st1"/>
  <path d="M274.1 246c-3.9-2.7-10.5-2.1-15-1.2l-.1.1.5.5L296 287h16c.3 0 .6 0 .9-.1-1.1-1.2-34.3-38-38.8-40.9z" class="st4"/>
  <path d="m101.8 215.3 12.7 14 31.7-31c3.1-3.1 8.2-3.1 11.3 0l18.4 18V104c0-4.4-3.6-8-8-8H56c-4.4 0-8 3.6-8 8v152.7l42.5-41.4c3.1-3.1 8.2-3.1 11.3 0z" class="st0"/>
  <path d="M88 144c-8.8 0-16-7.2-16-16s7.2-16 16-16 16 7.2 16 16-7.2 16-16 16z" class="st2"/>
  <path d="M160 148c0-6.6-5.4-12-12-12-5.3 0-9.8 3.4-11.4 8.2-1.7-2-4.3-3.2-7.1-3.2-5.2 0-9.5 4.3-9.5 9.5 0 5.1 4 9.2 9 9.5h20v-.1c6.2-.5 11-5.6 11-11.9z" class="st5"/>
  <path d="M157.6 197.3c-3.1-3.1-8.2-3.1-11.3 0L115 228h-.7l-12.4-13.7c-3.1-3.1-8.2-3.1-11.3 0L48 255.7v7.3c0 4.4 3.6 8 8 8h113v-.1c3.9-.5 7-3.9 7-7.9v-47.6l-18.4-18.1z" class="st3"/>
  <path d="m89.5 219.9-11.3 11.3c-1.6 1.6-1.6 4.1 0 5.7 1.6 1.6 4.1 1.6 5.7 0l11.3-11.3c1.6-1.6 1.6-4.1 0-5.7s-4.2-1.6-5.7 0zM139.5 208.9l-11.3 11.3c-1.6 1.6-1.6 4.1 0 5.7 1.6 1.6 4.1 1.6 5.7 0l11.3-11.3c1.6-1.6 1.6-4.1 0-5.7-1.6-1.6-4.2-1.6-5.7 0z" class="st1"/>
  <path d="M130.1 230c-3.9-2.7-10.5-2.1-15-1.2l-.1.1.5.5L152 271h16c.3 0 .6 0 .9-.1-1.1-1.2-34.3-38-38.8-40.9z" class="st4"/>
</svg>