<svg xmlns="http://www.w3.org/2000/svg" viewBox="0 0 210 200" style="enable-background:new 0 0 210 200" xml:space="preserve">
  <path style="opacity:.05;fill:#ffffff;" d="M83.8 93.1c-5.7-.5-11.6-.1-17-1.6-7.8-2.2-10-13.1-3.2-18.7 7.3-6 15.6-10.8 23.8-15.5 2.2-1.2 6.2-.7 8.6.5 1.1.5.7 5 .1 7.4-.8 2.3-2 4.5-3.7 6.3-3.3 4.1-6.2 7.8-3.7 13.7 1.8 3.8.8 7.5-4.9 7.9zM71.5 0c2.8.6 5.8.8 8.3 1.9 5.1 2.2 5.9 5.8 2.6 10.3-4.9 6.2-8.5 13.3-10.6 20.9-1.1 2.9-3.3 5.1-6.2 6.2-1.7.5-4.8-2.2-6.6-4.1-2-2.4-3.7-5.1-5.1-7.8-5.1-8.7-5-9.3 1.9-16.8C65 .5 65 .5 71.5 0zm-6.8 117.1c3 2.2 7.3 4 8.8 7.1 1.3 2.6-.4 6.9-1.4 10.3-1 3.4-6.6 5.3-3.3 10.4.3.5-2 3.5-3.6 4.2-9.2 4.4-15.8-1.7-21-7.3-2.8-3-2.5-9.2-3.2-14 .1-1.3.9-2.5 2.1-3.1 6.6-2.5 13.3-4.8 21.6-7.6zm44.5 62.8c-.7 5.9-2.9 9.5-9.3 10.6-4.5.8-8.4 4.7-13.5 2.2-1.5-.8-3.4-1-4.7-2-1.3-.9-2-3.5-3.2-3.6-7.4-1-8.8-7.8-11.8-12.5-2.9-4.6-.2-8.1 5.3-8.4 3.1-.2 6.2-1.5 9.1-1.1 4 .5 10.1 1.1 11.2 3.5 2.9 6.5 8.1 7.8 13.5 9.6 1.2.3 2.3 1 3.4 1.7zm23.7-162.6c2 1.2 4.6 1.9 5.2 3.5.5 1.3-1.4 3.6-2 5.5-1.6 4.4-3.1 8.9-4.5 13.4-1.9 5.7-3.4 11.6-5.7 17.2-1.5 3.5-4.5 5-8 1.9-3-2.6-6-5.3-8.7-8.2-4.5-4.7-3-17.3 3.3-19.5 5.9-2.1 9.3-6.4 13.8-9.9 2.1-1.5 4.3-2.8 6.6-3.9zm-93.1 86.4c-2.6 4.4-4.6 8.1-6.9 11.6-1.5 2.2-3.2 4.3-5.2 6.1-2.1 2-5 5.4-6.8 4.9-3.6-.9-6.7-3.1-8.7-6.1-2.5-4.4-7.7-8.2-4-15 3-5.6 19-14.7 24.4-11.7 3.2 1.9 4.7 6.6 7.2 10.2zm57.1 30c.9-5.4.9-9.2 2.2-12.7 1.4-3.9 4.9-4.3 8.3-2.4 2.1 1.3 4 2.9 5.5 4.8 2.8 3.2 5.3 6 10.5 5.5 2.3-.2 5.8 3 7.2 5.6.8 1.4-1.2 5.3-2.9 6.9-8.7 8.2-19.4 10.8-26.1 1.4-1.9-3-3.4-6-4.7-9.1zm72.7 10.3c-2.4.6-5.7.4-7.1 1.9-3.5 3.6-6.1 3.6-9.5.1-3.6-3.7-3.4-7.6-.9-11.5 1.9-3 4.5-5.5 6.5-8.4 5.5-8.1 13-10.3 21.3-5.8 1.1.6 2.4 2.8 2 3.8-1.6 4.4-3.6 8.6-5.6 12.9-1.5 3.2-3.2 6.2-4.8 9.4l-1.9-2.4zM27.5 162.5c.2 6.3-7.9 15.2-14.1 15.4-4.8.1-13-9.5-13.4-15.7-.4-7.3 4.1-12.2 11.6-12.5 8.1-.3 15.6 5.8 15.9 12.8zm91.6-80.8c6 1.6 11.9 2.7 17.4 4.7 2.4.8 5.5 3.2 5.7 5.2.3 2.2-2.2 4.9-3.7 7.3-1 1.7-2.3 3.1-3.2 4.8-3.3 6.6-10.2 8.1-15.3 2.8-8.6-9.1-10.1-14.3-.9-24.8zm42.6 105.1c-7.5.8-10.9-4.8-12.8-9.4-1.2-3.2 1.7-8.3 3.5-12.2.6-1.2 3.6-2.2 5.3-1.9 5.3.7 10.6 1.9 15.6 3.6 5.8 2.1 6.4 7 1.8 11.1-4 3.7-6.5 10.1-13.4 8.8zm17.7-106.7c-2.6 1.1-6 3.8-7.7 3.1-7.2-3.3-16.3-2.9-21.4-10.7-3.1-4.6-2.7-7.4 2.5-9.5.8-.3 1.9-.3 2.5-.8 3.7-3.6 7.4-6.1 11.8-1.2 3 3 5.7 6.2 8.3 9.6 1.7 2.3 2.3 5.2 4 9.5zM29.7 66.3C30 55 34.5 47.9 40.8 45.9c3.8-1.2 6.3.3 5.6 3.9-1.4 6.9-3.4 13.7-6 20.3-.5 1.3-5.2 2.3-6.8 1.4-2.2-1.2-3.4-4.4-3.9-5.2zm180.1 120.5c.1 6.3-4.3 12.8-8.1 12.7-4.6-.2-10.5-5.4-10.5-9.4 0-6.9 4.3-11.4 11.2-11.4 6-.1 8.3 3.1 7.4 8.1z"/>
</svg>