<svg xmlns="http://www.w3.org/2000/svg" viewBox="0 0 97.9 234.9" style="enable-background:new 0 0 97.9 234.9" xml:space="preserve">
  <g style="opacity:.05">
    <path style="fill:#ffffff;" d="m44.1 220-10.3 8c.8-2.5 1.5-4.6 2.2-6.7l-1.8-1.1L23 234.9l-1.1-.6c1.3-2.8 2.6-5.5 3.9-8.3l-1.4-.8c-1.8 2.8-3.5 5.6-5.3 8.4l-.8-.4 1-3.6c-.6-.1-1.2-.3-1.5-.2-1.5.6-3 1.7-4.6 1.9-2.8.3-5.8.8-5.8-3.8 0-2.1-1.3-4.3-2.4-6.3-.3-.6-1.8-.7-3.5-1.2-2.3-17.1-2.5-34.8 2-52.7 2.4-9.5 2.3-19.6 3.6-29.3 1-6.9-.2-14.5 5.9-20 1.2-1.1 1.3-3.3 1.6-5.1 1.1-6.2 1.9-12.5 3-18.7.3-1.6 1.6-3 2.6-4.3.6-.8 1.9-1.1 2.2-1.8 2.4-5.4 4.6-11 7-16.4 2.1-4.5 3.8-9.4 6.8-13.2 8.4-10.6 17.9-20.3 25.9-31.1 3.9-5.3 5.6-12 12.2-15.5 2-1.1 2.1-5.4 3.5-8C79 2.3 80.7 1.3 82.1 0l3.5 4.4c1.9-.3 5-1.1 5.5 3.3.3-.9.7-1.7 1.3-2.4 1.2-1.1 2.5-2.1 3.8-3.1.7 1.5 1.2 3.1 1.6 4.7 1.2 10.6-4.8 19.8-6 29.9-.9 7.3-.5 14.8-.8 22.2-.1 3.2 1.3 6.8-2.7 9.6l-1.9-5.2-.7.1-.7 10.2c-2.4-3.7-4-2.8-5.7 0-2.2 3.7-2.3 3.6-6.5 2.6l-6 4.9c-1.8 4.1-3.2 7.6-4.7 10.9-1.9 4-4 7.5-2.2 12.7 1.1 3.3-1.5 7.8-2 11.8-.1 2.1.1 4.2.5 6.3.4 2.6 1 5.1 1.6 8l2.8-1.4L66 138l3.3-4.8c5.5 2.9 5.7 8.1 5.2 13.5l1.4-.2v-8.1l.9-.8c1.4 2.1 3.8 4.1 4 6.3.4 5 .6 10.3-.6 15.1-2 8.3-4.9 16.4-7.7 24.4-.4 1.2-1.9 1.9-2.1 2l-2 6.9-1.8-.4.7-5.5c-8.6 12.9-14.5 27.1-29.9 33.2l1.4 1.8c0 .1 5.3-1.4 5.3-1.4zm-5.8-38c-4.2.2-4.5 1-8.2 17.7 5.4-5.4 6.4-11.6 8.2-17.7z"/>
  </g>
</svg>