<svg xmlns="http://www.w3.org/2000/svg" xml:space="preserve" id="Layer_1" x="0" y="0" version="1.1" viewBox="0 0 512 480">
  <style>
    .st0{fill:#cad0d7}.st1{fill:#e1e6e9}.st2{fill:#99a5ad}.st3{fill:#5a5b67}
  </style>
  <path d="M496 0H16C7.2 0 0 7.2 0 16v448c0 8.8 7.2 16 16 16h480c8.8 0 16-7.2 16-16V16c0-8.8-7.2-16-16-16zm0 456c0 4.4-3.6 8-8 8H24c-4.4 0-8-3.6-8-8V72c0-4.4 3.6-8 8-8h464c4.4 0 8 3.6 8 8v384z" class="st0"/>
  <path d="M490 40H118c-3.3 0-6-2.7-6-6v-4c0-3.3 2.7-6 6-6h372c3.3 0 6 2.7 6 6v4c0 3.3-2.7 6-6 6z" class="st1"/>
  <path d="M24 40c-4.4 0-8-3.6-8-8s3.6-8 8-8 8 3.6 8 8-3.6 8-8 8zm40-8c0-4.4-3.6-8-8-8s-8 3.6-8 8 3.6 8 8 8 8-3.6 8-8zm32 0c0-4.4-3.6-8-8-8s-8 3.6-8 8 3.6 8 8 8 8-3.6 8-8z" class="st2"/>
  <path d="M120 168H64c-4.4 0-8-3.6-8-8v-56c0-4.4 3.6-8 8-8h56c4.4 0 8 3.6 8 8v56c0 4.4-3.6 8-8 8zM264 168H152c-4.4 0-8-3.6-8-8v-56c0-4.4 3.6-8 8-8h112c4.4 0 8 3.6 8 8v56c0 4.4-3.6 8-8 8z" class="st0"/>
  <path d="M152 256H64c-4.4 0-8-3.6-8-8v-56c0-4.4 3.6-8 8-8h88c4.4 0 8 3.6 8 8v56c0 4.4-3.6 8-8 8z" class="st2"/>
  <path d="M336 256H184c-4.4 0-8-3.6-8-8v-56c0-4.4 3.6-8 8-8h152c4.4 0 8 3.6 8 8v56c0 4.4-3.6 8-8 8zM448 168H296c-4.4 0-8-3.6-8-8v-56c0-4.4 3.6-8 8-8h152c4.4 0 8 3.6 8 8v56c0 4.4-3.6 8-8 8z" class="st1"/>
  <path d="M448 256h-80c-4.4 0-8-3.6-8-8v-56c0-4.4 3.6-8 8-8h80c4.4 0 8 3.6 8 8v56c0 4.4-3.6 8-8 8zM288 352H64c-4.4 0-8-3.6-8-8s3.6-8 8-8h224c4.4 0 8 3.6 8 8s-3.6 8-8 8zM248 384H64c-4.4 0-8-3.6-8-8s3.6-8 8-8h184c4.4 0 8 3.6 8 8s-3.6 8-8 8zM256 416H64c-4.4 0-8-3.6-8-8s3.6-8 8-8h192c4.4 0 8 3.6 8 8s-3.6 8-8 8z" class="st0"/>
  <path d="M144 312H64c-4.4 0-8-3.6-8-8s3.6-8 8-8h80c4.4 0 8 3.6 8 8s-3.6 8-8 8z" class="st3"/>
  <path d="M424 416h-72c-4.4 0-8-3.6-8-8s3.6-8 8-8h72c4.4 0 8 3.6 8 8s-3.6 8-8 8zM448 352h-96c-4.4 0-8-3.6-8-8s3.6-8 8-8h96c4.4 0 8 3.6 8 8s-3.6 8-8 8zM408 384h-56c-4.4 0-8-3.6-8-8s3.6-8 8-8h56c4.4 0 8 3.6 8 8s-3.6 8-8 8z" class="st0"/>
  <path d="M416 312h-64c-4.4 0-8-3.6-8-8s3.6-8 8-8h64c4.4 0 8 3.6 8 8s-3.6 8-8 8z" class="st3"/>
  <path fill="#fff" d="M398 151h20v18h-20z"/>
  <path d="M408 128c-17.7 0-32 14.3-32 32 0 17.4 16.6 52.1 29.4 63.5.4.3.8.5 1.3.5h2.5c.5 0 1-.2 1.3-.5 12.9-11.4 29.4-46.1 29.4-63.5.1-17.7-14.2-32-31.9-32zm0 40c-4.4 0-8-3.6-8-8s3.6-8 8-8 8 3.6 8 8-3.6 8-8 8z" class="st3"/>
</svg>