<svg xmlns="http://www.w3.org/2000/svg" xml:space="preserve" id="Layer_1" x="0" y="0" version="1.1" viewBox="0 0 512 480">
  <style>
    .st0{fill:#cad0d7}.st1{fill:#e1e6e9}.st3{fill:#5a5b67}.st4{fill:#fff}
  </style>
  <path d="M496 0H16C7.2 0 0 7.2 0 16v448c0 8.8 7.2 16 16 16h480c8.8 0 16-7.2 16-16V16c0-8.8-7.2-16-16-16zm0 456c0 4.4-3.6 8-8 8H24c-4.4 0-8-3.6-8-8V72c0-4.4 3.6-8 8-8h464c4.4 0 8 3.6 8 8v384z" class="st0"/>
  <path d="M490 40H118c-3.3 0-6-2.7-6-6v-4c0-3.3 2.7-6 6-6h372c3.3 0 6 2.7 6 6v4c0 3.3-2.7 6-6 6z" class="st1"/>
  <path fill="#99a5ad" d="M24 40c-4.4 0-8-3.6-8-8s3.6-8 8-8 8 3.6 8 8-3.6 8-8 8zm40-8c0-4.4-3.6-8-8-8s-8 3.6-8 8 3.6 8 8 8 8-3.6 8-8zm32 0c0-4.4-3.6-8-8-8s-8 3.6-8 8 3.6 8 8 8 8-3.6 8-8z"/>
  <path d="M320 440H192c-8.8 0-16-7.2-16-16V112c0-8.8 7.2-16 16-16h128c8.8 0 16 7.2 16 16v312c0 8.8-7.2 16-16 16z" class="st1"/>
  <path d="M144 240H64c-4.4 0-8-3.6-8-8v-80c0-4.4 3.6-8 8-8h80c4.4 0 8 3.6 8 8v80c0 4.4-3.6 8-8 8z" class="st3"/>
  <path d="M144 232H64v-80h80v80z" class="st0"/>
  <path d="m107.5 170 4.9 10.4c.5 1.1 1.4 1.8 2.5 1.9l10.9 1.7c2.8.4 3.9 4 1.9 6.1l-7.9 8.1c-.8.8-1.2 2-1 3.2l1.9 11.4c.5 2.9-2.4 5.1-4.9 3.8l-9.7-5.4c-1-.5-2.2-.5-3.1 0l-9.7 5.4c-2.5 1.4-5.4-.8-4.9-3.8l1.9-11.4c.2-1.2-.2-2.3-1-3.2l-7.9-8.1c-2-2.1-.9-5.7 1.9-6.1l10.9-1.7c1.1-.2 2-.9 2.5-1.9l4.9-10.4c1.1-2.6 4.7-2.6 5.9 0z" class="st4"/>
  <path d="M296 224h-80c-4.4 0-8-3.6-8-8v-80c0-4.4 3.6-8 8-8h80c4.4 0 8 3.6 8 8v80c0 4.4-3.6 8-8 8z" class="st3"/>
  <path d="M296 216h-80v-80h80v80z" class="st0"/>
  <path d="m259.5 154 4.9 10.4c.5 1.1 1.4 1.8 2.5 1.9l10.9 1.7c2.8.4 3.9 4 1.9 6.1l-7.9 8.1c-.8.8-1.2 2-1 3.2l1.9 11.4c.5 2.9-2.4 5.1-4.9 3.8l-9.7-5.4c-1-.5-2.2-.5-3.1 0l-9.7 5.4c-2.5 1.4-5.4-.8-4.9-3.8l1.9-11.4c.2-1.2-.2-2.3-1-3.2l-7.9-8.1c-2-2.1-.9-5.7 1.9-6.1l10.9-1.7c1.1-.2 2-.9 2.5-1.9l4.9-10.4c1.1-2.6 4.7-2.6 5.9 0z" class="st4"/>
  <path d="M448 240h-80c-4.4 0-8-3.6-8-8v-80c0-4.4 3.6-8 8-8h80c4.4 0 8 3.6 8 8v80c0 4.4-3.6 8-8 8z" class="st3"/>
  <path d="M448 232h-80v-80h80v80z" class="st0"/>
  <path d="m411.5 170 4.9 10.4c.5 1.1 1.4 1.8 2.5 1.9l10.9 1.7c2.8.4 3.9 4 1.9 6.1l-7.9 8.1c-.8.8-1.2 2-1 3.2l1.9 11.4c.5 2.9-2.4 5.1-4.9 3.8l-9.7-5.4c-1-.5-2.2-.5-3.1 0l-9.7 5.4c-2.5 1.4-5.4-.8-4.9-3.8l1.9-11.4c.2-1.2-.2-2.3-1-3.2l-7.9-8.1c-2-2.1-.9-5.7 1.9-6.1l10.9-1.7c1.1-.2 2-.9 2.5-1.9l4.9-10.4c1.1-2.6 4.7-2.6 5.9 0z" class="st4"/>
  <path d="M144 280H64c-4.4 0-8-3.6-8-8s3.6-8 8-8h80c4.4 0 8 3.6 8 8s-3.6 8-8 8zm-8 24c0-4.4-3.6-8-8-8H80c-4.4 0-8 3.6-8 8s3.6 8 8 8h48c4.4 0 8-3.6 8-8zm8 32c0-4.4-3.6-8-8-8H72c-4.4 0-8 3.6-8 8s3.6 8 8 8h64c4.4 0 8-3.6 8-8zM448 280h-80c-4.4 0-8-3.6-8-8s3.6-8 8-8h80c4.4 0 8 3.6 8 8s-3.6 8-8 8zm-8 24c0-4.4-3.6-8-8-8h-48c-4.4 0-8 3.6-8 8s3.6 8 8 8h48c4.4 0 8-3.6 8-8zm8 32c0-4.4-3.6-8-8-8h-64c-4.4 0-8 3.6-8 8s3.6 8 8 8h64c4.4 0 8-3.6 8-8z" class="st0"/>
  <path d="M296 280h-80c-4.4 0-8-3.6-8-8s3.6-8 8-8h80c4.4 0 8 3.6 8 8s-3.6 8-8 8zm-8 24c0-4.4-3.6-8-8-8h-48c-4.4 0-8 3.6-8 8s3.6 8 8 8h48c4.4 0 8-3.6 8-8zm8 32c0-4.4-3.6-8-8-8h-64c-4.4 0-8 3.6-8 8s3.6 8 8 8h64c4.4 0 8-3.6 8-8z" class="st3"/>
</svg>