<svg width="32" height="32" viewBox="0 0 24 24" fill="none" xmlns="http://www.w3.org/2000/svg">
  <path opacity=".3" d="M14.1 15.013c.5 1.3.4 2.8-.4 4.1-1.4 2.4-4.4 3.2-6.8 1.8-1.6-.9-2.5-2.6-2.5-4.3.7.4 1.6.7 2.5.7 1.5 0 2.8-.7 3.8-1.7.4.1.8.2 1.2.2.8 0 1.6-.3 2.2-.8Zm-5.6-2.1c0-.2-.1-.4-.1-.6 0-1.1.5-2.1 1.3-2.7-.5-1.3-.4-2.8.4-4.1.5-.8 1.1-1.4 1.8-1.8-1.5-.9-3.4-1-5 0-2.4 1.4-3.2 4.4-1.8 6.8.7 1.3 2 2.1 3.4 2.4Zm8.4-5.6c-1.5 0-2.8.7-3.8 1.7 1.2.4 2 1.5 2.2 2.7 1.4.3 2.6 1.1 3.4 2.4.5.8.6 1.6.6 2.5 1.5-.9 2.5-2.5 2.5-4.3.1-2.8-2.1-5-4.9-5Z" fill="#508991"/>
  <path d="M9.7 9.613c-.5-1.3-.4-2.8.4-4.1 1.4-2.4 4.4-3.2 6.8-1.8 1.6.9 2.5 2.6 2.5 4.3-.7-.4-1.6-.7-2.5-.7-1.5 0-2.8.7-3.8 1.7-.4-.1-.8-.2-1.2-.2-.8 0-1.6.3-2.2.8Zm-1.2 3.3c-1.4-.3-2.6-1.1-3.4-2.4-.5-.8-.6-1.6-.6-2.5-1.5.9-2.5 2.5-2.5 4.3 0 2.8 2.2 5 5 5 1.5 0 2.8-.7 3.8-1.7-1.3-.5-2.1-1.5-2.3-2.7Zm10.2 1.2c-.8-1.3-2-2.1-3.4-2.4 0 .2.1.4.1.6 0 1.1-.5 2.1-1.3 2.7.5 1.3.4 2.8-.4 4.1-.5.8-1.1 1.4-1.8 1.8 1.5.9 3.4 1 5 0 2.4-1.3 3.2-4.4 1.8-6.8Z" fill="#508991"/>
</svg>