<svg width="140" height="47" fill="none" xmlns="http://www.w3.org/2000/svg">
  <g clip-path="url(#a)">
    <path d="M96.267 23.87c-2.514-.35-3.493-.978-3.423-1.956.14-1.747 2.306-1.957 3.633-1.887 2.585.21 3.144 2.445 3.144 2.725l2.515-.21c-.14-1.607-1.467-4.75-5.24-5.03-2.096-.14-3.912.28-5.1 1.328-.908.768-1.676 1.956-1.816 3.143-.28 3.843 3.493 4.402 5.868 4.751 3.004.42 3.703.838 3.633 1.956 0 .559-.35 1.118-.768 1.467-.63.49-1.887.699-3.144.559-2.864-.28-3.074-2.096-3.074-2.445l-2.515.07c0 1.537 1.048 4.54 5.31 5.03 2.305.28 4.191-.42 5.169-1.118 1.118-.838 1.747-2.236 1.816-3.563.21-3.982-3.632-4.471-6.008-4.82ZM110.659 30.716c3.772 0 3.493-4.261 3.493-4.261v-8.523h2.934V26.665c0 1.257-.14 6.636-6.358 6.636h-.209c-6.218 0-6.357-5.31-6.357-6.637v-8.732h2.934v8.453c.07 0-.21 4.331 3.563 4.331ZM136.926 28.34c-.838 1.468-2.515 2.306-4.331 2.306-2.515 0-4.541-1.607-4.89-4.122h12.225v-1.187c0-4.75-3.213-7.825-7.475-7.825-4.261 0-7.684 3.004-7.684 7.825 0 4.82 3.423 7.894 7.684 7.894 2.655 0 5.17-1.118 6.567-3.354l-2.096-1.537Zm-4.401-8.103c2.445 0 4.192 1.537 4.611 4.052h-9.362c.35-2.585 2.236-4.052 4.751-4.052ZM80.968 17.582c-2.096 0-4.261.978-5.24 2.655v-2.375h-2.934v22.355h2.935v-9.501c.978 1.746 3.143 2.585 5.24 2.585 4.12 0 7.544-3.004 7.544-7.825 0-4.75-3.423-7.894-7.545-7.894Zm-.28 12.994c-2.445 0-5.03-1.747-5.03-4.96 0-3.214 2.516-5.31 5.17-5.31 2.725 0 4.89 2.026 4.89 5.03-.07 3.074-2.375 5.24-5.03 5.24ZM122.605 9.688h-2.935v23.264h2.935V9.688ZM64.411 17.442h-.21s-2.514 0-4.89.978l.28.769.559 1.607c.838-.35 2.235-.769 4.052-.839h.21c3.213 0 3.283 2.934 3.283 2.934v.769l-5.03-.07c-.35 0-2.376 0-3.843 1.397-.349.35-.628.699-.838 1.118-.28.629-.489 1.327-.489 2.096 0 .978.28 1.886.699 2.655.21.349.489.698.768.978.978.908 2.375 1.467 3.912 1.467h.35c1.746-.07 3.353-.769 4.4-2.445v2.095h2.586v-9.5c.07-2.446-1.467-6.009-5.799-6.009Zm-1.257 13.483c-.908.07-3.004-.419-3.004-2.724 0-.629.559-2.096 2.375-2.096h5.03c.07 2.794-1.607 4.68-4.401 4.82ZM49.112 30.367c-4.68 0-8.244-3.773-8.244-8.453 0-4.681 3.633-8.523 8.244-8.523 2.235 0 4.191.908 5.658 2.305l1.747-2.375c-1.886-1.747-4.541-2.795-7.405-2.795-6.288 0-11.248 5.1-11.248 11.388 0 6.287 4.96 11.387 11.248 11.387 2.585 0 4.89-.839 6.706-2.166l-.978-2.724c-1.607 1.117-3.772 1.956-5.728 1.956ZM0 30.297h3.633V28.06h4.61v2.236h3.563V12.97H0v17.326ZM18.094 8.081a.955.955 0 0 0-.978.978c0 .559.419.978.978.978.559 0 .978-.419.978-.978.07-.489-.42-.978-.978-.978ZM18.094 12.622a.955.955 0 0 0-.978.978c0 .559.419.978.978.978.559 0 .978-.419.978-.978.07-.489-.42-.978-.978-.978ZM18.094 17.233a.955.955 0 0 0-.978.978c0 .559.419.978.978.978.559 0 .978-.42.978-.978.07-.559-.42-.978-.978-.978ZM22.774 8.081a.955.955 0 0 0-.978.978c0 .559.42.978.978.978.56 0 .979-.419.979-.978 0-.489-.42-.978-.979-.978ZM22.774 12.622a.955.955 0 0 0-.978.978c0 .559.42.978.978.978.56 0 .979-.419.979-.978 0-.489-.42-.978-.979-.978ZM22.774 17.233a.955.955 0 0 0-.978.978c0 .559.42.978.978.978.56 0 .979-.42.979-.978a.955.955 0 0 0-.979-.978ZM27.315 8.081a.955.955 0 0 0-.978.978c0 .559.42.978.978.978.56 0 .979-.419.979-.978 0-.489-.42-.978-.979-.978ZM27.315 12.622a.955.955 0 0 0-.978.978c0 .559.42.978.978.978.56 0 .979-.419.979-.978 0-.489-.42-.978-.979-.978ZM27.315 17.233a.955.955 0 0 0-.978.978c0 .559.42.978.978.978.56 0 .979-.42.979-.978a.955.955 0 0 0-.979-.978Z" fill="#508991"/>
    <path d="M6.078 24.288C2.794 24.218.07 26.803 0 30.017c-.07 3.214 2.515 5.938 5.798 6.078 3.284.07 5.938-2.515 6.078-5.798 0-3.214-2.585-5.939-5.798-6.009Zm1.816 8.034H3.912V28.34h3.982v3.982Z" fill="#508991"/>
    <path d="M6.078 24.288C2.794 24.218.07 26.803 0 30.017c-.07 3.214 2.515 5.938 5.798 6.078 3.284.07 5.938-2.515 6.078-5.798 0-3.214-2.585-5.939-5.798-6.009Zm1.816 8.034H3.912V28.34h3.982v3.982Z" fill="#fff" fill-opacity=".2"/>
    <path d="M5.938 19.119a5.938 5.938 0 1 0 0-11.876 5.938 5.938 0 0 0 0 11.876Z" fill="#fff"/>
    <path d="M16.627 23.17v12.157h12.156V23.17H16.627Zm9.71 8.803h-7.195v-1.537h7.195v1.537Zm0-3.982h-7.195v-1.537h7.195v1.537Z" fill="#508991"/>
  </g>
  <defs>
    <clipPath id="a">
      <path fill="#fff" d="M0 0h140v47H0z"/>
    </clipPath>
  </defs>
</svg>