<svg width="32" height="32" viewBox="0 0 24 24" fill="none" xmlns="http://www.w3.org/2000/svg">
  <path fill-rule="evenodd" clip-rule="evenodd" d="M22.167 18.142a.5.5 0 0 0 .854-.355l-.017-4.682V5.526A2.526 2.526 0 0 0 20.478 3H8.688a2.526 2.526 0 0 0-2.526 2.526V9H13a3 3 0 0 1 3 3v3.632h3.657l2.51 2.51Z" fill="#508991"/>
  <path opacity=".3" fill-rule="evenodd" clip-rule="evenodd" d="M1.985 18v-5a2 2 0 0 1 2-2h8a2 2 0 0 1 2 2v5a2 2 0 0 1-2 2H4.101l-1.244 1.19a.5.5 0 0 1-.846-.36v-2.506A2.015 2.015 0 0 1 1.985 18ZM6 14.5a.5.5 0 0 1 .5-.5h5a.5.5 0 0 1 0 1h-5a.5.5 0 0 1-.5-.5ZM9.5 16a.5.5 0 0 0 0 1h2a.5.5 0 0 0 0-1h-2Z" fill="#508991"/>
</svg>