<svg width="140" height="47" fill="none" xmlns="http://www.w3.org/2000/svg">
  <path d="M20.4 8.15c0 1.468-1.258 2.725-2.726 2.725-1.466 0-2.724-1.257-2.724-2.724 0-1.467 1.258-2.725 2.724-2.725 1.468 0 2.725 1.258 2.725 2.725Zm-2.726 4.96a2.833 2.833 0 0 0-2.864 2.865 2.833 2.833 0 0 0 2.864 2.864 2.833 2.833 0 0 0 2.865-2.864c0-1.676-1.258-2.864-2.865-2.864Zm0 7.616a2.952 2.952 0 0 0-2.934 2.934 2.952 2.952 0 0 0 2.934 2.934 2.952 2.952 0 0 0 2.935-2.934c.07-1.607-1.328-2.934-2.935-2.934Zm0 7.754a2.833 2.833 0 0 0-2.864 2.864 2.833 2.833 0 0 0 2.864 2.865 2.833 2.833 0 0 0 2.865-2.865c0-1.537-1.258-2.864-2.865-2.864Zm0 7.894c-1.466 0-2.724 1.258-2.724 2.725s1.258 2.725 2.724 2.725c1.468 0 2.725-1.258 2.725-2.725a2.728 2.728 0 0 0-2.725-2.725Zm7.546-23.612c-1.747 0-3.214 1.467-3.214 3.213 0 1.747 1.467 3.214 3.213 3.214 1.747 0 3.214-1.467 3.214-3.214 0-1.746-1.467-3.213-3.213-3.213Zm0 7.614a3.354 3.354 0 1 0 0 6.708 3.354 3.354 0 0 0 0-6.708Zm0 7.755c-1.747 0-3.214 1.467-3.214 3.213 0 1.747 1.467 3.214 3.213 3.214 1.747 0 3.214-1.467 3.214-3.214 0-1.746-1.467-3.213-3.213-3.213Zm7.754-8.174c-1.956 0-3.703 1.607-3.703 3.703 0 1.956 1.607 3.702 3.703 3.702s3.703-1.606 3.703-3.702c-.14-2.096-1.747-3.703-3.703-3.703ZM10.06 13.46c-1.328 0-2.445 1.118-2.445 2.445 0 1.328 1.117 2.445 2.445 2.445 1.327 0 2.445-1.117 2.445-2.445a2.43 2.43 0 0 0-2.445-2.445Zm0 7.615c-1.467 0-2.585 1.118-2.585 2.585 0 1.467 1.118 2.585 2.585 2.585 1.467 0 2.585-1.118 2.585-2.585 0-1.467-1.118-2.585-2.585-2.585Zm0 7.755c-1.328 0-2.445 1.117-2.445 2.445 0 1.327 1.117 2.445 2.445 2.445 1.327 0 2.445-1.118 2.445-2.445a2.43 2.43 0 0 0-2.445-2.445Zm-7.615-7.336A2.207 2.207 0 0 0 .209 23.73c0 1.257.979 2.235 2.236 2.235a2.207 2.207 0 0 0 2.236-2.235 2.207 2.207 0 0 0-2.236-2.236ZM64.481 18.91c-.28 0-.489.279-.489.488V38.75c0 .28.28.49.49.49h2.305c.279 0 .489-.28.489-.49V19.4c0-.28-.28-.49-.49-.49h-2.305ZM65.739 10.736a2.207 2.207 0 0 0-2.236 2.235c0 1.258.978 2.236 2.236 2.236a2.207 2.207 0 0 0 2.236-2.236c0-1.257-1.048-2.235-2.236-2.235ZM114.082 18.91c-.279 0-.489.279-.489.488V38.75c0 .28.28.49.489.49h2.306c.279 0 .489-.28.489-.49V19.4c0-.28-.28-.49-.489-.49h-2.306ZM115.2 10.736a2.207 2.207 0 0 0-2.236 2.235c0 1.258.978 2.236 2.236 2.236a2.207 2.207 0 0 0 2.235-2.236 2.207 2.207 0 0 0-2.235-2.235ZM138.603 37.352c.14-.14.14-.279.14-.349v-.14s0-.14-.14-.14c0 0-.14-.139-.279-.139h-.908v1.746h.279v-.628h.349l.489.629h.28l-.629-.769c.279.07.419-.07.419-.21Zm-.838.14v-.629h.489c.14 0 .279 0 .349.14.14 0 .14.14.14.28s0 .279-.14.279-.279.14-.349.14h-.489v-.21Z" fill="#508991"/>
  <path d="M138.114 35.885c-.838 0-1.607.769-1.607 1.607s.769 1.607 1.607 1.607 1.607-.769 1.607-1.607c0-.908-.699-1.607-1.607-1.607Zm0 3.074c-.838 0-1.467-.629-1.467-1.467 0-.838.629-1.467 1.467-1.467.838 0 1.467.629 1.467 1.467 0 .838-.698 1.467-1.467 1.467ZM83.693 22.053c.28 0 .489-.28.489-.489V19.26c0-.28-.28-.49-.49-.49h-4.96v-7.404c0-.28-.279-.49-.488-.49h-2.306c-.28 0-.489.28-.489.49v7.405h-2.445c-.28 0-.489.28-.489.489v2.305c0 .28.28.49.49.49h2.444V33.23c0 3.423 2.306 5.658 5.659 5.658h2.445c.28 0 .49-.279.49-.489v-2.305c0-.28-.28-.489-.49-.489h-2.096c-1.606 0-2.724-1.118-2.724-2.864V21.983l4.96.07ZM132.735 22.053c.279 0 .489-.28.489-.489V19.26c0-.28-.28-.49-.489-.49h-4.96v-7.404c0-.28-.28-.49-.489-.49h-2.306c-.279 0-.489.28-.489.49v7.405h-2.445c-.279 0-.489.28-.489.489v2.305c0 .28.28.49.489.49h2.445V33.23c0 3.423 2.306 5.658 5.659 5.658h2.445c.279 0 .489-.279.489-.489v-2.305c0-.28-.279-.489-.489-.489h-2.235c-1.607 0-2.725-1.118-2.725-2.864V21.983l5.1.07ZM49.81 22.053V38.54c0 .28.28.49.49.49h2.305c.28 0 .489-.28.489-.49V22.053h5.45c.279 0 .488-.28.488-.489v-2.305c0-.28-.28-.49-.489-.49h-5.449v-4.33c0-1.747 1.258-2.935 2.725-2.935h2.724c.28 0 .49-.28.49-.489V8.71c0-.28-.28-.49-.49-.49h-2.585c-3.423 0-6.147 2.865-6.147 6.148v4.402h-2.446c-.279 0-.489.279-.489.489v2.305c0 .28.28.489.49.489h2.445ZM106.258 21.215c-1.816-1.956-4.401-3.074-7.126-3.074-2.585 0-5.17 1.118-6.776 2.725V8.57c0-.28-.28-.489-.49-.489h-2.305c-.28 0-.489.28-.489.49v20.328c0 7.545 5.03 10.829 9.99 10.829 4.89 0 9.99-3.354 9.99-10.829 0-3.004-.978-5.728-2.794-7.684Zm-7.196 15.369c-4.96 0-6.776-3.912-6.776-7.615 0-4.54 2.724-7.545 6.776-7.545s6.777 3.074 6.777 7.545c-.07 3.703-1.817 7.615-6.777 7.615Z" fill="#508991"/>
</svg>