<svg width="110" height="28" fill="none" xmlns="http://www.w3.org/2000/svg">
  <path d="M66.66 8.351c-1.76 0-3.143.378-4.527 1.132 0-4.025 0-7.672.126-8.929l-8.427 1.509v.754l.88.126c1.131.251 1.51.88 1.76 2.39.253 3.018.126 19.117 0 21.758 2.263.503 4.654.881 7.044.881 6.666 0 10.69-4.15 10.69-10.691 0-5.156-3.27-8.93-7.546-8.93Zm-2.893 18.237c-.503 0-1.133 0-1.509-.125-.126-1.76-.251-9.182-.126-15.722.754-.252 1.257-.377 1.887-.377 2.768 0 4.277 3.27 4.277 7.293 0 5.033-1.887 8.93-4.529 8.93ZM22.137 1.057H0v1.131l1.258.126c1.634.251 2.264 1.257 2.514 3.647.379 4.528.252 12.704 0 16.6-.25 2.391-.88 3.523-2.514 3.648L0 26.462v1.005h14.212v-1.005l-1.509-.253c-1.635-.125-2.264-1.257-2.515-3.647-.127-1.636-.252-4.277-.252-7.546l3.018.125c1.887 0 2.767 1.51 3.145 3.647h1.132V9.861h-1.133c-.378 2.138-1.257 3.647-3.144 3.647l-3.017.126c0-4.276.125-8.3.252-10.69h4.401c3.397 0 5.157 2.137 6.415 5.911l1.258-.378-.127-7.42Z" fill="#508991"/>
  <path d="M29.305 8.1c6.29 0 9.434 4.276 9.434 9.936 0 5.408-3.522 9.937-9.811 9.937s-9.433-4.277-9.433-9.937c0-5.408 3.521-9.936 9.81-9.936Zm-.377 1.258c-2.768 0-3.522 3.773-3.522 8.678 0 4.779 1.258 8.678 3.774 8.678 2.89 0 3.646-3.773 3.646-8.678 0-4.78-1.256-8.678-3.898-8.678Zm46.912 8.804c0-5.157 3.27-10.062 9.685-10.062 5.28 0 7.797 3.9 7.797 9.056H81.625c-.126 4.653 2.138 8.05 6.666 8.05 2.013 0 3.019-.503 4.278-1.384l.501.629c-1.258 1.76-4.024 3.522-7.545 3.522-5.66 0-9.685-4.025-9.685-9.81Zm5.785-2.39 5.912-.126c0-2.515-.378-6.288-2.516-6.288-2.137 0-3.27 3.521-3.396 6.415Zm26.666-6.665c-1.509-.63-3.521-1.007-5.785-1.007-4.652 0-7.547 2.767-7.547 6.037s2.136 4.653 5.159 5.66c3.143 1.13 4.024 2.012 4.024 3.521 0 1.51-1.132 2.892-3.145 2.892-2.389 0-4.15-1.383-5.534-5.156l-.88.252.126 5.534c1.51.628 4.276 1.132 6.666 1.132 4.905 0 8.05-2.516 8.05-6.414 0-2.642-1.384-4.15-4.654-5.41-3.522-1.382-4.779-2.262-4.779-3.898 0-1.635 1.134-2.767 2.643-2.767 2.262 0 3.772 1.383 4.905 4.78l.88-.252-.129-4.904Zm-53.203-.504c-2.137-1.256-5.911-.629-7.923 3.9L47.29 8.1l-8.426 1.635v.754l.88.126c1.133.126 1.635.755 1.762 2.39.251 3.019.125 8.302 0 10.943-.127 1.507-.629 2.262-1.762 2.388l-.88.127v1.006h11.697v-1.006l-1.51-.127c-1.257-.126-1.635-.88-1.761-2.388-.251-2.39-.251-7.17-.125-10.188.628-.881 3.396-1.635 5.91 0l2.013-5.158Z" fill="#508991"/>
</svg>