<svg width="140" height="47" fill="none" xmlns="http://www.w3.org/2000/svg">
  <g clip-path="url(#a)">
    <path d="M121.068 23.73c0 .978.349 14.67-4.122 19.072-4.471 4.47-19.072 4.121-19.072 4.121s-14.67.35-19.072-4.121c-4.47-4.471-4.121-18.164-4.121-19.072 0-.978-.35-14.67 4.121-19.072C83.273.187 97.874.536 97.874.536s14.671-.35 19.072 4.122c4.471 4.471 4.122 18.164 4.122 19.072ZM23.613 29.668V7.243c0-1.327-.978-2.306-2.306-2.306-1.327 0-2.375.979-2.375 2.306v22.495a4.68 4.68 0 0 0 4.68 4.68c1.328 0 2.306-.977 2.306-2.305 0-1.397-1.048-2.445-2.305-2.445ZM45.898 13.32c-1.117 0-1.956.77-2.165 1.887-1.607-1.118-3.493-1.886-5.59-1.886-2.863 0-5.378 1.187-7.125 3.144-1.816 1.886-2.864 4.54-2.864 7.405 0 2.864 1.048 5.449 2.864 7.405 1.816 1.886 4.262 3.074 7.126 3.074 2.096 0 3.982-.699 5.589-1.817.28.978 1.117 1.817 2.165 1.817 1.188 0 2.236-.978 2.236-2.236V15.556c0-1.257-1.048-2.235-2.236-2.235Zm-3.912 14.881c-.978 1.048-2.445 1.677-3.912 1.677-1.537 0-2.934-.56-3.912-1.677-.978-1.118-1.607-2.585-1.607-4.331 0-1.747.559-3.284 1.607-4.332.978-1.117 2.375-1.746 3.912-1.746 1.467 0 2.934.559 3.912 1.746.978 1.048 1.677 2.585 1.677 4.332 0 1.746-.629 3.283-1.677 4.331ZM67.904 13.32c-1.257 0-2.165.979-2.165 2.236v9.92c0 2.446-1.956 4.262-4.332 4.262-2.375 0-4.4-1.886-4.4-4.261v-9.92c0-1.258-.909-2.236-2.236-2.236-1.118 0-2.166.978-2.166 2.235v9.92c0 4.82 3.982 8.873 8.802 8.873 1.398 0 2.795-.35 3.982-.978-.698 2.165-2.794 3.772-5.24 3.842-.837 0-1.676-.21-2.444-.559-.978-.559-2.445-.07-3.004.908-.49 1.188-.07 2.515 1.118 3.004 1.257.63 2.794 1.048 4.33 1.048 5.59 0 10.06-4.401 10.06-10.06V15.556c-.07-1.257-1.117-2.235-2.305-2.235Z" fill="#508991"/>
    <path d="M114.292 17.862c-3.214 0-6.148 3.772-6.148 6.986v7.195a2.326 2.326 0 0 1-2.306 2.306 2.326 2.326 0 0 1-2.305-2.306V15.626a2.326 2.326 0 0 1 2.305-2.305 2.326 2.326 0 0 1 2.306 2.305v.14c1.397-1.537 3.423-2.445 5.589-2.445h.489a2.326 2.326 0 0 1 2.305 2.305c.07 1.258-.978 2.236-2.235 2.236ZM96.896 13.32c-1.117 0-1.956.768-2.165 1.886-1.607-1.118-3.493-1.886-5.59-1.886-2.863 0-5.378 1.187-7.125 3.144-1.816 1.886-2.864 4.54-2.864 7.405 0 2.864 1.048 5.449 2.864 7.405 1.816 1.886 4.262 3.074 7.126 3.074 2.096 0 3.982-.699 5.589-1.817.28.978 1.118 1.817 2.165 1.817 1.188 0 2.236-.978 2.236-2.236V15.556a2.207 2.207 0 0 0-2.236-2.235ZM93.054 28.2c-.978 1.048-2.445 1.677-3.912 1.677-1.537 0-2.934-.56-3.912-1.677-.978-1.118-1.607-2.585-1.607-4.331 0-1.747.559-3.284 1.607-4.332.978-1.117 2.375-1.746 3.912-1.746 1.467 0 2.934.559 3.912 1.746.978 1.048 1.677 2.585 1.677 4.332-.07 1.746-.699 3.283-1.677 4.331Z" fill="#fff"/>
  </g>
  <defs>
    <clipPath id="a">
      <path fill="#fff" transform="translate(0 .536)" d="M0 0h140v46.457H0z"/>
    </clipPath>
  </defs>
</svg>