<svg width="200" height="67" fill="none" xmlns="http://www.w3.org/2000/svg">
  <path d="M192.914 45.063c4.192 0 7.086-2.894 7.086-6.886 0-1.996-.599-3.892-1.597-5.19-1.098-1.397-2.694-2.196-4.591-2.196-2.495 0-4.89 1.897-7.185 5.889l-.2.3-.1-.3a241.06 241.06 0 0 0-1.397-3.892c-.199-.6-.299-.799-.299-.899-.1-.399-.499-.698-.998-.698-.3 0-.599.1-.898.3-.3.199-.499.398-.499.698-2.296 7.185-4.192 10.678-5.789 10.678a.764.764 0 0 1-.499-.2c-.399-.498-.299-1.596-.199-3.093.099-1.098.199-2.395.199-3.693-.1-2.595-1.497-4.191-3.792-4.191-2.895 0-4.791 3.093-5.689 4.89l-.299.499-.1-.599c-.2-2.295-.998-4.99-3.393-4.99-2.795 0-4.99 3.293-6.288 6.088l-.299.698v-.798c.199-3.693.299-5.888.399-6.487.1-.599 0-.998-.2-1.297-.199-.2-.499-.3-1.097-.3-.899.1-1.398.6-2.096 2.396-1.098 2.993-3.992 10.08-6.387 10.08-.499 0-.799-.2-1.098-.5-.998-1.097-.599-4.091 0-8.283v-.3c.299-1.995-.2-2.395-1.298-2.594h-.299c-.898 0-1.297.798-2.096 3.093-1.397 4.092-3.293 8.284-5.389 8.284h-.2c-1.097-.2-1.097-1.896-1.097-3.992 0-1.198 0-2.495-.1-3.593-.3-2.096-1.597-3.393-3.294-3.493-3.393 0-5.588 4.291-6.686 6.886l-.2.6-.1-.6c-.199-1.696-.299-3.293-.399-4.99v-.1c6.288-7.884 9.082-13.672 9.182-18.562 0-3.094-1.397-4.99-3.892-4.99-1.797 0-5.989 1.497-7.486 15.27-.299 2.594-.399 5.189-.399 7.784-2.894 4.191-9.082 11.377-15.07 11.377-5.489 0-9.78-4.392-9.78-12.176 0-10.38 7.385-16.766 12.874-16.766 1.198 0 2.196.299 2.994.998.799.698 1.198 1.596 1.198 2.594 0 1.398-.499 2.196-.898 2.895l-.3.598c-.1.2-.199.5-.1.699.1.3.499.4.998.4 1.298 0 3.294-1.897 3.294-4.791 0-2.994-2.495-6.088-7.086-6.088-6.886 0-16.068 7.485-16.068 19.76 0 8.583 5.39 14.571 12.775 14.571 5.189 0 10.379-3.692 14.87-9.98l.299-.399v.5c.1 2.294.3 4.09.399 5.388.1.799.1 1.497.1 1.797 0 .698.1 1.297.399 1.596.3.3.699.5 1.298.5.998 0 1.198-.7 1.597-2.396l.1-.499c.499-2.096 2.395-8.882 5.189-8.882.499 0 .799.1 1.098.4.599.698.499 1.995.499 3.592 0 .998-.1 1.996 0 2.994.299 2.595 1.397 3.892 3.493 3.992 2.096 0 4.391-2.295 5.589-4.391l.199-.4.1.5c.2 1.097 1.198 4.89 4.192 4.89 2.794 0 5.09-2.894 7.684-8.882l.3-.799v.899c-.1 2.295-.2 4.99-.2 7.185 0 1.697.2 2.295.898 2.295h.2c.699 0 1.198-.399 1.497-1.297 1.996-6.786 3.593-9.98 5.289-9.98 1.597 0 1.797 2.994 1.897 8.283v.4c0 1.796.099 2.694 1.297 2.694.898 0 1.098-.698 1.497-2.395.1-.3.2-.699.299-1.098 1.597-5.489 2.895-7.684 4.491-7.684 1.398 0 1.498 1.397 1.498 1.896.099.998-.001 2.096-.2 3.094-.1.998-.2 1.896-.2 2.894.1 2.096 1.298 3.293 3.294 3.393 2.694 0 4.99-3.094 7.086-9.181l.099-.4.2.4c.399.998.898 2.295 1.297 3.792v.2c-1.996 4.49-3.493 9.48-3.493 12.175 0 3.493 1.597 5.789 4.092 5.888 1.397 0 4.491-.499 4.591-5.588 0-2.096-.499-4.99-1.497-8.683l-.1-.4.399.2c1.697.2 3.194.699 4.591.699Zm-68.263-17.166c.1-1.297.199-2.495.299-3.692.998-7.485 2.994-12.775 4.99-12.775.898 0 1.397.699 1.397 2.096 0 3.393-2.195 8.283-6.387 14.471l-.299.5v-.6Zm62.175 27.046c-.299.4-.698.599-1.297.599s-1.098-.2-1.397-.599c-.898-1.197-.599-3.992.798-9.082l.599-1.796.2-.5.099.5c1.697 5.788 2.096 9.481.998 10.878Zm.599-15.07-.1-.3v-.099c1.897-3.992 4.192-6.287 6.088-6.287 2.196 0 3.693 1.996 3.693 4.79 0 1.896-.799 2.894-1.497 3.493-.799.699-1.797.998-2.894.998-2.595.1-4.292-1.297-5.29-2.595ZM64.271 44.364c2.995-.2 5.39-4.291 6.188-5.988l.2-.499.1.5c.399 2.395 1.796 6.486 5.888 6.586 1.796 0 3.792-1.098 5.888-3.194l.2-.2.1.2c1.397 2.296 3.193 3.593 5.189 3.394 2.894-.2 4.69-2.196 4.79-3.593 0-.4-.1-.699-.299-.898-.3-.3-.599-.3-.898-.1l-.1.1c-.699.698-1.896 1.896-3.293 1.896-1.697.1-2.895-.898-3.693-2.994v-.1l.1-.1c4.59-6.088 7.884-15.27 7.585-21.457-.1-2.894-.998-6.287-4.092-6.287h-.3c-1.197.1-2.295.599-3.193 1.696-2.894 3.294-4.391 11.278-3.892 20.36.1 1.896.399 3.692.998 5.29v.099l-.1.1c-1.697 1.996-3.394 3.094-4.79 3.094-3.294 0-3.194-5.49-2.895-10.08.1-.998.1-1.597-.2-1.996-.2-.3-.598-.4-1.097-.4h-.1c-1.198 0-1.397.2-1.996 1.997-1.198 3.592-3.693 9.58-6.188 9.58-.698 0-1.197-.2-1.596-.698-1.198-1.497-.3-5.29.399-8.383.1-.5.3-1.098.399-1.597.2-.699.1-1.298-.1-1.597-.3-.3-.798-.5-1.397-.4-1.098.1-1.697.5-2.096 2.496l-.1.399v.1c-.499-.699-1.397-1.497-2.994-1.497h-.499c-1.796.1-3.792 1.397-5.29 3.193-1.696 2.196-2.594 4.89-2.295 7.685 0 .1 0 .3.1.4v.099l-.1.1c-.998 1.097-2.095 1.696-3.093 1.696-1.597 0-2.495-1.197-2.495-3.193 0-3.394 2.295-13.473 2.295-17.166 0-3.892-1.697-5.988-4.79-6.088-4.392 0-7.885 4.99-11.178 15.27l-.898 2.994-.5 1.596.1-1.596c.3-3.493.5-6.886.6-10.38.199-4.99-.5-8.183-2.096-9.78-.799-.898-1.897-1.297-3.394-1.297-5.389 0-7.984 9.082-9.88 15.568-.599 1.897-1.697 6.288-2.395 9.282l.399-.699c.3-3.792 1.297-13.173 1.198-18.263-.1-5.49-1.897-7.984-5.889-7.984-2.195 0-3.592 1.098-4.49 1.996C.797 14.923 0 17.019 0 18.816c0 1.097.699 2.095 1.198 2.095.299 0 .499-.499.598-.698 1.298-4.092 2.895-6.088 4.89-6.088.899 0 1.498.3 1.997.798 1.596 1.697 1.297 6.387.798 14.97-.1 2.595-.3 5.789-.499 9.282 0 .599-.1 1.197-.1 1.796-.2 2.495-.3 4.391.599 4.491 1.198.2 1.996-.3 2.395-1.497.599-1.796 1.897-6.687 4.491-15.569 2.495-8.483 4.392-11.676 6.787-11.676 2.794 0 2.994 4.79 2.495 14.87-.1 2.096-.3 4.59-.4 7.186v1.097c-.1 2.196-.2 3.893.4 4.591.2.2.499.3.798.3 1.198 0 1.597-1.098 2.196-2.795.1-.3.2-.599.3-.998 4.09-11.377 7.185-21.257 11.277-21.257 1.197 0 2.195.998 2.195 2.994 0 4.49-2.195 13.173-2.195 17.565 0 1.596.499 2.993 1.297 3.991.898.998 2.096 1.597 3.593 1.597 1.397 0 2.794-.698 4.291-1.996l.1-.1.1.1c.998 1.298 2.495 1.996 4.191 1.797 2.595-.2 4.691-2.495 5.49-4.591l.199-.4.2.4c.598 1.597 1.896 3.593 4.59 3.293Zm23.454-29.74c.299 0 .598.1.798.399.998 1.397.998 6.387-.699 12.076-.998 3.293-2.295 6.287-3.892 8.882l-.3.4-.1-.5c-.199-1.397-.298-2.794-.298-3.992-.3-8.582 2.295-17.165 4.49-17.265ZM59.48 34.684c-.898 3.593-2.595 7.884-5.689 8.183h-.299c-1.297 0-1.996-.798-2.096-2.495-.2-2.096.699-4.49 2.296-6.187.998-1.098 2.095-1.697 3.093-1.697 1.398.1 2.296 1.098 2.695 2.196ZM73.752 21.51c-1.097 0-2.095.898-2.095 1.996 0 1.098.898 1.996 1.996 1.996v.2-.2c1.097 0 1.996-.898 2.096-1.996.1-1.098-.799-1.996-1.996-1.996Zm71.557 0c-1.097 0-2.095.898-2.095 1.996 0 1.098.898 1.996 1.996 1.996v.2-.2c1.097 0 2.095-.898 2.095-1.996.1-1.098-.798-1.996-1.996-1.996Z" fill="#508991"/>
</svg>