<svg xmlns="http://www.w3.org/2000/svg" viewBox="0 0 1200 1200" style="enable-background:new 0 0 1200 1200" xml:space="preserve">
  <path style="fill:none;stroke:#465048;stroke-width:5;stroke-linecap:round" d="M328.2 300.1c15.8 12.7 40.7 40.5 13.5 50.5 5.3 16 6.5 54.3-31.5 79.5l-7.2 23m-39.3-47c-1.8 6-3.2 25.5 4 41.5m-9 4.5c15.7-5.7 45.5-12.6 45.5 7v9c26.7-20.5 52.7-44 72.7-64.5"/>
  <path style="fill:none;stroke:#465048;stroke-width:5;stroke-linecap:round" d="M313.7 390.1c-.5 3 .8 9.2 10 10M345.3 310.1c0 5.6-1.7 10.6-4.2 14.1-2.6 3.5-5.9 5.4-9.3 5.4-3.4 0-6.7-1.9-9.3-5.4-2.6-3.5-4.2-8.5-4.2-14.1s1.7-10.6 4.2-14.1c2.6-3.5 5.9-5.4 9.3-5.4 3.4 0 6.7 1.9 9.3 5.4 2.5 3.6 4.2 8.5 4.2 14.1zM286.8 325.1l31-10M310.3 304.6c.8-3.3 3.9-11 9.5-15"/>
  <circle style="fill:#465048" cx="333.3" cy="309.6" r="3.5"/>
  <path style="fill:none;stroke:#465048;stroke-width:5;stroke-linecap:round" d="M258.9 451.9 142.9 588m0 0c-1.7 5-3.4 16.7 10.8 31.1M142.9 588c8.6-1.2 30.9-.6 51.5 11 25.7 14.5 53 40 120.6 62.6m-.1 0-22.7 16m22.7-16c-1.9-19.9-3.3-63.7 5.5-80.1 8.9-16.4 17.4-39.9 23.4-49.4 22.5-32 20.5-26 54-71.5"/>
  <path style="fill:none;stroke:#465048;stroke-width:5;stroke-linecap:round" d="M226.2 489.1c-18.7 15.5-66 48.2-106 55-9.3 3.8-25.4 14.6-15 27 10.4 12.4 17.3 27.5 19.5 33.5 1.7 5.5 7.5 12.1 17.5-5.5"/>
  <path style="fill:none;stroke:#465048;stroke-width:5;stroke-linecap:round" d="M112.2 579.6c-7.8 4.5-26.1 13.1-36.5 11.5s-17.3 2.7-19.5 5c-1.2 1.8-1.9 5.6 4.5 6 6.4.4 14 .2 17 0m8.5-6c-3.5 3.7-15.4 12-35 16-3.8.7-9 4.5-2 9 6 3.5 22.6.3 31-4.5-6.5 3.2-18.2 11.6-13 20 1.7 1.7 8.7 1.8 23.5-11m0 0 11-9m-11 9c-3.2 8.2-8 28 5 17 9.5-9.5 7.5-17.6 11.5-20 4-2.4 13-11.7 17-16m-22.5-6.5c-1.2 4.3-2.1 14.4 3.5 20M169.7 590.6c-6.3 18-36 55-62.5 101.5-17.7 29.2-59.8 94.3-87 121.5-3.7 5.2-7.1 16.9 8.5 22.5 12 5 17.4 16.6 19 29 2 15.5 27.5 27 44.5 15.5 13.6-9.2 52.5-75.2 81.9-112.5m20.1-21.5c-5.7 4.4-12.6 12-20.1 21.5m0 0-33.4 174.5m0 0c3.5 5.3 15 15.4 33.4 13m-33.4-13c17-4.5 63.7-13 92.5-13"/>
  <path style="fill:none;stroke:#465048;stroke-width:5;stroke-linecap:round" d="M222.2 936.6c6.3-1.7 19.1-10.1 19.5-30.5.4-20.4 8.8-55.5 13-70.5l41-180"/>
  <circle style="fill:#465048" cx="314.3" cy="341.6" r="1.5"/>
  <circle style="fill:#465048" cx="320.3" cy="349.6" r="1.5"/>
  <circle style="fill:#465048" cx="305.3" cy="352.6" r="1.5"/>
  <path style="fill:none;stroke:#465048;stroke-width:5" d="M464 295.6c0 17.8-13.8 32-30.5 32s-30.5-14.2-30.5-32 13.8-32 30.5-32 30.5 14.3 30.5 32z"/>
  <path style="fill:none;stroke:#465048;stroke-width:5;stroke-linecap:round" d="m423.5 294 8.5 8.5M432 302.5l12.5-15"/>
  <path style="fill:#465048" d="M153.7 347.6c24.4-45.6 60.8-51.3 76-48.5 31.5-48.5 75-64.5 101.5-50 21.2 11.6 3.8 40.8-7.5 54l-11-16c-7.6 14.8-29.3 9.3-40 6 9.2 19.3 23.8 69.3-7 114.5s-69.5 46-89 33c-18-12.8-47.4-47.4-23-93zM20.1 906.2c-23.8-47.6-1.7-79.2 10.2-87.1 18.5 6 19 26 22 35.5l-6.9 19.5c-4.6 8.4-1.9 24.9 0 32 8 33.2-4.1 36.4-10 27.5l-15.3-27.4zM246.8 950.6c-62.8 8.4-75.8-15.8-74.5-30 10.8-4.4 40.5-6 54.5-7-4 9.2 1 8 4.5 10.5 4.5 3 17 6.7 24 7 31.5 1.5 6.8 17.4-8.5 19.5z"/>
  <path style="fill:none;stroke:#465048;stroke-width:5;stroke-linecap:round" d="M376.9 403.6c8.5 8 24.2 30.6 21 57M379.4 402.6c4-5.7 12-18 8-29-1.3-4-1.8-12.9 1-17.5 3.9-6.4 12.1-7.1 13.5 2.5l1 11m-7.5 13.5c6.5-10.3 21.5-31.8 29.5-35s9.3 0 9 2m0 0c-5.3 5.7-16.5 19.2-18.5 28m18.5-28c5-4.5 15.4-11.8 17-5 1 6.5-15.2 17.9-22 29.5m14.5-17.2c5.2-.8 9 5.3 0 18.3l-2.3 3.5m-13.2 20.4 13.2-20.5m0 0c4.1.5 9.8 5.5 0 21.5-7.2 10.5-25.6 35.3-41.2 50.5"/>
  <path style="fill:none;stroke:#465048;stroke-width:5;stroke-linecap:round" d="M367.5 239.1c9.2 27.5 23.8 89.8 9 119-1 1.2.5 3.3 14.5 2.5M367.5 239.1c31-1.2 99.1-5.4 123.5-13M491.5 226.6c2.2 33.8 5.2 105 0 119M450 359.1c12.2-.3 37.1-3.1 41.5-13.5"/>
  <path style="fill:#465048" d="M658.9 440.6c-18.4-3.2-14.3-21-10-29.5 24-4 17.5-29 10-22-6 5.6-11.5 4.3-13.5 3-8.8-4-1.3-16.7 3.5-22.5l-12.5-18c-4.5.7-15.4-3.2-23-24s7.5-32 16-35c9.2-2.3 34.3-.8 61.5 24 27.2 24.8 22.3 58.7 16.5 72.5-8.5 18.5-30.1 54.7-48.5 51.5z"/>
  <path style="fill:none;stroke:#465048;stroke-width:5;stroke-linecap:round" d="M638.4 353.6c-16 12-47.3 44.2-44.5 77 1.3 7.7 9 25 29 33 2 .2 5.9 1.8 5.5 7m33.5-30c-3.8 4-8.4 13.5-6 23.5"/>
  <path style="fill:none;stroke:#465048;stroke-width:5;stroke-linecap:round" d="M617.4 373.6c-11.5 4.7-31.2 16.2-18 25M634.5 348.1c2.2 1.7 6.1 6.6 4.5 13M650.9 396.1c.7 2.3.6 6.9-5 6.5M595.4 421.6c2.8-1 8.8-4.3 10-9.5"/>
  <circle style="fill:#465048" cx="629.9" cy="401.6" r="2"/>
  <ellipse transform="rotate(-64.666 629.235 360.394)" style="fill:#465048" cx="629.3" cy="360.4" rx="3.5" ry="2.5"/>
  <circle style="fill:#465048" cx="620.9" cy="411.6" r="2"/>
  <circle style="fill:#465048" cx="631.9" cy="418.6" r="2"/>
  <path style="fill:#465048" d="M706.4 595.1c-7.6 18-38.2 15.5-52.5 12l-5.5-2v6l10 2c5.3 1.7 16.2 8.5 17 22.5 1 17.5-3.5 64.5-5.5 77-1.6 10-9.3 13.8-13 14.5-5.6 10.8-28 7.8-38.5 5-.8 7.6-7.7 6.8-11 5.5-.4 2.8-4.5 2.8-6.5 2.5-12.4 50.4-9.5 142.7-6.5 182.5-.7 10.8 2.8 31.9 22 29.5s53 1 67.5 3c23.6 4.4 31.2-10.5 32-18.5 19.2 6.8 30.3-.8 33.5-5.5-5.6-166-31-293.1-43-336z"/>
  <path style="fill:none;stroke:#465048;stroke-width:5;stroke-linecap:round" d="M656 933.6c0 2.2-.5 6.9-2.5 8.5-2.5 2-47.5-3-46.5 19.5-.5 3.2 4.5 8 16.5 9.5 16.9 2.1 65.3 8.3 76.9-13m6.1-23-4.5 19c-.4 1.4-1 2.8-1.6 4m35.6-37.5c2.1 13.8-2.2 40.7-35.6 37.5M675.9 490.6c41 19 117.3 112.1 44.5 158.5"/>
  <path style="fill:none;stroke:#465048;stroke-width:5;stroke-linecap:round" d="M704.9 600.6c-5-26.2-16.6-88.4-31-108-.8-11.5-5.6-33.3-18-28.5-12.5.3-37.5 6.1-37.5 26.5v17.5m19.5-15.5c-17 8.7-53.3 53.2-62.5 162-.7 13 5.2 39 34 39s40-77.5 43.5-116M588.9 689.6c-.5 7.2-3.4 22.2-11 25-9.5 3.5-1.5 17.5 3.5 21m0-21c-1.2 8-.6 24 11 24m0-16c-1 5.3-.1 16 11.5 16m0-16c-1.5 6.2-1.6 17.7 10 14.5m5-40c-2.3 8.3-5.8 26.5-1 32.5"/>
  <path style="fill:none;stroke:#465048;stroke-width:5;stroke-linecap:round" d="M578.9 610.6c-15.8-.3-48.5 1.4-52.5 11s-10.3 37.3-13 50c-3.5 17-4.3 51.8 20.5 55 24.8 3.2 38.5 4 41.5 4M618.9 731.1c10.8 3.8 33.8 7 39-11s7.8-63.5 8.5-84c.3-5.8-2.7-17.9-17.5-19.5m-68.5-16c-11.8-1.2-36.2-.4-39 12m109-1.5c9.8.5 26.5 3.5 25 35-1.6 33.8-1.5 82.5-20 81M993 259.1l-22.5 43.5M945.9 389.1c-.5 1.7-.7 6 .5 8M946.4 397.1h-5.5M905.4 439.6c-4.3-6.5-12.9-21.3-12.5-28.5-.3-2.3-.2-7 3-7s4.3 4.7 4.5 7M973.9 599.6c-38-24.5-49.5-71-58.5-103-4.2-17-14.4-39.5 2-61.5s31.5-6.2 37 4.5l48 80m-28.5 51.5c-13.7 26.5-17 77 0 114.5m19.5-158.5c3.7-10.8 15.4-31.5 33-27.5s28.3-13.7 31.5-23m4.5 160.5c9.5 25.8 37.2 66.7 72 23.5s-16.8-131.7-47-170.5"/>
  <path style="fill:none;stroke:#465048;stroke-width:5;stroke-linecap:round" d="M1061.4 636.6c13.7 2.7 43.8 3.5 55-14.5M1057.9 476.6c5-2.3 16.2-1.4 29 13"/>
  <path style="fill:none;stroke:#465048;stroke-width:5;stroke-linecap:round" d="m1000.9 685.6-20-93.5c-2.5-11 2.4-33.2 42-34 10.3-.3 30-7 39.5-14 9.3-6.9 24.5-4.5 26 5.5l18 78.5"/>
  <path style="fill:none;stroke:#465048;stroke-width:5;stroke-linecap:round" d="M1059.9 636.1c-11.7-2.8-32.4-5.5-22 6.5s-6.7 8-16.5 4.5c-4-1.5-12-3.1-12 2.5 0 1.9 2 3.7 5 5.2m20.5 5.8c-5.6-.9-14.8-2.9-20.5-5.8m0 0c-3.6 1.8-6 5.6 3.2 9.8m19.3 5.5c-9.2-1.8-15.3-3.7-19.3-5.5m-.1 0c-2.9 2.7-4.1 8.1 9.3 11m11.1 1.5c-4.4-.4-8.1-.9-11-1.5m0 0c.8 5 8 13.1 30 5.5s25.8-10.5 25-11"/>
  <path style="fill:#465048" d="M1032.9 908.1c-48.8-9.2-61.3-154.2-61.5-225.5 25.2 7.2 46.8-2 54.5-7.5 5.6 18.4 39.7 5.3 56-3.5 16 16.5 33.5 7.3 40.5 0l57.5 150.5c5.2 16.3 7.5 55-24.5 79s-47.7-4.7-51.5-22c-3.4 13.5-22.2 38.2-71 29z"/>
  <path style="fill:none;stroke:#465048;stroke-width:5" d="M1054 890.1c3.5 7 3.6 20.2-5.5 27-10 7.5-18.3 16-22 22.5-1.8 4.8-.3 13.5 20.5 9.5s37.7-14.7 43.5-19.5c3-2.7 7.7-10.9 2.5-22.5s-7.8-18.8-8.5-21"/>
  <path style="fill:none;stroke:#465048;stroke-width:5;stroke-linecap:round" d="M1155.5 887c4.2 18.4 14.8 57 23.2 59 8.5 1.9 9.3-13.7 8.6-21.8-.8-11.4-4.4-40.2-12.1-56.1"/>
  <path style="fill:#465048" d="M1102.4 371.6c34 37.2 7.2 97.2-10.5 122.5-14.8-20.4-29.5-20.8-35-18.5l-7.5-14c9.6-8 16.3-26 18.5-34 4.8 2.7 14.5 3.9 14.5-12.5s-8.3-10.8-12.5-6l-15.5 4c2-24-18.5-35.3-29-38-.7 9-8.3 33-45.5 32-35.5-1-39.5-34-38.5-50.5 2.8-45.8 45.7-36.5 58.5-23.5 25.5-25 59 1.5 66.5 20 14.4-1.2 30 11.9 36 18.5zM973.9 470.6c-5.2-10.4 1.2-18.3 5-21 13.2 25.2 35.8 29.5 45.5 28.5v21.5c-12.4-2-22.2 8.8-25.5 14.5-6.2-10.1-19.8-33.1-25-43.5z"/>
  <path style="fill:none;stroke:#465048;stroke-width:5;stroke-linecap:round" d="M968.4 401.6c-1 27.3 10.4 80.8 64 76 9.5-1.5 14-5 19-14.5"/>
  <path style="fill:none;stroke:#465048;stroke-width:5;stroke-linecap:round" d="M1012.4 462.1c2.2 2.2 8.6 5 17-1M1013.4 430.6c-3.2 7.8-6 22.6 8 19M1072.9 412.1c1.8 1.3 4.4 4.9 0 8.5M1028.4 416.6c2.7-1.3 9-3 13 1M983.4 420.6c2.2-1.5 7.6-3.2 12 2"/>
  <path style="fill:none;stroke:#465048;stroke-width:5" d="M1004.4 422.6c0 9.9-7.2 17.5-15.5 17.5s-15.5-7.6-15.5-17.5 7.2-17.5 15.5-17.5 15.5 7.6 15.5 17.5zM1051.4 418.6c0 11.3-7.4 19.5-15.5 19.5s-15.5-8.2-15.5-19.5 7.4-19.5 15.5-19.5 15.5 8.3 15.5 19.5z"/>
  <ellipse style="fill:#465048" cx="989.4" cy="435.6" rx="5.5" ry="4"/>
  <ellipse style="fill:#465048" cx="1035.4" cy="432.6" rx="5.5" ry="4"/>
  <path style="fill:none;stroke:#465048;stroke-width:5;stroke-linecap:round" d="M1004.4 420.1c3.3-1.2 11-2.9 15-.5M871.4 276.6c-14.3 29.2-39.5 94-25.5 120M876 258.1c32.2-4.3 100.6-10.2 117 1M891.5 288.1c11.5-1.8 38.7-4.4 55.5 0m-62.5 22 57-3m-60 22 47-4m-47 22.5H911M899.4 405.1c1.2-5.3 2.8-17.9 0-25.5s1.2-10.2 3.5-10.5c2.5-.3 7.3 2.1 6.5 14.5"/>
  <path style="fill:none;stroke:#465048;stroke-width:5;stroke-linecap:round" d="M906.9 371.1c-1.2-6.2-1.6-18.6 6-19 8.8 2 9.7 23.2 9 33.5"/>
  <path style="fill:none;stroke:#465048;stroke-width:5;stroke-linecap:round" d="M920.4 361.6c3.9-.9 9.5.7 10.7 12m-.2 10c.5-4 .5-7.3.2-10m0 0c3.1-2.7 9-4.4 7.8 10-1.5 18-3 16 1 40M1107 815.6c-2.2 13.2-3.1 44.6 10.5 65M845.9 396.6c11.2 1.3 37.6 4.2 54 1"/>
</svg>