<svg width="963" height="885" fill="none" xmlns="http://www.w3.org/2000/svg">
  <path d="M586 135.833c6.26 7.849 16.634 28.797 8.049 45.164M621.645 203c2.172-4.246 6.516-13.665 6.516-17.371 0-4.632 48.293-1.93 55.575-53.27 13.492 0 20.697-11.195 10.349-15.827-11.039-5.559-12.265-15.827-10.349-22.003 3.067-8.106 2.3-18.529 1.15-18.529" stroke="#465048" stroke-width="5" stroke-linecap="round"/>
  <ellipse cx="675" cy="104.5" rx="2" ry="3.5" fill="#465048"/>
  <path d="M664 97c2.167-2.08 7.8-5.146 13-.78" stroke="#465048" stroke-width="5" stroke-linecap="round"/>
  <ellipse cx="648.5" cy="110" rx="2.5" ry="3" fill="#465048"/>
  <ellipse cx="638.5" cy="127" rx="2.5" ry="3" fill="#465048"/>
  <ellipse cx="653" cy="121.5" rx="3" ry="2.5" fill="#465048"/>
  <path d="M658 135c1 4.333 4.8 13 12 13" stroke="#465048" stroke-width="5" stroke-linecap="round"/>
  <path d="M657.781 135c-2.839 7.981-4.369 21.823 12.219 13.345M617.953 120.184c-7.694 3.44-11.413-4.822-12.31-9.383-2.437-8.47-4.001-25.488 9.233-25.801 2.949.13 8.694 3.675 8.078 16.81" stroke="#465048" stroke-width="5" stroke-linecap="round"/>
  <path d="M614.605 100c-.798 2.087-1.436 6.809 2.395 9" stroke="#465048" stroke-width="5" stroke-linecap="round"/>
  <path d="M605.988 111.458c-1.855 17.028-15.454 24.123-22.022 25.542-6.568-7.869-18.235-32.199-12.363-66.565 7.341-42.958 34.385-56.89 84.61-52.633 40.18 3.406 62.588-10.449 68.77-17.802.773 41.797-24.726 68.5-38.249 75.466-10.817 5.573-26.4-7.74-32.839-15.093-2.189 6.579-8.036 19.97-13.909 20.898-5.872.929-8.113 12.513-8.499 18.19-3.4 8.668-6.311 5.934-7.341 3.483-3.091-16.72-9.53-18.835-12.363-17.803-11.127 2.167-8.5 18.448-5.795 26.317ZM411.867 686.773c-11.114-57.371 30.099-188.409 52.095-246.757 7.332 3.47 68.687-8.482 88.368-37.014 15.744-22.825 42.483-31.789 55.567-35.856 17.365-5.398 46.307-4.627 51.709 8.482l5.789 13.494c18.908 54.364 2.444 137.002-9.262 173.887l-43.219 7.711c-32.723-53.053-15.95-117.724-3.473-143.428-13.275 17.89-50.551 36.757-67.53 43.954-.772 47.424-73.319 210.9-89.14 221.31-12.657 8.328-32.543-.385-40.904-5.783Z" fill="#465048"/>
  <path d="m417.2 690-10.31 27.222-.883 2.334c-.981 2.356-1.661 6.309 0 9.678 1.171 2.375 3.505 4.459 7.719 5.488 10.19 2.489 48.503 5.185 66.386 6.222 3.088.389 8.955-1.088 7.72-10.111-1.235-9.022-7.72-17.279-15.053-20.611-5.949-2.703-21.288-6.898-38.597-4.18m-5.403 1.069a68.984 68.984 0 0 1 5.403-1.069m5.404-9.82-5.404 9.82M619.078 568.628c-.387 11.44.655 33.962 3.482 37.406 3.481 4.242 7.737 4.628 33.657-3.47 20.737-6.479 29.016-6.556 34.045-7.328 3.482-.533 7.738-1.002 7.738-9.64 0-10.798-4.256-18.125-17.409-19.668-10.523-1.234-25.534 5.142-31.724 8.484V564M661 257.097c0-18.433-17.979-52.671-38.969-52.98-20.989-.31-29.58-14.825-31.252-22.043-1.543-1.934-7.022-3.558-16.591 5.414m10.032-7.348c-3.382-.717-6.56-2.32-14.662.326m-15.047 10.116c3.814-5.811 10.031-9.563 15.047-10.116m0 0c-39.74 4.017-117.833 20.944-112.277 56.522.852 3.021 3.299 7.841 7.861 12.375m19.533 10.441c-8.783-1.973-15.139-6.074-19.533-10.441m0 0c12.427 19.336 48.856 61.334 95.156 74.637" stroke="#465048" stroke-width="5" stroke-linecap="round"/>
  <path d="M560 324c2.83-3.802 10.268-10.674 19-11M579 313c-.257-10.858-9.418-38.86-44-64" stroke="#465048" stroke-width="5" stroke-linecap="round"/>
  <path d="M525 258c3.59-5.811 14.615-18.147 30-21M611 247c1.667 1.97 5 7.327 5 13M561 323.845c3.488 10.147 16.045 28.361 38.368 20.038 22.324-8.324 23.254-12.716 20.929-13.872m-9.689 0c7.88-.386 24.338-1.542 27.129-3.083 3.488-1.927 4.263-1.927 4.263-5.78s-31.392 2.697-31.392-9.633c2.842-2.826 7.441-9.171 3.1-11.946-4.341-2.774-13.435 5.266-17.44 9.634-4.134 4.367-13.41 11.251-17.44 3.853M625 329.884c16.791 15.679 57.891 39.093 87.961 7.325m0 0c.517-5.525 3.565-17.194 11.625-19.661 1.291-7.454 5.657-20.896 12.787-15.036m-24.412 34.697c18.651 1.913 31.905-3.095 40.299-9.046m-20.149-11.387c1.679-8.738 7.594-25.599 17.824-23.131m-5.037 23.131c2.841-4.497 8.292-16.115 7.362-26.601.129-4.626 2.558-12.954 11.237-9.253 8.68 3.701 2.842 25.959-1.162 36.626-1.619 2.976-4.936 6.972-10.075 10.615m0 0c5.425-1.482 17.282-8.379 21.312-24.109 4.03-15.73-1.421-15.807-4.65-13.879" stroke="#465048" stroke-width="5" stroke-linecap="round"/>
  <path d="M622 332c0 7.278-1.8 23.868-9 32M465 349c-15.847 21.389-38.033 69.734 0 92M939 257l9-15M943.399 264.841l16.601-.772M940 274l10 13" stroke="#465048" stroke-width="5" stroke-linecap="round"/>
  <path d="M915.312 229v14.5m0 45v170.523M947 428.919H767.694V643.89m33.233-30.49H579.885v160.939m33.234-29.332H343V877" stroke="#465048" stroke-width="15" stroke-linecap="round"/>
  <path d="m153 789 152-130M8 793l85-74M165 608l175-136" stroke="#465048" stroke-opacity=".3" stroke-width="15" stroke-linecap="round"/>
  <path d="M565.04 333.536 343.668 359c-25.609-20.516-19.412-51.142-13.113-63.891l153.881-18.446m156.58 50.725 75.977-7.302m55.536-8.069 49.751-3.459L889 278.315c-8.022-8.515-3.622-16.101-.279-18.815L822.28 244l-263.025 21.904" stroke="#465048" stroke-width="5" stroke-linecap="round"/>
  <path d="m306.718 295.427 22.55-2.427c-15.64 35.037 2.289 58.875 13.732 68.15L316.68 365c-21.999-26.793-16.328-56.775-9.962-69.573ZM891.4 280c-8.369-8.736-3.667-19.14-.179-22.5L923 265.342 891.4 280Z" fill="#465048"/>
  <path d="M823 244c-8.301 10.538-19.922 38.092 0 64" stroke="#465048" stroke-width="5"/>
</svg>