<svg xmlns="http://www.w3.org/2000/svg" viewBox="0 0 1024 1024" style="enable-background:new 0 0 1024 1024" xml:space="preserve">
  <path style="fill:none;stroke:#465048;stroke-width:5;stroke-linecap:round" d="M491.6 487.2c2.2-.7 7.9-1.3 13.5 1.5"/>
  <ellipse style="fill:#465048" cx="471.6" cy="505.7" rx="7" ry="7.5"/>
  <ellipse style="fill:#465048" cx="528.6" cy="515.7" rx="7" ry="7.5"/>
  <path style="fill:none;stroke:#465048;stroke-width:5;stroke-linecap:round" d="M454.6 493.7c.5-3.2 3.6-9.2 12-8M518.6 492.7c4-3.5 14-8.4 22 0M497.1 501.2c4.7 7.7 11.2 24.1 0 28.5l-5.5 2M478.1 547.2c1.2 3.2 5.6 8.4 14 4"/>
  <path style="fill:#465048" d="M317.1 473.7c-16.4 54 29.2 93.2 54 106 22.4-13.6 54.3-20.5 68-22.5-17-14-22.2-39.7-23.5-51.5-9 3-33-8.5-22-32 8.8-18.8 18.3-9.2 22-2l24.5 11c0-22.8 15.7-30.5 23.5-31.5 4.8-3.2 10-13.7 12-18.5 2.4 18.8 27 32.5 39 37 15.6-12.4 28.2-5.2 32.5 0l11-1.5c21.5-7.3 60.1-32.4 42.5-74s-54-34-70-25c-54.8-36.4-109.8 16.8-130.5 48-20.8-3.7-66.6 2.5-83 56.5z"/>
  <path style="fill:none;stroke:#465048;stroke-width:5;stroke-linecap:round" d="m439.6 483.2-24-12.5"/>
  <path style="fill:none;stroke:#465048;stroke-width:5" d="M491.1 482.2c0 17.2-11.8 30.5-25.5 30.5s-25.5-13.3-25.5-30.5 11.8-30.5 25.5-30.5 25.5 13.3 25.5 30.5zM557.1 493.2c0 17.2-11.8 30.5-25.5 30.5s-25.5-13.3-25.5-30.5 11.8-30.5 25.5-30.5 25.5 13.3 25.5 30.5z"/>
  <path style="fill:#465048" d="M558.1 589.6c38.4-30.8 16.5-72.3.5-89.5-8.8 41.6-29.2 59.5-38 63.5l14 7.5 23.5 18.5z"/>
  <path style="fill:none;stroke:#465048;stroke-width:5;stroke-linecap:round" d="M418.6 482.2c-.8-9.2-11.5-31-23-10.5-5 9.3-8.6 29.3 17 34.5"/>
  <path style="fill:none;stroke:#465048;stroke-width:5;stroke-linecap:round" d="M410.1 478.7c-2.3 2-5.8 7.2-1 12M415.1 506.2c-.3 20.3 7.6 50.5 44 66.5s68.8-12.3 80.5-28.5c6.5-9 12.7-23.5 15.5-39.5M456.6 573.2v14.5M437.6 579.2c6.8 6.5 27.1 18.5 53.5 14.5M487.1 820.7l-11-83.5c42-42.8 109.5-36.5 138-28l21.5 42.5c8.8 15.3 33.2 51.9 60 75.5 0 4.5-17.2 9.5-86-6.5s-112 23.7-125 45.5"/>
  <path style="fill:none;stroke:#465048;stroke-width:5;stroke-linecap:round" d="m684.1 833.2-7 21.5-168.5 22.5c-6.5 5.5-22.2 13.2-33 0s-168.5-5.5-246 0"/>
  <path style="fill:none;stroke:#465048;stroke-width:5;stroke-linecap:round" d="M498.6 866.2c-29.7-29-118-74.5-234-24.5M286.1 760.2l-21.5 81M264.6 742.2l-35 135M229.6 877.1l35-36M475.6 735.2c-14.1-20.5-63.5-54.8-148-28.4M518.6 861.2c5.8-8.2 24.6-23.7 53-20.5"/>
  <path style="fill:none;stroke:#465048;stroke-width:5;stroke-linecap:round;stroke-linejoin:round" d="M636.1 749.2c5-24.5-.3-87.3-61.5-142.5l-40.5-35.5-25.5-13.5-5-1-19 4.5-2 2-6.5 12c-1 2.5 3.3 5.4 10.5 3 9-3 2.5-7 19-7m-9.8 1c-7 3-17.2 13.8-13.2 21 .5.8 2 2.4 4 2 .9-.2 2.3-1.7 4.3-3.5m17.7-6c-8.1-1.6-13.9 2.7-17.7 6m0 0c-2.6 5.7-4.7 16.3 7.7 13.5m0 0c2.8-3.5 10.5-10 18.5-8m-18.5 8c-1.5 3.2-2.2 9.4 7 9 11.5-.5 15-17 28.5 9.5 10.8 21.2 11.5 62.8 10.5 81M437.6 559.2c-32.5 4.3-110 28.1-168 98.5s22.5 108.7 70 119c14.5 1.2 43 1.1 41-8.5m-15-4.5c5.7 0 18.4 1.3 24 6.5 2.3 1.9 7 3.7 8.3-3m-20.3-11.5c7.2-.2 21.3 1.6 20.5 10-.1.5-.1 1-.2 1.5m-14.8-20.5c5.3-.4 15.3.9 20.9 7.5m-6.1 13c8.6 3.6 10.1-2.5 9.7-6-.7-2.8-2-5.1-3.6-7m-33.9-102.5c-3.2 2.3-9.9 9.9-11.5 21.5s-20 18.2-29 20c-7.3 2-15.6 9.7 10 24.5 4 2 12 6.9 26 4.5 19.5-3.3 22.4 3 40 19 3.5 3.1 8 10-1.6 13M354.6 681.2l-13 21M34.6 760.2l225.5-11"/>
  <path style="fill:none;stroke:#465048;stroke-width:5;stroke-linecap:round" d="m634.6 748.1 161.2-9.5M472.6 168.2c-.5-4 4-15.2 17-12.5 11.5 2.4 14 15 6 22.5-4.5 4.7-10.6 12.6-9 21"/>
  <path style="fill:none;stroke:#465048;stroke-width:5" d="M535.6 169.2c3.6-29.6-17.5-31.7-28.5-29-19.2-23.2-36-9.7-42 0-29.6-3.6-32.3 17.8-30 29-20.8 16.8-8.7 34.7 0 41.5-4.4 28.8 18.5 32.3 30.5 30.5 17.2 22.4 34.8 8.7 41.5-1 28.4 3.6 30.8-18.2 28.5-29.5 23.6-17.6 9.8-35 0-41.5z"/>
  <circle style="fill:#465048" cx="487.2" cy="213.3" r="4.5"/>
  <path style="opacity:.4;fill:none;stroke:#465048;stroke-width:5;stroke-linecap:round;enable-background:new" d="M677.6 267.9c-.4-3 3.1-11.4 12.9-9.4 8.7 1.8 10.6 11.3 4.5 16.9-3.4 3.5-8 9.5-6.8 15.8"/>
  <path style="opacity:.4;fill:none;stroke:#465048;stroke-width:5;enable-background:new" d="M725.7 268.8c2.7-22.3-13.3-23.9-21.7-21.9-14.6-17.5-27.4-7.3-31.9 0-22.5-2.7-24.6 13.5-22.8 21.9-15.8 12.7-6.6 26.2 0 31.3-3.3 21.7 14.1 24.4 23.2 23 13.1 16.9 26.5 6.5 31.5-.8 21.6 2.7 23.4-13.7 21.7-22.3 17.9-13.2 7.5-26.3 0-31.2z"/>
  <circle transform="rotate(-28.556 689.165 301.936)" style="opacity:.4;fill:#465048;enable-background:new" cx="689.1" cy="301.9" r="3.4"/>
  <path style="opacity:.3;fill:none;stroke:#465048;stroke-width:5;stroke-linecap:round;enable-background:new" d="M244.6 297.2c-.3-2.2 2.2-8.3 9.2-6.8 6.2 1.3 7.6 8.2 3.2 12.3-2.4 2.6-5.7 6.9-4.9 11.5"/>
  <path style="opacity:.3;fill:none;stroke:#465048;stroke-width:5;enable-background:new" d="M279.4 298c2-16.2-9.7-17.4-15.7-15.9-10.6-12.7-19.9-5.3-23.2 0-16.3-2-17.8 9.8-16.6 15.9-11.5 9.2-4.8 19 0 22.7-2.4 15.8 10.2 17.7 16.8 16.7 9.5 12.3 19.2 4.7 22.9-.5 15.7 2 17-10 15.7-16.2 13.1-9.6 5.5-19.1.1-22.7z"/>
  <circle style="opacity:.3;fill:#465048;enable-background:new" cx="252.7" cy="322.4" r="2.5"/>
  <path style="fill:#465048;fill-opacity:.4" d="m198.1 896.6 62.5-147.5-31 128 99.5-3.5 50-1.5h49.5l25.5 1 22 5-278 18.5z"/>
  <path style="fill:none;stroke:#465048;stroke-width:5;stroke-linecap:round" d="M505.6 766.6c8.8-15 38.9-41.5 88.5-27.5M515.6 800.7c12.8-19.2 53.7-50.5 114.5-22.5M466.6 807c-26.2-14-93-36.1-151-12.5M455.6 760.1c-8.7-5-30.3-13.5-47.5-7.5M704.8 572.6l-48 2M705.3 572.6l63 5.5M768.8 578.1l-12.5 59.5M756.3 637.6l-52.5 9M703.8 646.1v-62.5M703.8 584.1l64.5-5.5M703.8 584.1l-47-9.5M655.8 574.6l3 47M658.8 621.6l45 25M704.3 572.6v10.5"/>
  <path style="fill:none;stroke:#465048;stroke-width:3" d="m732.3 598.5 8.8-.5c2.4-.1 4.5 1.7 4.6 4.1.1 2.4-1.7 4.5-4.1 4.6l-8.8.5c-2.4.1-4.5-1.7-4.6-4.1-.2-2.4 1.7-4.5 4.1-4.6z"/>
  <path style="fill:none;stroke:#465048;stroke-width:5;stroke-linecap:round" d="M637.8 505.1c9 14.2 33.6 41 60 35l37-27M637.8 505.1l42-14"/>
  <path style="fill:none;stroke:#465048;stroke-width:5;stroke-linecap:round" d="M679.8 491.1c7.8 7.2 29.8 21.5 55 21.5M661.3 512.1c3.7-.8 12.1-3.5 16.5-7.5M671.8 521.1c2.3-.5 7.7-2.4 10.5-6M684.3 527.6c2.8-.5 10.3-2.8 13.5-10"/>
  <path style="fill:#465048;fill-opacity:.3" d="m703.3 661.6-47.5-39 47.5 26.5 55.3-9.5h7.7l-63 22z"/>
  <path style="fill:none;stroke:#465048;stroke-width:5;stroke-linecap:round" d="m852.9 692.6-24.5-19c-4.8-3.7 2.3-5.6 6.5-6l91.5-11.5c11.5 1.5 36.9 5.3 46.5 8.5 9.6 3.2 6.7 6.3 4 7.5-30 5.5-92.9 17.4-104.5 21-11.6 3.6-17.8 1.2-19.5-.5z"/>
  <path style="fill:none;stroke:#465048;stroke-width:5;stroke-linecap:round" d="M975.9 665.6c3.5 1.2 14.7 11.7 9.5 36.5-2 6.5-7.5 10.5-25.5 10.5h-93.5c-4.3.3-14.3-.3-19.5-5.5-5.2-5.2-15.8-16.2-20.5-21-1-1.2-2-3.5 2-3.5M828.4 682.6v-8.5"/>
  <path style="fill:none;stroke:#465048;stroke-width:5;stroke-linecap:round" d="m828.4 685.6 20.5 16c2.5 2 7 5.5 18.5 5 11.3-.5 72.3-1.7 101.5-1 4.3.1 10-2 11-12 1.3-12.9-1-21-6-21M829.4 691.1l-19 1.5c-2.7 0-7.9 1.3-7.5 6.5.4 5.2.2 8.2 0 9-.5 2.5 2 4.5 5 7l24 21M834.4 712.1l-2.5 24M834.4 712.1l-27-17.5M833.9 712.6l17-2M831.9 736.1l141 3M973.9 711.6l-1 27"/>
  <circle style="fill:#465048" cx="850.9" cy="725.6" r="3"/>
  <circle style="fill:#465048" cx="866.9" cy="751.6" r="3"/>
  <circle style="fill:#465048" cx="957.9" cy="724.6" r="3"/>
  <circle style="fill:#465048" cx="975.9" cy="752.6" r="3"/>
  <path style="fill:none;stroke:#465048;stroke-width:5;stroke-linecap:round" d="m817.9 738.1 24.5 23.5c3.5 3.5 12.5 4.5 32.5 4.5 18.5 0 83.7-1.8 114-1.5M989.4 739.1l-.5 25.5M989.4 739.1l-15.5-7M820.9 726.6c.2 3-.3 9.4-3.5 11"/>
  <path style="fill:none;stroke:#465048;stroke-width:5;stroke-linecap:round" d="M847.9 737.6c1.3 1.5 3 6 1.5 13-1.2 5.5-3 10.5-7 10M989.4 739.6l-18.5-.5M830.9 750.6l-22 12.5M808.9 763.1c-3.2 6.2-8.1 23.4-2.5 45M806.9 808.1l114.5 7.5c6.8.2 22.1-1 28.5-7 6.4-6 18.5-19.2 24-25M973.9 783.6v-15"/>
  <path style="fill:none;stroke:#465048;stroke-width:5;stroke-linecap:round" d="m973.4 768.1-29 26.5c-1.2 1.3-5.6 3.6-14 2s-72.2-17.3-103-25c-5.8-1.3-15.5-1-16 11.5-.7 5.7.3 17.2 9.5 18s72.5 3.7 103 5c8.3.5 24.5 2 41.5-13.5"/>
</svg>