<svg width="906" height="786" fill="none" xmlns="http://www.w3.org/2000/svg">
  <path d="M323.292 114.5c15.834 12.667 40.7 40.5 13.5 50.5 5.334 16 6.5 54.3-31.5 79.5l-7.5 24m-39-48c-1.833 6-3.2 25.5 4 41.5m-9 4.5c15.667-5.667 45.5-12.6 45.5 7v5c27-22.5 85.908-73.8 100.708-95" stroke="#465048" stroke-width="5" stroke-linecap="round"/>
  <path d="M308.792 204.5c-.5 3 .8 9.2 10 10M335.792 143c0 5.604-1.655 10.576-4.208 14.086-2.554 3.512-5.87 5.414-9.292 5.414-3.421 0-6.737-1.902-9.291-5.414-2.553-3.51-4.209-8.482-4.209-14.086 0-5.604 1.656-10.576 4.209-14.086 2.554-3.512 5.87-5.414 9.291-5.414 3.422 0 6.738 1.902 9.292 5.414 2.553 3.51 4.208 8.482 4.208 14.086ZM277.292 158l31-10M300.792 137.5c.834-3.333 3.9-11 9.5-15" stroke="#465048" stroke-width="5" stroke-linecap="round"/>
  <circle cx="323.792" cy="142.5" r="3.5" fill="#465048"/>
  <path d="M254.045 266.266 138.018 402.407m0 0c-1.682 5.005-3.351 16.678 10.774 31.093m-10.774-31.093c8.576-1.168 30.873-.601 51.455 11.011 25.728 14.515 52.97 40.042 120.568 62.565m0 0L287.34 492m22.701-16.017c-1.849-19.854-3.329-63.666 5.55-80.083 8.878-16.417 19.169-42.21 23.205-53.055 18.834-14.348 65.647-64.668 94.704-138.345" stroke="#465048" stroke-width="5" stroke-linecap="round"/>
  <path d="M221.293 303.5c-18.667 15.5-66 48.2-106 55-9.334 3.833-25.4 14.6-15 27 10.4 12.4 17.333 27.5 19.5 33.5 1.666 5.5 7.5 12.1 17.5-5.5" stroke="#465048" stroke-width="5" stroke-linecap="round"/>
  <path d="M107.292 394c-7.833 4.5-26.1 13.1-36.5 11.5-10.4-1.6-17.333 2.667-19.5 5-1.166 1.833-1.9 5.6 4.5 6 6.4.4 14 .167 17 0m8.5-6c-3.5 3.667-15.4 12-35 16-3.833.667-9 4.5-2 9 6 3.5 22.6.3 31-4.5-6.5 3.167-18.2 11.6-13 20 1.667 1.667 8.7 1.8 23.5-11m0 0 11-9m-11 9c-3.166 8.167-8 28 5 17 9.5-9.5 7.5-17.6 11.5-20 4-2.4 13-11.667 17-16m-22.5-6.5c-1.166 4.333-2.1 14.4 3.5 20M164.792 405c-6.333 18-36 55-62.5 101.5-17.666 29.167-59.8 94.3-87 121.5-3.666 5.167-7.1 16.9 8.5 22.5 12 5 17.4 16.6 19 29 2 15.5 27.5 27 44.5 15.5 13.55-9.166 52.512-75.192 81.947-112.5m20.053-21.5c-5.682 4.363-12.559 12.001-20.053 21.5m0 0L135.792 757m0 0c3.465 5.333 15.004 15.4 33.447 13m-33.447-13c17-4.5 63.7-13 92.5-13" stroke="#465048" stroke-width="5" stroke-linecap="round"/>
  <path d="M217.292 751c6.334-1.667 19.1-10.1 19.5-30.5.4-20.4 8.834-55.5 13-70.5l41-180" stroke="#465048" stroke-width="5" stroke-linecap="round"/>
  <circle cx="304.792" cy="174.5" r="1.5" fill="#465048"/>
  <circle cx="310.792" cy="182.5" r="1.5" fill="#465048"/>
  <circle cx="295.792" cy="185.5" r="1.5" fill="#465048"/>
  <path d="M148.793 162c24.4-45.6 60.833-51.333 76-48.5 31.5-48.5 75-64.5 101.5-50 21.2 11.6 3.833 40.833-7.5 54l-11-16c-7.6 14.8-29.334 9.333-40 6 9.166 19.333 23.8 69.3-7 114.5s-69.5 46-89 33c-18-12.833-47.4-47.4-23-93ZM10.596 739.077C-13.207 691.5 8.86 659.84 20.793 652c18.5 6 19 26 22 35.5l-6.924 19.549c-4.634 8.407-1.93 24.855 0 32.028 8.002 33.229-4.076 36.423-10.004 27.524l-15.269-27.524ZM237.293 783.5c-62.8 8.4-75.834-15.833-74.5-30 10.8-4.4 40.5-6 54.5-7-4 9.2 1 8 4.5 10.5 4.5 3 17 6.667 24 7 31.5 1.5 6.833 17.333-8.5 19.5Z" fill="#465048"/>
  <path d="M411.5 166.193c2.167-14.5 13.7-42.8 42.5-40 11.842 1.152 19.976 2.681 25.437 4.233 6.902 1.961 14.725 11.846 7.563 12.267v0m0 0c-5-1.333-16.4-3.8-22-3m22 3c8.5 2.5 12.6 10.4 7 14-3.488 2.243-9.097.722-14-1.59m-7.5-4.41c1.823 1.32 4.532 3.01 7.5 4.41m0 0c2.745 1.868 6.562 4.012 8.718 6.877.578.768.797 1.022.962 1.969v0c1.085 6.229-7.224 6.676-12.056 2.599l-.124-.105m-8-6.75 8 6.75m0 0c2.5 2.11 4.5 5.333 4.5 9.25 0 2.149-.992 3.611-2.381 4.536-3.774 2.512-7.054-.805-8.788-4.994v0c-2.241-5.416-9.763-5.144-15.312-3.258-3.142 1.068-6.772 1.321-10.519-.201m-5.5-3.583c1.833 1.686 3.68 2.844 5.5 3.583m0 0c0 3.472-1.3 10.317-6.5 9.917M400 183.5c5-6.193 8.8-19.107 18-14.307 9.2 4.8 15.167 8.667 17 10 2.167 1.167 4.1 5.107 2.5 12.307-1.6 7.2-3 11-4 13" stroke="#465048" stroke-width="5" stroke-linecap="round"/>
  <path d="M600 111.973c26.522 5.44 14.085 41.947 33.524 51.662 23.201 11.596 31.19-53.693 28.171-81.405-.865-12.15-15.016-17.555-16.925 0-2.027 18.648 21.115 90.958 47.637 63.055l17.708-20.486c4.92-6.062 14.62-14.483 22.818 0 8.197 14.484 21.258 9.698 26.764 5.494L777 117.709" stroke="#465048" stroke-width="7" stroke-linecap="round"/>
  <path d="M785.717 56 750 39.7 906 0 785.717 56ZM906 0 792 108l19.963-41.056L906 0Z" fill="#465048"/>
  <path d="M853.223 103 811 67.185 906 0l-52.777 103Z" fill="#465048"/>
  <path d="M791.24 108 786 55.565 906 0l-94.585 67.043L791.24 108Z" fill="#465048" fill-opacity=".8"/>
</svg>