<svg width="32" height="32" viewBox="0 0 24 24" fill="none" xmlns="http://www.w3.org/2000/svg">
  <path opacity=".3" d="M4.875 20.75a.946.946 0 0 1-.67-.288l-1.917-1.916a.926.926 0 0 1 0-1.342c.383-.383 1.006-.383 1.341 0l1.246 1.246 3.162-3.162a.926.926 0 0 1 1.342 0 .926.926 0 0 1 0 1.341l-3.833 3.833a.946.946 0 0 1-.671.288Z" fill="#508991"/>
  <path fill-rule="evenodd" clip-rule="evenodd" d="M5 3a3 3 0 0 0-3 3v5.865A7.5 7.5 0 0 1 12.984 18h5.04l2.294 2.293c.63.63 1.707.184 1.707-.707V15l-.025.01V6a3 3 0 0 0-3-3H5Zm1 4a1 1 0 0 0 0 2h9a1 1 0 1 0 0-2H6Z" fill="#508991"/>
</svg>