<svg width="32" height="32" viewBox="0 0 24 24" fill="none" xmlns="http://www.w3.org/2000/svg">
  <path opacity=".3" d="m3.2 5.919 13.7-2.9c.5-.1 1.1.2 1.2.8l1.1 5.2-16-3.1ZM13 13.919c0-1.7 1.3-3 3-3h5c.6 0 1 .4 1 1v4c0 .6-.4 1-1 1h-5c-1.7 0-3-1.3-3-3Zm3-1.5c-.8 0-1.5.7-1.5 1.5s.7 1.5 1.5 1.5 1.5-.7 1.5-1.5-.7-1.5-1.5-1.5Z" fill="#508991"/>
  <path d="M13 13.919c0-1.7 1.3-3 3-3h5v-3c0-1.1-.9-2-2-2H3c-.6 0-1 .4-1 1v14c0 .6.4 1 1 1h16c1.1 0 2-.9 2-2v-3h-5c-1.7 0-3-1.3-3-3Z" fill="#508991"/>
</svg>