<svg xmlns="http://www.w3.org/2000/svg" xml:space="preserve" id="Layer_1" x="0" y="0" version="1.1" viewBox="0 0 512 480">
  <style>
    .st0{fill:#cad0d7}.st1{fill:#e1e6e9}.st2{fill:#99a5ad}.st3{display:none}.st4{display:inline}.st10{fill:#5a5b67}.st11{fill:#fcb33b}.st13,.st15{opacity:.25;fill:#fff;enable-background:new}.st15{opacity:.5;fill:#d7dadd}.st16{fill:#36373f}.st17{opacity:.5;fill:#b9bdc1;enable-background:new}.st19{fill:#53ba5e}.st20,.st21{display:inline;fill:#cad0d7}.st21{fill:#e1e6e9}.st23,.st25,.st26{display:inline;fill:#ee2f3d}.st25,.st26{fill:#59a7d8}.st26{fill:#fff}.st27{fill:#b6daf0}.st28{fill:#fff}.st29{fill:#59a7d8}.st30{fill:#297d3e}.st31{fill:#ee2f3d}.st33{fill:#f59f42}.st34{fill:#3087c5}.st36{fill:#c0652e}
  </style>
  <g id="Frame">
    <path id="XMLID_9_" d="M496 0H16C7.2 0 0 7.2 0 16v448c0 8.8 7.2 16 16 16h480c8.8 0 16-7.2 16-16V16c0-8.8-7.2-16-16-16zm0 456c0 4.4-3.6 8-8 8H24c-4.4 0-8-3.6-8-8V72c0-4.4 3.6-8 8-8h464c4.4 0 8 3.6 8 8v384z" class="st0"/>
    <path id="XMLID_4_" d="M490 40H118c-3.3 0-6-2.7-6-6v-4c0-3.3 2.7-6 6-6h372c3.3 0 6 2.7 6 6v4c0 3.3-2.7 6-6 6z" class="st1"/>
    <g id="XMLID_11_">
      <path id="XMLID_5_" d="M24 40c-4.4 0-8-3.6-8-8s3.6-8 8-8 8 3.6 8 8-3.6 8-8 8z" class="st2"/>
      <path id="XMLID_6_" d="M56 40c-4.4 0-8-3.6-8-8s3.6-8 8-8 8 3.6 8 8-3.6 8-8 8z" class="st2"/>
      <path id="XMLID_10_" d="M88 40c-4.4 0-8-3.6-8-8s3.6-8 8-8 8 3.6 8 8-3.6 8-8 8z" class="st2"/>
    </g>
  </g>
  <path id="XMLID_603_" d="M352 416H200c-4.4 0-8-3.6-8-8s3.6-8 8-8h152c4.4 0 8 3.6 8 8s-3.6 8-8 8z" class="st2"/>
  <g id="XMLID_437_">
    <g id="XMLID_598_">
      <circle id="XMLID_602_" cx="104" cy="152" r="32" class="st2"/>
      <path id="XMLID_599_" d="M104 184c9.5 0 18.1-4.2 24-10.8.1-1.1 0-2.9-1.1-4.2-1.6-1.1-15-9-15-9v-3.1c2.4-2.2 4-5.4 4-8.9 0-6.6-5.4-12-12-12s-12 5.4-12 12c0 3.5 1.6 6.7 4 8.9v3.1s-13.4 7.9-15 9c-1 1.2-1.1 2.8-1.1 3.9 5.8 6.8 14.5 11.1 24.2 11.1z" class="st10"/>
    </g>
    <g id="XMLID_438_">
      <g id="XMLID_588_">
        <g id="XMLID_594_">
          <path id="XMLID_597_" d="M440 136H200c-4.4 0-8-3.6-8-8s3.6-8 8-8h240c4.4 0 8 3.6 8 8s-3.6 8-8 8z" class="st2"/>
          <path id="XMLID_596_" d="M392 200H200c-4.4 0-8-3.6-8-8s3.6-8 8-8h192c4.4 0 8 3.6 8 8s-3.6 8-8 8z" class="st2"/>
          <path id="XMLID_595_" d="M352 168H200c-4.4 0-8-3.6-8-8s3.6-8 8-8h152c4.4 0 8 3.6 8 8s-3.6 8-8 8z" class="st2"/>
        </g>
        <g id="XMLID_590_">
          <path id="XMLID_593_" d="M440 264H200c-4.4 0-8-3.6-8-8s3.6-8 8-8h240c4.4 0 8 3.6 8 8s-3.6 8-8 8z" class="st2"/>
          <path id="XMLID_592_" d="M392 328H200c-4.4 0-8-3.6-8-8s3.6-8 8-8h192c4.4 0 8 3.6 8 8s-3.6 8-8 8z" class="st2"/>
          <path id="XMLID_591_" d="M352 296H200c-4.4 0-8-3.6-8-8s3.6-8 8-8h152c4.4 0 8 3.6 8 8s-3.6 8-8 8z" class="st2"/>
        </g>
        <path id="XMLID_589_" d="M440 384H200c-4.4 0-8-3.6-8-8s3.6-8 8-8h240c4.4 0 8 3.6 8 8s-3.6 8-8 8z" class="st2"/>
      </g>
      <g id="XMLID_581_">
        <g id="XMLID_585_">
          <path id="XMLID_587_" d="M136 232H80c-4.4 0-8-3.6-8-8s3.6-8 8-8h56c4.4 0 8 3.6 8 8s-3.6 8-8 8z" class="st0"/>
          <path id="XMLID_586_" d="M120 264H80c-4.4 0-8-3.6-8-8s3.6-8 8-8h40c4.4 0 8 3.6 8 8s-3.6 8-8 8z" class="st0"/>
        </g>
        <g id="XMLID_582_">
          <path id="XMLID_584_" d="M136 328H80c-4.4 0-8-3.6-8-8s3.6-8 8-8h56c4.4 0 8 3.6 8 8s-3.6 8-8 8z" class="st0"/>
          <path id="XMLID_583_" d="M120 360H80c-4.4 0-8-3.6-8-8s3.6-8 8-8h40c4.4 0 8 3.6 8 8s-3.6 8-8 8z" class="st0"/>
        </g>
      </g>
    </g>
  </g>
</svg>