<svg xmlns="http://www.w3.org/2000/svg" xml:space="preserve" viewBox="0 0 512 512">
  <path fill="#2c3a3f" d="M154.6 73.1v82.7c-86.3 7-113.8-28.5-154.6-32.9 0-10.4 30.4-21.8 35-30.3C26.2 80.3 3 49.1 1.5 33.9c33.3 23.7 91.9 36.7 153.1 39.2z"/>
  <path fill="#263238" d="M82.3 126c23.9 17 50.3 28.7 72.3 29.7V73.1c-15-.6-72.6 52.5-72.3 52.9z"/>
  <path fill="#2c3a3f" d="M357.4 73.1v82.7c86.3 7.1 113.8-28.4 154.6-32.8 0-10.4-30.4-21.8-35-30.3 8.8-12.4 32-43.5 33.5-58.7-33.3 23.6-91.9 36.6-153.1 39.1z"/>
  <path fill="#263238" d="M429.7 126c-23.9 17-50.3 28.7-72.3 29.7V73.1c15-.6 72.6 52.5 72.3 52.9z"/>
  <path fill="#37474f" d="M430.3 125.7c-2.6-27.4-4.7-53.7-4.7-77.1-59.8-59.8-278.5-59.8-338.3 0 0 22.2-2.3 48.9-5.1 77.4 74.2-52.6 273.5-52.7 348.1-.3z"/>
  <g fill="#fff">
    <path d="M186.9 33.1 184 38c-2.2-1.3-4.3-1.8-6.7-1.4-4.6.8-7.3 4.9-5.7 13.9 1.5 8.7 5.5 11.7 10.3 10.9 2.9-.5 4.6-2.2 6.4-4.1l4.2 3.7c-1.8 2.6-5.1 5.4-9.8 6.2-9.2 1.6-16.6-3.6-18.6-15.3-2.1-11.6 3.4-19.1 12-20.7 4.3-.8 7.5.1 10.8 1.9zM241.4 54.6l-.5 6-20.4 1.2-2-34.9 7.4-.4 1.6 29 13.9-.9zM296.7 50.4c-.4 7-5.2 12.1-14 11.6s-13-5.8-12.6-13l1.3-23.4 7.4.4-1.3 23c-.3 4.7 1.4 7.1 5.5 7.3 4.1.2 6-2 6.3-6.7l1.3-23.1 7.4.5-1.3 23.4zM353.6 60.4c-1.5 7.7-8.1 8.8-16.6 7.2l-10.7-2 6.5-34.4 9.4 1.8c9 1.7 14 5.2 12.8 11.5-.8 4.3-4.4 6.1-7.7 6.2 3.8 1.5 7.4 4.1 6.3 9.7zm-15.5 1.8c4.1.8 7.2.5 7.9-3.5.7-3.8-1.7-5.7-5.4-6.4l-4.1-.8-1.9 10 3.5.7zm-.6-15.7 3.6.7c3.5.7 5.8-.4 6.4-3.5.6-3.2-1.3-4.6-5.6-5.4l-2.8-.5-1.6 8.7z"/>
  </g>
  <path fill="#37474f" d="M95.9 143.6c59.5-50 277-50 336.4 0v256c0 44.6-168.2 108.6-168.2 108.6s-168.2-64-168.2-108.6v-256z"/>
  <path fill="#E91E63" d="M264.1 492.6c-82.4-32.1-153.6-75.1-153.6-93.1V150.2C138 131.7 196.9 120 264.1 120c67.2 0 126.1 11.7 153.6 30.2v249.2c0 18.1-71.2 61.1-153.6 93.2z"/>
  <path fill="#fff" d="M263.5 129.7c63.1 0 119.5 8.2 154.2 21.8v-.5c-27.5-18.5-86.4-30.2-153.6-30.2-67.2 0-126.1 11.7-153.6 30.2v.1c34.8-13.4 90.7-21.4 153-21.4z"/>
  <g fill="#fff">
    <path d="m164.4 361-39.7-133.4H155l27.2 109.9 26.2-109.9h28.9L199 361h-34.6zM249.9 361V227.6h28.5V361h-28.5zM347.9 227.6c33.9 0 54.8 13.9 54.8 43 0 30.9-22 44.9-52.5 44.9H335V361h-28.3V227.6h41.2zm0 67.1c15.6 0 25.5-6 25.5-24.1 0-15.6-9.3-22.6-25.8-22.6h-12.5v46.7h12.8z"/>
  </g>
</svg>