<svg xmlns="http://www.w3.org/2000/svg" xml:space="preserve" id="Layer_1" x="0" y="0" version="1.1" viewBox="0 0 512 480">
  <style>
    .st0{fill:#cad0d7}.st1{fill:#e1e6e9}.st2{fill:#99a5ad}.st3{fill:#fff}
  </style>
  <path d="M496 0H16C7.2 0 0 7.2 0 16v448c0 8.8 7.2 16 16 16h480c8.8 0 16-7.2 16-16V16c0-8.8-7.2-16-16-16zm0 456c0 4.4-3.6 8-8 8H24c-4.4 0-8-3.6-8-8V72c0-4.4 3.6-8 8-8h464c4.4 0 8 3.6 8 8v384z" class="st0"/>
  <path d="M490 40H118c-3.3 0-6-2.7-6-6v-4c0-3.3 2.7-6 6-6h372c3.3 0 6 2.7 6 6v4c0 3.3-2.7 6-6 6z" class="st1"/>
  <path d="M24 40c-4.4 0-8-3.6-8-8s3.6-8 8-8 8 3.6 8 8-3.6 8-8 8zm40-8c0-4.4-3.6-8-8-8s-8 3.6-8 8 3.6 8 8 8 8-3.6 8-8zm32 0c0-4.4-3.6-8-8-8s-8 3.6-8 8 3.6 8 8 8 8-3.6 8-8z" class="st2"/>
  <path d="M232 272H56c-4.4 0-8-3.6-8-8V120c0-4.4 3.6-8 8-8h176c4.4 0 8 3.6 8 8v144c0 4.4-3.6 8-8 8z" class="st0"/>
  <path d="M192 160c0 4.4-3.6 8-8 8h-8v32c0 4.4-3.6 8-8 8h-48c-4.4 0-8-3.6-8-8v-24c0-4.4 3.6-8 8-8h40v-8c0-4.4 3.6-8 8-8h16c4.4 0 8 3.6 8 8zm-55 64c0-4.4-3.6-8-8-8h-1c-4.4 0-8 3.6-8 8s3.6 8 8 8h1c4.4 0 8-3.6 8-8zm31 0c0-4.4-3.6-8-8-8h-1c-4.4 0-8 3.6-8 8s3.6 8 8 8h1c4.4 0 8-3.6 8-8z" class="st3"/>
  <path fill="#5a5b67" d="M88 336H56c-4.4 0-8-3.6-8-8v-32c0-4.4 3.6-8 8-8h32c4.4 0 8 3.6 8 8v32c0 4.4-3.6 8-8 8zm80-8v-32c0-4.4-3.6-8-8-8h-32c-4.4 0-8 3.6-8 8v32c0 4.4 3.6 8 8 8h32c4.4 0 8-3.6 8-8zm72 0v-32c0-4.4-3.6-8-8-8h-32c-4.4 0-8 3.6-8 8v32c0 4.4 3.6 8 8 8h32c4.4 0 8-3.6 8-8z"/>
  <path d="M72 320h-1c-4.4 0-8-3.6-8-8s3.6-8 8-8h1c4.4 0 8 3.6 8 8s-3.6 8-8 8zm80-8c0-4.4-3.6-8-8-8h-1c-4.4 0-8 3.6-8 8s3.6 8 8 8h1c4.4 0 8-3.6 8-8zm72 0c0-4.4-3.6-8-8-8h-1c-4.4 0-8 3.6-8 8s3.6 8 8 8h1c4.4 0 8-3.6 8-8z" class="st3"/>
  <path d="M408 128H288c-4.4 0-8-3.6-8-8s3.6-8 8-8h120c4.4 0 8 3.6 8 8s-3.6 8-8 8z" class="st2"/>
  <path d="M408 176H288c-4.4 0-8-3.6-8-8s3.6-8 8-8h120c4.4 0 8 3.6 8 8s-3.6 8-8 8zm8 56c0-4.4-3.6-8-8-8H288c-4.4 0-8 3.6-8 8s3.6 8 8 8h120c4.4 0 8-3.6 8-8zm56-32c0-4.4-3.6-8-8-8H288c-4.4 0-8 3.6-8 8s3.6 8 8 8h176c4.4 0 8-3.6 8-8zm-24 64c0-4.4-3.6-8-8-8H288c-4.4 0-8 3.6-8 8s3.6 8 8 8h152c4.4 0 8-3.6 8-8zm-8 32c0-4.4-3.6-8-8-8H288c-4.4 0-8 3.6-8 8s3.6 8 8 8h144c4.4 0 8-3.6 8-8zm-64 32c0-4.4-3.6-8-8-8h-80c-4.4 0-8 3.6-8 8s3.6 8 8 8h80c4.4 0 8-3.6 8-8z" class="st0"/>
  <path d="M416 424H304c-13.3 0-24-10.7-24-24s10.7-24 24-24h112c13.3 0 24 10.7 24 24s-10.7 24-24 24z" class="st2"/>
  <path d="M328 408c-4.4 0-8-3.6-8-8s3.6-8 8-8 8 3.6 8 8-3.6 8-8 8zm40-8c0-4.4-3.6-8-8-8s-8 3.6-8 8 3.6 8 8 8 8-3.6 8-8zm32 0c0-4.4-3.6-8-8-8s-8 3.6-8 8 3.6 8 8 8 8-3.6 8-8z" class="st1"/>
</svg>