<svg xmlns="http://www.w3.org/2000/svg" xml:space="preserve" id="Layer_1" x="0" y="0" version="1.1" viewBox="0 0 512 480">
  <style>
    .st0{fill:#cad0d7}.st2{fill:#99a5ad}.st3{fill:#5a5b67}
  </style>
  <path d="M496 0H16C7.2 0 0 7.2 0 16v448c0 8.8 7.2 16 16 16h480c8.8 0 16-7.2 16-16V16c0-8.8-7.2-16-16-16zm0 456c0 4.4-3.6 8-8 8H24c-4.4 0-8-3.6-8-8V72c0-4.4 3.6-8 8-8h464c4.4 0 8 3.6 8 8v384z" class="st0"/>
  <path fill="#e1e6e9" d="M490 40H118c-3.3 0-6-2.7-6-6v-4c0-3.3 2.7-6 6-6h372c3.3 0 6 2.7 6 6v4c0 3.3-2.7 6-6 6z"/>
  <path d="M24 40c-4.4 0-8-3.6-8-8s3.6-8 8-8 8 3.6 8 8-3.6 8-8 8zm40-8c0-4.4-3.6-8-8-8s-8 3.6-8 8 3.6 8 8 8 8-3.6 8-8zm32 0c0-4.4-3.6-8-8-8s-8 3.6-8 8 3.6 8 8 8 8-3.6 8-8zM368 120H160c-4.4 0-8-3.6-8-8s3.6-8 8-8h208c4.4 0 8 3.6 8 8s-3.6 8-8 8zm-32 24c0-4.4-3.6-8-8-8H200c-4.4 0-8 3.6-8 8s3.6 8 8 8h128c4.4 0 8-3.6 8-8z" class="st2"/>
  <path d="M384 384H72c-4.4 0-8-3.6-8-8s3.6-8 8-8h312c4.4 0 8 3.6 8 8s-3.6 8-8 8zm-160 24c0-4.4-3.6-8-8-8H72c-4.4 0-8 3.6-8 8s3.6 8 8 8h144c4.4 0 8-3.6 8-8zm56 0c0-4.4-3.6-8-8-8h-24c-4.4 0-8 3.6-8 8s3.6 8 8 8h24c4.4 0 8-3.6 8-8zm168-32c0-4.4-3.6-8-8-8h-24c-4.4 0-8 3.6-8 8s3.6 8 8 8h24c4.4 0 8-3.6 8-8z" class="st0"/>
  <path d="M232.7 262.6c-14.2 0-25.7 11.5-25.7 25.7s11.5 25.7 25.7 25.7 25.7-11.5 25.7-25.7-11.5-25.7-25.7-25.7zm0 41.2c-8.6 0-15.5-7-15.5-15.5 0-8.6 7-15.5 15.5-15.5 8.6 0 15.5 7 15.5 15.5.1 8.6-6.9 15.5-15.5 15.5zM327 305.4c0 4.8-3.8 8.6-8.6 8.6s-8.6-3.8-8.6-8.6c0-25.2-9.9-49-27.6-66.7s-41.5-27.6-66.7-27.6c-4.8 0-8.6-3.8-8.6-8.6s3.8-8.6 8.6-8.6c61.4.1 111.5 50.2 111.5 111.5z" class="st3"/>
  <path d="M292.7 305.4c0 4.8-3.8 8.6-8.6 8.6s-8.6-3.8-8.6-8.6c0-16.1-5.9-31.1-17.4-42.6-11.3-11.3-26.3-17.4-42.6-17.4-4.8 0-8.6-3.8-8.6-8.6s3.8-8.6 8.6-8.6c42.9.1 77.2 34.6 77.2 77.2z" class="st3"/>
</svg>