<svg xmlns="http://www.w3.org/2000/svg" xml:space="preserve" version="1.1" viewBox="0 0 512 480">
  <style>
    .st0{fill:#cad0d7}.st1{fill:#e1e6e9}.st2{fill:#99a5ad}
  </style>
  <path d="M496 0H16C7.2 0 0 7.2 0 16v448c0 8.8 7.2 16 16 16h480c8.8 0 16-7.2 16-16V16c0-8.8-7.2-16-16-16zm0 456c0 4.4-3.6 8-8 8H24c-4.4 0-8-3.6-8-8V72c0-4.4 3.6-8 8-8h464c4.4 0 8 3.6 8 8v384z" class="st0"/>
  <path d="M490 40H118c-3.3 0-6-2.7-6-6v-4c0-3.3 2.7-6 6-6h372c3.3 0 6 2.7 6 6v4c0 3.3-2.7 6-6 6z" class="st1"/>
  <path d="M24 40c-4.4 0-8-3.6-8-8s3.6-8 8-8 8 3.6 8 8-3.6 8-8 8zm40-8c0-4.4-3.6-8-8-8s-8 3.6-8 8 3.6 8 8 8 8-3.6 8-8zm32 0c0-4.4-3.6-8-8-8s-8 3.6-8 8 3.6 8 8 8 8-3.6 8-8z" class="st2"/>
  <path d="M360 112H152c-4.4 0-8-3.6-8-8s3.6-8 8-8h208c4.4 0 8 3.6 8 8s-3.6 8-8 8zm-32 24c0-4.4-3.6-8-8-8H192c-4.4 0-8 3.6-8 8s3.6 8 8 8h128c4.4 0 8-3.6 8-8z" class="st0"/>
  <path d="M456 424H56c-8.8 0-16-7.2-16-16V184c0-8.8 7.2-16 16-16h400c8.8 0 16 7.2 16 16v224c0 8.8-7.2 16-16 16z" class="st1"/>
  <path d="M248 304h96c0 53-43 96-96 96s-96-43-96-96 43-96 96-96v96z" class="st2"/>
  <path fill="#5a5b67" d="M360 288h-96v-96c53 0 96 43 96 96z"/>
</svg>