<svg width="80" height="80" viewBox="0 0 80 80" fill="none" xmlns="http://www.w3.org/2000/svg">
<rect x="1" y="1" width="78" height="78" rx="39" stroke="#486767" stroke-width="2"/>
<path d="M45.508 36C47.44 36 49.008 37.568 49.008 39.5V48.998C49.008 51.3855 48.0596 53.6752 46.3714 55.3634C44.6832 57.0516 42.3935 58 40.006 58C37.6185 58 35.3288 57.0516 33.6406 55.3634C31.9524 53.6752 31.004 51.3855 31.004 48.998V39.5C31.004 37.568 32.57 36 34.504 36H45.508ZM45.508 39H34.504C34.3714 39 34.2442 39.0527 34.1504 39.1464C34.0567 39.2402 34.004 39.3674 34.004 39.5V48.998C34.004 50.5898 34.6364 52.1165 35.7619 53.2421C36.8875 54.3676 38.4142 55 40.006 55C41.5978 55 43.1245 54.3676 44.2501 53.2421C45.3756 52.1165 46.008 50.5898 46.008 48.998V39.5C46.008 39.3674 45.9553 39.2402 45.8616 39.1464C45.7678 39.0527 45.6406 39 45.508 39ZM23.5 36H30.262C29.5564 36.8522 29.1255 37.8981 29.026 39H23.5C23.3674 39 23.2402 39.0527 23.1464 39.1464C23.0527 39.2402 23 39.3674 23 39.5V45.998C22.9999 46.7538 23.171 47.4997 23.5005 48.1799C23.8301 48.86 24.3095 49.4566 24.9027 49.9249C25.4959 50.3932 26.1875 50.721 26.9255 50.8836C27.6636 51.0463 28.4289 51.0396 29.164 50.864C29.334 51.872 29.644 52.834 30.07 53.728C28.8846 54.0451 27.6421 54.0854 26.4386 53.8456C25.2351 53.6059 24.1029 53.0925 23.1295 52.3453C22.1561 51.5981 21.3676 50.6371 20.8249 49.5364C20.2823 48.4358 20 47.2251 20 45.998V39.5C20 37.568 21.568 36 23.5 36ZM49.75 36H56.5C58.432 36 60 37.568 60 39.5V46C60.0003 47.2263 59.7186 48.4363 59.1768 49.5364C58.6349 50.6366 57.8474 51.5974 56.8751 52.3447C55.9028 53.092 54.7717 53.6058 53.5692 53.8464C52.3667 54.0869 51.125 54.0478 49.94 53.732C50.368 52.836 50.678 51.874 50.85 50.866C51.5842 51.0395 52.3481 51.0446 53.0845 50.881C53.821 50.7174 54.5108 50.3892 55.1024 49.9211C55.694 49.453 56.1721 48.8571 56.5007 48.1781C56.8293 47.499 57 46.7544 57 46V39.5C57 39.3674 56.9473 39.2402 56.8536 39.1464C56.7598 39.0527 56.6326 39 56.5 39H50.986C50.8865 37.8981 50.4556 36.8522 49.75 36ZM40 22C41.5913 22 43.1174 22.6321 44.2426 23.7574C45.3679 24.8826 46 26.4087 46 28C46 29.5913 45.3679 31.1174 44.2426 32.2426C43.1174 33.3679 41.5913 34 40 34C38.4087 34 36.8826 33.3679 35.7574 32.2426C34.6321 31.1174 34 29.5913 34 28C34 26.4087 34.6321 24.8826 35.7574 23.7574C36.8826 22.6321 38.4087 22 40 22ZM53 24C54.3261 24 55.5979 24.5268 56.5355 25.4645C57.4732 26.4021 58 27.6739 58 29C58 30.3261 57.4732 31.5979 56.5355 32.5355C55.5979 33.4732 54.3261 34 53 34C51.6739 34 50.4021 33.4732 49.4645 32.5355C48.5268 31.5979 48 30.3261 48 29C48 27.6739 48.5268 26.4021 49.4645 25.4645C50.4021 24.5268 51.6739 24 53 24ZM27 24C28.3261 24 29.5979 24.5268 30.5355 25.4645C31.4732 26.4021 32 27.6739 32 29C32 30.3261 31.4732 31.5979 30.5355 32.5355C29.5979 33.4732 28.3261 34 27 34C25.6739 34 24.4021 33.4732 23.4645 32.5355C22.5268 31.5979 22 30.3261 22 29C22 27.6739 22.5268 26.4021 23.4645 25.4645C24.4021 24.5268 25.6739 24 27 24ZM40 25C39.2044 25 38.4413 25.3161 37.8787 25.8787C37.3161 26.4413 37 27.2044 37 28C37 28.7956 37.3161 29.5587 37.8787 30.1213C38.4413 30.6839 39.2044 31 40 31C40.7956 31 41.5587 30.6839 42.1213 30.1213C42.6839 29.5587 43 28.7956 43 28C43 27.2044 42.6839 26.4413 42.1213 25.8787C41.5587 25.3161 40.7956 25 40 25ZM53 27C52.4696 27 51.9609 27.2107 51.5858 27.5858C51.2107 27.9609 51 28.4696 51 29C51 29.5304 51.2107 30.0391 51.5858 30.4142C51.9609 30.7893 52.4696 31 53 31C53.5304 31 54.0391 30.7893 54.4142 30.4142C54.7893 30.0391 55 29.5304 55 29C55 28.4696 54.7893 27.9609 54.4142 27.5858C54.0391 27.2107 53.5304 27 53 27ZM27 27C26.4696 27 25.9609 27.2107 25.5858 27.5858C25.2107 27.9609 25 28.4696 25 29C25 29.5304 25.2107 30.0391 25.5858 30.4142C25.9609 30.7893 26.4696 31 27 31C27.5304 31 28.0391 30.7893 28.4142 30.4142C28.7893 30.0391 29 29.5304 29 29C29 28.4696 28.7893 27.9609 28.4142 27.5858C28.0391 27.2107 27.5304 27 27 27Z" fill="#486767"/>
</svg>
