<svg width="120" height="120" viewBox="0 0 120 120" fill="none" xmlns="http://www.w3.org/2000/svg">
<path d="M60.8292 24.8656C62.1259 25.1558 63.3006 25.841 64.1914 26.8269C64.6614 27.3768 65.0179 28.0143 65.2404 28.7026C65.4628 29.391 65.5467 30.1166 65.4874 30.8376C65.428 31.5586 65.2264 32.2606 64.8944 32.9033C64.5623 33.546 64.1063 34.1166 63.5526 34.5822C63.3758 34.7073 63.235 34.8767 63.1445 35.0734C63.054 35.2702 63.017 35.4873 63.037 35.7029C63.037 36.6667 63.037 37.6193 63.037 38.6504C63.3845 38.6504 63.6646 38.6504 63.956 38.6504H85.1039C85.6069 38.6366 86.1091 38.697 86.5945 38.8297C87.2353 39.0294 87.7813 39.4561 88.13 40.0297C88.4787 40.6033 88.6062 41.2844 88.4885 41.9453C88.3827 42.6088 88.0457 43.2134 87.537 43.6523C87.0284 44.0913 86.3809 44.3361 85.7091 44.3436C84.9806 44.3436 84.2522 44.3436 83.4677 44.3436C83.5909 44.635 83.6582 44.8367 83.7591 45.0385C86.8746 51.9196 89.994 58.7934 93.117 65.6596C93.1657 65.83 93.2664 65.981 93.405 66.0915C93.5437 66.202 93.7133 66.2665 93.8903 66.276C94.0904 66.3041 94.2811 66.3788 94.447 66.4942C94.6129 66.6095 94.7493 66.7622 94.8453 66.94C94.9413 67.1178 94.9941 67.3157 94.9995 67.5177C95.005 67.7197 94.9628 67.9201 94.8765 68.1028C94.2347 69.5208 93.5202 70.9049 92.736 72.2494C92.38 72.8484 91.8645 73.3365 91.2469 73.6591C90.6294 73.9817 89.9343 74.1261 89.2393 74.0762C84.0093 74.0762 78.8055 74.0762 73.6278 74.0762C72.8077 74.1071 71.9973 73.8892 71.3033 73.4512C70.6092 73.0131 70.0639 72.3754 69.7389 71.6218C69.2346 70.6132 68.7191 69.6157 68.2147 68.6183C67.5871 67.3743 67.9458 66.657 69.3355 66.2872C69.5372 66.2872 69.7277 65.9398 69.8286 65.7269L76.8218 50.3619C77.6063 48.6135 78.402 46.854 79.1977 45.1057C79.2874 44.904 79.3659 44.7022 79.4667 44.4557H63.0707V47.4256C63.0707 47.6833 63.0707 47.9299 63.0707 48.1877C63.0721 48.3255 63.0463 48.4622 62.9946 48.59C62.9429 48.7177 62.8663 48.8339 62.7694 48.9319C62.6725 49.0299 62.5571 49.1077 62.4299 49.1607C62.3027 49.2138 62.1662 49.2411 62.0284 49.2411C61.749 49.2159 61.4892 49.0868 61.3004 48.8793C61.1115 48.6718 61.0074 48.401 61.0086 48.1204C61.0086 47.1118 61.0086 46.1031 61.0086 45.0945C61.0086 44.5678 61.0086 43.9738 61.0086 43.5031C60.9945 43.3477 61.0131 43.191 61.0631 43.0432C61.1131 42.8953 61.1934 42.7596 61.2989 42.6446C61.4044 42.5296 61.5328 42.4379 61.6757 42.3754C61.8187 42.3128 61.9732 42.2809 62.1293 42.2815H84.9918C85.2847 42.3227 85.5829 42.2998 85.866 42.2143C86.1013 42.091 86.4039 41.7548 86.3815 41.553C86.3591 41.3513 86.0565 41.0039 85.81 40.847C85.5634 40.6901 85.3168 40.847 85.0591 40.847H62.6448C61.2999 40.847 60.9861 40.5332 60.9861 39.1883C60.9861 38.1573 60.9861 37.1262 60.9861 36.0952C60.9716 36.0433 60.9489 35.9941 60.9189 35.9495H59.0361V38.2133C59.0361 38.6504 59.0361 39.0763 59.0361 39.5133C59.0525 39.6745 59.0339 39.8373 58.9813 39.9905C58.9288 40.1437 58.8437 40.2838 58.7318 40.4009C58.62 40.5181 58.4841 40.6097 58.3335 40.6692C58.1828 40.7288 58.0211 40.7551 57.8593 40.7461C57.654 40.7574 57.4483 40.7574 57.243 40.7461H34.9407C34.6942 40.7461 34.3916 40.6677 34.2011 40.7461C33.9253 40.8974 33.7201 41.151 33.6295 41.4522C33.6295 41.6539 33.9097 41.9901 34.145 42.1134C34.4319 42.1991 34.7339 42.2221 35.0304 42.1806H57.243C57.5154 42.1639 57.7886 42.1639 58.0611 42.1806C58.3169 42.192 58.5589 42.3002 58.7378 42.4833C58.9168 42.6665 59.0194 42.9108 59.0249 43.1669C59.0249 43.4022 59.0249 43.6264 59.0249 43.8617V82.7617H60.9301V53.6231C60.9131 53.3694 60.9131 53.1148 60.9301 52.861C60.953 52.5863 61.0837 52.3319 61.2938 52.1533C61.5038 51.9748 61.776 51.8867 62.0508 51.9084C62.3075 51.9084 62.5538 52.0096 62.7363 52.19C62.9189 52.3705 63.0229 52.6156 63.0258 52.8723C63.0258 53.1412 63.0258 53.4214 63.0258 53.7016V82.7729H63.8103H70.12C70.6255 82.7246 71.1355 82.7884 71.6136 82.9598C72.0916 83.1312 72.526 83.406 72.8856 83.7646C73.2453 84.1232 73.5214 84.5567 73.6942 85.0343C73.867 85.5118 73.9324 86.0216 73.8856 86.5273V87.8722C74.5692 87.8722 75.208 87.8722 75.8356 87.973C76.6323 88.0385 77.3771 88.3942 77.9288 88.9727C78.4804 89.5512 78.8004 90.3122 78.8279 91.111C78.8279 92.0188 78.8279 92.9378 78.8279 93.8568C78.8279 94.7758 78.4469 95.1232 77.5167 95.1344H42.7185C41.4409 95.1344 41.1719 94.8542 41.1719 93.543C41.1719 92.8145 41.1719 92.0748 41.1719 91.3015C41.1502 90.4474 41.4624 89.6184 42.042 88.9907C42.6216 88.3629 43.4231 87.9858 44.2763 87.9394C44.8591 87.9394 45.453 87.9394 46.1255 87.9394V86.3368C46.1212 85.8729 46.2131 85.4131 46.3952 84.9864C46.5773 84.5597 46.8457 84.1753 47.1837 83.8574C47.5216 83.5394 47.9216 83.2949 48.3586 83.1391C48.7956 82.9834 49.2602 82.9197 49.723 82.9522C51.8523 82.9522 53.9929 82.9522 56.1222 82.9522H56.8955V44.4221H40.5891C40.7012 44.6798 40.7797 44.9152 40.8805 45.1393C43.9886 51.9607 47.0893 58.7896 50.1825 65.626C50.3506 65.9958 50.4963 66.2536 50.9894 66.3096C51.1953 66.3402 51.391 66.4193 51.5602 66.5405C51.7295 66.6617 51.8675 66.8214 51.9628 67.0065C52.058 67.1916 52.1079 67.3967 52.1082 67.6049C52.1084 67.813 52.0592 68.0183 51.9644 68.2036C51.3435 69.5818 50.6476 70.9249 49.8799 72.227C49.5194 72.8284 49.0004 73.319 48.3797 73.6452C47.759 73.9713 47.0606 74.1204 46.3608 74.0762C41.1308 74.0762 35.927 74.0762 30.7493 74.0762C29.9281 74.1047 29.1174 73.886 28.422 73.4484C27.7266 73.0108 27.1787 72.3745 26.8492 71.6218C26.3337 70.5683 25.7957 69.5373 25.2802 68.495C25.1241 68.2869 25.029 68.0394 25.0057 67.7803C24.9823 67.5212 25.0315 67.2607 25.1479 67.028C25.2642 66.7953 25.4431 66.5996 25.6644 66.4628C25.8857 66.326 26.1407 66.2536 26.4009 66.2536C26.5365 66.1935 26.6588 66.1071 26.7608 65.9993C26.8628 65.8916 26.9423 65.7647 26.9949 65.626C29.7742 59.5293 32.5461 53.4289 35.3106 47.3247C35.7364 46.3721 36.1735 45.4195 36.6442 44.3772C35.7701 44.3772 35.0192 44.3772 34.2683 44.3772C33.5889 44.3709 32.9352 44.117 32.4297 43.6631C31.9242 43.2092 31.6017 42.5864 31.5226 41.9117C31.4176 41.2606 31.5515 40.5935 31.8995 40.0333C32.2476 39.4732 32.7863 39.0576 33.4166 38.8633C33.9019 38.7307 34.4042 38.6702 34.9071 38.684H56.9404C56.9404 37.4848 56.9404 36.3529 56.9404 35.2098C56.8994 35.0366 56.7956 34.8848 56.649 34.7839C55.832 34.1165 55.22 33.232 54.8834 32.2321C54.5468 31.2323 54.4993 30.1578 54.7463 29.1321C54.9933 28.1065 55.5249 27.1714 56.2798 26.4345C57.0348 25.6975 57.9824 25.1887 59.0137 24.9665C59.0767 24.9435 59.1368 24.9134 59.193 24.8768L60.8292 24.8656ZM48.1764 66.2312L38.5831 45.0945L28.9785 66.2312H48.1764ZM91.0325 66.2312L81.428 45.0945C78.1891 52.2334 75.0287 59.2155 71.8347 66.2312H91.0325ZM71.7674 88.0851V87.054C71.7674 85.3281 71.4984 85.0592 69.7725 85.0592C63.4405 85.0592 57.1197 85.0592 50.7876 85.0592C48.1876 85.0592 48.1876 85.4626 48.2548 87.8161C48.2548 87.8834 48.2548 87.9506 48.3445 88.0963H49.0617C49.8014 88.0963 50.5299 88.0963 51.3032 88.1523C51.4253 88.1537 51.5459 88.1797 51.6578 88.2288C51.7696 88.2778 51.8704 88.349 51.9541 88.4379C52.0378 88.5268 52.1027 88.6318 52.1449 88.7464C52.1871 88.861 52.2058 88.983 52.1997 89.105C52.2231 89.347 52.154 89.589 52.0064 89.7823C51.8589 89.9756 51.6437 90.1059 51.404 90.1472C51.177 90.175 50.9474 90.175 50.7204 90.1472H44.691C44.0634 90.1472 43.503 90.3489 43.3685 90.999C43.275 91.7125 43.2263 92.4311 43.2228 93.1507H76.7658V91.8843C76.7658 90.5731 76.3511 90.1472 75.0511 90.1472H56.5481C56.2765 90.1813 56.0016 90.1813 55.73 90.1472C55.4964 90.0947 55.2886 89.9617 55.1432 89.7715C54.9978 89.5812 54.924 89.3458 54.9347 89.1066C54.9454 88.8674 55.0399 88.6396 55.2017 88.4631C55.3635 88.2865 55.5823 88.1726 55.8196 88.1411C56.0921 88.1245 56.3653 88.1245 56.6378 88.1411H71.7674V88.0851ZM27.5889 68.3605C28.0932 69.3243 28.5078 70.1761 28.9785 71.0054C29.1313 71.2921 29.3615 71.5301 29.6428 71.6926C29.9241 71.855 30.2453 71.9353 30.57 71.9244C35.9046 71.9244 41.2392 71.9244 46.5738 71.9244C46.8626 71.9025 47.144 71.8216 47.4004 71.6867C47.6567 71.5517 47.8827 71.3656 48.0643 71.1399C48.6379 70.2645 49.1437 69.3466 49.5773 68.3941L27.5889 68.3605ZM70.4562 68.3605C70.9157 69.2571 71.3079 70.0864 71.745 70.8821C71.8975 71.1942 72.1353 71.4567 72.4308 71.6392C72.7263 71.8217 73.0675 71.9167 73.4149 71.9132C78.7495 71.9132 84.0841 71.9132 89.4187 71.9132C89.6869 71.9008 89.95 71.8349 90.1925 71.7194C90.435 71.6039 90.652 71.4412 90.8308 71.2408C91.4297 70.3239 91.9687 69.3693 92.4446 68.3829L70.4562 68.3605ZM59.9887 33.8201C60.673 33.8222 61.3423 33.6201 61.9112 33.2399C62.48 32.8596 62.9226 32.3183 63.1822 31.6852C63.4419 31.0521 63.5069 30.356 63.3689 29.6858C63.231 29.0156 62.8963 28.4017 62.4077 27.9227C61.9191 27.4437 61.2987 27.1212 60.6259 26.9965C59.9531 26.8719 59.2584 26.9506 58.6306 27.2228C58.0028 27.495 57.4704 27.9481 57.1014 28.5244C56.7325 29.1007 56.5437 29.7739 56.5593 30.458C56.6014 31.3476 56.9782 32.1885 57.6142 32.8121C58.2502 33.4356 59.0984 33.7957 59.9887 33.8201Z" fill="#A29632"/>
</svg>
