<svg width="100" height="100" viewBox="0 0 100 100" fill="none" xmlns="http://www.w3.org/2000/svg">
<path d="M80.4019 69.3245H79.3019C62.0552 69.3245 44.8052 69.3245 27.5519 69.3245C26.1096 69.2465 24.6665 69.4625 23.3101 69.9593C21.9538 70.4561 20.7126 71.2234 19.6619 72.2145C19.6619 71.9145 19.5819 71.7045 19.5819 71.5045C19.5819 52.8378 19.5819 34.1478 19.5819 15.4345C19.5726 14.5253 19.7446 13.6234 20.0879 12.7815C20.4312 11.9395 20.939 11.1745 21.5814 10.5311C22.2239 9.88773 22.9882 9.3789 23.8296 9.03435C24.671 8.68981 25.5727 8.51647 26.4819 8.5245H76.1719C76.7353 8.5047 77.2967 8.60158 77.8208 8.80906C78.345 9.01653 78.8206 9.33013 79.2178 9.73015C79.615 10.1302 79.9252 10.608 80.129 11.1336C80.3328 11.6592 80.4257 12.2213 80.4019 12.7845V69.3245ZM36.8219 34.7145C36.7619 34.8645 36.6719 35.1045 36.5719 35.3345C35.1819 38.4645 33.7819 41.5745 32.4219 44.7145C32.1795 45.1989 32.0529 45.7329 32.0519 46.2745C32.2719 48.9245 33.3919 51.0645 35.9319 52.1345C37.1373 52.705 38.4788 52.925 39.8032 52.7694C41.1276 52.6138 42.3816 52.0888 43.4219 51.2545C44.4714 50.4233 45.2127 49.2651 45.528 47.9641C45.8433 46.663 45.7144 45.2939 45.1619 44.0745C44.0919 41.6845 43.0319 39.3045 41.9719 36.9145L40.9719 34.7045C42.1519 34.2345 43.2419 33.8245 44.3119 33.3545C47.0673 31.9638 50.2469 31.6673 53.2119 32.5245C55.1319 33.1445 57.0019 33.9445 58.9419 34.6845L58.6419 35.3845C57.2319 38.5645 55.8219 41.7345 54.4219 44.9245C54.2261 45.3367 54.1269 45.7882 54.1319 46.2445C54.3319 49.0045 55.4919 51.2445 58.1319 52.2445C59.4134 52.8215 60.839 52.9995 62.223 52.7551C63.607 52.5108 64.8855 51.8555 65.8919 50.8745C66.8159 50.0288 67.4446 48.9092 67.6858 47.68C67.9269 46.4508 67.7679 45.1767 67.2319 44.0445C65.9319 41.1245 64.6352 38.2112 63.3419 35.3045C63.2419 35.0745 63.1719 34.8445 63.1419 34.7545C64.1338 34.2474 65.0954 33.6831 66.0219 33.0645C66.1673 32.9669 66.2898 32.8388 66.3808 32.6892C66.4719 32.5396 66.5294 32.372 66.5494 32.198C66.5693 32.024 66.5513 31.8477 66.4965 31.6814C66.4417 31.515 66.3514 31.3626 66.2319 31.2345C66.1413 31.0846 66.0194 30.956 65.8746 30.8574C65.7298 30.7588 65.5655 30.6926 65.3928 30.6632C65.2201 30.6338 65.0432 30.6419 64.8739 30.687C64.7046 30.7321 64.5471 30.8131 64.4119 30.9245C63.5217 31.5705 62.4725 31.962 61.3768 32.0572C60.2811 32.1523 59.1801 31.9474 58.1919 31.4645C55.9919 30.5745 53.8619 29.4645 51.4619 29.3845C51.4019 29.2545 51.3619 29.2045 51.3619 29.1545V26.9045C51.3619 25.7345 50.8619 25.1245 49.9519 25.1245C49.0419 25.1245 48.6119 25.7445 48.6019 26.8745V29.1445C47.0219 29.5945 45.6019 29.9545 44.2319 30.4145C43.3019 30.7145 42.4419 31.1845 41.5219 31.5345C40.557 31.9715 39.4935 32.1453 38.4397 32.0381C37.3858 31.931 36.3791 31.5468 35.5219 30.9245C35.3462 30.7854 35.1371 30.6948 34.9155 30.6618C34.6938 30.6289 34.4674 30.6547 34.2588 30.7367C34.0503 30.8187 33.8669 30.954 33.727 31.1291C33.5872 31.3042 33.4958 31.513 33.4619 31.7345C33.4527 32.0074 33.5024 32.2791 33.6077 32.531C33.713 32.783 33.8713 33.0093 34.0719 33.1945C34.948 33.7714 35.8674 34.2796 36.8219 34.7145ZM48.5719 34.8445V55.5345C46.7019 55.5345 44.9119 55.5345 43.1319 55.5345C42.9441 55.516 42.7545 55.5376 42.5757 55.5981C42.3969 55.6585 42.233 55.7563 42.0949 55.8849C41.9568 56.0135 41.8476 56.1701 41.7747 56.3442C41.7018 56.5182 41.6667 56.7058 41.6719 56.8945C41.6498 57.0868 41.6712 57.2816 41.7346 57.4644C41.798 57.6473 41.9017 57.8136 42.0381 57.9509C42.1745 58.0883 42.34 58.1931 42.5224 58.2578C42.7048 58.3225 42.8995 58.3453 43.0919 58.3245C47.6919 58.3245 52.2952 58.3245 56.9019 58.3245C57.0832 58.3417 57.2661 58.32 57.4384 58.2608C57.6106 58.2017 57.7683 58.1065 57.9008 57.9815C58.0333 57.8566 58.1377 57.7048 58.2068 57.5363C58.276 57.3678 58.3084 57.1865 58.3019 57.0045C58.3198 56.8135 58.2959 56.6209 58.2319 56.4401C58.1678 56.2593 58.0651 56.0946 57.9308 55.9575C57.7966 55.8204 57.6342 55.7143 57.4547 55.6464C57.2753 55.5785 57.0832 55.5506 56.8919 55.5645C55.3619 55.5145 53.8919 55.5645 52.3119 55.5645H51.3119V34.8645L48.5719 34.8445Z" fill="#A29632"/>
<path d="M80.3919 72.1345C80.3919 75.5845 80.4519 78.9245 80.3919 82.2545C80.3128 83.2765 79.8444 84.2291 79.0833 84.9157C78.3222 85.6023 77.3266 85.9706 76.3019 85.9445H47.3019V80.4245H73.0019C74.2519 80.4245 74.8919 79.9345 74.8719 79.0145C74.8519 78.0945 74.2319 77.6545 73.0419 77.6545H26.8319C25.7219 77.6545 25.1119 78.1645 25.1119 79.0445C25.1119 79.9245 25.7319 80.4045 26.8419 80.4245H27.8419V85.8145C24.0719 86.8145 19.8419 83.5745 19.6119 79.5545C19.5386 78.5903 19.6688 77.6214 19.9941 76.7107C20.3193 75.8 20.8324 74.9679 21.5 74.2683C22.1675 73.5686 22.9747 73.0172 23.8691 72.6496C24.7636 72.282 25.7253 72.1065 26.6919 72.1345H80.3919Z" fill="#A29632"/>
<path d="M37.5418 86.5244C36.0618 88.0144 34.6518 89.4144 33.2718 90.8344C33.0773 91.1042 32.8012 91.3043 32.4843 91.4052C32.1674 91.506 31.8264 91.5022 31.5118 91.3944C31.2031 91.2671 30.9474 91.0378 30.7873 90.7449C30.6271 90.4519 30.5723 90.1129 30.6318 89.7844C30.6318 86.7044 30.6318 83.6344 30.6318 80.4844H44.4118C44.4118 80.7244 44.4118 80.9744 44.4118 81.2244C44.4118 84.0744 44.4118 86.9244 44.4118 89.7644C44.4707 90.0929 44.4168 90.4318 44.2589 90.7259C44.101 91.02 43.8482 91.252 43.5418 91.3844C43.2273 91.4939 42.8858 91.4985 42.5685 91.3975C42.2512 91.2965 41.9752 91.0954 41.7818 90.8244C40.4418 89.4144 39.0318 88.0144 37.5418 86.5244Z" fill="#A29632"/>
<path d="M38.8918 36.7844L42.2818 44.4144H35.5518L38.8918 36.7844Z" fill="#A29632"/>
<path d="M57.6418 44.4444L61.0318 36.8044L64.4218 44.4444H57.6418Z" fill="#A29632"/>
</svg>
