<svg width="60" height="60" viewBox="0 0 60 60" fill="none" xmlns="http://www.w3.org/2000/svg">
<path d="M54.604 29.5061V41.0362C54.4702 41.4525 54.1928 41.8078 53.8214 42.0388C53.45 42.2697 53.0086 42.3612 52.576 42.297C51.8772 42.2515 51.1708 42.297 50.4644 42.297C50.1263 42.293 49.7979 42.1832 49.5254 41.9829C49.253 41.7826 49.0501 41.502 48.9453 41.1805C48.8922 41.0362 48.8466 40.8919 48.8086 40.7551C47.6137 40.7242 46.4273 40.9631 45.3374 41.4539C45.491 41.8235 45.57 42.2197 45.57 42.6198C45.57 43.02 45.491 43.4162 45.3374 43.7858C45.1786 44.1637 44.9425 44.5042 44.6442 44.7854C44.346 45.0667 43.9922 45.2824 43.6056 45.4188C43.7783 45.8687 43.8358 46.3546 43.7731 46.8323C43.7103 47.3101 43.5293 47.7646 43.2464 48.1547C42.9634 48.5447 42.5876 48.858 42.1529 49.066C41.7183 49.274 41.2385 49.3701 40.7573 49.3457C40.4079 51.1991 39.8534 51.7383 37.9773 52.1941C37.7208 52.7537 37.4078 53.2856 37.0431 53.7815C36.6335 54.2109 36.0777 54.471 35.4856 54.5104C34.8935 54.5498 34.3082 54.3656 33.8453 53.9942C33.0858 53.4397 32.2806 52.8549 31.4679 52.2624C30.921 53.303 30.3589 54.2449 29.1892 54.6095H28.1866C27.7399 54.485 27.3328 54.2478 27.0042 53.9206C26.6757 53.5933 26.4368 53.1871 26.3105 52.741C25.5773 52.8705 24.8222 52.7198 24.1947 52.3189C23.5673 51.918 23.1134 51.296 22.9229 50.5762C22.8571 50.5724 22.7912 50.5724 22.7254 50.5762C22.0732 50.694 21.4004 50.58 20.8233 50.2541C20.2463 49.9281 19.8014 49.4106 19.5656 48.7912C19.4593 48.5254 19.3682 48.4267 19.0567 48.4722C18.3836 48.5538 17.7035 48.3919 17.1394 48.0158C16.5752 47.6396 16.1642 47.0741 15.9805 46.4214C15.8612 45.9865 15.8402 45.5305 15.919 45.0864C15.9978 44.6423 16.1745 44.2214 16.4363 43.8541C14.8315 42.7734 13.0218 42.034 11.1194 41.6818C11.0592 42.0857 10.8557 42.4545 10.5462 42.7209C10.2366 42.9872 9.84153 43.1334 9.43314 43.1325C8.62801 43.1325 7.83047 43.1325 7.02534 43.1325C6.80124 43.131 6.57982 43.0836 6.37476 42.9932C6.16969 42.9028 5.98532 42.7713 5.83302 42.6069C5.68071 42.4425 5.56371 42.2486 5.48921 42.0373C5.41472 41.8259 5.38432 41.6015 5.39989 41.378V30.9037C5.38386 30.6749 5.41595 30.4454 5.4941 30.2298C5.57225 30.0143 5.69471 29.8175 5.85359 29.6521C6.01247 29.4868 6.20424 29.3566 6.41653 29.27C6.62882 29.1833 6.85692 29.1422 7.08611 29.1491C7.84566 29.1491 8.65839 29.1491 9.44073 29.1491C9.83026 29.1375 10.2114 29.2637 10.517 29.5055C10.8227 29.7472 11.0333 30.089 11.1118 30.4707L11.2105 30.7897C12.9195 30.7897 14.5981 30.7897 16.2768 30.7897C16.9821 30.8092 17.6704 30.5716 18.2136 30.1213C20.4852 28.2178 23.4185 27.2919 26.3713 27.5464C26.4776 27.5464 26.584 27.5464 26.6979 27.5464C26.8118 27.5464 26.6979 27.3869 26.6979 27.3186V14.2542C26.7075 14.1273 26.6726 14.0011 26.5991 13.8972C25.8297 13.1651 25.3 12.217 25.08 11.178H15.9729C16.0016 11.2472 16.0372 11.3134 16.0793 11.3754C17.5984 13.8364 19.201 16.2974 20.7505 18.7583C20.8765 18.9569 20.9497 19.1844 20.9632 19.4192C20.9632 20.5205 20.9632 21.6295 20.9632 22.7308C20.9622 23.5338 20.6526 24.3057 20.0984 24.8868C19.5442 25.4678 18.7878 25.8136 17.9858 25.8526C15.6007 25.9286 13.2157 25.921 10.8307 25.8526C10.0773 25.8175 9.36294 25.5074 8.82268 24.9812C8.28241 24.4549 7.95374 23.7489 7.89883 22.9967C7.81528 21.789 7.85326 20.5661 7.89883 19.3508C7.91326 19.1609 7.97602 18.9779 8.08113 18.8191L12.76 11.4438C12.8056 11.3678 12.836 11.2767 12.8967 11.1704H12.6233H7.54184C7.10889 11.1704 6.67594 11.1704 6.243 11.1704C6.13106 11.1725 6.01985 11.1518 5.91611 11.1097C5.81237 11.0676 5.71825 11.0049 5.63944 10.9254C5.56063 10.8459 5.49877 10.7512 5.45759 10.6471C5.41642 10.543 5.39679 10.4316 5.39989 10.3197C5.3958 10.2114 5.4136 10.1034 5.45223 10.0022C5.49086 9.90099 5.54951 9.80861 5.62469 9.7306C5.69986 9.65259 5.79001 9.59056 5.88973 9.54821C5.98944 9.50586 6.09668 9.48406 6.20502 9.48414C6.37972 9.48414 6.55441 9.48414 6.72911 9.48414H24.6015C25.0041 9.48414 25.1712 9.3854 25.2775 8.97524C25.5636 7.94815 26.1769 7.04242 27.0243 6.39549C27.8718 5.74856 28.9072 5.39575 29.9733 5.3906C31.0395 5.38544 32.0782 5.72823 32.9319 6.36693C33.7856 7.00564 34.4076 7.9054 34.7036 8.92966C34.8327 9.41578 35.0454 9.49174 35.4632 9.49174C41.4409 9.49174 47.411 9.49174 53.3887 9.49174C53.6166 9.45966 53.8489 9.4917 54.0595 9.58428C54.2701 9.67685 54.4508 9.8263 54.5812 10.0158V10.5931C54.4688 10.7869 54.3031 10.9443 54.1038 11.0466C53.9046 11.1489 53.6801 11.1919 53.4571 11.1704C51.5202 11.1704 49.5834 11.1704 47.6465 11.1704H47.13C47.1492 11.2324 47.172 11.2933 47.1983 11.3527C48.7175 13.8136 50.3201 16.267 51.8696 18.7356C52.0097 18.9272 52.0962 19.1526 52.1203 19.3888C52.1203 20.5889 52.1658 21.7966 52.0747 22.9891C52.0318 23.7436 51.7092 24.4551 51.1699 24.9846C50.6306 25.5141 49.9132 25.8236 49.158 25.8526C46.7578 25.921 44.35 25.921 41.9498 25.8526C41.1564 25.8026 40.4117 25.4532 39.866 24.8751C39.3203 24.297 39.0145 23.5334 39.0103 22.7384C39.0103 21.6371 39.0103 20.5281 39.0103 19.4268C39.0093 19.2209 39.0645 19.0187 39.1698 18.8419C40.6889 16.4037 42.2536 13.9807 43.7955 11.5501C43.8639 11.4362 43.9246 11.3071 43.993 11.1704H34.8555C34.6573 12.1749 34.1687 13.0992 33.4503 13.8288C33.3458 13.9431 33.2864 14.0916 33.2832 14.2466C33.2832 18.4089 33.2832 22.5738 33.2832 26.7413C33.2936 26.8273 33.3236 26.9097 33.371 26.9822C33.4185 27.0547 33.482 27.1152 33.5567 27.159C35.2885 28.0477 37.0279 28.9288 38.7748 29.7871C39.0493 29.9125 39.3467 29.9797 39.6483 29.9846C42.565 29.9846 45.4741 29.9846 48.3908 29.9846H48.801C49.1048 28.7465 49.5606 28.3667 50.829 28.3591C51.3553 28.3857 51.8826 28.3857 52.4089 28.3591C52.8505 28.2755 53.3073 28.3433 53.7057 28.5514C54.104 28.7595 54.4205 29.0958 54.604 29.5061ZM31.7186 33.5089C30.2906 34.8306 28.9158 36.1218 27.5182 37.3979C26.9607 37.9009 26.2307 38.1695 25.4801 38.1479C24.7295 38.1262 24.0162 37.8158 23.4886 37.2814C22.9611 36.7471 22.66 36.0298 22.648 35.279C22.636 34.5282 22.914 33.8017 23.4242 33.2507L25.2775 31.2986L27.1156 29.3542C27.0701 29.301 27.0473 29.2706 27.0245 29.263H26.8802C25.4889 29.0964 24.0783 29.2167 22.7353 29.6164C21.3924 30.0162 20.1456 30.6869 19.0719 31.5873C18.3721 32.1859 17.4786 32.5098 16.5578 32.4987H11.1801V39.9424C13.3691 40.359 15.4561 41.1974 17.3249 42.411C17.8794 41.2716 18.6086 40.3222 19.953 40.1855C20.5616 40.1103 21.1782 40.232 21.7127 40.5327C22.2471 40.8334 22.6712 41.2973 22.9229 41.8565C25.2016 41.1577 26.3561 41.8565 27.1536 44.3858H27.3283C28.0011 44.3954 28.6495 44.6397 29.1612 45.0766C29.673 45.5135 30.0161 46.1154 30.1311 46.7784C30.1648 46.854 30.2163 46.9204 30.281 46.9719C30.3458 47.0235 30.422 47.0587 30.5033 47.0746C31.0118 47.1222 31.4913 47.3327 31.8704 47.6749C32.2495 48.0171 32.508 48.4726 32.6072 48.9735C32.6579 49.6222 32.635 50.2745 32.5389 50.918L34.8176 52.5738C34.9049 52.6511 35.0075 52.7091 35.1187 52.7443C35.2299 52.7795 35.3472 52.791 35.4631 52.7782C35.579 52.7653 35.6909 52.7283 35.7917 52.6696C35.8924 52.6108 35.9797 52.5316 36.048 52.4371C36.1539 52.2546 36.1853 52.0383 36.1358 51.8332C36.0863 51.6281 35.9596 51.4499 35.7822 51.3358C35.3872 51.0395 34.9695 50.7661 34.5821 50.4623C34.4048 50.3286 34.2659 50.1504 34.1795 49.9458C34.1191 49.7865 34.1139 49.6115 34.1649 49.449C34.2159 49.2864 34.32 49.1457 34.4606 49.0495C34.5976 48.9338 34.7711 48.8704 34.9505 48.8704C35.1298 48.8704 35.3034 48.9338 35.4404 49.0495C36.0252 49.4673 36.5949 49.9078 37.195 50.3028C37.3665 50.4301 37.5688 50.5097 37.7812 50.5333C37.9935 50.557 38.2083 50.5239 38.4037 50.4374C38.5991 50.3509 38.768 50.2141 38.8933 50.041C39.0185 49.8679 39.0956 49.6647 39.1166 49.4521C39.1427 49.2201 39.1023 48.9856 39 48.7758C38.8978 48.566 38.7381 48.3896 38.5394 48.2672C37.6811 47.6443 36.8304 47.0291 35.9797 46.3986C35.4708 46.0189 35.3568 45.5252 35.6683 45.1226C35.7445 45.0297 35.8393 44.9537 35.9466 44.8994C36.0538 44.8451 36.1712 44.8137 36.2912 44.8073C36.4113 44.8009 36.5313 44.8195 36.6438 44.862C36.7562 44.9045 36.8586 44.97 36.9443 45.0542L37.2178 45.2517L40.1952 47.4392C40.3808 47.595 40.6091 47.6914 40.8502 47.7158C41.0913 47.7402 41.3342 47.6915 41.5472 47.576C41.7442 47.481 41.9101 47.3321 42.0258 47.1466C42.1414 46.961 42.202 46.7464 42.2005 46.5278C42.1829 46.2484 42.0932 45.9784 41.9401 45.7441C41.787 45.5098 41.5758 45.3192 41.327 45.1909C40.4155 44.5377 39.4964 43.8921 38.6002 43.2313C38.498 43.1763 38.4098 43.0988 38.3424 43.0045C38.2749 42.9102 38.2299 42.8017 38.2108 42.6873C38.1917 42.5729 38.1991 42.4557 38.2324 42.3446C38.2656 42.2335 38.3239 42.1315 38.4027 42.0464C38.5352 41.873 38.7309 41.7589 38.9471 41.7291C39.1633 41.6992 39.3826 41.7559 39.5572 41.8869C39.6559 41.9476 39.7395 42.016 39.8306 42.0844C40.5902 42.6161 41.2662 43.1629 42.003 43.6642C42.166 43.7912 42.3587 43.8744 42.5629 43.9061C42.7671 43.9379 42.976 43.917 43.1698 43.8455C43.3637 43.7741 43.5362 43.6544 43.6709 43.4977C43.8056 43.3411 43.8982 43.1526 43.9398 42.9503C43.9895 42.6903 43.956 42.4212 43.8443 42.1813C43.7325 41.9413 43.548 41.7427 43.317 41.6134L36.7392 37.0561L31.7186 33.5089ZM48.8238 31.6252H48.2389C45.3602 31.6252 42.4739 31.6252 39.5952 31.6252C39.0685 31.6079 38.5511 31.4812 38.0761 31.2531C36.3822 30.4935 34.7264 29.582 33.0554 28.7541C32.4732 28.4186 31.7917 28.2979 31.1297 28.4131C30.4676 28.5283 29.867 28.8721 29.4323 29.3846C28.4195 30.4327 27.4068 31.4885 26.3941 32.5519C25.8016 33.1747 25.1864 33.79 24.6167 34.4356C24.4671 34.5937 24.3613 34.788 24.3096 34.9994C24.258 35.2108 24.2623 35.432 24.322 35.6412C24.3818 35.8505 24.4951 36.0405 24.6506 36.1927C24.8062 36.3449 24.9987 36.454 25.2091 36.5092C25.4448 36.5673 25.6918 36.5598 25.9234 36.4875C26.155 36.4152 26.3625 36.2808 26.5232 36.099C27.7916 34.9065 29.0753 33.7216 30.321 32.5367C31.24 31.686 31.8857 31.6404 32.9263 32.362C36.4709 34.8483 40.0382 37.3371 43.6284 39.8285C43.7505 39.9356 43.9018 40.0037 44.0629 40.024C44.224 40.0443 44.3875 40.0159 44.5323 39.9424C45.1845 39.6803 45.8579 39.4745 46.5451 39.3272C47.3047 39.1677 48.0642 39.0917 48.8238 38.9778V31.6252ZM28.3613 14.9606V15.5226C28.3613 19.3964 28.3613 23.2701 28.3613 27.1439C28.3751 27.3416 28.4081 27.5374 28.4601 27.7287L28.9993 27.5084C29.5538 27.273 30.1007 27.0147 30.6704 26.8097C30.9743 26.734 31.2845 26.6857 31.597 26.6653V14.9606C30.5453 15.3008 29.4131 15.3008 28.3613 14.9606ZM9.53948 20.1939C9.53948 20.3078 9.53948 20.3762 9.53948 20.437C9.53948 21.1965 9.53948 21.9105 9.53948 22.6473C9.5364 22.8556 9.57517 23.0624 9.65348 23.2555C9.73179 23.4486 9.84805 23.6239 9.99537 23.7713C10.1427 23.9186 10.3181 24.0348 10.5111 24.1132C10.7042 24.1915 10.911 24.2302 11.1194 24.2272C13.3297 24.2272 15.5324 24.2272 17.7427 24.2272C18.1397 24.2325 18.524 24.0875 18.8184 23.8212C19.1129 23.5549 19.2957 23.1871 19.3302 22.7916C19.3833 21.9333 19.3302 21.075 19.3302 20.1863L9.53948 20.1939ZM50.472 20.1939H40.6661V20.7028C40.6661 21.3712 40.6661 22.0472 40.6661 22.7156C40.6812 23.1137 40.8461 23.4914 41.1278 23.7731C41.4095 24.0548 41.7872 24.2197 42.1853 24.2348C44.4639 24.2348 46.6894 24.2348 48.9453 24.2348C49.3232 24.2367 49.6883 24.0976 49.9692 23.8448C50.2501 23.592 50.4267 23.2436 50.4644 22.8676C50.51 21.9789 50.472 21.0978 50.472 20.1939ZM29.964 13.5554C30.3941 13.5624 30.8213 13.484 31.2209 13.3248C31.6204 13.1655 31.9844 12.9285 32.2918 12.6275C32.5991 12.3266 32.8436 11.9676 33.0112 11.5714C33.1788 11.1753 33.2661 10.7498 33.2681 10.3197C33.2894 9.87699 33.2206 9.43459 33.0659 9.01929C32.9112 8.60398 32.6738 8.22442 32.3681 7.90358C32.0624 7.58275 31.6947 7.32734 31.2873 7.15282C30.8799 6.97831 30.4413 6.88832 29.9982 6.88832C29.555 6.88832 29.1164 6.97831 28.709 7.15282C28.3017 7.32734 27.934 7.58275 27.6282 7.90358C27.3225 8.22442 27.0851 8.60398 26.9304 9.01929C26.7757 9.43459 26.7069 9.87699 26.7283 10.3197C26.7293 10.7466 26.8143 11.1691 26.9786 11.5632C27.1429 11.9572 27.3832 12.315 27.6858 12.6162C27.9884 12.9173 28.3473 13.156 28.7421 13.3184C29.1369 13.4809 29.5599 13.564 29.9868 13.563L29.964 13.5554ZM18.5706 18.4469L14.4158 11.8388L10.2459 18.4393L18.5706 18.4469ZM45.5805 11.8388L41.4181 18.4241H49.7732L45.5805 11.8388ZM52.933 40.6184V29.9846H50.548V40.6184H52.933ZM7.06332 30.8277V41.4615H9.45592V30.8277H7.06332ZM22.2545 49.0571C22.5659 48.8672 23.014 48.7457 23.1659 48.4722C23.9255 47.3405 24.6167 46.1936 25.2851 44.9935C25.4269 44.7207 25.4587 44.4039 25.3738 44.1084C25.2889 43.8129 25.0938 43.5613 24.8288 43.4054C24.5638 43.2495 24.2491 43.2013 23.9496 43.2706C23.6501 43.34 23.3886 43.5217 23.2191 43.7782C22.4975 44.9099 21.7911 46.0568 21.1455 47.2266C21.0564 47.4201 21.0166 47.6327 21.0296 47.8454C21.0426 48.0581 21.1081 48.2643 21.2202 48.4455C21.3322 48.6268 21.4874 48.7775 21.6718 48.8842C21.8563 48.9909 22.0643 49.0503 22.2773 49.0571H22.2545ZM18.7529 46.9227C19.0567 46.7404 19.4669 46.6341 19.6416 46.3683C20.2644 45.4568 20.8341 44.5149 21.3658 43.5503C21.4926 43.2835 21.5138 42.9785 21.425 42.6967C21.3362 42.4149 21.1441 42.1772 20.8873 42.0312C20.6432 41.8829 20.3528 41.8303 20.0723 41.8836C19.7917 41.9369 19.5408 42.0923 19.3682 42.3198C18.7406 43.2456 18.1625 44.204 17.6364 45.1909C17.5656 45.3801 17.5405 45.5834 17.5631 45.7841C17.5856 45.9848 17.6553 46.1774 17.7663 46.3462C17.8773 46.5149 18.0266 46.6551 18.202 46.7553C18.3774 46.8554 18.5739 46.9128 18.7757 46.9227H18.7529ZM25.8092 51.1687C26.1054 50.9864 26.5004 50.8648 26.6827 50.599C27.2903 49.6951 27.8448 48.7609 28.3689 47.819C28.4982 47.5502 28.5228 47.2429 28.4378 46.957C28.3528 46.6711 28.1644 46.427 27.9093 46.2724C27.6542 46.1179 27.3507 46.0638 27.0579 46.1209C26.7652 46.1779 26.5041 46.3419 26.3257 46.5809C25.7332 47.4848 25.1484 48.4115 24.6471 49.3685C24.5587 49.5645 24.5214 49.7797 24.5384 49.994C24.5555 50.2083 24.6264 50.4148 24.7446 50.5944C24.8628 50.774 25.0244 50.9208 25.2145 51.0212C25.4046 51.1216 25.617 51.1723 25.832 51.1687H25.8092ZM28.8019 52.9612C28.9082 52.8929 29.1816 52.8017 29.3032 52.6118C29.8728 51.7307 30.4197 50.8269 30.9362 49.9154C31.0282 49.7432 31.0503 49.5421 30.998 49.354C30.9457 49.1659 30.8229 49.0052 30.6552 48.9052C30.5733 48.8457 30.4803 48.8032 30.3818 48.7801C30.2833 48.7571 30.1811 48.7539 30.0813 48.7709C29.9816 48.7879 29.8862 48.8247 29.8008 48.879C29.7154 48.9334 29.6418 49.0042 29.5842 49.0875C29.0145 49.9913 28.4525 50.9028 27.936 51.8447C27.6853 52.346 28.1107 52.9536 28.8246 52.9612H28.8019Z" fill="#A29632"/>
</svg>
