<svg width="100" height="101" viewBox="0 0 100 101" fill="none" xmlns="http://www.w3.org/2000/svg">
<path d="M21.5872 13.7759H78.3572C78.8669 13.9459 79.3009 14.289 79.5841 14.7457C79.8672 15.2024 79.9815 15.7437 79.9072 16.2759C79.9072 35.5292 79.9072 54.7725 79.9072 74.0059C79.9072 74.2459 79.9072 74.4859 79.9072 74.7259C79.8852 75.1226 79.7332 75.5011 79.4748 75.8029C79.2164 76.1047 78.8658 76.3131 78.4772 76.3959C78.0563 76.4841 77.6272 76.5277 77.1972 76.5259C59.8638 76.5259 42.5305 76.5259 25.1972 76.5259C23.832 76.4985 22.4814 76.8112 21.2672 77.4359C20.9072 77.6359 20.5572 77.8659 20.0972 78.1459V77.2559C20.0972 56.9092 20.0972 36.5759 20.0972 16.2559C20.0163 15.7335 20.1211 15.1993 20.3933 14.7462C20.6655 14.2931 21.088 13.9498 21.5872 13.7759ZM63.5872 27.0759C63.4772 27.3959 63.4072 27.6159 63.3272 27.8359C61.8872 31.7059 60.4572 35.5759 58.9872 39.4359C58.7091 40.0245 58.3952 40.5956 58.0472 41.1459C57.9091 41.3916 57.8272 41.6648 57.8072 41.9459C57.7587 43.1618 58.072 44.3648 58.7075 45.4026C59.343 46.4404 60.2721 47.2663 61.3772 47.7759C62.4275 48.3003 63.5727 48.6078 64.7444 48.68C65.9162 48.7521 67.0904 48.5875 68.1972 48.1959C69.5058 47.7869 70.6507 46.9729 71.4666 45.8711C72.2826 44.7694 72.7275 43.4369 72.7372 42.0659C72.6993 41.7143 72.5905 41.3741 72.4172 41.0659C72.2472 40.7159 71.9372 40.4259 71.7972 40.0659C71.2772 38.7659 70.7972 37.4359 70.3172 36.0659C69.0238 32.5992 67.7372 29.1325 66.4572 25.6659C66.3935 25.3819 66.235 25.1281 66.0078 24.9464C65.7805 24.7646 65.4982 24.6657 65.2072 24.6659C61.5738 24.6659 57.9438 24.6859 54.3172 24.7259C53.9572 24.7259 53.7072 24.7259 53.5572 24.2759C53.3338 23.4878 52.8552 22.7962 52.1965 22.3094C51.5377 21.8226 50.7361 21.5681 49.9172 21.5859C49.1108 21.5887 48.3264 21.8494 47.6788 22.3298C47.0311 22.8101 46.554 23.485 46.3172 24.2559C46.2652 24.3701 46.1861 24.4699 46.0868 24.5466C45.9874 24.6233 45.8708 24.6745 45.7472 24.6959C42.1872 24.6959 38.6272 24.6959 35.0672 24.6959C34.0172 24.6959 33.7772 24.7859 33.4172 25.7559C31.7072 30.3459 30.0072 34.9359 28.2772 39.5059C28.0151 40.0526 27.7213 40.5835 27.3972 41.0959C27.2601 41.3413 27.1814 41.6151 27.1672 41.8959C27.138 43.0865 27.4502 44.2606 28.0669 45.2794C28.6835 46.2983 29.5789 47.1195 30.6472 47.6459C31.7028 48.1839 32.8556 48.5046 34.0375 48.5887C35.2193 48.6729 36.406 48.5189 37.5272 48.1359C38.8437 47.7407 39.998 46.9322 40.8192 45.83C41.6405 44.7277 42.0851 43.3904 42.0872 42.0159C42.04 41.6278 41.9141 41.2535 41.7172 40.9159C41.5772 40.6259 41.2972 40.4059 41.1872 40.1159C39.6272 35.9759 38.0972 31.8459 36.5572 27.7059C36.4772 27.4959 36.4272 27.2859 36.3572 27.0759C36.428 27.0454 36.5017 27.022 36.5772 27.0059C39.7472 27.0059 42.9272 27.0059 46.1072 27.0059C46.3272 27.0059 46.5672 27.2459 46.7672 27.4159C47.2114 27.9051 47.7076 28.3444 48.2472 28.7259C48.4388 28.8061 48.598 28.9481 48.6995 29.1294C48.801 29.3106 48.8389 29.5206 48.8072 29.7259C48.8072 35.4992 48.8072 41.2659 48.8072 47.0259C48.8072 47.2859 48.8072 47.5359 48.8072 47.8359H47.8872C47.0829 47.8052 46.2881 48.0178 45.6065 48.446C44.925 48.8741 44.3885 49.498 44.0672 50.2359C43.8893 50.6935 43.5661 51.0799 43.1472 51.3359C43 51.4597 42.8798 51.6122 42.7938 51.7842C42.7078 51.9562 42.6579 52.1439 42.6472 52.3359C42.5772 53.3359 42.6472 54.3959 42.6472 55.4259C42.6299 55.607 42.6531 55.7897 42.715 55.9608C42.7769 56.1319 42.876 56.2871 43.0051 56.4153C43.1343 56.5434 43.2902 56.6414 43.4618 56.702C43.6333 56.7626 43.8162 56.7844 43.9972 56.7659H55.8872C56.068 56.7858 56.2511 56.7654 56.4231 56.706C56.5951 56.6467 56.7518 56.5499 56.8819 56.4227C57.0119 56.2954 57.1122 56.1409 57.1754 55.9703C57.2385 55.7997 57.2631 55.6171 57.2472 55.4359C57.3122 54.4102 57.3122 53.3815 57.2472 52.3559C57.1228 51.9184 56.9005 51.5149 56.5972 51.1759C56.4272 50.9159 56.1172 50.7459 55.9872 50.4759C55.6862 49.6673 55.1373 48.9745 54.4188 48.4968C53.7004 48.019 52.8492 47.7807 51.9872 47.8159H51.1872C51.1596 47.6973 51.1396 47.577 51.1272 47.4559C51.1272 41.4559 51.1272 35.4559 51.1272 29.4559C51.1272 29.2359 51.3572 28.9959 51.5372 28.8259C52.08 28.4107 52.5945 27.9597 53.0772 27.4759C53.1866 27.3141 53.3365 27.1837 53.512 27.0978C53.6874 27.0118 53.8822 26.9733 54.0772 26.9859H63.5872V27.0759ZM49.9472 68.0759H29.6972C28.8372 68.0759 28.3372 68.5059 28.3172 69.1959C28.2972 69.8859 28.8272 70.3259 29.6672 70.3759H69.8872C70.1488 70.3781 70.4101 70.3547 70.6672 70.3059C70.8074 70.2956 70.9439 70.2558 71.0678 70.1892C71.1916 70.1226 71.3 70.0306 71.3859 69.9192C71.4717 69.8079 71.5332 69.6797 71.5661 69.543C71.5991 69.4063 71.6029 69.2641 71.5772 69.1259C71.5617 68.8518 71.4405 68.5944 71.239 68.4079C71.0376 68.2214 70.7716 68.1203 70.4972 68.1259C70.2572 68.1259 70.0172 68.1259 69.7872 68.1259L49.9472 68.0759ZM63.6472 63.6559C64.4672 63.6559 64.9572 63.2359 64.9872 62.5659C65.0172 61.8959 64.5172 61.4459 63.7372 61.3759C63.594 61.366 63.4503 61.366 63.3072 61.3759H36.6572C35.5172 61.3759 34.9372 61.7859 34.9572 62.5659C34.9772 63.3459 35.5172 63.6659 36.6372 63.6659L63.6472 63.6559Z" fill="#A29632"/>
<path d="M23.7371 87.3157C23.1474 87.0816 22.5759 86.8042 22.0271 86.4857C21.3027 86.0296 20.7436 85.3531 20.4322 84.5557C20.1208 83.7583 20.0735 82.8821 20.2971 82.0557C20.5463 81.1918 21.0514 80.4236 21.7458 79.8524C22.4402 79.2811 23.2913 78.9336 24.1871 78.8557C24.5771 78.8557 24.9571 78.8557 25.3371 78.8557H75.7171C75.7171 81.2057 75.7171 83.4757 75.7171 85.7457C75.7171 86.5857 75.0271 86.9857 74.3471 87.3357L23.7371 87.3157Z" fill="#A29632"/>
<path d="M38.8872 40.7258H30.3572L34.5472 29.4858H34.7072L38.8872 40.7258Z" fill="#A29632"/>
<path d="M61.0271 40.7058L65.3071 29.2158L69.5871 40.7058H61.0271Z" fill="#A29632"/>
<path d="M29.6472 43.1057H39.6472C39.3903 44.0461 38.8311 44.8759 38.0557 45.4669C37.2804 46.0579 36.3321 46.3772 35.3572 46.3757C32.3672 46.5357 30.2972 45.3657 29.6472 43.1057Z" fill="#A29632"/>
<path d="M70.2871 43.1057C69.6471 45.3857 67.6071 46.5357 64.6271 46.3757C62.5171 46.2557 60.6271 44.8357 60.3171 43.1057H70.2871Z" fill="#A29632"/>
<path d="M54.9573 53.5959V54.4859H44.9573V53.5759L54.9573 53.5959Z" fill="#A29632"/>
<path d="M49.9473 23.9757C50.1475 23.9688 50.3469 24.003 50.5333 24.0765C50.7196 24.1499 50.8889 24.2608 51.0305 24.4025C51.1722 24.5441 51.2831 24.7134 51.3566 24.8997C51.43 25.0861 51.4643 25.2856 51.4573 25.4857C51.4612 25.6827 51.4263 25.8786 51.3546 26.0621C51.2828 26.2455 51.1757 26.4131 51.0392 26.5552C50.9026 26.6973 50.7395 26.8111 50.559 26.8901C50.3785 26.9691 50.1843 27.0118 49.9873 27.0157C49.5894 27.0237 49.2048 26.8733 48.9178 26.5976C48.6309 26.3219 48.4652 25.9436 48.4573 25.5457C48.4434 25.3428 48.4718 25.1391 48.5407 24.9477C48.6096 24.7562 48.7175 24.5812 48.8576 24.4336C48.9977 24.2861 49.1668 24.1692 49.3544 24.0903C49.542 24.0115 49.7438 23.9725 49.9473 23.9757Z" fill="#A29632"/>
<path d="M46.3372 51.1759C46.4783 50.8658 46.7089 50.6049 46.9993 50.4268C47.2897 50.2486 47.6268 50.1612 47.9672 50.1759H51.9672C52.7872 50.1759 53.0372 50.3459 53.5872 51.1759H46.3372Z" fill="#A29632"/>
</svg>
