<svg width="100" height="101" viewBox="0 0 100 101" fill="none" xmlns="http://www.w3.org/2000/svg">
<path d="M59.7819 86.4204C59.4219 84.8304 59.0719 83.2504 58.6919 81.6804C58.5239 80.8516 58.0664 80.1097 57.4012 79.5875C56.7361 79.0653 55.9068 78.7969 55.0619 78.8304H41.2819C40.425 78.7944 39.5839 79.069 38.9133 79.6037C38.2427 80.1383 37.7877 80.8971 37.6319 81.7404C37.2519 83.2904 36.9119 84.8404 36.5419 86.4704H18.6619C17.1019 86.4704 16.6619 86.0204 16.6619 84.4704C16.6619 63.8704 16.6619 43.2671 16.6619 22.6604C16.6619 21.1804 17.1519 20.6604 18.6019 20.6604L50.3319 20.8204C50.5319 20.8204 50.7319 20.8204 51.0419 20.8704V21.6904C51.0419 24.8604 51.0419 28.0304 51.0419 31.2104C51.0787 31.4955 51.1527 31.7745 51.2619 32.0404C51.5431 31.981 51.8178 31.8939 52.0819 31.7804C53.2119 31.0904 54.3319 30.4004 55.4219 29.6704C55.5858 29.5328 55.7929 29.4575 56.0069 29.4575C56.2208 29.4575 56.428 29.5328 56.5919 29.6704C57.5219 30.3304 58.4719 30.9704 59.4319 31.5804C59.7307 31.7257 60.0465 31.8332 60.3719 31.9004C60.4827 31.6074 60.5566 31.3017 60.5919 30.9904C60.5919 27.9404 60.5919 24.9004 60.5919 21.8504V20.9504C60.8171 20.9168 61.0442 20.8968 61.2719 20.8904C62.7385 20.8904 64.2085 20.8904 65.6819 20.8904C65.911 20.855 66.1453 20.8739 66.3658 20.9456C66.5863 21.0174 66.7869 21.1399 66.9513 21.3034C67.1158 21.4669 67.2395 21.6667 67.3126 21.8868C67.3856 22.1069 67.4059 22.341 67.3719 22.5704C67.3719 23.5704 67.3719 24.5704 67.3719 25.5704V50.6504L67.1119 50.8004C66.3719 50.0104 65.6519 49.2104 64.9019 48.4304C64.3119 47.8104 63.7019 47.1904 63.0719 46.6004C62.7329 46.2545 62.3284 45.9797 61.882 45.7921C61.4355 45.6045 60.9561 45.5079 60.4719 45.5079C59.9876 45.5079 59.5082 45.6045 59.0618 45.7921C58.6153 45.9797 58.2108 46.2545 57.8719 46.6004C57.2619 47.1704 56.6719 47.7704 56.0919 48.3704C55.6014 48.8544 55.2535 49.4639 55.0859 50.1323C54.9184 50.8007 54.9377 51.5023 55.1419 52.1604C55.2173 52.5032 55.1564 52.8618 54.9719 53.1604C53.0942 55.7232 50.8346 57.9828 48.2719 59.8604C48.1355 59.948 47.9829 60.0073 47.8231 60.0348C47.6634 60.0623 47.4997 60.0574 47.3419 60.0204C46.686 59.8082 45.9844 59.7808 45.314 59.9414C44.6436 60.1019 44.0304 60.4441 43.5419 60.9304C42.9019 61.5404 42.2619 62.1704 41.6719 62.8204C41.3396 63.145 41.0747 63.5321 40.8923 63.9593C40.7099 64.3865 40.6136 64.8455 40.609 65.31C40.6043 65.7745 40.6914 66.2354 40.8652 66.6662C41.039 67.0969 41.2962 67.4892 41.6219 67.8204C44.5752 70.8737 47.5752 73.8737 50.6219 76.8204C51.297 77.4661 52.1979 77.8223 53.132 77.813C54.0662 77.8036 54.9597 77.4295 55.6219 76.7704C56.1619 76.2704 56.6219 75.7704 57.1919 75.2204C57.8145 74.7069 58.2569 74.0081 58.4548 73.2257C58.6526 72.4433 58.5955 71.6181 58.2919 70.8704C58.2575 70.6824 58.2408 70.4915 58.2419 70.3004L58.9019 70.9304C61.5919 73.7604 64.3019 76.5804 66.9719 79.4304C67.2255 79.7037 67.3742 80.0579 67.3919 80.4304C67.3919 81.8304 67.3919 83.2204 67.3919 84.6204C67.3919 86.0204 66.8619 86.4104 65.5719 86.4104C63.7519 86.4104 61.9219 86.4104 60.0919 86.4104L59.7819 86.4204ZM42.0719 39.8904H27.7019C27.4719 39.8904 27.2419 39.8904 27.0219 39.8904C26.714 39.898 26.4208 40.0237 26.203 40.2415C25.9852 40.4593 25.8595 40.7525 25.8519 41.0604C25.8505 41.2127 25.8792 41.3638 25.9363 41.5051C25.9934 41.6463 26.0778 41.7749 26.1845 41.8836C26.2913 41.9922 26.4185 42.0788 26.5587 42.1383C26.6989 42.1978 26.8495 42.2291 27.0019 42.2304C27.2049 42.2454 27.4088 42.2454 27.6119 42.2304H56.4319C56.708 42.2556 56.9858 42.2556 57.2619 42.2304C57.5183 42.1969 57.7542 42.0725 57.9267 41.8799C58.0992 41.6872 58.1969 41.439 58.2019 41.1804C58.2369 40.925 58.1768 40.6657 58.033 40.4517C57.8891 40.2378 57.6716 40.0843 57.4219 40.0204C57.1278 39.9466 56.825 39.913 56.5219 39.9204L42.0719 39.8904ZM27.5419 48.7504C27.2629 48.7418 26.984 48.7686 26.7119 48.8304C26.4661 48.8928 26.2481 49.0353 26.0924 49.2354C25.9367 49.4355 25.8522 49.6818 25.8522 49.9354C25.8522 50.189 25.9367 50.4353 26.0924 50.6354C26.2481 50.8355 26.4661 50.9781 26.7119 51.0404C26.9806 51.1021 27.2562 51.129 27.5319 51.1204C34.7119 51.1204 41.8852 51.1204 49.0519 51.1204C49.3819 51.1204 49.8019 51.1704 50.0519 50.9904C50.411 50.7208 50.6598 50.3299 50.7519 49.8904C50.7519 49.5504 50.3719 49.1204 50.0419 48.8904C49.7292 48.7475 49.3807 48.7022 49.0419 48.7604L27.5419 48.7504ZM33.1719 59.9804H39.0319C39.9419 59.9804 40.4819 59.5104 40.4919 58.7904C40.5019 58.0704 39.9719 57.6304 39.0319 57.6004C38.9319 57.6004 38.8319 57.6004 38.7219 57.6004C35.0352 57.6004 31.3385 57.6004 27.6319 57.6004C27.3219 57.6004 26.9419 57.5404 26.7419 57.6904C26.3919 57.9604 25.9519 58.3504 25.9219 58.6904C25.8919 59.0304 26.2819 59.5104 26.6019 59.8104C26.9219 60.1104 27.1719 59.9504 27.4719 59.9604L33.1719 59.9804ZM27.3219 75.3304C26.3219 75.3304 25.8619 75.7404 25.8619 76.4804C25.8619 77.2204 26.3919 77.6504 27.3219 77.6604H39.0219C39.9519 77.6604 40.4819 77.2204 40.4919 76.4904C40.5019 75.7604 39.9819 75.3304 39.0319 75.3304H27.3219ZM27.3019 66.4704C26.7019 66.4704 26.1819 66.5904 25.9419 67.2104C25.6219 68.0704 26.2319 68.8204 27.2719 68.8204H38.9719C39.9719 68.8204 40.4919 68.3704 40.4719 67.6104C40.4519 66.8504 39.9619 66.4804 38.9919 66.4704C37.0419 66.4204 35.0919 66.4704 33.1719 66.4704H27.3019ZM33.1719 33.4204C35.1219 33.4204 37.0719 33.4204 39.0219 33.4204C40.0219 33.4204 40.4819 33.0004 40.4819 32.2604C40.4819 31.5204 39.9319 31.0904 39.0219 31.0804H27.3119C26.3919 31.0804 25.8519 31.5304 25.8519 32.2604C25.8519 32.9904 26.3619 33.4204 27.3119 33.4204C29.2619 33.4204 31.1719 33.4204 33.1719 33.4204Z" fill="#A29632"/>
<path d="M75.3818 72.7705C73.4718 70.9505 71.7218 69.3005 70.0018 67.6205C69.8604 67.4195 69.7932 67.1756 69.8118 66.9305C69.8118 65.6905 69.8118 64.4405 69.8118 63.2005C69.836 62.8874 69.9585 62.5899 70.1618 62.3505C70.6518 61.8005 71.1618 61.3005 71.7118 60.7805C72.0873 60.4349 72.387 60.0152 72.592 59.5479C72.797 59.0806 72.9028 58.5758 72.9028 58.0655C72.9028 57.5552 72.797 57.0505 72.592 56.5832C72.387 56.1158 72.0873 55.6961 71.7118 55.3505L71.6518 55.2905C70.0618 54.1905 69.7418 52.6805 69.7618 50.7805C69.8618 41.5005 69.7618 32.2105 69.8418 22.9205C69.8647 22.3358 69.7657 21.7527 69.5511 21.2083C69.3366 20.6639 69.0111 20.17 68.5954 19.7581C68.1798 19.3462 67.683 19.0253 67.1366 18.8156C66.5903 18.606 66.0063 18.5123 65.4218 18.5405C52.2318 18.5405 39.0418 18.4405 25.8518 18.3805H24.6118C24.6118 16.8905 24.5618 15.5305 24.6118 14.1605C24.6118 13.2805 25.3118 12.7905 26.3018 12.7905L72.7918 13.0105C73.1482 12.9905 73.5054 12.9905 73.8618 13.0105C74.0661 13.0103 74.2684 13.0516 74.4563 13.1318C74.6442 13.212 74.8139 13.3295 74.9551 13.4772C75.0963 13.625 75.206 13.7998 75.2776 13.9911C75.3492 14.1825 75.3813 14.3864 75.3718 14.5905C75.3718 14.7605 75.3718 14.9405 75.3718 15.1205V72.7405L75.3818 72.7705Z" fill="#A29632"/>
<path d="M59.792 68.4205L63.502 64.7605L66.022 67.1505L82.382 82.7405C83.652 83.9505 83.662 84.7905 82.382 86.0205L80.822 87.5805C80.6571 87.8097 80.4401 87.9964 80.1889 88.1252C79.9376 88.2539 79.6593 88.3211 79.377 88.3211C79.0947 88.3211 78.8164 88.2539 78.5651 88.1252C78.3139 87.9964 78.0969 87.8097 77.932 87.5805C75.662 85.2205 73.412 82.8505 71.152 80.4805L60.292 69.0705L59.792 68.4205Z" fill="#A29632"/>
<path d="M63.7618 61.6703C61.061 63.6702 58.6717 66.0595 56.6718 68.7603L49.8118 61.9003C52.5155 59.8966 54.9081 57.5041 56.9118 54.8003L63.7618 61.6703Z" fill="#A29632"/>
<path d="M57.302 86.4705H39.022C39.372 84.9605 39.672 83.4705 40.022 82.0405C40.182 81.4105 40.752 81.2605 41.352 81.2605H54.582C55.872 81.2605 56.142 81.4605 56.422 82.6905C56.702 83.9205 57.012 85.1505 57.302 86.4705Z" fill="#A29632"/>
<path d="M56.172 72.1804C56.172 73.1804 53.8419 75.5604 53.0419 75.4504C52.665 75.3909 52.3157 75.2162 52.0419 74.9504C49.2219 72.1504 46.4086 69.3371 43.6019 66.5104C43.4426 66.3912 43.3132 66.2365 43.2241 66.0586C43.135 65.8806 43.0886 65.6844 43.0886 65.4854C43.0886 65.2864 43.135 65.0901 43.2241 64.9122C43.3132 64.7343 43.4426 64.5796 43.6019 64.4604C44.1086 63.9337 44.6286 63.4137 45.162 62.9004C45.2784 62.7451 45.4294 62.6191 45.6029 62.5324C45.7765 62.4456 45.9679 62.4004 46.162 62.4004C46.356 62.4004 46.5474 62.4456 46.721 62.5324C46.8945 62.6191 47.0455 62.7451 47.162 62.9004C50.022 65.7404 52.8719 68.5904 55.7119 71.4504C55.8957 71.6731 56.0503 71.9185 56.172 72.1804Z" fill="#A29632"/>
<path d="M60.5417 48.0005C60.8976 48.152 61.2335 48.3468 61.5417 48.5805C64.3817 51.4005 67.2151 54.2305 70.0417 57.0705C70.1935 57.1893 70.3162 57.3411 70.4006 57.5143C70.485 57.6876 70.5289 57.8778 70.5289 58.0705C70.5289 58.2632 70.485 58.4534 70.4006 58.6266C70.3162 58.7999 70.1935 58.9517 70.0417 59.0705C69.5117 59.6205 68.9717 60.1605 68.4217 60.6805C68.3056 60.8263 68.1581 60.9441 67.9902 61.025C67.8222 61.106 67.6382 61.148 67.4517 61.148C67.2653 61.148 67.0813 61.106 66.9134 61.025C66.7454 60.9441 66.5979 60.8263 66.4817 60.6805C63.6084 57.8205 60.7418 54.9505 57.8818 52.0705C57.753 51.965 57.6474 51.8341 57.5715 51.686C57.4956 51.5378 57.4511 51.3756 57.4408 51.2095C57.4305 51.0433 57.4545 50.8769 57.5115 50.7205C57.5684 50.5641 57.657 50.4211 57.7718 50.3005C58.3918 49.6305 59.0417 48.9905 59.7117 48.3705C59.9709 48.2111 60.25 48.0867 60.5417 48.0005Z" fill="#A29632"/>
<path d="M67.2218 64.9905L65.5618 63.4205L65.6318 63.2605C66.1752 63.2813 66.709 63.4105 67.2018 63.6405C67.4718 63.8305 67.3818 64.4905 67.4518 64.9405L67.2218 64.9905Z" fill="#A29632"/>
</svg>
