<svg width="80" height="80" viewBox="0 0 80 80" fill="none" xmlns="http://www.w3.org/2000/svg">
<rect x="1" y="1" width="78" height="78" rx="39" stroke="#A29632" stroke-width="2"/>
<path d="M24.4545 58C23.5045 58 22.6916 57.6646 22.0156 56.9937C21.3397 56.3229 21.0012 55.5154 21 54.5714V35.7143H24.4545V54.5714H53.8182V58H24.4545ZM31.3636 51.1429C30.4136 51.1429 29.6007 50.8074 28.9247 50.1366C28.2488 49.4657 27.9102 48.6583 27.9091 47.7143V28.8571H36.5455V25.4286C36.5455 24.4857 36.884 23.6789 37.5611 23.008C38.2382 22.3371 39.0512 22.0011 40 22H46.9091C47.8591 22 48.6726 22.336 49.3497 23.008C50.0268 23.68 50.3648 24.4869 50.3636 25.4286V28.8571H59V47.7143C59 48.6571 58.662 49.4646 57.9861 50.1366C57.3102 50.8086 56.4966 51.144 55.5455 51.1429H31.3636ZM31.3636 47.7143H55.5455V32.2857H31.3636V47.7143ZM40 28.8571H46.9091V25.4286H40V28.8571Z" fill="#486767"/>
</svg>
