<svg width="80" height="80" viewBox="0 0 80 80" fill="none" xmlns="http://www.w3.org/2000/svg">
<rect x="1" y="1" width="78" height="78" rx="39" stroke="#A29632" stroke-width="2"/>
<path fill-rule="evenodd" clip-rule="evenodd" d="M30.1818 22C29.2781 22 28.5455 22.7326 28.5455 23.6364V25.2727H27.7273C26.2083 25.2727 24.7516 25.8761 23.6775 26.9502C22.6034 28.0243 22 29.481 22 31C22 32.519 22.6034 33.9757 23.6775 35.0498C24.7516 36.1239 26.2083 36.7273 27.7273 36.7273H28.6629C29.014 39.1602 30.1418 41.4318 31.9004 43.1905C32.8363 44.1264 33.9175 44.8836 35.0909 45.4402V48.1716C35.085 48.1876 35.0657 48.226 35.0108 48.2885C34.8999 48.4149 34.7065 48.5599 34.4571 48.6748C32.2308 49.6946 30.7454 52.0472 30.3127 54.7273H26.9091C26.0054 54.7273 25.2727 55.4599 25.2727 56.3636C25.2727 57.2674 26.0054 58 26.9091 58H53.0909C53.9946 58 54.7273 57.2674 54.7273 56.3636C54.7273 55.4599 53.9946 54.7273 53.0909 54.7273H49.6874C49.2546 52.0469 47.7689 49.6941 45.5422 48.6744C45.2932 48.5596 45.1 48.4148 44.9892 48.2885C44.9343 48.226 44.915 48.1876 44.9091 48.1716V45.4402C46.0825 44.8836 47.1637 44.1264 48.0996 43.1905C49.8582 41.4318 50.986 39.1602 51.3371 36.7273H52.2727C53.7917 36.7273 55.2484 36.1239 56.3225 35.0498C57.3966 33.9757 58 32.519 58 31C58 29.481 57.3966 28.0243 56.3225 26.9502C55.2484 25.8761 53.7917 25.2727 52.2727 25.2727H51.4545V23.6364C51.4545 22.7326 50.7219 22 49.8182 22H30.1818ZM48.1818 25.2727H31.8182V35.0909C31.8182 37.2609 32.6802 39.3419 34.2146 40.8763C35.749 42.4107 37.83 43.2727 40 43.2727C42.17 43.2727 44.251 42.4107 45.7854 40.8763C47.3198 39.3419 48.1818 37.2609 48.1818 35.0909V25.2727ZM51.4545 33.4545V28.5455H52.2727C52.9237 28.5455 53.548 28.8041 54.0084 29.2644C54.4687 29.7247 54.7273 30.349 54.7273 31C54.7273 31.651 54.4687 32.2753 54.0084 32.7356C53.548 33.1959 52.9237 33.4545 52.2727 33.4545H51.4545ZM28.5455 33.4545V28.5455H27.7273C27.0763 28.5455 26.452 28.8041 25.9916 29.2644C25.5313 29.7247 25.2727 30.349 25.2727 31C25.2727 31.651 25.5313 32.2753 25.9916 32.7356C26.452 33.1959 27.0763 33.4545 27.7273 33.4545H28.5455ZM41.6364 46.428C41.0975 46.5058 40.5508 46.5455 40 46.5455C39.4492 46.5455 38.9025 46.5058 38.3636 46.428V48.1818C38.3636 50.0641 36.8274 51.1868 35.8238 51.6484L35.8209 51.6498C34.9188 52.0626 34.0242 53.1594 33.6444 54.7273H46.3556C45.9758 53.1594 45.0812 52.0626 44.1791 51.6498L44.1762 51.6484C43.1726 51.1868 41.6364 50.0641 41.6364 48.1818V46.428ZM45.5422 48.6744C45.5418 48.6742 45.5426 48.6746 45.5422 48.6744L44.86 50.1618L45.5438 48.6752C45.5433 48.6749 45.5427 48.6747 45.5422 48.6744ZM44.9084 48.1696C44.9078 48.1653 44.907 48.1631 44.9068 48.1631C44.9067 48.163 44.9067 48.1637 44.907 48.165C44.9073 48.1661 44.9077 48.1676 44.9084 48.1696Z" fill="#486767"/>
</svg>
