<svg width="80" height="80" viewBox="0 0 80 80" fill="none" xmlns="http://www.w3.org/2000/svg">
<rect x="1" y="1" width="78" height="78" rx="39" stroke="#A29632" stroke-width="2"/>
<path d="M47.8345 39.3434C51.424 39.3434 54.349 36.1902 54.349 32.3535C54.349 28.5605 51.439 25.5559 47.8345 25.5559C44.26 25.5559 41.3193 28.6048 41.3193 32.3831C41.3342 36.205 44.26 39.3434 47.8345 39.3434ZM30.4615 39.5355C33.568 39.5355 36.1165 36.7839 36.1165 33.408C36.1165 30.1061 33.598 27.444 30.4615 27.444C27.355 27.444 24.7915 30.1513 24.8065 33.4376C24.8215 36.7994 27.355 39.5355 30.4615 39.5355ZM47.8345 37.0978C45.6325 37.0978 43.747 35.0156 43.747 32.3831C43.747 29.7942 45.6025 27.8023 47.8345 27.8023C50.0815 27.8023 51.9212 29.7654 51.9212 32.3528C51.9212 34.986 50.0665 37.0978 47.8345 37.0978ZM30.4615 37.3194C28.6217 37.3194 27.0535 35.5797 27.0535 33.4376C27.0535 31.3406 28.606 29.6601 30.4615 29.6601C32.3612 29.6601 33.8845 31.3111 33.8845 33.408C33.8845 35.5797 32.3162 37.3194 30.4615 37.3194ZM22.0765 54.444H32.3636C32.3636 54.444 31.84 53.1496 31.9457 52.2428H21.7C21.3985 52.2428 21.2478 52.1244 21.2478 51.8411C21.2478 48.1531 25.5152 44.7026 30.4473 44.7026C32.347 44.7026 33.0146 44.8601 34.4778 45.7078C34.9629 45.1015 35.5373 44.5702 36.1818 44.1315C34.2363 42.8667 32.9358 42.5013 30.4473 42.5013C24.1278 42.5013 19 47.0222 19 51.975C19 53.626 20.0253 54.444 22.0765 54.444ZM38.3635 54.444H57.3055C59.8083 54.444 61 53.7007 61 52.0645C61 48.1679 56.008 42.5301 47.8345 42.5301C39.6452 42.5301 34.654 48.1679 34.654 52.0645C34.654 53.7007 35.845 54.444 38.3635 54.444ZM37.6398 52.1984C37.2475 52.1984 37.0818 52.0948 37.0818 51.782C37.0818 49.3425 40.912 44.7773 47.8345 44.7773C54.742 44.7773 58.5715 49.3425 58.5715 51.782C58.5715 52.0941 58.4215 52.1984 58.0285 52.1984H37.6398Z" fill="#486767" stroke="#486767" stroke-linejoin="round"/>
</svg>
