<svg width="100" height="100" viewBox="0 0 100 100" fill="none" xmlns="http://www.w3.org/2000/svg">
<path d="M59.0031 82.335C59.0031 81.255 59.0031 80.335 59.0031 79.385C59.0381 78.8284 58.9528 78.2708 58.7528 77.7501C58.5529 77.2295 58.243 76.7581 57.8444 76.368C57.4458 75.9779 56.9678 75.6784 56.443 75.4898C55.9181 75.3012 55.3588 75.2279 54.8031 75.275H51.2731C51.2731 74.895 51.2731 74.575 51.2731 74.275C51.2731 69.275 51.2731 64.275 51.2731 59.275C51.2295 59.002 51.2894 58.7225 51.4411 58.4913C51.5928 58.2601 51.8252 58.0938 52.0931 58.025C52.7013 57.7765 53.2535 57.4086 53.7172 56.9432C54.181 56.4777 54.5468 55.9241 54.7931 55.315C54.9131 55.045 55.1731 54.645 55.3831 54.645C58.0131 54.645 60.6531 54.645 63.4531 54.645C63.2531 55.125 63.1231 55.455 62.9731 55.775C61.5631 58.775 59.8331 61.605 58.8331 64.705C57.6231 68.465 58.4331 73.035 63.0531 74.815C63.963 75.1702 64.9377 75.3293 65.9134 75.2819C66.8891 75.2344 67.8438 74.9816 68.715 74.5398C69.5863 74.0981 70.3544 73.4774 70.9693 72.7183C71.5841 71.9593 72.0318 71.079 72.2831 70.135C72.9569 68.0049 72.7924 65.6979 71.8231 63.685C70.3631 60.825 69.0531 57.885 67.6831 54.975C67.6831 54.845 67.6831 54.915 67.6831 54.975C68.3748 54.5345 69.0425 54.0571 69.6831 53.545C70.4431 52.885 71.1331 52.145 71.8231 51.415C71.9585 51.3036 72.0694 51.1654 72.1488 51.009C72.2282 50.8526 72.2743 50.6815 72.2843 50.5064C72.2943 50.3313 72.2679 50.1561 72.2068 49.9917C72.1457 49.8273 72.0512 49.6773 71.9293 49.5513C71.8074 49.4252 71.6607 49.3257 71.4985 49.2592C71.3362 49.1926 71.1619 49.1604 70.9866 49.1645C70.8113 49.1686 70.6387 49.209 70.4798 49.2831C70.3208 49.3572 70.1789 49.4634 70.0631 49.595C69.9004 49.7176 69.7557 49.8624 69.6331 50.025C69.0729 50.829 68.2969 51.4583 67.3946 51.8405C66.4923 52.2227 65.5003 52.3421 64.5331 52.185C61.6931 51.985 58.8231 52.125 55.9731 52.185C55.7008 52.2385 55.4184 52.1881 55.1815 52.0437C54.9446 51.8993 54.7703 51.6715 54.6931 51.405C54.1747 50.1478 53.1784 49.1479 51.9231 48.625C51.7605 48.5255 51.6206 48.3931 51.5121 48.2365C51.4036 48.0798 51.329 47.9022 51.2931 47.715C51.248 47.1125 51.248 46.5075 51.2931 45.905C51.2931 44.965 50.7831 44.365 50.0231 44.435C49.8445 44.4326 49.6677 44.4694 49.5049 44.5428C49.3422 44.6162 49.1975 44.7244 49.0812 44.8598C48.9648 44.9953 48.8796 45.1546 48.8316 45.3265C48.7835 45.4985 48.7738 45.6789 48.8031 45.855C48.7981 45.9216 48.7981 45.9884 48.8031 46.055C49.0031 47.495 48.8031 48.585 47.1831 49.285C46.3531 49.645 45.8931 50.825 45.2331 51.615C45.0451 51.8815 44.7687 52.0728 44.4531 52.155C40.6631 52.155 36.8631 52.155 33.0731 52.155C32.7001 52.1313 32.3468 51.9794 32.0731 51.725C31.3831 51.095 30.7431 50.395 30.0731 49.725C29.9634 49.5838 29.8251 49.4673 29.6672 49.3832C29.5094 49.2991 29.3356 49.2492 29.1572 49.237C28.9787 49.2247 28.7997 49.2502 28.6319 49.3119C28.464 49.3736 28.3111 49.4701 28.1831 49.595C28.0519 49.7253 27.95 49.8821 27.8842 50.0549C27.8185 50.2277 27.7903 50.4126 27.8017 50.5972C27.813 50.7817 27.8636 50.9617 27.9501 51.1252C28.0366 51.2886 28.1569 51.4318 28.3031 51.545C29.1431 52.415 29.9731 53.295 30.8731 54.095C31.3507 54.4194 31.8641 54.6879 32.4031 54.895C31.7731 56.225 31.1031 57.675 30.4031 59.125C29.7031 60.575 29.0031 62.245 28.1931 63.745C27.6893 64.7706 27.3978 65.8873 27.3359 67.0283C27.2741 68.1692 27.4432 69.311 27.8331 70.385C28.3218 72.0086 29.3913 73.3954 30.8373 74.2807C32.2834 75.166 34.0048 75.488 35.6731 75.185C37.2901 74.9143 38.7628 74.09 39.8391 72.8532C40.9153 71.6164 41.5283 70.0439 41.5731 68.405C41.7258 66.4693 41.3234 64.5301 40.4131 62.815C39.1731 60.515 38.1531 58.105 37.0431 55.745C36.9031 55.445 36.7731 55.145 36.5631 54.645H39.1631C40.8431 54.645 42.5231 54.645 44.1631 54.645C44.6831 54.645 44.9931 54.715 45.2131 55.295C45.4692 55.9552 45.859 56.5554 46.3581 57.0579C46.8571 57.5604 47.4546 57.9543 48.1131 58.215C48.3531 58.325 48.6731 58.645 48.6731 58.865C48.6731 64.305 48.6731 69.735 48.6731 75.345H45.2431C42.4431 75.345 40.9131 76.875 40.8931 79.705V82.405H37.4631C37.0632 82.3548 36.6572 82.3955 36.2752 82.5239C35.8932 82.6523 35.5451 82.8653 35.2568 83.1469C34.9685 83.4284 34.7474 83.7714 34.61 84.1503C34.4725 84.5291 34.4223 84.9341 34.4631 85.335C34.4631 86.265 34.4631 87.195 34.4631 88.185H18.3631V87.115C18.3631 73.855 18.3631 60.595 18.3631 47.335C18.349 46.8235 18.5315 46.326 18.8731 45.945C29.1831 37.085 39.5231 28.265 49.9331 19.375C50.4131 19.775 50.9331 20.165 51.3831 20.565L80.7831 45.685C81.0375 45.8655 81.2436 46.1059 81.3831 46.385C81.5227 46.664 81.5913 46.9731 81.5831 47.285C81.5831 60.5717 81.5831 73.865 81.5831 87.165V88.165H65.4531C65.4531 87.295 65.4531 86.405 65.4531 85.505C65.4531 83.405 64.4531 82.435 62.3531 82.425L59.0031 82.335ZM49.9431 41.685C51.2089 41.683 52.4456 41.3057 53.497 40.6008C54.5484 39.896 55.3671 38.8951 55.8497 37.7249C56.3323 36.5547 56.457 35.2677 56.2081 34.0266C55.9592 32.7855 55.3479 31.6461 54.4515 30.7525C53.555 29.8588 52.4137 29.251 51.1718 29.006C49.93 28.761 48.6433 28.8898 47.4747 29.376C46.306 29.8622 45.3077 30.6841 44.6061 31.7377C43.9045 32.7912 43.5311 34.0292 43.5331 35.295C43.541 36.9908 44.2195 38.6145 45.4205 39.8117C46.6214 41.0089 48.2473 41.6824 49.9431 41.685ZM43.1331 46.895C43.4331 46.895 43.7431 46.895 44.0431 46.895C44.8431 46.895 45.4031 46.475 45.4031 45.605C45.4031 44.735 44.8331 44.385 44.0331 44.325H24.9031C24.6031 44.325 24.2131 44.265 24.0231 44.425C23.6431 44.735 23.1231 45.165 23.1131 45.565C23.1031 45.965 23.5631 46.455 23.9331 46.775C24.1431 46.955 24.5731 46.895 24.9331 46.895H43.1331ZM65.3231 46.895H74.3231C74.5925 46.9201 74.8637 46.9201 75.1331 46.895C75.2934 46.8848 75.4501 46.8431 75.5943 46.7722C75.7385 46.7013 75.8672 46.6026 75.9731 46.4818C76.079 46.361 76.1601 46.2205 76.2115 46.0683C76.263 45.9161 76.2839 45.7553 76.2731 45.595C76.2815 45.2876 76.1706 44.9889 75.9637 44.7615C75.7568 44.5341 75.4699 44.3956 75.1631 44.375C74.9302 44.3545 74.696 44.3545 74.4631 44.375H56.4631C56.1331 44.375 55.7131 44.325 55.4631 44.495C55.2131 44.665 54.6631 45.205 54.6531 45.595C54.6615 45.8046 54.7157 46.0098 54.8117 46.1963C54.9078 46.3827 55.0434 46.546 55.2092 46.6746C55.3749 46.8032 55.5667 46.894 55.7712 46.9407C55.9757 46.9874 56.1879 46.9889 56.3931 46.945L65.3231 46.895Z" fill="#A29632"/>
<path d="M50.133 11.8149C51.0714 12.1951 51.9665 12.6744 52.803 13.2449C58.903 18.3949 64.963 23.5949 71.033 28.7849L85.723 41.3449C85.953 41.5349 86.193 41.7349 86.413 41.9349C87.533 42.9349 87.713 43.9349 86.923 44.9349C86.133 45.9349 84.983 45.8449 83.923 44.9349C82.353 43.6149 80.803 42.2849 79.243 40.9349C69.963 32.9949 60.6763 25.0616 51.383 17.1349C50.183 16.1349 49.813 16.1349 48.643 17.1349C37.8696 26.3349 27.0963 35.5249 16.323 44.7049C15.7808 45.1845 15.1097 45.494 14.393 45.5949C14.0016 45.6063 13.6185 45.4807 13.31 45.2397C13.0014 44.9986 12.7867 44.6574 12.703 44.2749C12.5642 43.8932 12.5557 43.4763 12.6787 43.0892C12.8017 42.7021 13.0493 42.3666 13.383 42.1349C15.8496 40.0149 18.323 37.8983 20.803 35.7849L46.973 13.4149C47.7828 12.6002 48.8747 12.1276 50.023 12.0949L50.133 11.8149Z" fill="#A29632"/>
<path d="M62.7831 88.1248H37.1531V84.9749H62.7831V88.1248Z" fill="#A29632"/>
<path d="M30.2032 69.4549H34.4432C35.7532 69.4549 36.4432 68.9949 36.4432 68.1349C36.4432 67.2749 35.7832 66.8648 34.4432 66.8648H30.0032C30.0149 66.4077 30.0854 65.954 30.2132 65.5149C31.5732 62.5649 32.9732 59.6348 34.3732 56.7148C34.3732 56.6348 34.5032 56.5848 34.6332 56.4648C36.0932 59.5448 37.7332 62.5248 38.9032 65.6748C39.2824 66.6185 39.3793 67.6519 39.1823 68.6496C38.9852 69.6473 38.5026 70.5663 37.7932 71.2949C37.2484 71.8607 36.5646 72.2738 35.8103 72.4928C35.0559 72.7117 34.2573 72.729 33.4941 72.5427C32.731 72.3565 32.0301 71.9733 31.4614 71.4315C30.8927 70.8896 30.4761 70.2081 30.2532 69.4549H30.2032Z" fill="#A29632"/>
<path d="M65.443 56.3149C65.943 57.3649 66.363 58.2249 66.773 59.0949C67.543 60.7249 68.233 62.4049 69.123 63.9749C69.8848 65.434 70.1648 67.0969 69.923 68.7249C69.8012 69.7367 69.3388 70.6769 68.6119 71.3911C67.885 72.1053 66.9367 72.551 65.923 72.6549C64.8805 72.778 63.8286 72.5227 62.9586 71.9353C62.0886 71.348 61.4585 70.4678 61.183 69.455H64.973C65.313 69.455 65.643 69.455 65.973 69.455C66.713 69.385 67.253 69.0449 67.283 68.2249C67.3032 68.0471 67.2834 67.867 67.225 67.6978C67.1667 67.5286 67.0712 67.3746 66.9456 67.2471C66.82 67.1196 66.6675 67.0217 66.4992 66.9608C66.3309 66.8999 66.1511 66.8774 65.973 66.8949C64.663 66.8449 63.353 66.8949 62.053 66.8949H60.863C60.828 66.5396 60.8551 66.181 60.943 65.8349C62.423 62.6949 63.893 59.5649 65.443 56.3149Z" fill="#A29632"/>
<path d="M56.423 82.2849H43.553C43.553 81.1549 43.493 80.0249 43.553 78.9049C43.5653 78.7437 43.6102 78.5867 43.6851 78.4435C43.76 78.3002 43.8633 78.1738 43.9887 78.0718C44.1141 77.9698 44.2589 77.8944 44.4144 77.8502C44.5699 77.8061 44.7327 77.794 44.893 77.8149C48.283 77.8149 51.673 77.8149 55.063 77.8149C55.2504 77.8011 55.4385 77.8295 55.6135 77.8979C55.7885 77.9662 55.946 78.0729 56.0744 78.2099C56.2029 78.347 56.2991 78.5111 56.3559 78.6902C56.4128 78.8693 56.4289 79.0588 56.403 79.2449C56.413 80.2449 56.423 81.2349 56.423 82.2849Z" fill="#A29632"/>
<path d="M52.573 53.3249C52.5749 53.8416 52.4228 54.3472 52.136 54.7771C51.8493 55.207 51.4409 55.5417 50.9631 55.7385C50.4852 55.9353 49.9596 55.9852 49.4533 55.8819C48.9469 55.7786 48.4829 55.5267 48.1203 55.1585C47.7578 54.7902 47.5132 54.3223 47.4178 53.8144C47.3223 53.3066 47.3804 52.7818 47.5846 52.3071C47.7888 51.8323 48.1298 51.4292 48.5641 51.1492C48.9985 50.8692 49.5064 50.7249 50.023 50.7349C50.6989 50.7578 51.3402 51.0392 51.8147 51.5212C52.2892 52.0031 52.5606 52.6487 52.573 53.3249Z" fill="#A29632"/>
<path d="M53.833 35.2449C53.8349 36.0062 53.6116 36.751 53.1913 37.3857C52.7709 38.0205 52.1723 38.5167 51.4706 38.8121C50.769 39.1074 49.9957 39.1887 49.2479 39.0457C48.5002 38.9027 47.8115 38.5418 47.2683 38.0083C46.7252 37.4749 46.3519 36.7928 46.1954 36.0477C46.039 35.3027 46.1063 34.528 46.389 33.8212C46.6717 33.1143 47.1571 32.5068 47.7841 32.0751C48.4111 31.6434 49.1518 31.4067 49.913 31.3949C50.943 31.3869 51.9341 31.7877 52.669 32.5095C53.4039 33.2312 53.8225 34.2149 53.833 35.2449Z" fill="#A29632"/>
</svg>
