<svg width="60" height="60" viewBox="0 0 60 60" fill="none" xmlns="http://www.w3.org/2000/svg">
<path d="M12.0872 6H39.2607C40.7419 6.46659 41.2159 7.48125 41.2159 8.96249C41.2159 15.3615 41.2159 21.7679 41.2159 28.1668V28.7964C41.4233 28.5964 41.5418 28.4927 41.6455 28.3816C43.5489 26.4856 45.4375 24.5748 47.3483 22.6862C47.9203 22.0851 48.7036 21.7298 49.5327 21.6953C50.3618 21.6607 51.1719 21.9497 51.792 22.5011C52.6956 23.3306 53.651 24.1304 54.0139 25.3895V26.6041C53.6977 27.5241 53.1339 28.3391 52.3845 28.9593C48.7703 32.5661 45.1782 36.173 41.5492 39.765C41.4202 39.8838 41.3193 40.0298 41.2539 40.1926C41.1886 40.3553 41.1604 40.5306 41.1715 40.7056C41.1715 44.2013 41.1715 47.6971 41.1715 51.1928C41.1998 51.5652 41.1479 51.9393 41.0192 52.2898C40.8904 52.6403 40.6879 52.9591 40.4252 53.2245C40.1626 53.49 39.846 53.6959 39.4968 53.8284C39.1477 53.9609 38.7742 54.0168 38.4015 53.9924C28.455 53.9479 18.5158 53.9924 8.56924 53.9924C8.21883 54.0204 7.86653 53.9709 7.53742 53.8474C7.20832 53.7239 6.91048 53.5293 6.66511 53.2776C6.41974 53.0258 6.23286 52.7231 6.11778 52.3909C6.0027 52.0588 5.96224 51.7053 5.99928 51.3558V23.9083C5.99928 20.1459 5.99928 16.3835 5.99928 12.6212C5.98997 12.329 6.08443 12.043 6.2659 11.8139C8.22115 9.85865 10.1468 7.93303 12.0872 6ZM39.5347 41.8091C37.9201 43.4311 36.4018 44.979 34.8391 46.4824C34.4465 46.8566 33.9866 47.1531 33.4838 47.3564C32.2321 47.8748 30.9509 48.3118 29.6918 48.8006C28.985 49.0791 28.2294 49.2126 27.4699 49.1931C22.2856 49.1931 17.1012 49.1931 11.9169 49.1931C11.7617 49.2081 11.6054 49.2081 11.4503 49.1931C11.2553 49.1645 11.0774 49.0662 10.9494 48.9164C10.8214 48.7666 10.752 48.5755 10.7541 48.3784C10.7647 48.1855 10.8462 48.0032 10.9828 47.8666C11.1195 47.7299 11.3017 47.6485 11.4947 47.6378C11.665 47.6378 11.8354 47.6378 12.0057 47.6378H26.4331C26.5442 47.2009 26.6108 46.8305 26.7367 46.4824C27.2478 45.0827 27.7514 43.6681 28.3217 42.2905C28.5204 41.7428 28.8249 41.2395 29.2178 40.8093C32.5432 37.4468 35.8834 34.1066 39.2458 30.7664C39.3478 30.6721 39.4288 30.5575 39.4837 30.4299C39.5385 30.3023 39.566 30.1647 39.5643 30.0258C39.5643 22.9405 39.5643 15.8528 39.5643 8.76252C39.5643 7.83674 39.3347 7.61456 38.3941 7.61456H13.2129V10.503C13.2534 10.8698 13.2106 11.241 13.0876 11.5889C12.9646 11.9369 12.7646 12.2525 12.5026 12.5124C12.2406 12.7723 11.9233 12.9696 11.5744 13.0898C11.2255 13.2099 10.8539 13.2497 10.4875 13.2063H7.59902V51.2817C7.59902 52.1038 7.87305 52.3778 8.69515 52.3778H38.4904C39.2977 52.3778 39.5569 52.1186 39.5569 51.3187C39.5569 48.3217 39.5569 45.3246 39.5569 42.3276C39.5569 42.1942 39.5495 42.0609 39.5347 41.8091ZM43.9784 28.3816L30.5361 41.8313L31.5286 42.8978L45.0301 29.3889L43.9784 28.3816ZM46.2892 30.6405L32.8098 44.1125L33.7726 45.1271L47.2816 31.6256L46.2892 30.6405ZM50.807 28.2631C51.2069 27.8558 51.5994 27.4781 51.9549 27.0707C52.2173 26.7862 52.3629 26.4134 52.3629 26.0264C52.3629 25.6395 52.2173 25.2667 51.9549 24.9822C51.5616 24.537 51.1411 24.1165 50.6959 23.7231C50.4179 23.4644 50.0545 23.317 49.6749 23.3088C49.2952 23.3006 48.9258 23.4322 48.6369 23.6787C48.2074 24.049 47.8223 24.4859 47.4371 24.8711L50.807 28.2631ZM32.2099 46.1195L29.5585 43.4755C29.1141 44.6753 28.6401 45.9418 28.1735 47.1786C28.1735 47.2601 28.1735 47.4453 28.1735 47.4527C28.2885 47.4933 28.414 47.4933 28.529 47.4527C29.7955 47.0305 31.0397 46.5565 32.2099 46.1195ZM45.2523 27.1522L48.5036 30.3961L49.5035 29.4481L46.2595 26.1523L45.2523 27.1522ZM8.89511 11.5473C9.58389 11.5473 10.2949 11.5473 10.9911 11.5473C11.1076 11.5195 11.2156 11.4639 11.3059 11.3852C11.3962 11.3065 11.4661 11.2071 11.5095 11.0955C11.5614 10.3549 11.5095 9.61424 11.5095 8.92546L8.89511 11.5473Z" fill="#A29632"/>
<path d="M25.7664 26.3745C24.6037 27.5744 23.3372 28.0558 21.8411 26.93L18.4491 29.6999C17.19 30.722 15.9384 31.7589 14.6497 32.7439C14.2901 33.0407 13.8463 33.2168 13.3811 33.2474C12.9159 33.278 12.4528 33.1614 12.0575 32.9142C11.6519 32.7094 11.3159 32.3891 11.0919 31.9938C10.8678 31.5984 10.7657 31.1456 10.7985 30.6924C10.8135 30.3166 10.914 29.9491 11.0924 29.618C11.2708 29.2869 11.5224 29.0009 11.8279 28.7816C13.9807 27.0535 16.1309 25.3253 18.2788 23.5972L18.7602 23.1973C18.5123 22.8789 18.3559 22.499 18.3076 22.0984C18.2593 21.6979 18.3211 21.2917 18.4861 20.9236C18.9287 20.2625 19.424 19.6383 19.9674 19.0572C19.8341 18.8646 19.6711 18.5462 19.2267 18.6573C19.2267 18.6573 19.1675 18.6573 19.1379 18.6573C18.101 18.5091 16.7827 16.8131 16.9827 15.791C17.0632 15.4125 17.2631 15.0698 17.5529 14.8134C19.6859 13.0581 21.8486 11.3325 24.0112 9.62906C24.1722 9.49578 24.3586 9.3965 24.559 9.3372C24.7595 9.27791 24.9699 9.25983 25.1775 9.28405C25.3851 9.30827 25.5857 9.3743 25.7671 9.47815C25.9485 9.58199 26.107 9.72151 26.233 9.88828C26.4997 10.1993 26.7367 10.5252 26.9737 10.8437C27.1239 11.0422 27.2311 11.2699 27.2885 11.5122C27.3459 11.7545 27.3522 12.006 27.3069 12.2509C27.314 12.4271 27.3733 12.5973 27.4773 12.7397C29.4473 15.2578 31.4396 17.7685 33.4023 20.2792C33.4772 20.3923 33.5782 20.4856 33.6968 20.5514C33.8154 20.6171 33.9481 20.6533 34.0836 20.6569C35.165 20.731 36.5277 22.5085 36.3055 23.5602C36.2146 23.9356 36.0072 24.2727 35.713 24.523C33.6195 26.2412 31.5063 27.9422 29.3733 29.6259C29.2039 29.7858 29.0013 29.9064 28.78 29.9792C28.5587 30.0519 28.324 30.0749 28.0928 30.0466C27.8615 30.0184 27.6394 29.9394 27.4421 29.8155C27.2448 29.6916 27.0773 29.5257 26.9514 29.3296C26.7367 29.063 26.5367 28.789 26.3145 28.5224C26.1463 28.3075 26.03 28.0567 25.9747 27.7894C25.9195 27.5222 25.9268 27.2458 25.996 26.9819C26.001 26.79 25.9811 26.5983 25.9368 26.4116L25.7664 26.3745ZM21.0117 17.7093L27.2625 25.5969L32.358 21.5087C30.2694 18.8572 28.2031 16.2428 26.1145 13.6062L21.0117 17.7093ZM19.7822 24.3749L12.8796 29.9666C12.376 30.3739 12.2723 30.8553 12.5834 31.2553C12.8944 31.6552 13.3684 31.6848 13.8943 31.2553L18.6342 27.4781L20.8561 25.7154L19.7822 24.3749ZM24.7962 25.0636L21.0931 20.3607C20.7821 20.6125 20.508 20.8125 20.2488 21.0421C20.1589 21.1052 20.0827 21.186 20.0248 21.2794C19.9669 21.3728 19.9285 21.4769 19.9119 21.5855C19.8953 21.6942 19.9008 21.805 19.9282 21.9115C19.9555 22.0179 20.0041 22.1177 20.0711 22.2048C20.9894 23.3676 21.9152 24.5156 22.8632 25.6561C22.9234 25.74 23.0004 25.8103 23.0894 25.8626C23.1783 25.9149 23.2772 25.948 23.3797 25.9599C23.4822 25.9717 23.5861 25.962 23.6846 25.9314C23.7831 25.9008 23.8742 25.8499 23.9519 25.782C24.2556 25.5821 24.5148 25.3377 24.7962 25.0859V25.0636ZM28.329 28.4113L34.7724 23.2269L33.9874 22.2937L27.5439 27.4781L28.329 28.4113ZM19.3304 16.976L25.7813 11.7917L24.9962 10.8215L18.5898 15.9984L19.3304 16.976Z" fill="#A29632"/>
<path d="M20.8488 35.5805H29.5659C29.7215 35.5805 29.877 35.5805 30.0325 35.5805C30.233 35.5954 30.4204 35.6852 30.5577 35.832C30.6949 35.9788 30.7718 36.172 30.7731 36.3729C30.7687 36.5737 30.6909 36.7659 30.5545 36.9133C30.418 37.0606 30.2324 37.153 30.0325 37.1728C29.9092 37.1803 29.7855 37.1803 29.6622 37.1728H11.7169C11.6036 37.184 11.4893 37.1721 11.3807 37.138C11.2721 37.1038 11.1715 37.048 11.085 36.974C10.9986 36.9 10.928 36.8092 10.8774 36.7072C10.8269 36.6052 10.7976 36.494 10.7911 36.3803C10.7911 35.8989 11.1318 35.5657 11.7169 35.5657H20.8488V35.5805Z" fill="#A29632"/>
<path d="M18.8192 39.5576H25.6478C25.8344 39.5487 26.0214 39.5662 26.2032 39.6094C26.3727 39.6539 26.5226 39.7532 26.6296 39.8919C26.7366 40.0306 26.7947 40.2008 26.7947 40.376C26.7947 40.5512 26.7366 40.7214 26.6296 40.8601C26.5226 40.9988 26.3727 41.0981 26.2032 41.1425C26.0201 41.176 25.834 41.1909 25.6478 41.187H11.7685C11.1538 41.187 10.7835 40.8463 10.7909 40.3501C10.7983 39.8538 11.1834 39.565 11.7981 39.565L18.8192 39.5576Z" fill="#A29632"/>
<path d="M17.6199 43.5718H23.4708C24.0929 43.5718 24.4484 43.9347 24.3743 44.4902C24.3579 44.6545 24.2871 44.8086 24.173 44.9281C24.0589 45.0475 23.9082 45.1254 23.7448 45.1493C23.5896 45.1641 23.4334 45.1641 23.2782 45.1493H11.9245C11.7987 45.1567 11.6726 45.1567 11.5468 45.1493C11.3507 45.1303 11.1688 45.039 11.0365 44.8932C10.9041 44.7474 10.8308 44.5575 10.8308 44.3606C10.8308 44.1636 10.9041 43.9738 11.0365 43.828C11.1688 43.6821 11.3507 43.5908 11.5468 43.5718C11.9837 43.5718 12.4207 43.5718 12.8577 43.5718H17.6199Z" fill="#A29632"/>
</svg>
