<svg width="60" height="60" viewBox="0 0 60 60" fill="none" xmlns="http://www.w3.org/2000/svg">
<path d="M30.7075 5C31.1187 5.15632 31.5199 5.3366 31.909 5.53987C32.5954 5.92988 33.1062 6.55764 33.3398 7.29832C33.4584 7.67623 33.6481 7.73793 34.0117 7.73793H46.5649C46.7149 7.73022 46.8653 7.73022 47.0154 7.73793C47.1145 7.74071 47.2119 7.76322 47.3017 7.80407C47.3916 7.84491 47.4719 7.90324 47.5378 7.97546C47.6036 8.04768 47.6537 8.13228 47.6849 8.22406C47.716 8.31584 47.7276 8.41286 47.719 8.50918C47.7211 8.60263 47.704 8.69556 47.6688 8.7825C47.6336 8.86944 47.581 8.94864 47.514 9.01546C47.447 9.08227 47.3669 9.13535 47.2786 9.17158C47.1903 9.20781 47.0954 9.22646 46.9996 9.22644C46.0826 9.22644 45.1736 9.22644 44.2171 9.22644C44.1137 9.88928 44.2099 10.5671 44.4938 11.1777C46.7704 15.3424 49.0075 19.5303 51.2762 23.7028C51.4147 23.9299 51.6107 24.1184 51.8454 24.2504C51.9746 24.3082 52.09 24.3916 52.1845 24.4952C52.279 24.5988 52.3504 24.7205 52.3942 24.8524C52.438 24.9843 52.4533 25.1237 52.4392 25.2616C52.425 25.3996 52.3816 25.5332 52.3118 25.654C51.7189 26.7106 51.1102 27.7595 50.4541 28.739C50.259 28.9814 49.9761 29.1415 49.6636 29.1864C49.0661 29.225 48.4667 29.225 47.8692 29.1864C47.769 29.1926 47.6686 29.179 47.5739 29.1464C47.4793 29.1137 47.3924 29.0627 47.3185 28.9964C47.2446 28.9301 47.1853 28.8499 47.1441 28.7606C47.1029 28.6713 47.0806 28.5747 47.0787 28.4768C47.0675 28.3728 47.0803 28.2678 47.116 28.1692C47.1518 28.0707 47.2097 27.9812 47.2854 27.9073C47.3612 27.8334 47.4529 27.7769 47.5539 27.742C47.6549 27.7071 47.7626 27.6946 47.8692 27.7056C49.1024 27.9369 49.7427 27.3662 50.1537 26.3327C50.2775 26.0648 50.4229 25.807 50.5885 25.5615H36.2568C36.6678 26.2556 37.0473 26.9266 37.4741 27.5822C37.5374 27.667 37.7745 27.6747 37.9326 27.6747H44.1776C44.7309 27.6747 45.0945 28.0063 45.0629 28.446C45.0409 28.6481 44.9381 28.8335 44.7768 28.9621C44.6154 29.0906 44.4086 29.1518 44.2013 29.1324C42.5333 29.1324 40.8654 29.1324 39.1974 29.1324C38.5808 29.1324 37.9642 29.1324 37.3476 29.1324C37.1304 29.148 36.9132 29.1007 36.7234 28.9964C36.5335 28.8922 36.3795 28.7356 36.2805 28.5462C35.7113 27.5744 35.1263 26.6104 34.5651 25.6309C34.4748 25.5015 34.4161 25.3536 34.3934 25.1986C34.3708 25.0436 34.3848 24.8856 34.4344 24.7367C34.484 24.5879 34.5679 24.452 34.6796 24.3396C34.7913 24.2273 34.9279 24.1413 35.0789 24.0884C35.2491 24.0055 35.3917 23.8771 35.49 23.7182C37.8615 19.3992 40.1776 15.0802 42.4701 10.7381C42.6426 10.2094 42.7306 9.6579 42.7309 9.10304H42.1381C39.4188 9.10304 36.7073 9.10304 33.988 9.10304C33.6481 9.10304 33.4663 9.15703 33.3477 9.51952C33.1515 10.0728 32.8166 10.5694 32.3734 10.9641C31.9302 11.3588 31.3928 11.639 30.8102 11.7793V14.201C31.0632 14.201 31.2924 14.201 31.5217 14.201C31.8529 14.201 32.1706 14.3294 32.4048 14.5579C32.6391 14.7864 32.7707 15.0964 32.7707 15.4196C32.7707 16.052 32.7707 16.6844 32.7707 17.3168C32.8025 17.4312 32.8069 17.5512 32.7835 17.6675C32.7602 17.7839 32.7096 17.8934 32.6358 17.9875C32.562 18.0817 32.467 18.158 32.3581 18.2105C32.2492 18.263 32.1293 18.2903 32.0078 18.2903C31.8863 18.2903 31.7665 18.263 31.6576 18.2105C31.5487 18.158 31.4536 18.0817 31.3798 17.9875C31.306 17.8934 31.2555 17.7839 31.2321 17.6675C31.2087 17.5512 31.2131 17.4312 31.245 17.3168C31.245 16.8001 31.245 16.2757 31.245 15.7204H28.8103V32.549H31.2766V21.2579C31.2766 20.5407 31.5454 20.1627 32.0671 20.1627C32.5888 20.1627 32.8576 20.5407 32.8576 21.2579V32.6724C35.4188 33.0657 35.6639 34.8473 35.49 36.9066H36.8101C37.4217 36.906 38.0098 37.136 38.4517 37.5484C38.8936 37.9609 39.1551 38.5239 39.1816 39.12C39.229 39.791 39.1816 40.4774 39.1816 41.2255H53.8216C54.6121 41.2255 54.9916 41.4569 54.9995 41.9968C55.0074 42.5367 54.6358 42.768 53.8374 42.768H52.7624V51.4369C53.205 51.4369 53.6319 51.4369 54.0588 51.4369C54.6754 51.4369 55.0153 51.73 54.9995 52.2081C54.9837 52.6863 54.6358 52.9254 54.0509 52.9254H22.1464C22.1464 53.2879 22.1464 53.6118 22.1464 53.928C22.1555 54.1259 22.1058 54.322 22.0031 54.4929C21.9005 54.6638 21.7494 54.802 21.568 54.8909C21.3866 54.9798 21.1827 55.0155 20.981 54.9938C20.7792 54.9722 20.5882 54.8939 20.431 54.7687C19.933 54.4447 19.435 54.1131 18.9528 53.7661C18.8772 53.6926 18.7749 53.6513 18.6682 53.6513C18.5615 53.6513 18.4592 53.6926 18.3836 53.7661C17.9567 54.0746 17.5061 54.3522 17.0714 54.653C16.9 54.821 16.6794 54.9327 16.44 54.9728C16.2006 55.0129 15.9543 54.9793 15.7354 54.8766C15.5257 54.7556 15.3592 54.5744 15.2588 54.3577C15.1584 54.141 15.1288 53.8994 15.1742 53.6658C15.1742 53.4421 15.1742 53.2185 15.1742 52.9331H14.5418C13.0793 52.9331 11.6011 52.9871 10.1545 52.8405C8.80305 52.6745 7.55239 52.0565 6.6155 51.0918C5.67862 50.1271 5.11346 48.8754 5.01627 47.5498C4.91209 46.1747 5.31075 44.8082 6.14145 43.6927C6.97214 42.5773 8.18113 41.7851 9.55373 41.4569C10.0729 41.3438 10.6028 41.2843 11.1347 41.2795C14.1149 41.2795 17.103 41.2795 20.0832 41.2795H20.763C20.763 40.6394 20.763 40.0224 20.763 39.4131C20.7431 39.0752 20.7971 38.737 20.9216 38.4211C21.0461 38.1051 21.2381 37.8187 21.485 37.5808C21.7318 37.343 22.0277 37.1591 22.353 37.0415C22.6783 36.9239 23.0256 36.8753 23.3716 36.8988H24.6127C24.6127 36.5286 24.6127 36.1739 24.6127 35.8268C24.561 35.4465 24.5898 35.0598 24.6972 34.6907C24.8047 34.3216 24.9885 33.978 25.2374 33.6809C25.4863 33.3839 25.795 33.1398 26.1444 32.9636C26.4938 32.7875 26.8765 32.6832 27.2688 32.657V32.094C27.2688 26.7878 27.2688 21.4893 27.2688 16.1831C27.2688 14.8566 27.7194 14.2164 29.079 14.3013C29.1367 14.3089 29.1952 14.3089 29.2529 14.3013V11.9875C28.7801 11.7945 28.3318 11.5486 27.917 11.2548C27.4559 10.8877 27.0857 10.4237 26.834 9.89743C26.8133 9.77915 26.7683 9.66619 26.7016 9.5654C26.6349 9.4646 26.5479 9.37806 26.4459 9.31101C26.3439 9.24395 26.2291 9.19778 26.1083 9.17529C25.9875 9.15281 25.8633 9.15446 25.7431 9.18017C23.1582 9.18017 20.5733 9.18017 17.9962 9.18017H17.3876C17.2969 9.78391 17.3677 10.4003 17.5931 10.9695C19.9013 15.1959 22.178 19.4532 24.4704 23.6719C24.6031 23.8836 24.7914 24.0567 25.0159 24.1732C25.146 24.2312 25.2624 24.3148 25.3577 24.4188C25.4531 24.5228 25.5253 24.645 25.5699 24.7776C25.6144 24.9102 25.6304 25.0503 25.6166 25.1892C25.6029 25.3281 25.5599 25.4628 25.4902 25.5846C24.8973 26.6335 24.2965 27.6824 23.6325 28.6696C23.5291 28.8003 23.3992 28.9088 23.251 28.9884C23.1028 29.068 22.9393 29.117 22.7709 29.1324C18.6524 29.1324 14.5339 29.1324 10.4233 29.1324C10.2305 29.1368 10.0403 29.0885 9.87412 28.9932C9.70792 28.8978 9.57232 28.759 9.48258 28.5925C8.89761 27.6053 8.30474 26.6258 7.73558 25.6386C7.64854 25.5079 7.59272 25.3597 7.57222 25.2051C7.55173 25.0504 7.56708 24.8933 7.61716 24.7452C7.66724 24.5972 7.75076 24.462 7.86156 24.3496C7.97236 24.2373 8.1076 24.1506 8.25731 24.0961C8.43081 24.0179 8.57464 23.8884 8.66837 23.7259C11.0399 19.4069 13.356 15.0879 15.6485 10.7535C15.8193 10.2248 15.902 9.67276 15.8935 9.11847H13.0952C12.9276 9.12994 12.7606 9.08903 12.6185 9.00166C12.4763 8.91429 12.3664 8.78501 12.3047 8.63258C12.2629 8.52518 12.2481 8.40955 12.2616 8.29543C12.2752 8.18131 12.3166 8.07203 12.3825 7.97679C12.4483 7.88154 12.5367 7.80313 12.6401 7.74814C12.7434 7.69316 12.8589 7.6632 12.9766 7.66081C13.1267 7.6531 13.2771 7.6531 13.4272 7.66081H26.0514C26.3676 7.66081 26.5336 7.60682 26.6522 7.25976C26.8337 6.76272 27.132 6.31407 27.5233 5.94978C27.9145 5.58549 28.3878 5.31567 28.9051 5.16196C29.0395 5.11569 29.166 5.05399 29.3004 5H30.7075ZM15.1584 46.015C14.3679 45.9147 14.0754 45.6911 14.107 45.1898C14.1386 44.6885 14.4469 44.5034 15.2137 44.5034H18.1148C21.4586 44.5034 24.8103 44.5034 28.1621 44.5034C28.4672 44.497 28.7656 44.5922 29.0079 44.7733C29.0892 44.8759 29.1427 44.9968 29.1634 45.1248C29.1841 45.2529 29.1714 45.384 29.1265 45.506C29.0431 45.6261 28.9344 45.7275 28.8076 45.8033C28.6808 45.8792 28.5389 45.9277 28.3913 45.9456C26.755 45.9456 25.1265 45.9456 23.4902 45.9456H22.1938V51.3443H51.1893V49.6013H34.9762C34.7888 49.6013 34.6091 49.5293 34.4759 49.4007C34.3427 49.2722 34.2668 49.0976 34.2647 48.9149C34.2625 48.7289 34.3294 48.5484 34.4528 48.4067C34.5763 48.265 34.7481 48.1715 34.9366 48.1437C35.1024 48.1321 35.2688 48.1321 35.4346 48.1437H51.1814V45.9764H35.1184C35.0094 45.985 34.8998 45.9714 34.7965 45.9364C34.6931 45.9015 34.5984 45.8461 34.5181 45.7736C34.4379 45.7011 34.3739 45.6131 34.3303 45.5153C34.2867 45.4175 34.2644 45.3119 34.2647 45.2052C34.2647 44.7733 34.5809 44.5111 35.0552 44.4879H51.1735V42.7141H30.9446C30.7604 42.7256 30.5755 42.7256 30.3913 42.7141C30.1899 42.7023 30.0009 42.6158 29.8627 42.4724C29.7246 42.3291 29.6478 42.1396 29.6482 41.9428C29.6615 41.7542 29.7454 41.577 29.8838 41.4448C30.0223 41.3126 30.2057 41.2345 30.3992 41.2255C30.5493 41.2178 30.6997 41.2178 30.8497 41.2255H37.1737H37.7429V39.6368C37.7429 38.6804 37.4346 38.3874 36.4544 38.3874H23.5851C23.4353 38.372 23.2843 38.372 23.1345 38.3874C22.9297 38.4017 22.737 38.4875 22.5919 38.6292C22.4467 38.7708 22.3587 38.9588 22.344 39.1586C22.2887 39.8527 22.344 40.5468 22.344 41.2718H26.4388C27.3162 41.2718 27.7194 41.5186 27.7036 42.0431C27.6878 42.5675 27.3004 42.8143 26.4151 42.8143H15.0793C14.7873 42.7794 14.491 42.8098 14.2129 42.9033C13.9348 42.9967 13.6821 43.1508 13.4741 43.3537C13.2661 43.5566 13.1082 43.8032 13.0124 44.0745C12.9166 44.3459 12.8854 44.635 12.9212 44.9198C12.9212 46.4006 12.9212 47.8814 12.9212 49.3622C12.9162 49.6062 12.9428 49.8497 13.0003 50.0872C13.0522 50.3109 13.1495 50.5222 13.2863 50.7087C13.4232 50.8952 13.5969 51.0531 13.7973 51.1731C13.9976 51.2931 14.2205 51.3728 14.4529 51.4075C14.6853 51.4422 14.9225 51.4312 15.1505 51.3752L15.1584 46.015ZM11.9252 42.7835C11.0155 42.6151 10.0748 42.7204 9.2278 43.0854C8.38079 43.4504 7.66743 44.0578 7.18223 44.8273C6.72919 45.5538 6.50693 46.395 6.54351 47.2447C6.58009 48.0943 6.87387 48.9144 7.38776 49.6013C7.89841 50.2831 8.59889 50.8075 9.40601 51.1124C10.2131 51.4173 11.093 51.4897 11.941 51.3212C11.1505 49.9792 11.4509 48.5061 11.4509 47.0793C11.4509 45.6525 11.1189 44.1332 11.9252 42.7835ZM15.7908 24.0807V13.9619H15.7117L10.2256 24.0807H15.7908ZM49.7822 24.0807C47.9324 20.6641 46.1143 17.2937 44.2961 13.9233H44.2171V24.0807H49.7822ZM17.4903 13.9542H17.3876V24.0807H22.9211L17.4903 13.9542ZM42.6045 24.0807V13.9773H42.5254L37.0552 24.0807H42.6045ZM9.42725 25.6232C9.81459 26.2865 10.1466 26.888 10.5181 27.4588C10.5831 27.5402 10.6641 27.6081 10.7565 27.6585C10.8488 27.7088 10.9505 27.7406 11.0557 27.7518C14.7552 27.7518 18.4547 27.7518 22.1226 27.7518C22.2491 27.7518 22.4468 27.7518 22.4942 27.6747C22.9131 27.0114 23.2847 26.3327 23.7432 25.6078L9.42725 25.6232ZM16.7235 46.0227V53.0719C17.1899 52.7634 17.6089 52.5089 17.9962 52.2158C18.1737 52.0526 18.4084 51.9617 18.6524 51.9617C18.8963 51.9617 19.131 52.0526 19.3085 52.2158C19.7116 52.5089 20.1385 52.7711 20.5812 53.0642V46.0304L16.7235 46.0227ZM33.9169 36.9066C33.9169 36.4052 33.9169 35.9194 33.9169 35.4412C33.9244 35.2821 33.8986 35.1232 33.8411 34.9742C33.7836 34.8251 33.6956 34.6891 33.5824 34.5743C33.4692 34.4596 33.3333 34.3685 33.1828 34.3067C33.0324 34.2449 32.8706 34.2137 32.7074 34.2149C30.913 34.2149 29.1107 34.2149 27.3162 34.2149C27.0199 34.2115 26.733 34.3165 26.5121 34.5092C26.2911 34.702 26.1522 34.9684 26.1226 35.2561C26.1226 35.796 26.1226 36.3435 26.1226 36.9143L33.9169 36.9066ZM27.9802 8.42434C27.9771 8.81449 28.0926 9.19679 28.312 9.52298C28.5314 9.84916 28.845 10.1046 29.2131 10.2571C29.5812 10.4095 29.9874 10.4521 30.3803 10.3796C30.7732 10.307 31.1353 10.1225 31.4208 9.84928C31.7063 9.57609 31.9025 9.22651 31.9845 8.84464C32.0665 8.46277 32.0308 8.06576 31.8817 7.70371C31.7326 7.34167 31.477 7.03082 31.147 6.81042C30.817 6.59002 30.4275 6.46996 30.0276 6.46537C29.4908 6.46328 28.9748 6.66778 28.5915 7.03451C28.2082 7.40125 27.9886 7.90063 27.9802 8.42434Z" fill="#A29632"/>
</svg>
