<svg width="120" height="120" viewBox="0 0 120 120" fill="none" xmlns="http://www.w3.org/2000/svg">
<path d="M49.4156 93.3004V83.305C48.7097 83.361 48.0373 83.4731 47.3538 83.4731C42.1245 83.4731 36.9288 83.4731 31.7668 83.4731C30.808 83.5326 29.849 83.3599 28.9712 82.9698C28.0934 82.5796 27.3226 81.9835 26.7243 81.232C25.7023 80.0175 25.1043 78.5029 25.021 76.9178C25.021 76.2455 25.3124 75.9205 26.0183 75.9093C26.7243 75.8981 27.2958 75.9093 27.9345 75.9093C28.1954 75.937 28.4584 75.8814 28.6858 75.7506C28.9132 75.6198 29.0934 75.4204 29.2007 75.181C31.6659 70.6016 34.1386 66.0185 36.6188 61.4317C36.7592 61.2425 36.8263 61.0089 36.8078 60.7741C36.7892 60.5392 36.6863 60.319 36.518 60.1542C36.1232 59.6661 35.8507 59.0909 35.723 58.4762C35.5953 57.8616 35.6162 57.2254 35.7839 56.6204C35.9516 56.0155 36.2612 55.4593 36.6871 54.9981C37.1129 54.5369 37.6427 54.184 38.2324 53.9688C38.5126 53.8567 38.7031 53.767 38.7031 53.3973C38.7031 48.041 38.7031 42.6847 38.7031 37.3284C38.7106 37.2128 38.7106 37.0967 38.7031 36.9811C37.8626 36.9811 37.0222 36.9811 36.1818 36.9811C36.1034 36.9811 36.0025 37.1604 35.9577 37.2724C35.9129 37.3845 35.868 37.6534 35.812 37.8439C35.7 38.2585 35.4758 38.5498 34.994 38.5162C34.8062 38.5139 34.626 38.4413 34.4891 38.3127C34.3522 38.1841 34.2684 38.0088 34.2544 37.8215C34.176 37.5301 34.1088 37.2388 34.0415 36.925C32.3719 36.925 30.6798 36.925 29.0662 36.925C28.5864 36.9787 28.1019 36.8798 27.6815 36.6425C27.2611 36.4051 26.9262 36.0413 26.7243 35.6028C26.4904 35.1293 26.3918 34.6005 26.4392 34.0746C26.4867 33.5487 26.6784 33.046 26.9932 32.6221C27.18 32.3614 27.4278 32.1506 27.715 32.008C28.0021 31.8654 28.3199 31.7954 28.6404 31.8041C30.2652 31.8041 31.8788 31.8041 33.4925 31.8041C34.0191 31.8041 34.1872 31.6248 34.1424 31.143C34.1256 30.9641 34.1256 30.784 34.1424 30.6051C34.2096 29.9888 34.4225 29.8095 35.0276 29.8095C35.6327 29.8095 35.7784 29.9551 35.8568 30.5939C35.8568 30.9524 35.9241 31.2998 35.9577 31.7144H38.6919C38.7591 31.2662 38.8487 30.7956 38.9048 30.3249C38.9608 29.8543 39.2297 29.7871 39.6219 29.8095C40.0141 29.8319 40.3727 29.9103 40.4175 30.4034C40.4623 30.8964 40.496 31.2438 40.5408 31.7144H47.8132C47.7996 31.1716 47.8259 30.6286 47.8917 30.0896C47.9841 29.5494 48.2039 29.039 48.5329 28.6006C48.8618 28.1623 49.2904 27.8085 49.7832 27.5687C50.276 27.3288 50.8188 27.2098 51.3668 27.2214C51.9147 27.2331 52.452 27.3751 52.9342 27.6356C53.3488 27.8485 53.5281 27.7701 53.7858 27.4227C54.2665 26.742 54.9786 26.2596 55.7891 26.0657C56.5996 25.8719 57.4529 25.9798 58.1896 26.3694C58.3324 26.4543 58.4974 26.4943 58.6632 26.4843C58.8291 26.4743 58.9881 26.4148 59.1197 26.3133C59.5791 26.022 60.0721 25.7755 60.5316 25.4729C60.9154 25.1925 61.3785 25.0413 61.8538 25.0413C62.3292 25.0413 62.7923 25.1925 63.1761 25.4729C63.7246 25.8368 64.2974 26.1625 64.8906 26.4478C64.9953 26.4913 65.1077 26.5136 65.2211 26.5136C65.3346 26.5136 65.4469 26.4913 65.5517 26.4478C66.2357 26.0759 67.0263 25.9487 67.7924 26.0872C68.5586 26.2258 69.2545 26.6218 69.765 27.2098C70.3074 27.832 70.6129 28.6256 70.6278 29.4509C70.6278 30.2017 70.6278 30.9412 70.6278 31.692H79.4354C79.4354 31.255 79.5139 30.818 79.5475 30.3809C79.5811 29.9439 79.9845 29.8095 80.3879 29.7983C80.7913 29.7871 81.1163 29.9215 81.1611 30.4034C81.2059 30.8852 81.2395 31.2438 81.2843 31.7032H84.0297L84.1306 30.4482C84.1306 29.9888 84.4443 29.8207 84.8813 29.7983C85.3184 29.7759 85.7106 29.8655 85.789 30.3922C85.8674 30.9188 85.8898 31.2998 85.9459 31.7929H86.8311C88.2878 31.7929 89.7334 31.7929 91.1901 31.7929C91.5162 31.7923 91.8389 31.8585 92.1384 31.9874C92.4379 32.1164 92.7078 32.3053 92.9315 32.5426C93.1551 32.7799 93.3278 33.0605 93.4388 33.3671C93.5498 33.6738 93.5968 33.9999 93.5769 34.3253C93.5973 34.6639 93.5469 35.003 93.429 35.3211C93.3111 35.6391 93.1283 35.9291 92.8922 36.1726C92.6561 36.4161 92.3718 36.6078 92.0575 36.7354C91.7433 36.863 91.4059 36.9238 91.0668 36.9138C89.5653 36.9138 88.0525 36.9138 86.5846 36.9138H86.0019C85.9573 37.2592 85.8708 37.5979 85.7442 37.9223C85.6118 38.1738 85.3929 38.3688 85.1279 38.4714C85.0508 38.5007 84.9682 38.5126 84.886 38.5063C84.8038 38.5001 84.724 38.4757 84.6523 38.435C84.5806 38.3944 84.5188 38.3384 84.4712 38.2711C84.4236 38.2037 84.3915 38.1267 84.3771 38.0456C84.1418 36.925 83.4022 36.8354 82.4833 36.925C82.0915 36.9475 81.6986 36.9475 81.3068 36.925C81.3068 37.1379 81.3068 37.2724 81.3068 37.4069V53.2628C81.2839 53.3899 81.3076 53.521 81.3734 53.6321C81.4393 53.7432 81.5429 53.8269 81.6653 53.8679C82.3062 54.0808 82.8827 54.4525 83.3412 54.9483C83.7996 55.4441 84.1251 56.0479 84.2873 56.7034C84.4495 57.3589 84.4431 58.0448 84.2688 58.6972C84.0944 59.3496 83.7578 59.9472 83.2901 60.4344L83.066 60.7145L85.1951 64.6813C87.0664 68.1214 88.9378 71.5616 90.7979 75.0129C90.9118 75.2614 91.0977 75.47 91.3314 75.6118C91.5651 75.7537 91.8359 75.8221 92.1089 75.8085C92.7589 75.8085 93.42 75.8085 94.0699 75.8085C94.7199 75.8085 95 76.0886 95 76.7609C94.9962 78.2533 94.4833 79.6997 93.546 80.8611C92.6088 82.0225 91.3033 82.8292 89.8454 83.1481C89.2017 83.292 88.544 83.3634 87.8844 83.361H70.527V93.1771H93.7786C94.5406 93.1771 94.8991 93.4237 94.8991 93.9952C94.9134 94.1015 94.905 94.2096 94.8745 94.3125C94.8441 94.4153 94.7922 94.5106 94.7224 94.5921C94.6526 94.6735 94.5664 94.7393 94.4694 94.7851C94.3724 94.8309 94.2668 94.8558 94.1596 94.858C93.6889 94.914 93.2071 94.9476 92.7365 94.9588H78.3597L26.489 94.8804C26.1571 94.9071 25.8236 94.8573 25.5141 94.7347C25.302 94.621 25.1299 94.445 25.021 94.2305C24.9995 94.1516 24.9944 94.0692 25.0062 93.9883C25.018 93.9075 25.0463 93.8299 25.0894 93.7605C25.1325 93.6911 25.1895 93.6313 25.2568 93.5849C25.3241 93.5385 25.4002 93.5065 25.4805 93.4909C25.7817 93.3971 26.095 93.3481 26.4105 93.3452H49.4156V93.3004ZM40.5072 37.0819C40.5072 37.2164 40.5072 37.3284 40.5072 37.4293C40.5072 42.7631 40.5072 48.1008 40.5072 53.4421C40.4932 53.5688 40.5267 53.6962 40.6012 53.7997C40.6757 53.9032 40.7859 53.9754 40.9106 54.0024C41.3136 54.1636 41.691 54.3825 42.0311 54.6523C42.4665 54.9855 42.8276 55.4058 43.0915 55.8863C43.3553 56.3669 43.5161 56.8972 43.5636 57.4433C43.611 57.9895 43.5441 58.5395 43.3671 59.0584C43.19 59.5773 42.9068 60.0535 42.5354 60.4568C42.4329 60.5473 42.3655 60.671 42.345 60.8062C42.3245 60.9414 42.3522 61.0795 42.4233 61.1964C44.586 65.1631 46.7263 69.1411 48.8777 73.1079C48.9674 73.276 49.2027 73.3545 49.3596 73.4777L49.5053 73.3657V72.7829C49.5053 69.0403 49.5053 65.2976 49.5053 61.5773C49.5053 60.1878 49.5053 60.1879 50.906 60.0198C51.2309 60.0198 51.3654 59.8629 51.3542 59.5155C51.3553 58.3495 51.0869 57.199 50.5698 56.1538C50.0095 55.0333 49.3596 53.9912 48.8217 52.8706C48.1067 51.376 47.7645 49.7304 47.8244 48.0746C47.8244 47.3238 48.508 46.8868 49.0458 47.3014C49.3149 47.544 49.4796 47.8813 49.5053 48.2427C49.6411 50.1209 50.2087 51.9424 51.1637 53.5653C52.2929 55.266 52.9397 57.2411 53.035 59.2802C53.035 59.8069 53.1583 59.9638 53.7074 59.9638C57.8086 59.9638 61.8987 59.9638 66.0335 59.9638C66.7619 59.9638 66.7507 59.9638 66.7955 59.2242C66.8045 57.2228 67.483 55.2821 68.7229 53.711C69.5409 52.7249 70.4709 51.8509 71.3226 50.8984C72.7781 49.5073 73.8245 47.7439 74.3481 45.7999C74.7326 43.3433 74.8491 40.8523 74.6954 38.3705C74.6722 38.1806 74.6092 37.9977 74.5108 37.8337C74.4124 37.6696 74.2806 37.528 74.124 37.4181C73.6907 37.1546 73.1965 37.008 72.6896 36.9923C69.9107 36.9923 67.0868 36.9923 64.3415 36.9923H63.9269C63.9023 37.8709 64.2229 38.7241 64.8198 39.3692C65.4168 40.0143 66.2426 40.4 67.1205 40.4436C68.0393 40.4436 68.9582 40.4436 69.877 40.4436C70.7959 40.4436 70.9192 40.7349 70.9416 41.5642C70.9416 41.9451 70.9416 42.3373 70.9416 42.6847C70.9416 44.0406 70.8743 44.0966 69.5185 44.2311C68.074 44.3418 66.7 44.8999 65.5874 45.8277C64.4748 46.7556 63.679 48.007 63.3106 49.4081C63.1475 50.0763 63.024 50.7535 62.9408 51.4363C62.8511 52.019 62.5934 52.2879 62.1116 52.2879C61.6297 52.2879 61.316 51.9966 61.2599 51.3915C61.2487 51.2684 61.2487 51.1447 61.2599 51.0217C61.3117 49.3063 61.8719 47.6449 62.8694 46.2484C63.8669 44.8518 65.2568 43.7831 66.8627 43.1778L68.1962 42.6175C66.8179 42.1805 65.4957 41.7434 64.1622 41.3736C63.8547 41.297 63.5302 41.3287 63.2433 41.4633C62.5889 41.7715 61.8544 41.8669 61.1429 41.7363C60.4315 41.6056 59.7788 41.2555 59.2765 40.7349C59.1421 40.5893 59.03 40.3988 58.8955 40.2195C56.5984 41.7658 54.8055 41.0711 53.2927 39.1661C52.738 39.5497 52.0894 39.7753 51.4163 39.8187C50.7433 39.8622 50.0711 39.7218 49.4716 39.4127C49.4716 39.8385 49.4716 40.1858 49.4716 40.5332C49.4716 41.0599 49.4716 41.5978 49.4044 42.1244C49.4003 42.2232 49.3761 42.32 49.3334 42.4091C49.2906 42.4982 49.2302 42.5776 49.1558 42.6426C49.0813 42.7076 48.9945 42.7568 48.9004 42.7871C48.8064 42.8175 48.7072 42.8284 48.6088 42.8192C48.4118 42.823 48.2205 42.7525 48.0731 42.6217C47.9257 42.4908 47.8329 42.3093 47.8132 42.1132C47.7963 41.9194 47.7963 41.7244 47.8132 41.5305C47.8132 40.2195 47.8132 38.9084 47.8132 37.5974C47.8132 37.1715 47.7236 37.0035 47.2529 37.0147C45.1687 37.0147 43.0732 37.0147 40.9778 37.0147L40.5072 37.0819ZM68.6332 93.2892C68.6332 93.0203 68.6332 92.7625 68.6332 92.5048C68.6332 89.4345 68.6332 86.3641 68.6332 83.305C68.6442 83.0242 68.5903 82.7447 68.4756 82.4881C68.361 82.2316 68.1886 82.0049 67.9721 81.8259C67.2668 81.225 66.7009 80.4777 66.3139 79.6358C65.9268 78.794 65.7279 77.878 65.731 76.9514C65.731 76.2231 65.9887 75.9653 66.7171 75.9429C67.1426 75.9205 67.569 75.9205 67.9945 75.9429C68.4651 75.9429 68.6108 75.8421 68.5996 75.3602C68.5996 73.2872 68.5996 71.2142 68.5996 69.1411C68.5996 68.973 68.5996 68.805 68.5996 68.6257H51.3542C51.3257 68.6616 51.3065 68.7039 51.2982 68.749C51.2982 70.9901 51.2982 73.3208 51.2982 75.6068C51.2982 75.7188 51.5223 75.9093 51.6455 75.9205C52.1386 75.9205 52.6428 75.9205 53.1359 75.9205C53.9091 75.9205 54.1892 76.2231 54.1668 77.0411C54.1599 77.9433 53.9557 78.8331 53.5686 79.648C53.1814 80.463 52.6207 81.1833 51.9257 81.7586C51.6849 81.9504 51.4932 82.1969 51.3665 82.4775C51.2399 82.7581 51.1819 83.0648 51.1973 83.3722C51.1973 86.1624 51.1973 88.975 51.1973 91.7428V93.3004L68.6332 93.2892ZM92.9942 77.6574H87.2681C87.0207 77.6898 86.7691 77.6549 86.5398 77.5565C86.2746 77.3856 86.0828 77.1219 86.0019 76.817C86.0171 76.6856 86.0583 76.5586 86.1231 76.4433C86.1879 76.328 86.2749 76.2267 86.3792 76.1454C86.4835 76.064 86.6029 76.0042 86.7305 75.9695C86.8581 75.9347 86.9913 75.9257 87.1225 75.9429H89.0722C88.949 75.6852 88.8817 75.5059 88.7921 75.3378C86.551 71.203 84.3099 67.0681 82.136 62.9444C81.9566 62.6149 81.7259 62.3161 81.4524 62.0592C81.2563 61.8871 81.0253 61.7593 80.7753 61.6845C80.5253 61.6098 80.2621 61.5898 80.0037 61.626C79.7452 61.6621 79.4976 61.7536 79.2778 61.8941C79.0579 62.0346 78.8709 62.2209 78.7295 62.4402C76.4883 66.5713 74.2472 70.7024 72.0061 74.8336C71.8156 75.181 71.6699 75.5395 71.4682 75.9541H81.0154V77.6574H67.6023C67.7004 78.4757 68.0222 79.2512 68.5324 79.8985C69.0527 80.52 69.71 81.0125 70.4528 81.3372C71.1955 81.6618 72.0033 81.81 72.8129 81.7699H87.5931C88.0879 81.7697 88.582 81.736 89.0722 81.669C90.0786 81.5168 91.0071 81.0387 91.7156 80.308C92.424 79.5773 92.8732 78.6343 92.9942 77.6238V77.6574ZM70.4485 73.332C70.8855 73.5449 70.9976 73.2648 71.1321 73.0071C73.1939 69.1747 75.2557 65.3424 77.3512 61.5213C77.493 61.3321 77.563 61.0986 77.5486 60.8626C77.5342 60.6266 77.4365 60.4033 77.2727 60.2327C76.8425 59.7382 76.5426 59.144 76.4005 58.5041C76.2583 57.8642 76.2783 57.1989 76.4587 56.5687C76.6391 55.9385 76.9741 55.3634 77.4333 54.8956C77.8925 54.4279 78.4613 54.0823 79.088 53.8903C79.211 53.8537 79.3159 53.7726 79.3822 53.6627C79.4485 53.5529 79.4715 53.4223 79.4466 53.2964V37.4853C79.4562 37.3211 79.4562 37.1565 79.4466 36.9923C78.6174 36.9923 77.8218 36.9923 77.0262 36.9923C76.5892 36.9923 76.4435 37.0931 76.4659 37.5526C76.522 39.1886 76.5332 40.8134 76.578 42.4494C76.7085 45.3862 75.7329 48.2651 73.8438 50.5174C72.7233 51.7949 71.6699 53.0387 70.5606 54.2825C69.4362 55.482 68.7492 57.0257 68.6108 58.6639C68.51 59.8405 68.4988 59.8741 69.6417 60.0534C69.7604 60.052 69.8779 60.0765 69.9861 60.1251C70.0943 60.1737 70.1907 60.2452 70.2685 60.3348C70.3463 60.4243 70.4037 60.5297 70.4368 60.6437C70.4698 60.7576 70.4776 60.8774 70.4597 60.9947C70.4597 62.3954 70.4597 63.7961 70.4597 65.1968C70.4597 67.8861 70.4485 70.5755 70.4485 73.2984V73.332ZM30.9152 75.8085H48.3175C48.2166 75.5844 48.1494 75.4275 48.0709 75.2706C45.8298 71.117 43.5887 66.9635 41.3476 62.81C41.1839 62.5182 40.976 62.2537 40.7313 62.0256C40.531 61.85 40.2945 61.7207 40.0386 61.6468C39.7826 61.5728 39.5136 61.5561 39.2505 61.5979C38.9875 61.6396 38.7368 61.7386 38.5163 61.8881C38.2958 62.0375 38.1109 62.2337 37.9747 62.4626C35.7336 66.6087 33.4925 70.7547 31.2513 74.9008C31.1729 75.181 31.0608 75.4723 30.9152 75.8085ZM52.2058 77.691H26.8924C26.8866 77.7544 26.8866 77.8181 26.8924 77.8815C27.1261 79.0146 27.7571 80.0268 28.6714 80.7357C29.5857 81.4445 30.7233 81.8033 31.8788 81.7474H47.0961C47.5043 81.7435 47.9121 81.7174 48.3175 81.669C49.3215 81.5336 50.2527 81.0702 50.9661 80.3507C51.6795 79.6313 52.135 78.6962 52.2618 77.691H52.2058ZM51.2645 66.7207H51.5559H68.2074C68.5772 66.7207 68.6444 66.5638 68.6332 66.2389V62.048C68.6426 61.9399 68.6426 61.8311 68.6332 61.723H51.3206L51.2645 66.7207ZM62.8175 39.7712C62.6382 39.2446 62.4701 38.7403 62.3133 38.2361C62.0996 37.7548 62.0622 37.2136 62.2077 36.7075C62.3531 36.2014 62.6722 35.7627 63.1089 35.4683C63.2299 35.3886 63.3332 35.2847 63.4122 35.1632C63.4913 35.0418 63.5444 34.9053 63.5683 34.7623C63.5683 32.6445 63.5683 30.5154 63.5683 28.3864C63.5598 28.1729 63.5086 27.9633 63.4179 27.7699C63.3272 27.5764 63.1987 27.4031 63.04 27.26C62.8813 27.117 62.6956 27.0072 62.4938 26.937C62.292 26.8667 62.0783 26.8376 61.865 26.8512C61.6158 26.8435 61.3679 26.8891 61.1378 26.9851C60.9077 27.0811 60.7008 27.2253 60.531 27.4078C60.3612 27.5904 60.2324 27.8071 60.1532 28.0435C60.0741 28.28 60.0464 28.5306 60.0721 28.7786C60.0721 31.8638 60.0721 34.9454 60.0721 38.0232C60.0721 39.6592 61.2263 40.4436 62.8175 39.7712ZM54.8391 33.5633C54.8391 34.8968 54.8391 36.2303 54.8391 37.5526C54.8215 37.7848 54.8533 38.0181 54.9324 38.2371C55.0116 38.4562 55.1363 38.656 55.2983 38.8233C55.4603 38.9906 55.6559 39.1216 55.8723 39.2078C56.0887 39.2939 56.3209 39.3332 56.5536 39.323C56.7895 39.3356 57.0254 39.299 57.2464 39.2154C57.4674 39.1319 57.6685 39.0034 57.8372 38.8379C58.0058 38.6725 58.1381 38.4737 58.2258 38.2544C58.3135 38.035 58.3546 37.7998 58.3465 37.5637C58.3465 34.8595 58.3465 32.1664 58.3465 29.4845C58.3584 29.1294 58.256 28.7798 58.0542 28.4873C57.8525 28.1947 57.5621 27.9747 57.2259 27.8597C56.97 27.7422 56.6889 27.6904 56.4079 27.709C56.127 27.7276 55.8551 27.8161 55.617 27.9663C55.3789 28.1165 55.182 28.3238 55.0442 28.5693C54.9064 28.8149 54.8321 29.0909 54.8279 29.3725C54.8055 30.7619 54.8391 32.1626 54.8391 33.5633ZM53.0462 33.5633C53.0462 32.6333 53.0462 31.692 53.0462 30.7508C53.0656 30.5087 53.0346 30.2652 52.9553 30.0357C52.8759 29.8061 52.7499 29.5955 52.5852 29.4171C52.4205 29.2386 52.2206 29.0962 51.9981 28.9989C51.7756 28.9015 51.5354 28.8512 51.2926 28.8512C51.0497 28.8512 50.8095 28.9015 50.587 28.9989C50.3645 29.0962 50.1646 29.2386 49.9999 29.4171C49.8352 29.5955 49.7092 29.8061 49.6298 30.0357C49.5505 30.2652 49.5195 30.5087 49.5389 30.7508C49.5389 32.5773 49.5389 34.4038 49.5389 36.2191C49.5389 36.4501 49.5844 36.6789 49.6728 36.8923C49.7612 37.1058 49.8908 37.2997 50.0542 37.4631C50.2175 37.6264 50.4115 37.756 50.6249 37.8444C50.8384 37.9328 51.0671 37.9783 51.2982 37.9783C51.5292 37.9783 51.758 37.9328 51.9714 37.8444C52.1848 37.756 52.3788 37.6264 52.5422 37.4631C52.7055 37.2997 52.8351 37.1058 52.9235 36.8923C53.0119 36.6789 53.0574 36.4501 53.0574 36.2191C53.035 35.3338 53.035 34.4486 53.035 33.5522L53.0462 33.5633ZM68.9022 35.2554C68.9022 33.216 68.9022 31.255 68.9022 29.2828C68.8661 28.8625 68.6754 28.4706 68.367 28.1828C68.0585 27.8951 67.6543 27.732 67.2325 27.7252C66.8122 27.6745 66.3889 27.7922 66.0551 28.0525C65.7213 28.3129 65.504 28.6948 65.4508 29.1147C65.4508 31.0421 65.4508 32.9807 65.4508 34.908C65.4709 34.9894 65.5128 35.0637 65.5721 35.123C65.6313 35.1822 65.7056 35.2241 65.787 35.2442C66.7843 35.2554 67.804 35.2442 68.9022 35.2442V35.2554ZM82.5506 57.7563C82.5506 57.1619 82.3145 56.5918 81.8942 56.1715C81.4739 55.7513 80.9038 55.5151 80.3095 55.5151C79.7151 55.5151 79.145 55.7513 78.7247 56.1715C78.3045 56.5918 78.0683 57.1619 78.0683 57.7563C78.0683 58.3506 78.3045 58.9207 78.7247 59.341C79.145 59.7613 79.7151 59.9974 80.3095 59.9974C80.6047 59.9974 80.8971 59.939 81.1697 59.8257C81.4423 59.7124 81.6899 59.5463 81.8981 59.337C82.1064 59.1277 82.2712 58.8793 82.3832 58.6061C82.4952 58.3329 82.5521 58.0403 82.5506 57.745V57.7563ZM37.392 57.7563C37.392 58.3506 37.6281 58.9207 38.0484 59.341C38.4687 59.7613 39.0387 59.9974 39.6331 59.9974C40.2275 59.9974 40.7975 59.7613 41.2178 59.341C41.6381 58.9207 41.8742 58.3506 41.8742 57.7563C41.8742 57.1619 41.6381 56.5918 41.2178 56.1715C40.7975 55.7513 40.2275 55.5151 39.6331 55.5151C39.3388 55.5092 39.0462 55.5613 38.772 55.6684C38.4978 55.7756 38.2474 55.9358 38.0352 56.1397C37.8229 56.3437 37.6529 56.5874 37.5348 56.8571C37.4168 57.1268 37.353 57.4171 37.3472 57.7114L37.392 57.7563ZM79.4242 33.6082H70.6502C70.6728 33.9514 70.6728 34.2958 70.6502 34.6391C70.6502 35.1097 70.7735 35.2442 71.2441 35.2442C73.799 35.2442 76.3427 35.2442 78.8976 35.2442H79.4354L79.4242 33.6082ZM47.7236 33.6082H40.5184V35.2218H47.7236V33.6082ZM34.0864 33.6082C32.271 33.6082 30.523 33.6082 28.7749 33.6082C28.663 33.6116 28.5533 33.64 28.4538 33.6913C28.3543 33.7426 28.2676 33.8155 28.1999 33.9047C28.1322 33.9939 28.0853 34.097 28.0627 34.2066C28.04 34.3163 28.0422 34.4296 28.0689 34.5383C28.0689 35.0425 28.4387 35.3002 29.0887 35.3002H34.0864V33.6082ZM85.8898 35.289H90.966C91.1889 35.2771 91.3979 35.1772 91.5471 35.0112C91.6963 34.8451 91.7735 34.6266 91.7616 34.4038C91.7497 34.1809 91.6497 33.9719 91.4837 33.8227C91.3177 33.6734 91.0992 33.5963 90.8763 33.6082H86.5846H85.8898V35.289ZM35.9353 35.289C36.7673 35.3453 37.6021 35.3453 38.4341 35.289C39.0056 35.2106 38.647 34.6167 38.7031 34.2693C38.7591 33.9219 38.8823 33.6754 38.4341 33.6642C37.6161 33.6642 36.7869 33.6642 35.9353 33.6642V35.289ZM81.2731 33.6306V35.233H83.9961V33.6306H81.2731Z" fill="#486767"/>
</svg>
