<svg width="18" height="14" viewBox="0 0 18 14" fill="none" xmlns="http://www.w3.org/2000/svg">
<path id="Vector" d="M14.95 0H3.05C2.3737 0 1.7251 0.276562 1.24688 0.768845C0.76866 1.26113 0.5 1.92881 0.5 2.625V11.375C0.5 12.0712 0.76866 12.7389 1.24688 13.2312C1.7251 13.7234 2.3737 14 3.05 14H14.95C15.6263 14 16.2749 13.7234 16.7531 13.2312C17.2313 12.7389 17.5 12.0712 17.5 11.375V2.625C17.5 1.92881 17.2313 1.26113 16.7531 0.768845C16.2749 0.276562 15.6263 0 14.95 0ZM14.95 1.75L9.425 5.66125C9.29578 5.73805 9.14921 5.77848 9 5.77848C8.85079 5.77848 8.70422 5.73805 8.575 5.66125L3.05 1.75H14.95Z" fill="#486767"/>
</svg>
