<svg width="16" height="20" viewBox="0 0 16 20" fill="none" xmlns="http://www.w3.org/2000/svg">
<path id="Vector" d="M6.1176 8.54141L7.79327 7.04766C8.25146 6.63843 8.57349 6.10531 8.71805 5.51674C8.86261 4.92817 8.8231 4.31099 8.60459 3.74442L7.89001 1.88786C7.62304 1.19475 7.09452 0.626752 6.41213 0.299574C5.72973 -0.0276034 4.94481 -0.0893409 4.21726 0.12694C1.53993 0.923908 -0.518001 3.34517 0.115447 6.22033C0.532025 8.1118 1.3293 10.486 2.83959 13.012C4.353 15.5441 6.08172 17.4143 7.56392 18.7289C9.80127 20.71 12.9997 20.2151 15.0576 18.3479C15.6093 17.8475 15.944 17.1612 15.9936 16.4289C16.0432 15.6967 15.8039 14.9736 15.3244 14.4071L14.0139 12.8587C13.6186 12.3905 13.0884 12.048 12.4914 11.8754C11.8944 11.7028 11.258 11.708 10.6641 11.8902L8.49849 12.5536C7.93923 11.992 7.44914 11.369 7.03813 10.697C6.64142 10.0175 6.33225 9.29298 6.1176 8.53989" fill="#332D2B"/>
</svg>
