<svg width="16" height="20" viewBox="0 0 16 20" fill="none" xmlns="http://www.w3.org/2000/svg">
<path id="Vector" d="M8 0C6.0116 0.00245748 4.10531 0.831051 2.6993 2.30402C1.29328 3.77699 0.502354 5.77405 0.500008 7.85714C0.497626 9.55945 1.0284 11.2156 2.01092 12.5714C2.01092 12.5714 2.21546 12.8536 2.24887 12.8943L8 20L13.7539 12.8907C13.7839 12.8529 13.9891 12.5714 13.9891 12.5714L13.9898 12.5693C14.9718 11.214 15.5023 9.55866 15.5 7.85714C15.4976 5.77405 14.7067 3.77699 13.3007 2.30402C11.8947 0.831051 9.9884 0.00245748 8 0ZM8 10.7143C7.4606 10.7143 6.93331 10.5467 6.48481 10.2328C6.03631 9.91882 5.68675 9.4726 5.48033 8.95052C5.27391 8.42845 5.2199 7.85397 5.32513 7.29974C5.43037 6.74551 5.69011 6.23642 6.07153 5.83684C6.45294 5.43726 6.9389 5.16514 7.46794 5.0549C7.99697 4.94466 8.54534 5.00124 9.04368 5.21749C9.54202 5.43374 9.96797 5.79994 10.2676 6.2698C10.5673 6.73965 10.7273 7.29205 10.7273 7.85714C10.7264 8.61461 10.4387 9.34079 9.92747 9.8764C9.41621 10.412 8.72304 10.7133 8 10.7143Z" fill="#332D2B"/>
</svg>
